<?xml version="1.0" encoding="UTF-8" standalone="no"?>
<svg xmlns="http://www.w3.org/2000/svg" xmlns:sodipodi="http://sodipodi.sourceforge.net/DTD/sodipodi-0.dtd" xmlns:inkscape="http://www.inkscape.org/namespaces/inkscape" width="39.31" height="49.871" version="1.1">
 <metadata id="metadata5724"/>
 <g inkscape:label="Calque 1" inkscape:groupmode="layer" id="layer1" transform="translate(-355.344,-507.42692)">
  <path d="m 370.1931,507.42692 -4.1731,0.22119 c -5.9095,0 -10.676,4.75174 -10.676,10.66126 l 0,28.32683 c 0,5.90953 4.7665,10.66124 10.676,10.66124 l 4.8072,0 11.9294,-2.8312 -11.6197,2.6395 c -5.9095,0 -10.6761,-4.7517 -10.6761,-10.66123 l 0,-28.31208 c 0,-5.6848 4.4023,-10.30345 9.9977,-10.64653 l -0.2654,-0.0589 z m -2.551,8.16921 c -0.1208,2.43687 -0.096,4.7634 -0.089,7.12226 5.7855,1.21571 11.2331,3.62302 15.1587,8.1987 3.7735,4.58639 6.0969,9.95722 6.1638,15.94027 1.8688,-0.37407 3.7879,-0.73594 5.7804,-1.00272 -0.2449,-7.07629 -1.9235,-13.96628 -6.9895,-19.21384 -5.2298,-5.81437 -12.1686,-10.07821 -20.0249,-11.04467 z m -0.015,11.98839 c 0.04,2.30561 0.056,4.63152 0.015,6.96006 3.281,0.0589 6.1493,1.56223 8.2724,4.05516 2.3261,2.95182 3.4951,6.45246 3.9814,10.15988 1.714,-0.36503 3.4459,-0.74348 5.2053,-1.12071 -0.5831,-4.98173 -1.7503,-9.88547 -5.279,-13.66942 -3.2763,-3.43726 -7.3478,-6.04744 -12.1949,-6.38497 z m 3.5685,13.49244 c -0.1168,-8.8e-4 -0.2339,-7e-4 -0.3539,0.0149 -0.9602,0.12387 -1.8417,0.77138 -2.4921,1.75471 -0.6504,0.98333 -1.0846,2.30335 -1.0912,3.67171 -0.01,1.36845 0.4378,2.51091 1.165,3.24413 0.7271,0.73314 1.7372,1.05913 2.7427,0.84051 1.0055,-0.21861 1.8176,-0.92744 2.3741,-1.90226 0.5564,-0.97473 0.8668,-2.21054 0.8257,-3.48003 -0.041,-1.26949 -0.4454,-2.3509 -1.0764,-3.09657 -0.5522,-0.65252 -1.2765,-1.04044 -2.0939,-1.04702 z" id="path5038" inkscape:connector-curvature="0" opacity="0.8" fill="#ffffff"/>
 </g>
</svg>
