<?xml version="1.0" encoding="UTF-8" standalone="no"?>
<svg xmlns="http://www.w3.org/2000/svg" xmlns:sodipodi="http://sodipodi.sourceforge.net/DTD/sodipodi-0.dtd" xmlns:inkscape="http://www.inkscape.org/namespaces/inkscape" width="32" height="25.995" version="1.1">
 <metadata id="metadata6511"/>
 <g inkscape:label="Calque 1" inkscape:groupmode="layer" id="layer1" transform="translate(-440.23149,-549.389)">
  <g id="g8604" inkscape:label="ink_ext_XXXXXX" transform="matrix(0.56442113,0,0,-0.56442113,436.83846,611.60436)" opacity="0.8">
   <g id="g8606" transform="matrix(0.1,0,0,0.1,0.2,58.4)" opacity="0.8">
    <path inkscape:connector-curvature="0" d="m 353.668,259.336 c 1.059,18.906 10.32,35.566 24.285,47.375 l 0,0 c 13.707,11.602 32.145,18.691 52.266,18.691 l 0,0 c 20.101,0 38.539,-7.089 52.246,-18.691 l 0,0 c 13.965,-11.809 23.223,-28.469 24.289,-47.356 1.062,-19.433 -6.746,-37.48 -20.449,-50.859 l 0,0 C 472.336,194.883 452.469,186.34 430.219,186.34 l 0,0 c -22.25,0 -42.156,8.543 -56.121,22.156 l 0,0 c -13.707,13.379 -21.496,31.426 -20.43,50.84" id="path8608"/>
    <path inkscape:connector-curvature="0" d="m 231.766,221.125 c 0.129,-7.402 2.492,-21.777 6.027,-33.008 l 0,0 c 7.441,-23.769 20.062,-45.762 37.629,-65.148 l 0,0 c 18.019,-19.91 40.207,-35.9182 65.836,-47.2737 l 0,0 c 26.941,-11.9336 56.129,-18.0078 86.449,-17.9609 l 0,0 c 30.27,0.039 59.461,6.2422 86.398,18.2617 l 0,0 c 25.629,11.4648 47.797,27.5389 65.797,47.4729 l 0,0 c 17.543,19.453 30.149,41.484 37.602,65.254 l 0,0 c 3.754,12.011 6.121,24.199 7.07,36.433 l 0,0 c 0.934,12.051 0.543,24.114 -1.172,36.172 l 0,0 c -3.339,23.508 -11.468,45.551 -23.984,65.656 -11.449,18.465 -26.215,34.641 -43.766,48.25 l 0,0 0.047,0.024 0,0 -177.113,135.996 0,0 c -0.152,0.121 -0.285,0.25 -0.457,0.359 l 0,0 c -11.625,8.922 -31.164,8.891 -43.941,-0.054 l 0,0 c -12.922,-9.036 -14.399,-23.985 -2.903,-33.418 l 0,0 -0.047,-0.043 0,0 73.867,-60.075 -225.148,-0.242 0,0 c -0.109,0 -0.215,0 -0.305,0 l 0,0 c -18.605,-0.015 -36.5,-12.222 -40.031,-27.66 l 0,0 c -3.644,-15.723 8.996,-28.762 28.344,-28.828 l 0,0 -0.027,-0.066 0,0 114.117,0.218 -203.637,-156.308 0,0 c -0.2578,-0.196 -0.543,-0.391 -0.7813,-0.586 l 0,0 C 58.4219,189.844 52.2227,165.383 64.3203,149.902 l 0,0 c 12.2774,-15.742 38.3907,-15.769 57.8007,-0.086 l 0,0 111.141,90.957 c 0,0 -1.625,-12.277 -1.496,-19.648 z M 517.359,180 c -22.902,-23.328 -54.957,-36.562 -89.652,-36.629 l 0,0 c -34.742,-0.058 -66.797,13.055 -89.699,36.348 l 0,0 c -11.192,11.347 -19.41,24.402 -24.485,38.32 l 0,0 c -4.964,13.66 -6.898,28.172 -5.617,42.813 l 0,0 c 1.215,14.316 5.469,27.957 12.274,40.316 l 0,0 c 6.679,12.133 15.875,23.105 27.242,32.387 l 0,0 c 22.25,18.14 50.594,27.953 80.238,28 l 0,0 c 29.668,0.043 57.988,-9.696 80.266,-27.77 l 0,0 c 11.34,-9.238 20.535,-20.172 27.215,-32.297 l 0,0 c 6.832,-12.336 11.058,-25.929 12.32,-40.285 l 0,0 c 1.254,-14.621 -0.672,-29.113 -5.641,-42.797 l 0,0 c -5.078,-13.941 -13.269,-27 -24.461,-38.406" id="path8610"/>
   </g>
  </g>
 </g>
</svg>
