<svg height="23.859" width="32" xmlns="http://www.w3.org/2000/svg"><path d="m455.60471 567.05879c-.14949.0246-.28233.11577-.37031.21783-.11728.13607-.19048.31016-.2614.5228-.12261.36776-.57696 1.72204-2.20004 3.07142-1.22372 1.01671-3.12102 2.00072-6.05579 2.48328-.53003-.30878-1.133-.50102-1.7644-.50102-.80301 0-1.55598.30669-2.17834.7842-3.95891-.29624-5.64185-3.79027-5.64185-3.79027l-.67523-1.37234v1.52482l-.0872 4.68338c-.27148.46723-.45922.99228-.45746 1.5466 0 .0366 0 .0725 0 .10892-.5978-.57453-1.29702-1.00083-2.00404-1.24164-.49209-.1677-.98366-.24866-1.45947-.21784-.47581.0308-.92609.1827-1.307.45745-.76165.54951-1.09687 1.50859-1.08911 2.54863.008 1.04004.35046 2.17329 1.04559 3.13677.69508.96348 1.6513 1.66869 2.63569 2.00405.59274.20187 1.20392.26948 1.76451.17426.50181.36464 1.03768.7255 1.63367 1.06734 2.50559 1.43678 5.72657 2.58275 8.84402 2.6358 2.03423.0346 4.02456-.41426 5.72895-1.54657.85858.46466 1.79144.90116 2.67927 1.21986.007.0147-.007.0287 0 .0435l.10896.34853.34855-.13063.0655-.0218.0655.0436.0655.0218 2.33072.84958c.0642.66632.49354 1.34421 1.30699 1.65552 1.75282.67071 3.37652 1.52482 3.37637 1.52482-.83584-2.83822-1.12577-5.10172-3.31103-4.90124-.23995.0222-.45322.0752-.63171.17426l-2.09114-1.30698-.0872-.0435-.0655-.0218-.0217-.0653-.13067-.43566-.34855.21776c-.53556-.34079-1.12447-.67176-1.72083-.95846.16727-.20542.34509-.40429.50099-.63167 2.01799-2.94391 3.00616-7.69117 2.2001-15.00858v-.0218c-.0264-.20093-.0711-.37247-.15249-.52279-.0814-.15032-.21844-.29321-.43565-.32675-.0544-.008-.10229-.008-.15254 0zm-15.85814 7.86371c.68867 0 1.31934.43989 1.5902 1.04559 0 .007 0 .0146 0 .0218-.0295.17881-.0662.3604-.0655.54458 0 .24465.0145.48439.0655.71884 0 .007 0 .0151 0 .0218 0 .007 0 .015 0 .0218-.26698.6142-.89564 1.06737-1.5902 1.06737-.92537 0-1.69917-.79495-1.69902-1.72087 0-.92591.77324-1.72086 1.69902-1.72086zm5.96863.15248c1.04999 0 1.96041.91031 1.96041 1.96049.00042 1.05016-.91042 1.9387-1.96041 1.9387-1.0506 0-1.9387-.88854-1.9387-1.9387 0-1.05018.8883-1.96049 1.9387-1.96049zm-5.53299.67528a.92386654.92386654 0 0 1  .0439.28318.92386654.92386654 0 0 1 -1.43777.76241 1.0143963 1.0143963 0 1 0  2.02585-.10892 1.0137699 1.0137699 0 0 0 -.63171-.93667zm-7.86366.28318a1.2322405 1.4786885 0 0 1 1.32876 1.48125 1.2322405 1.4786885 0 1 1 -2.4615 0 1.2322405 1.4786885 0 0 1  1.13274-1.48125zm13.8323.0871a.92386654.92386654 0 0 1  .0434.28318.92386654.92386654 0 0 1 -1.43767.76242 1.014363 1.014363 0 1 0  2.0258-.10892 1.0137699 1.0137699 0 0 0 -.63165-.93668zm1.89512 4.13876c0 0 1.62241.45254 2.20015 1.19811.24822.32107.31309.5932.30487.87133-.81484-.28148-1.46387-.48982-1.503-.50105-.0238-.011-.0419-.012-.0655-.0218-.21147-.0879-.41487-.12114-.6099-.0871.24988-.1429.47183-.3005.67529-.45741-.36969-.4777-1.00202-1.00196-1.00202-1.0021zm0 1.61203c-.0812.0615-.15377.13188-.19606.21776-.15951.32615-.0445.69379.21788.98027-1.60757.68814-4.20998.36115-7.51522-.806 3.74327.74884 6.01185.34602 7.4934-.39203zm10.95687 4.33481a.73301863.73301863 0 0 1  .0217 0 .73301863.73301863 0 0 1  .2614 1.43768.73301863.73301863 0 1 1 -.41384-1.39412.73301863.73301863 0 0 1  .13063-.0436z" fill="#191919" fill-opacity=".80000001" fill-rule="evenodd" transform="translate(-430.05294 -567.05293)"/></svg>