<?xml version="1.0" encoding="UTF-8" standalone="no"?>
<svg xmlns="http://www.w3.org/2000/svg" xmlns:sodipodi="http://sodipodi.sourceforge.net/DTD/sodipodi-0.dtd" xmlns:inkscape="http://www.inkscape.org/namespaces/inkscape" width="32" height="29.653" version="1.1">
 <metadata id="metadata6644"/>
 <g inkscape:label="Calque 1" inkscape:groupmode="layer" id="layer1" transform="translate(-591.73557,-495.2437)">
  <path d="m 615.42472,495.2437 -17.35228,15.59746 c 3.70349,2.60854 7.1205,5.36562 8.28258,9.2919 l 17.38055,-15.602 c -0.87341,-7.43153 -4.90156,-7.65198 -8.31085,-9.28736 z m 0.16257,0.97203 2.23901,2.50318 -15.76722,14.34134 -2.23893,-2.50327 z m 6.12319,6.46237 1.24902,1.37813 -16.08206,14.20262 -1.22074,-1.38268 z m -24.4878,8.9134 -3.67254,8.95244 c 0.61878,0.27759 1.15274,0.70194 1.60959,1.21351 0.48017,0.53836 0.79744,1.15929 1.00145,1.84517 l 9.37227,-2.72382 c -0.55614,-3.19418 -3.45812,-6.28408 -8.31077,-9.2873 z m 0.21977,1.91596 0.1096,1.14424 -2.92546,5.26614 z m -4.36021,8.1268 -1.34667,3.26203 3.34511,-0.961 c -0.18191,-0.50424 -0.44044,-0.98809 -0.80435,-1.39551 -0.34107,-0.38121 -0.74999,-0.6732 -1.19409,-0.90552 z" id="rect5820" inkscape:connector-curvature="0" sodipodi:nodetypes="cccccccccccccccccscccccccccccc" opacity="0.8" fill="#1a1a1a"/>
 </g>
</svg>
