<?xml version="1.0" encoding="UTF-8" standalone="no"?>
<svg
   xmlns:dc="http://purl.org/dc/elements/1.1/"
   xmlns:cc="http://creativecommons.org/ns#"
   xmlns:rdf="http://www.w3.org/1999/02/22-rdf-syntax-ns#"
   xmlns:svg="http://www.w3.org/2000/svg"
   xmlns="http://www.w3.org/2000/svg"
   xmlns:sodipodi="http://sodipodi.sourceforge.net/DTD/sodipodi-0.dtd"
   xmlns:inkscape="http://www.inkscape.org/namespaces/inkscape"
   height="30"
   width="80"
   version="1.1"
   id="svg14"
   sodipodi:docname="icon-tipeee-black.svg"
   inkscape:version="0.92.1 r">
  <metadata
     id="metadata20">
    <rdf:RDF>
      <cc:Work
         rdf:about="">
        <dc:format>image/svg+xml</dc:format>
        <dc:type
           rdf:resource="http://purl.org/dc/dcmitype/StillImage" />
        <dc:title></dc:title>
      </cc:Work>
    </rdf:RDF>
  </metadata>
  <defs
     id="defs18" />
  <sodipodi:namedview
     pagecolor="#ffffff"
     bordercolor="#666666"
     borderopacity="1"
     objecttolerance="10"
     gridtolerance="10"
     guidetolerance="10"
     inkscape:pageopacity="0"
     inkscape:pageshadow="2"
     inkscape:window-width="1280"
     inkscape:window-height="1371"
     id="namedview16"
     showgrid="false"
     inkscape:zoom="4.6147678"
     inkscape:cx="39.049281"
     inkscape:cy="-46.215699"
     inkscape:window-x="0"
     inkscape:window-y="27"
     inkscape:window-maximized="0"
     inkscape:current-layer="svg14" />
  <path
     style="clip-rule:evenodd;fill:#191919;fill-opacity:1;fill-rule:evenodd"
     inkscape:connector-curvature="0"
     id="path2"
     d="m 79.75588,12.02919 c -0.0724,0.11336 -0.0462,0.24821 -0.0826,0.37123 -0.17944,0.60673 -0.49229,1.14128 -0.86791,1.64289 -0.65141,0.86979 -1.41106,1.63813 -2.23859,2.33798 -2.20144,1.86162 -4.58651,3.448 -7.16948,4.73165 -1.57895,0.78464 -3.21189,1.43336 -4.91494,1.89682 -0.88707,0.2414 -1.78785,0.40418 -2.71235,0.3578 -1.01368,-0.0507 -1.94078,-0.33918 -2.71029,-1.03598 -0.20835,-0.18866 -0.38806,-0.40141 -0.54861,-0.63072 -0.0928,-0.13252 -0.0663,-0.15222 -0.24784,-0.0508 -0.72528,0.40535 -1.47276,0.76288 -2.25355,1.04977 -0.83603,0.30721 -1.69356,0.52497 -2.57983,0.61863 -0.91653,0.0968 -1.81542,0.0326 -2.67277,-0.34016 -0.65436,-0.28456 -1.17655,-0.72948 -1.57232,-1.32179 -0.10691,-0.16001 -0.0936,-0.14228 -0.24561,-0.0561 -0.88528,0.50214 -1.80047,0.93882 -2.76213,1.27612 -0.76861,0.26961 -1.55809,0.44457 -2.37228,0.44484 -1.64825,5.3e-4 -2.88963,-0.70057 -3.6501,-2.19114 -0.0226,-0.0442 -0.0469,-0.0877 -0.0714,-0.13109 -0.003,-0.006 -0.0113,-0.009 -0.0203,-0.0149 -0.28376,0.12957 -0.56876,0.26137 -0.8552,0.38986 -0.24122,0.10816 -0.49453,0.15052 -0.75429,0.0953 -0.51369,-0.10906 -0.82797,-0.62821 -0.71569,-1.17163 0.0651,-0.31509 0.23128,-0.54163 0.5401,-0.66949 0.40285,-0.16664 0.79682,-0.35431 1.18551,-0.553 0.0904,-0.0463 0.12151,-0.10154 0.11363,-0.20057 -0.0166,-0.20666 -0.0299,-0.41404 -0.0317,-0.62123 -0.0125,-1.40506 0.2175,-2.77816 0.55963,-4.13505 0.31581,-1.25258 0.74094,-2.4654 1.3482,-3.60945 0.69009,-1.3003 1.57591,-2.43782 2.76652,-3.32176 0.63439,-0.47098 1.32627,-0.81678 2.1033,-0.97992 0.55363,-0.11614 1.1068,-0.1379 1.6564,0.0214 0.66519,0.19269 1.13635,0.61755 1.44052,1.23108 0.32682,0.65902 0.42836,1.3577 0.35261,2.08727 -0.10378,1.00016 -0.46812,1.91464 -0.92692,2.79437 -0.86209,1.65318 -1.9192,3.17061 -3.20419,4.52517 -1.08415,1.14289 -2.28846,2.14108 -3.61205,2.99521 -0.0361,0.0234 -0.0712,0.0484 -0.10825,0.0699 -0.059,0.0345 -0.0707,0.0739 -0.0435,0.14165 0.31277,0.78267 0.82879,1.23028 1.73296,1.27496 0.66242,0.0328 1.29395,-0.1258 1.90882,-0.34768 0.97169,-0.35055 1.88643,-0.82279 2.78237,-1.33379 0.11335,-0.0647 0.14075,-0.1378 0.12517,-0.25841 -0.0656,-0.50599 -0.067,-1.01539 -0.0329,-1.52245 0.0678,-1.00876 0.23746,-2.00239 0.50295,-2.97829 0.45692,-1.67968 1.10967,-3.27931 2.00507,-4.77364 0.64907,-1.08335 1.45538,-2.03794 2.44185,-2.83251 0.75553,-0.60852 1.61082,-1.00026 2.56872,-1.1711 1.39799,-0.24937 2.62361,0.6335 3.00138,1.83298 0.24875,0.78992 0.21714,1.58047 0.0198,2.37218 -0.14971,0.6009 -0.41179,1.15892 -0.6822,1.71156 -0.80488,1.64503 -1.85868,3.12145 -3.06245,4.49536 -1.26144,1.43962 -2.68334,2.69927 -4.2528,3.79336 -0.0294,0.0205 -0.0575,0.0431 -0.0882,0.0612 -0.0652,0.0384 -0.0619,0.0828 -0.0252,0.14228 0.13745,0.22331 0.31008,0.41161 0.53823,0.5435 0.34213,0.19798 0.71256,0.28027 1.10725,0.29316 0.76844,0.0253 1.50911,-0.11909 2.24137,-0.3296 1.02514,-0.29467 1.96746,-0.77345 2.88982,-1.29716 0.0943,-0.0536 0.13144,-0.11641 0.11174,-0.22448 -0.0608,-0.33229 -0.0635,-0.67066 -0.0642,-1.00545 -8.9e-4,-0.42119 0.0217,-0.84346 0.0725,-1.26314 0.15025,-1.24031 0.42818,-2.4508 0.84373,-3.62888 0.5162,-1.46308 1.15095,-2.86922 2.0357,-4.1509 0.73637,-1.06678 1.62112,-1.98268 2.75112,-2.64107 0.54771,-0.31912 1.12337,-0.56759 1.75221,-0.67531 0.75419,-0.1293 1.45869,-0.0226 2.06031,0.48316 0.50295,0.42281 0.82234,0.96757 0.98387,1.60276 0.18239,0.7165 0.13923,1.43381 -0.0155,2.1478 -0.20335,0.93892 -0.58667,1.80737 -1.05317,2.64188 -0.7199,1.28786 -1.60617,2.45447 -2.59416,3.54615 -1.29672,1.43273 -2.71557,2.72971 -4.29291,3.84968 -0.0349,0.0248 -0.0728,0.0466 -0.0944,0.10046 0.21722,0.37034 0.54548,0.60485 0.95468,0.7388 0.38278,0.12536 0.77738,0.11184 1.17037,0.0972 0.86541,-0.0321 1.69473,-0.25599 2.5185,-0.49865 1.12113,-0.33022 2.19471,-0.78312 3.24573,-1.29027 2.13348,-1.02971 4.14822,-2.25543 6.04306,-3.67723 1.00482,-0.75393 1.94043,-1.58468 2.77431,-2.52682 0.33372,-0.37688 0.62974,-0.77927 0.85421,-1.23163 0.0867,-0.1746 0.14121,-0.35753 0.161,-0.55273 0.0454,-0.4468 0.38762,-0.79574 0.83756,-0.84821 0.20665,-0.0241 0.41322,-0.0213 0.61209,0.0644 0.24498,0.10557 0.40221,0.28617 0.48755,0.53482 2.7e-4,0.22905 2.7e-4,0.45827 2.7e-4,0.68749 z m -20.11563,6.30989 c 0.0955,-0.0159 0.13646,-0.069 0.18562,-0.10754 0.95441,-0.74623 1.84452,-1.56337 2.68504,-2.43531 1.19804,-1.24273 2.24656,-2.59693 3.05475,-4.12681 0.38681,-0.73217 0.67889,-1.50024 0.71721,-2.3395 0.0137,-0.29916 -0.01,-0.6001 -0.15481,-0.87606 -0.11748,-0.2235 -0.29907,-0.33247 -0.55166,-0.34357 -0.31921,-0.0141 -0.60556,0.0914 -0.88448,0.22493 -0.60242,0.28849 -1.10188,0.71479 -1.56731,1.18497 -0.81105,0.8192 -1.39369,1.79313 -1.89538,2.81971 -0.65015,1.33047 -1.10851,2.72667 -1.3996,4.17767 -0.11954,0.59624 -0.19296,1.19822 -0.18938,1.82151 z m -9.27671,-0.0711 c 0.0758,-0.007 0.10539,-0.0406 0.13852,-0.0659 0.84374,-0.64307 1.63975,-1.3397 2.3841,-2.09667 1.33862,-1.36145 2.4679,-2.87719 3.37861,-4.55508 0.2628,-0.48414 0.51674,-0.97294 0.68651,-1.50033 0.13063,-0.40598 0.20585,-0.8184 0.1575,-1.24613 -0.0598,-0.529 -0.38807,-0.78643 -0.91537,-0.71999 -0.0282,0.004 -0.0558,0.0121 -0.0839,0.0174 -0.34885,0.0655 -0.66967,0.20352 -0.97267,0.38386 -0.84553,0.5033 -1.50983,1.201 -2.08503,1.98555 -0.46642,0.63609 -0.85466,1.32188 -1.18802,2.03694 -0.64397,1.38152 -1.09364,2.8258 -1.3662,4.32434 -0.0856,0.47071 -0.12643,0.94805 -0.13405,1.43604 z m -8.81181,-0.50214 c 0.0679,0.003 0.0952,-0.0216 0.12365,-0.0415 0.91161,-0.63995 1.74308,-1.37194 2.5125,-2.17645 1.03571,-1.08299 1.88965,-2.29957 2.6314,-3.59638 0.41323,-0.72259 0.75652,-1.47804 0.9339,-2.29769 0.0684,-0.31634 0.0947,-0.63663 0.0252,-0.95861 -0.0983,-0.45567 -0.34267,-0.65096 -0.80335,-0.62231 -0.34258,0.0213 -0.65364,0.15491 -0.94966,0.31527 -0.94716,0.51298 -1.66974,1.27353 -2.2822,2.14037 -0.43498,0.61559 -0.75733,1.29717 -1.03642,1.99674 -0.47627,1.19384 -0.81375,2.42708 -1.01933,3.69541 -0.0825,0.50841 -0.12509,1.02183 -0.13574,1.54519 z" />
  <path
     style="clip-rule:evenodd;fill:#191919;fill-opacity:1;fill-rule:evenodd"
     inkscape:connector-curvature="0"
     id="path4"
     d="m 0.24412,6.35593 c 0.0137,-0.003 0.0353,-4.4e-4 0.0399,-0.008 0.12303,-0.2106 0.31813,-0.23272 0.53733,-0.22627 0.35073,0.0103 0.70181,0.005 1.05281,0.002 C 2.02539,6.12266 2.03712,6.11766 2.02987,5.9641 2.00417,5.42032 2.01777,4.87619 2.01027,4.33232 2.00527,4.0029 2.00127,3.6733 2.00827,3.34407 2.01727,2.90272 2.22926,2.64655 2.65045,2.52048 3.88306,2.15139 5.12042,1.79798 6.33825,1.38081 6.43916,1.34621 6.54491,1.32221 6.6503,1.30421 c 0.39478,-0.0677 0.67638,0.14121 0.72348,0.53921 0.0125,0.10593 0.005,0.21436 0.005,0.32163 1.7e-4,1.25338 -9e-5,2.50677 4.4e-4,3.76024 9e-5,0.19654 0.002,0.19887 0.2038,0.19913 0.85949,9e-4 1.7189,2.7e-4 2.57839,6.3e-4 0.0644,0 0.12948,-0.003 0.19305,0.005 0.16744,0.0218 0.28456,0.14318 0.30479,0.31151 0.005,0.0424 0.003,0.0858 0.003,0.12876 1.8e-4,1.22473 7.1e-4,2.44946 -2.7e-4,3.67428 -2.7e-4,0.31214 -0.13198,0.44215 -0.44376,0.44636 -0.043,5.3e-4 -0.086,9e-5 -0.12894,9e-5 -0.81651,0 -1.63303,-7.2e-4 -2.44946,3.5e-4 -0.29754,3.6e-4 -0.26047,-0.0284 -0.26056,0.26594 -9.8e-4,2.04124 -7.1e-4,4.08249 -9e-5,6.12382 0,0.14291 -0.001,0.28546 0.0302,0.4272 0.0838,0.37821 0.30873,0.59311 0.6899,0.67092 0.35467,0.0725 0.69859,0.01 1.04135,-0.066 0.32853,-0.0728 0.64657,-0.18141 0.95549,-0.31554 0.0262,-0.0115 0.0519,-0.0244 0.0785,-0.0347 0.30113,-0.11604 0.47313,-0.007 0.48594,0.31769 0.008,0.20737 0.002,0.41546 0.002,0.62311 0,0.96694 0,1.93379 0,2.90074 0,0.4134 -0.17103,0.67226 -0.55667,0.82197 -0.64039,0.24857 -1.29359,0.45657 -1.9621,0.61792 -0.80496,0.19448 -1.61906,0.29978 -2.4465,0.2431 C 4.73231,23.22147 3.86359,22.91508 3.17682,22.19921 2.65086,21.65114 2.35233,20.98406 2.18436,20.2536 2.08786,19.8341 2.04655,19.40825 2.04745,18.97622 c 0.004,-2.11297 0.002,-4.22576 0.002,-6.33872 -1.8e-4,-0.58013 -0.004,-1.16017 -0.006,-1.74021 -8.9e-4,-0.20505 -0.002,-0.20577 -0.21427,-0.20621 -0.34374,-6.3e-4 -0.68784,-0.008 -1.03132,0.003 -0.20845,0.006 -0.38296,-0.0343 -0.49891,-0.22331 -0.01,-0.0155 -0.0356,-0.0209 -0.0541,-0.031 0,-1.36119 0,-2.7222 0,-4.08321 z" />
  <path
     style="clip-rule:evenodd;fill:#191919;fill-opacity:1;fill-rule:evenodd"
     inkscape:connector-curvature="0"
     id="path6"
     d="m 17.09207,-0.00499 c 0.37786,0.0473 0.74068,0.13995 1.08138,0.31912 0.99505,0.52327 1.57214,1.62354 1.468,2.74503 C 19.5118,4.45562 18.28895,5.65913 16.7109,5.5747 15.17609,5.4926 14.1428,4.24395 14.07206,2.95296 13.99726,1.58855 14.90747,0.36561 16.22711,0.0584 c 0.0876,-0.0204 0.18759,0.006 0.26325,-0.0634 0.20048,0 0.40105,0 0.60171,0 z" />
  <path
     style="clip-rule:evenodd;fill:#191919;fill-opacity:1;fill-rule:evenodd"
     inkscape:connector-curvature="0"
     id="path8"
     d="m 28.63575,6.62187 c 0.33041,-0.12151 0.64496,-0.23675 0.97178,-0.31223 1.82375,-0.42137 3.5414,-0.15374 5.13521,0.8252 1.58379,0.97277 2.64806,2.37944 3.32346,4.09386 0.35664,0.90507 0.55515,1.8465 0.61756,2.81729 0.12016,1.867 -0.2371,3.63255 -1.14692,5.27221 -0.79816,1.43846 -1.90738,2.56613 -3.39536,3.29991 -1.1051,0.54494 -2.27467,0.75536 -3.49851,0.66358 -0.61612,-0.0462 -1.2147,-0.18571 -1.79411,-0.404 -0.0647,-0.0243 -0.12572,-0.0707 -0.20093,-0.0561 -0.0453,0.0325 -0.0299,0.0793 -0.0299,0.11873 -0.001,0.77354 -0.001,1.5469 -5.3e-4,2.32034 1.8e-4,0.17497 0.002,0.17685 0.17559,0.17756 0.31509,0.002 0.63027,-7.1e-4 0.94536,8.1e-4 0.29548,0.001 0.43221,0.12965 0.45433,0.42388 0.004,0.0499 0.001,0.1002 0.001,0.15034 0,1.13877 -9e-5,2.27745 2.7e-4,3.41604 0,0.10038 8.9e-4,0.2003 -0.0278,0.29808 -0.0488,0.16663 -0.16905,0.26576 -0.33998,0.27605 -0.0428,0.003 -0.0859,6.3e-4 -0.12885,6.3e-4 -2.59246,0 -5.185,9e-5 -7.77745,-1.8e-4 -0.0644,0 -0.13028,0.005 -0.19278,-0.006 -0.14989,-0.0279 -0.27176,-0.17021 -0.29127,-0.33362 -0.006,-0.0495 -0.003,-0.10011 -0.003,-0.15025 -1.8e-4,-1.1959 -2.7e-4,-2.39198 1.8e-4,-3.58787 9e-5,-0.0853 -0.008,-0.17165 0.0305,-0.25331 0.0757,-0.15858 0.19878,-0.23567 0.37518,-0.2346 0.33658,0.002 0.67316,10e-4 1.00974,1.8e-4 0.17774,-6.2e-4 0.17783,-0.002 0.18096,-0.17129 6.3e-4,-0.0357 9e-5,-0.0716 9e-5,-0.10736 0,-4.7338 2.7e-4,-9.4676 -5.4e-4,-14.20141 -9e-5,-0.32073 0.0432,-0.28465 -0.28465,-0.28653 -0.28643,-0.002 -0.57296,0.002 -0.8594,-0.001 -0.32118,-0.004 -0.45155,-0.13798 -0.45182,-0.46337 -9.9e-4,-1.21031 -9.9e-4,-2.42063 0,-3.63085 2.7e-4,-0.3356 0.13521,-0.47725 0.46462,-0.47752 2.08405,-0.002 4.168,-0.002 6.25205,0 0.32709,4.5e-4 0.42872,0.11032 0.48566,0.52301 z m 5.34904,8.07373 c -0.002,-0.73772 -0.11282,-1.40443 -0.34984,-2.03981 -0.21006,-0.56312 -0.5059,-1.07251 -0.94966,-1.4878 -0.36792,-0.34428 -0.79628,-0.56275 -1.302,-0.58765 -0.46812,-0.023 -0.88367,0.14354 -1.25437,0.42433 -0.45029,0.34124 -0.77228,0.78661 -0.99783,1.29636 -0.65937,1.49049 -0.68785,3.00622 -0.13422,4.53297 0.20254,0.55846 0.51324,1.05362 0.95826,1.45601 0.77452,0.70038 1.7625,0.73092 2.57732,0.08 0.37016,-0.29566 0.64272,-0.66985 0.8586,-1.08675 0.4203,-0.81123 0.59025,-1.68066 0.59374,-2.58771 z" />
  <path
     style="clip-rule:evenodd;fill:#191919;fill-opacity:1;fill-rule:evenodd"
     inkscape:connector-curvature="0"
     id="path10"
     d="m 14.06239,12.2928 c -0.0793,-0.0305 -0.14434,0.006 -0.21185,0.0262 -0.27399,0.0818 -0.54745,0.16529 -0.82251,0.24346 -0.22573,0.0641 -0.41735,-0.059 -0.45451,-0.29029 -0.0113,-0.0702 -0.0112,-0.14263 -0.0112,-0.214 -6.3e-4,-1.11737 -5.4e-4,-2.23474 -1.8e-4,-3.35211 0,-0.0644 0.001,-0.12894 0.007,-0.19305 0.0254,-0.29109 0.12984,-0.42361 0.40974,-0.50787 1.06768,-0.32154 2.13589,-0.64093 3.20392,-0.96139 0.96542,-0.28966 1.93075,-0.57968 2.89618,-0.86917 0.0547,-0.0164 0.10959,-0.0359 0.16582,-0.0432 0.2012,-0.0263 0.36989,0.10207 0.39541,0.30309 0.01,0.0776 0.005,0.15723 0.005,0.23603 1.7e-4,3.93224 0,7.86448 5.3e-4,11.79672 0,0.30954 -0.0264,0.26423 0.25949,0.26647 0.30077,0.002 0.60171,-0.002 0.90247,0.001 0.26728,0.003 0.40947,0.14514 0.40992,0.41457 0.002,1.2463 0.002,2.49261 0,3.73883 -3.6e-4,0.28608 -0.13915,0.40812 -0.45334,0.40821 -2.26331,3.6e-4 -4.5267,1.8e-4 -6.79009,1.8e-4 -0.351,0 -0.70191,0.002 -1.05291,-6.2e-4 -0.28303,-0.002 -0.41994,-0.13754 -0.4203,-0.4229 -0.002,-1.23915 -0.002,-2.47829 9e-5,-3.71744 4.5e-4,-0.27802 0.14604,-0.41895 0.42738,-0.4211 0.30085,-0.002 0.60171,4.4e-4 0.90247,-9e-4 0.27373,-10e-4 0.24543,0.0287 0.24606,-0.2363 10e-4,-0.51575 3.6e-4,-1.03141 3.6e-4,-1.54707 0,-1.47553 1.8e-4,-2.95097 -4.5e-4,-4.4265 -3.6e-4,-0.0776 0.0103,-0.15679 -0.0144,-0.23119 z" />
</svg>
