<svg height="36.266144" width="32" xmlns="http://www.w3.org/2000/svg"><path d="m15.82562 34.36724l.0527-.89291 3.92593-1.34461c4.57218-1.56596 7.15234-2.63142 9.31928-3.84834.85506-.4802 1.5848-.87308 1.62163-.87308.0368 0 .0439.55799.0157 1.23999l-.0513 1.23999-6.01975 2.16449c-3.31087 1.19047-6.67164 2.39914-7.46838 2.68593l-1.44863.52145.0528-.89291zm-5.00735-4.47451c-2.30321-2.84855-5.30883-6.56549-6.67914-8.25985l-2.49148-3.08067.0487-2.41031.0487-2.41031 6.67407 8.08546 6.67408 8.08547v2.59157c0 1.42537-.0197 2.58849-.0436 2.58471-.024-.004-1.92807-2.33752-4.23128-5.18607zm4.97284 2.7607c0-.0902.68704-.3725 1.52675-.62741 4.3435-1.31859 7.5399-2.78612 10.83235-4.97339 1.87326-1.24446 2.06037-1.33095 2.34132-1.08209.16794.14875.30534.32175.30534.38447 0 .16432-3.0739 1.91491-5.36071 3.05291-1.65183.82201-8.82371 3.40944-9.45036 3.40944-.10708 0-.19469-.0738-.19469-.16393zm.0312-.99069c.0342-.17026.59846-.47511 1.45194-.78451 2.14345-.77703 4.85837-2.18606 6.36604-3.30392.74942-.55567 2.42276-2.03962 3.71854-3.29767l2.35595-2.28737.91359.84006.9136.84005-.93962.8455c-1.33569 1.20189-4.6416 3.34866-6.78682 4.40719-2.42235 1.19528-8.07208 3.13243-7.99322 2.74067zm-.0211-1.24456c.007-.21535.71429-.65035 2.39917-1.47582 1.37804-.67513 2.90594-1.58027 3.61046-2.13888 2.22797-1.7665 4.22848-4.38849 5.23128-6.85641l.44165-1.08689-5.70093-7.11113c-3.13551-3.91111-5.75962-7.18964-5.83136-7.28561-.0718-.096.053-.38771.27729-.64834l.40773-.47386 2.67442 3.08771c1.47092 1.69824 4.65676 5.3538 7.07963 8.12346l4.40522 5.03574-.56654.80911c-.89844 1.28312-4.96573 5.29898-6.52647 6.44394-1.51838 1.11388-4.57501 2.75476-6.43733 3.45575-1.3504.50828-1.47739.5188-1.46422.12123zm-7.00296-9.03902c-3.68736-4.46764-6.722-8.17764-6.74367-8.24444-.0217-.0668.52796-.3021 1.2214-.52285 2.01567-.6417 4.0173-1.69344 5.09175-2.67543 1.85209-1.69271 3.43236-4.38579 4.08765-6.96615.16851-.66356.34021-1.23793.38154-1.27639.0634-.0589 13.06045 16.0026 13.74102 16.98092.1968.2829.16945.48237-.18717 1.36527-1.05917 2.62223-3.80816 5.75036-6.45312 7.34314-1.47388.88756-3.96074 2.1189-4.27939 2.1189-.0856 0-3.17265-3.65533-6.86001-8.12297z" fill="#191919" fill-opacity=".80000001"/></svg>