<?xml version="1.0" encoding="UTF-8" standalone="no"?>
<svg xmlns="http://www.w3.org/2000/svg" xmlns:sodipodi="http://sodipodi.sourceforge.net/DTD/sodipodi-0.dtd" xmlns:inkscape="http://www.inkscape.org/namespaces/inkscape" width="39.22" height="30.547" version="1.1">
 <metadata id="metadata6816"/>
 <g inkscape:label="Calque 1" inkscape:groupmode="layer" id="layer1" transform="translate(-531.81751,-525.66014)">
  <path sodipodi:nodetypes="cccccscsccscscccsccscccscccccccscscsccscccscscsccccsccc" d="m 538.24601,555.90267 c 0.60685,-3.66365 1.10177,-6.77223 1.13745,-10.41105 0,-0.66034 -0.35105,-0.9905 -1.05372,-0.99053 -0.39334,3e-5 -0.71648,0.34426 -0.96941,1.03269 -0.16977,0.37936 -0.49866,0.66034 -0.99041,0.843 -0.49175,0.16862 -0.97661,0.25293 -1.45427,0.25293 -0.871,0 -1.60877,-0.30208 -2.21275,-0.90622 -0.59016,-0.6182 -0.88539,-1.36285 -0.88539,-2.23396 0,-0.85705 0.29523,-1.59465 0.88539,-2.21287 0.60398,-0.61819 1.34175,-0.92729 2.21275,-0.92732 0.47766,3e-5 0.96252,0.0912 1.45427,0.27394 0.49175,0.18272 0.82179,0.45662 0.99041,0.82191 0.2676,0.66037 0.59017,0.99053 0.96941,0.99053 0.70267,0 1.05372,-0.33016 1.05372,-0.99053 0.13524,-2.9339 0.79216,-4.49506 0.0604,-7.6681 4.73484,-0.73775 8.10375,0.30383 11.38461,-0.61425 0.64627,3e-5 0.9694,-0.3442 0.9694,-1.03269 0,-0.40742 -0.32313,-0.73055 -0.9694,-0.96944 -0.37954,-0.15451 -0.66038,-0.4636 -0.8431,-0.92728 -0.18127,-0.47768 -0.27335,-0.96242 -0.27335,-1.45421 0,-0.85701 0.29494,-1.58759 0.8851,-2.19177 0.60426,-0.61819 1.34895,-0.92728 2.23405,-0.92731 0.8428,3e-5 1.55957,0.30912 2.14973,0.92731 0.60398,0.60418 0.90611,1.33476 0.90611,2.19177 0,1.26456 -0.35824,2.05839 -1.07472,2.38149 -0.64657,0.23883 -0.9697,0.56202 -0.9697,0.96944 1.41455,3.85978 6.99535,1.38296 9.6685,1.69456 0.44802,2.76761 0.58412,7.69799 -0.0374,10.06532 0,0.64631 0.32315,0.96947 0.96942,0.96944 0.39334,3e-5 0.73058,-0.32313 1.01171,-0.96944 0.15538,-0.37933 0.47765,-0.66736 0.96941,-0.86406 0.49175,-0.19682 0.9835,-0.29505 1.47526,-0.29505 0.88511,0 1.62979,0.31614 2.23405,0.94837 0.60397,0.63226 0.9061,1.36989 0.9061,2.21287 0,0.88516 -0.30213,1.63684 -0.9061,2.25503 -0.60426,0.61822 -1.34894,0.92731 -2.23405,0.92731 -0.49176,0 -0.98351,-0.0912 -1.47526,-0.27393 -0.49176,-0.19682 -0.81489,-0.47066 -0.96941,-0.82191 -0.25322,-0.68847 -0.59017,-1.0327 -1.01171,-1.0327 -0.64627,0 -0.96942,0.32317 -0.96942,0.96945 0.23596,1.40647 0.82871,5.04318 0.37897,6.96801 -3.95304,0.23509 -6.89579,0.61704 -11.06406,0.0501 -0.66037,0 -0.99042,-0.34423 -0.99042,-1.03268 0,-0.39338 0.33005,-0.73059 0.99042,-1.01159 0.73058,-0.3091 1.09602,-1.12399 1.09602,-2.44471 0,-0.85704 -0.30904,-1.58763 -0.9274,-2.1918 -0.60398,-0.60413 -1.32766,-0.90623 -2.17074,-0.90623 -0.88511,0 -1.64389,0.3021 -2.27606,0.90623 -0.61808,0.60417 -0.92741,1.33476 -0.92712,2.1918 -2.9e-4,0.51987 0.0921,1.02567 0.27336,1.51739 0.18128,0.49178 0.46356,0.80088 0.8428,0.92732 0.67448,0.26702 1.01171,0.60414 1.01171,1.01159 0,0.68845 -0.38673,1.73211 -1.033,1.73211 -3.53983,1.1093 -10.43131,0.26961 -10.43131,0.26961 z" id="path6233" inkscape:connector-curvature="0" opacity="0.8" fill="#ffffff"/>
 </g>
</svg>
