<?xml version="1.0" encoding="UTF-8" standalone="no"?>
<svg
   xmlns:dc="http://purl.org/dc/elements/1.1/"
   xmlns:cc="http://creativecommons.org/ns#"
   xmlns:rdf="http://www.w3.org/1999/02/22-rdf-syntax-ns#"
   xmlns:svg="http://www.w3.org/2000/svg"
   xmlns="http://www.w3.org/2000/svg"
   xmlns:sodipodi="http://sodipodi.sourceforge.net/DTD/sodipodi-0.dtd"
   xmlns:inkscape="http://www.inkscape.org/namespaces/inkscape"
   width="32"
   height="25.995"
   version="1.1"
   id="svg2"
   inkscape:version="0.91 r13725"
   sodipodi:docname="icon-blender.svg">
  <defs
     id="defs12" />
  <sodipodi:namedview
     pagecolor="#ffffff"
     bordercolor="#666666"
     borderopacity="1"
     objecttolerance="10"
     gridtolerance="10"
     guidetolerance="10"
     inkscape:pageopacity="0"
     inkscape:pageshadow="2"
     inkscape:window-width="2560"
     inkscape:window-height="1361"
     id="namedview10"
     showgrid="false"
     inkscape:zoom="10.550406"
     inkscape:cx="25.232085"
     inkscape:cy="-5.3325055"
     inkscape:window-x="0"
     inkscape:window-y="27"
     inkscape:window-maximized="1"
     inkscape:current-layer="layer1" />
  <metadata
     id="metadata6511">
    <rdf:RDF>
      <cc:Work
         rdf:about="">
        <dc:format>image/svg+xml</dc:format>
        <dc:type
           rdf:resource="http://purl.org/dc/dcmitype/StillImage" />
      </cc:Work>
    </rdf:RDF>
  </metadata>
  <g
     inkscape:label="Calque 1"
     inkscape:groupmode="layer"
     id="layer1"
     transform="translate(-440.23149,-549.389)">
    <path
       d="M 16.847656 0 C 16.399789 0.00059375 15.942611 0.12844938 15.582031 0.38085938 C 14.852681 0.89086937 14.769119 1.733205 15.417969 2.265625 L 15.416016 2.2675781 L 19.583984 5.6582031 L 6.8769531 5.671875 L 6.859375 5.671875 C 5.809265 5.672725 4.7989094 6.363015 4.5996094 7.234375 C 4.3939394 8.121815 5.1071788 8.8576081 6.1992188 8.8613281 L 6.1972656 8.8652344 L 12.638672 8.8535156 L 1.1445312 17.675781 C 1.1300313 17.686881 1.1150625 17.697984 1.1015625 17.708984 C 0.0170425 18.539074 -0.33320062 19.919189 0.34960938 20.792969 C 1.0425794 21.681489 2.5157881 21.681915 3.6113281 20.796875 L 9.8847656 15.664062 C 9.8847656 15.664062 9.7937617 16.357212 9.8007812 16.773438 C 9.8080597 17.191634 9.9413308 18.001583 10.140625 18.634766 C 10.560605 19.976336 11.274105 21.21831 12.265625 22.3125 C 13.282655 23.43626 14.533919 24.339539 15.980469 24.980469 C 17.501079 25.654029 19.149998 25.996791 20.861328 25.994141 C 22.569828 25.992141 24.215948 25.641301 25.736328 24.962891 C 27.182888 24.315791 28.435212 23.410276 29.451172 22.285156 C 30.441342 21.187186 31.151606 19.943183 31.572266 18.601562 C 31.784146 17.923633 31.919096 17.235432 31.972656 16.544922 C 32.025356 15.864742 32.00305 15.184486 31.90625 14.503906 C 31.71779 13.177066 31.259164 11.931645 30.552734 10.796875 C 29.906524 9.754675 29.072651 8.8423388 28.082031 8.0742188 L 28.085938 8.0722656 L 18.087891 0.39648438 C 18.078891 0.38948438 18.0722 0.38315313 18.0625 0.37695312 C 17.73443 0.12516813 17.295524 -0.00059375 16.847656 0 z M 20.857422 8.8457031 C 22.531952 8.8437031 24.131252 9.3939325 25.388672 10.414062 C 26.028722 10.935472 26.546788 11.551968 26.923828 12.236328 C 27.309438 12.932598 27.547911 13.699486 27.619141 14.509766 C 27.689941 15.335006 27.581271 16.153431 27.300781 16.925781 C 27.014171 17.712641 26.551622 18.44997 25.919922 19.09375 C 24.627292 20.41043 22.819578 21.156376 20.861328 21.160156 C 18.900408 21.163156 17.089515 20.424085 15.796875 19.109375 C 15.165175 18.468925 14.702456 17.732826 14.416016 16.947266 C 14.135836 16.176266 14.027309 15.355667 14.099609 14.529297 C 14.168209 13.721277 14.406936 12.951476 14.791016 12.253906 C 15.167996 11.569096 15.686545 10.949681 16.328125 10.425781 C 17.583965 9.4019212 19.184252 8.8483631 20.857422 8.8457031 z M 21.001953 10.886719 C 19.866283 10.886719 18.826394 11.286566 18.052734 11.941406 C 17.264524 12.607936 16.741441 13.548134 16.681641 14.615234 C 16.621471 15.711004 17.060334 16.729235 17.833984 17.484375 C 18.622194 18.252715 19.746113 18.736328 21.001953 18.736328 C 22.257793 18.736328 23.379529 18.252715 24.167969 17.484375 C 24.941399 16.729235 25.382166 15.712074 25.322266 14.615234 C 25.262096 13.549204 24.739392 12.607936 23.951172 11.941406 C 23.177522 11.286566 22.136493 10.886719 21.001953 10.886719 z "
       transform="translate(440.23149,549.389)"
       id="path8608"
       style="fill:#191919;fill-opacity:0.80000001" />
  </g>
</svg>
