<?xml version="1.0" encoding="UTF-8" standalone="no"?>
<svg xmlns="http://www.w3.org/2000/svg" xmlns:sodipodi="http://sodipodi.sourceforge.net/DTD/sodipodi-0.dtd" xmlns:inkscape="http://www.inkscape.org/namespaces/inkscape" width="32" height="44.554" version="1.1">
 <metadata id="metadata6487"/>
 <g inkscape:label="Calque 1" inkscape:groupmode="layer" id="layer1" transform="translate(-610.19267,-854.01255)">
  <path d="m 618.54662,895.08585 0,-3.48077 -4.18872,0 c -3.90737,0 -4.18279,-0.0205 -4.0989,-0.30458 0.048,-0.16752 0.17864,-0.81363 0.2859,-1.43582 0.10612,-0.62219 0.27542,-1.50326 0.37156,-1.95795 l 0.17485,-0.82667 1.7024,0 c 1.45895,0 1.76822,-0.0517 2.16113,-0.36074 l 0.45848,-0.3607 0,-10.0061 c 0,-6.52994 -0.0619,-10.1224 -0.17877,-10.34089 -0.35223,-0.65849 -1.08473,-0.86056 -3.11877,-0.86056 l -1.92311,0 0,-2.08847 0,-2.08848 4.17685,0 4.1771,0 0,-3.48079 0,-3.48078 2.08824,0 2.08861,0 0,3.48078 0,3.48079 1.56646,0 1.56621,0 0,-3.48079 0,-3.48078 2.08861,0 2.08849,0 0,3.45498 0,3.45499 1.34878,0.10764 c 5.50908,0.4403 8.63897,3.47154 8.35092,8.08783 -0.12002,1.94068 -0.90988,3.60541 -2.3188,4.89293 -0.53327,0.48741 -0.85632,0.88619 -0.71785,0.88619 0.55816,0 2.79194,1.29644 3.6149,2.09784 1.26249,1.22988 1.78439,2.4665 1.86828,4.42865 0.26127,6.11526 -3.3626,9.66467 -10.32734,10.11498 l -1.81889,0.11762 0,3.45515 0,3.45515 -2.08849,0 -2.08861,0 0,-3.48079 0,-3.48078 -1.56621,0 -1.56646,0 0,3.48078 0,3.48079 -2.08861,0 -2.08824,0 z m 11.392,-8.43874 c 3.54187,-1.00061 5.09418,-3.41702 3.8279,-5.9582 -1.04911,-2.10516 -3.66101,-3.00701 -8.70871,-3.00701 l -2.6824,0 0,4.72 0,4.72002 3.26318,-0.091 c 2.29252,-0.0639 3.57156,-0.17816 4.30003,-0.38385 z m -0.91671,-13.26684 c 1.84706,-0.67844 2.80836,-1.75606 3.03387,-3.40085 0.16475,-1.20733 -0.20087,-2.19402 -1.15712,-3.12091 -1.25403,-1.21496 -2.49012,-1.56583 -5.86915,-1.66597 l -2.6541,-0.0787 0,4.38746 0,4.38747 2.8282,-0.0724 c 2.31172,-0.0593 3.00873,-0.13872 3.8183,-0.43613 z" id="path6588" inkscape:connector-curvature="0" sodipodi:nodetypes="ccsccscsccscscccccccccccccccccccsssssssccccccccccccccssscccsssssscccss" opacity="0.8" fill="#f9f9f9"/>
 </g>
</svg>
