<?xml version="1.0" encoding="UTF-8" standalone="no"?>
<svg
   xmlns:dc="http://purl.org/dc/elements/1.1/"
   xmlns:cc="http://creativecommons.org/ns#"
   xmlns:rdf="http://www.w3.org/1999/02/22-rdf-syntax-ns#"
   xmlns:svg="http://www.w3.org/2000/svg"
   xmlns="http://www.w3.org/2000/svg"
   version="1.1"
   id="svg5617"
   height="36.266144"
   width="32">
  <defs
     id="defs5619" />
  <metadata
     id="metadata5622">
    <rdf:RDF>
      <cc:Work
         rdf:about="">
        <dc:format>image/svg+xml</dc:format>
        <dc:type
           rdf:resource="http://purl.org/dc/dcmitype/StillImage" />
        <dc:title></dc:title>
      </cc:Work>
    </rdf:RDF>
  </metadata>
  <g
     transform="translate(-391.8739,-470.06715)"
     id="layer1">
    <path
       id="path3345"
       d="m 407.69952,504.43439 0.0527,-0.89291 3.92593,-1.34461 c 4.57218,-1.56596 7.15234,-2.63142 9.31928,-3.84834 0.85506,-0.4802 1.5848,-0.87308 1.62163,-0.87308 0.0368,0 0.0439,0.55799 0.0157,1.23999 l -0.0513,1.23999 -6.01975,2.16449 c -3.31087,1.19047 -6.67164,2.39914 -7.46838,2.68593 l -1.44863,0.52145 0.0528,-0.89291 z m -5.00735,-4.47451 c -2.30321,-2.84855 -5.30883,-6.56549 -6.67914,-8.25985 l -2.49148,-3.08067 0.0487,-2.41031 0.0487,-2.41031 6.67407,8.08546 6.67408,8.08547 0,2.59157 c 0,1.42537 -0.0197,2.58849 -0.0436,2.58471 -0.024,-0.004 -1.92807,-2.33752 -4.23128,-5.18607 z m 4.97284,2.7607 c 0,-0.0902 0.68704,-0.3725 1.52675,-0.62741 4.3435,-1.31859 7.5399,-2.78612 10.83235,-4.97339 1.87326,-1.24446 2.06037,-1.33095 2.34132,-1.08209 0.16794,0.14875 0.30534,0.32175 0.30534,0.38447 0,0.16432 -3.0739,1.91491 -5.36071,3.05291 -1.65183,0.82201 -8.82371,3.40944 -9.45036,3.40944 -0.10708,0 -0.19469,-0.0738 -0.19469,-0.16393 z m 0.0312,-0.99069 c 0.0342,-0.17026 0.59846,-0.47511 1.45194,-0.78451 2.14345,-0.77703 4.85837,-2.18606 6.36604,-3.30392 0.74942,-0.55567 2.42276,-2.03962 3.71854,-3.29767 l 2.35595,-2.28737 0.91359,0.84006 0.9136,0.84005 -0.93962,0.8455 c -1.33569,1.20189 -4.6416,3.34866 -6.78682,4.40719 -2.42235,1.19528 -8.07208,3.13243 -7.99322,2.74067 z m -0.0211,-1.24456 c 0.007,-0.21535 0.71429,-0.65035 2.39917,-1.47582 1.37804,-0.67513 2.90594,-1.58027 3.61046,-2.13888 2.22797,-1.7665 4.22848,-4.38849 5.23128,-6.85641 l 0.44165,-1.08689 -5.70093,-7.11113 c -3.13551,-3.91111 -5.75962,-7.18964 -5.83136,-7.28561 -0.0718,-0.096 0.053,-0.38771 0.27729,-0.64834 l 0.40773,-0.47386 2.67442,3.08771 c 1.47092,1.69824 4.65676,5.3538 7.07963,8.12346 l 4.40522,5.03574 -0.56654,0.80911 c -0.89844,1.28312 -4.96573,5.29898 -6.52647,6.44394 -1.51838,1.11388 -4.57501,2.75476 -6.43733,3.45575 -1.3504,0.50828 -1.47739,0.5188 -1.46422,0.12123 z m -7.00296,-9.03902 c -3.68736,-4.46764 -6.722,-8.17764 -6.74367,-8.24444 -0.0217,-0.0668 0.52796,-0.3021 1.2214,-0.52285 2.01567,-0.6417 4.0173,-1.69344 5.09175,-2.67543 1.85209,-1.69271 3.43236,-4.38579 4.08765,-6.96615 0.16851,-0.66356 0.34021,-1.23793 0.38154,-1.27639 0.0634,-0.0589 13.06045,16.0026 13.74102,16.98092 0.1968,0.2829 0.16945,0.48237 -0.18717,1.36527 -1.05917,2.62223 -3.80816,5.75036 -6.45312,7.34314 -1.47388,0.88756 -3.96074,2.1189 -4.27939,2.1189 -0.0856,0 -3.17265,-3.65533 -6.86001,-8.12297 z"
       style="opacity:0.8;fill:#1a1a1a" />
  </g>
</svg>
