<?xml version="1.0" encoding="UTF-8" standalone="no"?>
<svg
   xmlns:dc="http://purl.org/dc/elements/1.1/"
   xmlns:cc="http://creativecommons.org/ns#"
   xmlns:rdf="http://www.w3.org/1999/02/22-rdf-syntax-ns#"
   xmlns:svg="http://www.w3.org/2000/svg"
   xmlns="http://www.w3.org/2000/svg"
   xmlns:sodipodi="http://sodipodi.sourceforge.net/DTD/sodipodi-0.dtd"
   xmlns:inkscape="http://www.inkscape.org/namespaces/inkscape"
   width="32"
   height="32"
   version="1.1"
   id="svg2"
   inkscape:version="0.91 r13725"
   sodipodi:docname="icon-diaspora.svg">
  <defs
     id="defs11" />
  <sodipodi:namedview
     pagecolor="#ffffff"
     bordercolor="#666666"
     borderopacity="1"
     objecttolerance="10"
     gridtolerance="10"
     guidetolerance="10"
     inkscape:pageopacity="0"
     inkscape:pageshadow="2"
     inkscape:window-width="2560"
     inkscape:window-height="1361"
     id="namedview9"
     showgrid="false"
     inkscape:zoom="10.544322"
     inkscape:cx="17.883572"
     inkscape:cy="1.4526704"
     inkscape:window-x="0"
     inkscape:window-y="27"
     inkscape:window-maximized="1"
     inkscape:current-layer="layer1"
     showguides="false"
     inkscape:snap-global="true"
     inkscape:snap-bbox="true"
     inkscape:snap-page="true"
     inkscape:bbox-paths="true"
     inkscape:bbox-nodes="true"
     fit-margin-top="0"
     fit-margin-left="0"
     fit-margin-right="0"
     fit-margin-bottom="0" />
  <metadata
     id="metadata5724">
    <rdf:RDF>
      <cc:Work
         rdf:about="">
        <dc:format>image/svg+xml</dc:format>
        <dc:type
           rdf:resource="http://purl.org/dc/dcmitype/StillImage" />
        <dc:title></dc:title>
      </cc:Work>
    </rdf:RDF>
  </metadata>
  <g
     inkscape:label="Calque 1"
     inkscape:groupmode="layer"
     id="layer1"
     transform="translate(-356.31847,-524.71184)">
    <path
       style="fill:#191919;fill-opacity:0.8;fill-rule:nonzero;stroke:none"
       d="m 372.31847,524.7112 a 16.000269,16.000269 0 0 0 -16,16.00064 16.000269,16.000269 0 0 0 16,16 16.000269,16.000269 0 0 0 16,-16 16.000269,16.000269 0 0 0 -16,-16.00064 z m -1.70156,8.39045 3.40311,0 0,5.48293 5.15275,-1.70156 1.03992,3.30887 -5.15275,1.65411 3.16717,4.44366 -2.74147,2.03237 -3.16717,-4.44302 -3.16717,4.44302 -2.74147,-2.03237 3.16717,-4.44366 -5.15275,-1.70156 1.04056,-3.26142 5.1521,1.70156 0,-5.48293 z"
       id="path3338"
       inkscape:connector-curvature="0" />
  </g>
</svg>
