<?xml version="1.0" encoding="UTF-8" standalone="no"?>
<svg xmlns="http://www.w3.org/2000/svg" xmlns:sodipodi="http://sodipodi.sourceforge.net/DTD/sodipodi-0.dtd" xmlns:inkscape="http://www.inkscape.org/namespaces/inkscape" width="39.39" height="36.497" version="1.1">
 <metadata id="metadata6644"/>
 <g inkscape:label="Calque 1" inkscape:groupmode="layer" id="layer1" transform="translate(-591.73557,-488.39951)">
  <path d="m 620.89247,488.39951 -21.3574,19.19755 c 4.5583,3.21062 8.764,6.60407 10.1943,11.43659 l 21.3922,-19.20314 c -1.075,-9.14682 -6.0329,-9.41815 -10.2291,-11.431 z m 0.2001,1.19639 2.7558,3.08094 -19.4065,17.6515 -2.7557,-3.08105 z m 7.5365,7.95396 1.5373,1.69622 -19.794,17.48077 -1.5025,-1.70183 z m -30.1399,10.97073 -4.5202,11.01877 c 0.7616,0.34166 1.4188,0.86396 1.9811,1.49361 0.591,0.66262 0.9815,1.42687 1.2326,2.27105 l 11.5355,-3.35251 c -0.6845,-3.93143 -4.2563,-7.73452 -10.229,-11.43092 z m 0.2705,2.35818 0.1349,1.40835 -3.6007,6.48163 z m -5.3666,10.00257 -1.6575,4.01495 4.1172,-1.18281 c -0.2239,-0.62063 -0.5421,-1.21615 -0.99,-1.71761 -0.4198,-0.4692 -0.9231,-0.82859 -1.4697,-1.11453 z" id="rect5820" inkscape:connector-curvature="0" sodipodi:nodetypes="cccccccccccccccccscccccccccccc" opacity="0.8" fill="#ffffff"/>
 </g>
</svg>
