<?xml version="1.0" encoding="UTF-8" standalone="no"?>
<svg xmlns="http://www.w3.org/2000/svg" xmlns:sodipodi="http://sodipodi.sourceforge.net/DTD/sodipodi-0.dtd" xmlns:inkscape="http://www.inkscape.org/namespaces/inkscape" width="32" height="31.344" version="1.1">
 <metadata id="metadata5775"/>
 <g inkscape:label="Calque 1" inkscape:groupmode="layer" id="layer1" transform="translate(-664.25165,-887.75521)">
  <path d="m 682.98674,887.75521 c 0.30714,3.35387 -0.32421,7.01166 -0.0932,8.27019 0.2314,1.25853 1.22975,2.11856 2.23645,1.93359 1.00684,-0.18497 1.62895,-1.35065 1.39777,-2.60918 -0.23124,-1.25853 -2.15809,-4.57443 -3.54103,-7.5946 z m 12.85956,3.98367 c -0.33897,-0.008 -0.84493,0.22701 -1.32786,0.629 -0.0261,-0.34504 -0.1479,-0.60286 -0.30281,-0.60571 -0.17921,-0.003 -0.3184,0.34384 -0.32622,0.76878 0,0.16957 0.01,0.31474 0.047,0.44263 -0.0626,0.0784 -0.11145,0.15552 -0.16311,0.23297 l -0.18637,-0.25626 c 0,0 -3.89164,3.66958 -6.0803,4.14674 -0.7044,0.15357 -1.2697,0.4866 -2.56267,1.2347 -0.95406,-0.47139 -2.09495,-1.04871 -3.07511,-0.81537 -2.70893,0.64499 -5.28822,-0.81537 -5.28822,-0.81537 l -0.0932,0.58241 c -0.0892,-0.0486 -0.17757,-0.0964 -0.27955,-0.13978 -0.007,-0.13019 -0.0172,-0.26394 -0.0701,-0.41933 -0.13746,-0.4022 -0.38951,-0.68694 -0.55911,-0.629 -0.16654,0.0569 -0.19897,0.42166 -0.0701,0.81537 -0.93484,-0.21103 -1.741,-0.0711 -1.84045,0.32615 -0.10288,0.41121 0.58573,0.94412 1.56089,1.18811 0.38459,0.0962 0.73631,0.10866 1.0483,0.0932 l -0.0462,0.37274 c 0,0 3.91042,0.48721 5.87067,1.70063 0.83464,0.51673 0.70597,1.1172 1.02503,3.07511 0.43007,2.63977 0.71954,5.81086 0.62897,6.24341 -0.1576,0.75339 -4.06966,0.25642 -5.91727,-0.41933 1.26129,1.21221 3.47686,2.86073 5.14845,2.60919 1.67159,-0.25154 3.18134,0.0634 2.95867,-0.86197 -0.2226,-0.92548 -0.11645,-6.52296 -0.11645,-6.52296 0,0 4.63019,5.33704 5.38141,5.38144 0.48263,0.0285 1.80899,-1.35493 3.14497,-2.56259 0.91239,-0.82464 1.79325,-4.12555 1.67733,-5.14848 -1.55187,2.12341 -3.64652,5.24899 -4.35637,5.28826 -0.7097,0.0392 -3.42348,-4.05173 -3.51771,-5.56782 -0.0611,-1.45007 -0.8415,-2.49139 0.83867,-3.28478 2.28505,-1.07907 5.70756,-4.28652 5.70756,-4.28652 l -0.18637,-0.25625 c 0.27769,-0.14064 0.55329,-0.3336 0.83866,-0.60571 0.72752,-0.69366 1.08461,-1.51031 0.79208,-1.81711 -0.0731,-0.0767 -0.1728,-0.11358 -0.30289,-0.11648 z m -17.91482,14.88634 c -1.07208,0.3154 -2.66935,4.5457 -6.26667,5.49792 -4.11111,1.08826 -7.4083,0.69889 -7.4083,0.69889 -0.12092,1.57192 2.04679,6.02487 2.7723,6.26671 0.7255,0.24184 3.07183,-3.90048 6.33659,-4.26323 3.26469,-0.36275 9.91319,4.72574 16.56371,0.37274 6.65044,-4.353 6.88773,-7.13749 0.11644,-4.3564 -6.77136,2.78107 -9.43951,1.93578 -11.85778,0.6057 -2.41834,-1.33009 1.25129,-3.6176 0.16304,-4.70585 -0.13605,-0.13604 -0.26621,-0.16154 -0.41933,-0.11648 z" id="path6433" inkscape:connector-curvature="0" opacity="0.8" fill="#1a1a1a"/>
 </g>
</svg>
