<?xml version="1.0" encoding="UTF-8" standalone="no"?>
<svg xmlns="http://www.w3.org/2000/svg" xmlns:sodipodi="http://sodipodi.sourceforge.net/DTD/sodipodi-0.dtd" xmlns:inkscape="http://www.inkscape.org/namespaces/inkscape" width="33.917" height="34.03" version="1.1">
 <metadata id="metadata6746"/>
 <g inkscape:label="Calque 1" inkscape:groupmode="layer" id="layer1" transform="translate(-557.32713,-609.63359)">
  <path inkscape:connector-curvature="0" id="path6235" d="m 587.06165,609.63359 c -2.30976,0 -4.18268,1.87294 -4.18268,4.18269 0,0.76075 0.20458,1.47167 0.55955,2.08627 l -7.71466,7.59567 c -1.01553,-0.68688 -2.23901,-1.08872 -3.55732,-1.08872 -2.42874,0 -4.53959,1.3609 -5.61067,3.36236 l -5.1676,-1.7622 c -0.22971,-0.88841 -1.03744,-1.54445 -1.99765,-1.54445 -1.13906,0 -2.06349,0.92443 -2.06349,2.06349 0,1.13906 0.92443,2.06096 2.06349,2.06096 0.47293,0 0.9079,-0.15765 1.25581,-0.42536 l 5.21317,1.77739 c -0.0349,0.27017 -0.0532,0.54569 -0.0532,0.8254 0,3.5121 2.84801,6.36011 6.36011,6.36011 1.72332,0 3.28549,-0.68699 4.4308,-1.80018 l 6.52468,4.7473 c -0.15719,0.43987 -0.24306,0.91384 -0.24306,1.40774 0,2.30975 1.87293,4.18014 4.18268,4.18014 2.30976,0 4.18269,-1.87039 4.18269,-4.18014 0,-2.30977 -1.87293,-4.18269 -4.18269,-4.18269 -0.9884,0 -1.89712,0.34324 -2.61291,0.91654 l -6.52215,-4.74983 c 0.38448,-0.81919 0.59754,-1.73419 0.59754,-2.69899 0,-1.36736 -0.43287,-2.63171 -1.16722,-3.6687 l 7.71721,-7.60075 c 0.59073,0.31926 1.26895,0.49879 1.98753,0.49879 2.30976,0 4.18269,-1.8704 4.18269,-4.18015 0,-2.30975 -1.87293,-4.18269 -4.18269,-4.18269 z" opacity="0.8" fill="#ffffff"/>
 </g>
</svg>
