<?xml version="1.0" encoding="UTF-8" standalone="no"?>
<svg
   xmlns:dc="http://purl.org/dc/elements/1.1/"
   xmlns:cc="http://creativecommons.org/ns#"
   xmlns:rdf="http://www.w3.org/1999/02/22-rdf-syntax-ns#"
   xmlns:svg="http://www.w3.org/2000/svg"
   xmlns="http://www.w3.org/2000/svg"
   xmlns:sodipodi="http://sodipodi.sourceforge.net/DTD/sodipodi-0.dtd"
   xmlns:inkscape="http://www.inkscape.org/namespaces/inkscape"
   width="32"
   height="23.859"
   version="1.1"
   id="svg2"
   inkscape:version="0.91 r13725"
   sodipodi:docname="icon-gimp.svg">
  <defs
     id="defs9" />
  <sodipodi:namedview
     pagecolor="#ffffff"
     bordercolor="#666666"
     borderopacity="1"
     objecttolerance="10"
     gridtolerance="10"
     guidetolerance="10"
     inkscape:pageopacity="0"
     inkscape:pageshadow="2"
     inkscape:window-width="2560"
     inkscape:window-height="1361"
     id="namedview7"
     showgrid="false"
     inkscape:zoom="8.1281514"
     inkscape:cx="8.2430882"
     inkscape:cy="17.071288"
     inkscape:window-x="0"
     inkscape:window-y="27"
     inkscape:window-maximized="1"
     inkscape:current-layer="layer1" />
  <metadata
     id="metadata6511">
    <rdf:RDF>
      <cc:Work
         rdf:about="">
        <dc:format>image/svg+xml</dc:format>
        <dc:type
           rdf:resource="http://purl.org/dc/dcmitype/StillImage" />
      </cc:Work>
    </rdf:RDF>
  </metadata>
  <g
     inkscape:label="Calque 1"
     inkscape:groupmode="layer"
     id="layer1"
     transform="translate(-430.05294,-567.05293)">
    <path
       d="m 455.60471,567.05879 c -0.14949,0.0246 -0.28233,0.11577 -0.37031,0.21783 -0.11728,0.13607 -0.19048,0.31016 -0.2614,0.5228 -0.12261,0.36776 -0.57696,1.72204 -2.20004,3.07142 -1.22372,1.01671 -3.12102,2.00072 -6.05579,2.48328 -0.53003,-0.30878 -1.133,-0.50102 -1.7644,-0.50102 -0.80301,0 -1.55598,0.30669 -2.17834,0.7842 -3.95891,-0.29624 -5.64185,-3.79027 -5.64185,-3.79027 l -0.67523,-1.37234 0,1.52482 -0.0872,4.68338 c -0.27148,0.46723 -0.45922,0.99228 -0.45746,1.5466 0,0.0366 0,0.0725 0,0.10892 -0.5978,-0.57453 -1.29702,-1.00083 -2.00404,-1.24164 -0.49209,-0.1677 -0.98366,-0.24866 -1.45947,-0.21784 -0.47581,0.0308 -0.92609,0.1827 -1.307,0.45745 -0.76165,0.54951 -1.09687,1.50859 -1.08911,2.54863 0.008,1.04004 0.35046,2.17329 1.04559,3.13677 0.69508,0.96348 1.6513,1.66869 2.63569,2.00405 0.59274,0.20187 1.20392,0.26948 1.76451,0.17426 0.50181,0.36464 1.03768,0.7255 1.63367,1.06734 2.50559,1.43678 5.72657,2.58275 8.84402,2.6358 2.03423,0.0346 4.02456,-0.41426 5.72895,-1.54657 0.85858,0.46466 1.79144,0.90116 2.67927,1.21986 0.007,0.0147 -0.007,0.0287 0,0.0435 l 0.10896,0.34853 0.34855,-0.13063 0.0655,-0.0218 0.0655,0.0436 0.0655,0.0218 2.33072,0.84958 c 0.0642,0.66632 0.49354,1.34421 1.30699,1.65552 1.75282,0.67071 3.37652,1.52482 3.37637,1.52482 -0.83584,-2.83822 -1.12577,-5.10172 -3.31103,-4.90124 -0.23995,0.0222 -0.45322,0.0752 -0.63171,0.17426 l -2.09114,-1.30698 -0.0872,-0.0435 -0.0655,-0.0218 -0.0217,-0.0653 -0.13067,-0.43566 -0.34855,0.21776 c -0.53556,-0.34079 -1.12447,-0.67176 -1.72083,-0.95846 0.16727,-0.20542 0.34509,-0.40429 0.50099,-0.63167 2.01799,-2.94391 3.00616,-7.69117 2.2001,-15.00858 l 0,-0.0218 c -0.0264,-0.20093 -0.0711,-0.37247 -0.15249,-0.52279 -0.0814,-0.15032 -0.21844,-0.29321 -0.43565,-0.32675 -0.0544,-0.008 -0.10229,-0.008 -0.15254,0 z m -15.85814,7.86371 c 0.68867,0 1.31934,0.43989 1.5902,1.04559 0,0.007 0,0.0146 0,0.0218 -0.0295,0.17881 -0.0662,0.3604 -0.0655,0.54458 0,0.24465 0.0145,0.48439 0.0655,0.71884 0,0.007 0,0.0151 0,0.0218 0,0.007 0,0.015 0,0.0218 -0.26698,0.6142 -0.89564,1.06737 -1.5902,1.06737 -0.92537,0 -1.69917,-0.79495 -1.69902,-1.72087 0,-0.92591 0.77324,-1.72086 1.69902,-1.72086 z m 5.96863,0.15248 c 1.04999,0 1.96041,0.91031 1.96041,1.96049 4.2e-4,1.05016 -0.91042,1.9387 -1.96041,1.9387 -1.0506,0 -1.9387,-0.88854 -1.9387,-1.9387 0,-1.05018 0.8883,-1.96049 1.9387,-1.96049 z m -5.53299,0.67528 a 0.92386654,0.92386654 0 0 1 0.0439,0.28318 0.92386654,0.92386654 0 0 1 -1.43777,0.76241 1.0143963,1.0143963 0 1 0 2.02585,-0.10892 1.0137699,1.0137699 0 0 0 -0.63171,-0.93667 z m -7.86366,0.28318 a 1.2322405,1.4786885 0 0 1 1.32876,1.48125 1.2322405,1.4786885 0 1 1 -2.4615,0 1.2322405,1.4786885 0 0 1 1.13274,-1.48125 z m 13.8323,0.0871 a 0.92386654,0.92386654 0 0 1 0.0434,0.28318 0.92386654,0.92386654 0 0 1 -1.43767,0.76242 1.014363,1.014363 0 1 0 2.0258,-0.10892 1.0137699,1.0137699 0 0 0 -0.63165,-0.93668 z m 1.89512,4.13876 c 0,0 1.62241,0.45254 2.20015,1.19811 0.24822,0.32107 0.31309,0.5932 0.30487,0.87133 -0.81484,-0.28148 -1.46387,-0.48982 -1.503,-0.50105 -0.0238,-0.011 -0.0419,-0.012 -0.0655,-0.0218 -0.21147,-0.0879 -0.41487,-0.12114 -0.6099,-0.0871 0.24988,-0.1429 0.47183,-0.3005 0.67529,-0.45741 -0.36969,-0.4777 -1.00202,-1.00196 -1.00202,-1.0021 z m 0,1.61203 c -0.0812,0.0615 -0.15377,0.13188 -0.19606,0.21776 -0.15951,0.32615 -0.0445,0.69379 0.21788,0.98027 -1.60757,0.68814 -4.20998,0.36115 -7.51522,-0.806 3.74327,0.74884 6.01185,0.34602 7.4934,-0.39203 z m 10.95687,4.33481 a 0.73301863,0.73301863 0 0 1 0.0217,0 0.73301863,0.73301863 0 0 1 0.2614,1.43768 0.73301863,0.73301863 0 1 1 -0.41384,-1.39412 0.73301863,0.73301863 0 0 1 0.13063,-0.0436 z"
       id="path4323"
       inkscape:connector-curvature="0"
       opacity="0.8"
       color="#000000"
       fill-rule="evenodd"
       style="opacity:1;fill:#191919;fill-opacity:0.80000001" />
  </g>
</svg>
