<?xml version="1.0" encoding="UTF-8" standalone="no"?>
<svg
   xmlns:dc="http://purl.org/dc/elements/1.1/"
   xmlns:cc="http://creativecommons.org/ns#"
   xmlns:rdf="http://www.w3.org/1999/02/22-rdf-syntax-ns#"
   xmlns:svg="http://www.w3.org/2000/svg"
   xmlns="http://www.w3.org/2000/svg"
   xmlns:sodipodi="http://sodipodi.sourceforge.net/DTD/sodipodi-0.dtd"
   xmlns:inkscape="http://www.inkscape.org/namespaces/inkscape"
   width="32"
   height="32"
   version="1.1"
   id="svg2"
   inkscape:version="0.91 r13725"
   sodipodi:docname="icon-facebook.svg">
  <defs
     id="defs11" />
  <sodipodi:namedview
     pagecolor="#ffffff"
     bordercolor="#666666"
     borderopacity="1"
     objecttolerance="10"
     gridtolerance="10"
     guidetolerance="10"
     inkscape:pageopacity="0"
     inkscape:pageshadow="2"
     inkscape:window-width="2560"
     inkscape:window-height="1361"
     id="namedview9"
     showgrid="false"
     inkscape:zoom="14.911923"
     inkscape:cx="15.92276"
     inkscape:cy="10.708782"
     inkscape:window-x="0"
     inkscape:window-y="27"
     inkscape:window-maximized="1"
     inkscape:current-layer="layer1"
     showguides="false"
     inkscape:snap-global="true"
     inkscape:snap-bbox="true"
     inkscape:snap-page="true"
     inkscape:bbox-paths="true"
     inkscape:bbox-nodes="true"
     fit-margin-top="0"
     fit-margin-left="0"
     fit-margin-right="0"
     fit-margin-bottom="0" />
  <metadata
     id="metadata5724">
    <rdf:RDF>
      <cc:Work
         rdf:about="">
        <dc:format>image/svg+xml</dc:format>
        <dc:type
           rdf:resource="http://purl.org/dc/dcmitype/StillImage" />
        <dc:title></dc:title>
      </cc:Work>
    </rdf:RDF>
  </metadata>
  <g
     inkscape:label="Calque 1"
     inkscape:groupmode="layer"
     id="layer1"
     transform="translate(-356.31847,-524.71184)">
    <path
       style="fill:#191919;fill-opacity:0.8"
       d="m 358.08605,524.71184 c -0.97558,0 -1.76758,0.79004 -1.76758,1.76563 l 0,28.46679 c 0,0.97533 0.79188,1.76758 1.76758,1.76758 l 15.32617,0 0,-12.39258 -4.17188,0 0,-4.83008 4.17188,0 0,-3.56054 c 0,-4.13315 2.5238,-6.38477 6.21094,-6.38477 1.76616,0 3.28427,0.13251 3.72656,0.19141 l 0,4.31836 -2.55859,0.002 c -2.00505,0 -2.39258,0.95331 -2.39258,2.35156 l 0,3.08203 4.7832,0 -0.62305,4.83008 -4.16015,0 0,12.39258 8.15429,0 c 0.97521,0 1.76563,-0.79212 1.76563,-1.76758 l 0,-28.46679 c 0,-0.97559 -0.7903,-1.76563 -1.76563,-1.76563 l -28.46679,0 z"
       id="Blue_1_"
       inkscape:connector-curvature="0" />
  </g>
</svg>
