<svg height="34.454" width="32" xmlns="http://www.w3.org/2000/svg"><path d="m429.85705 545.99668c-.16145.0529-.27715.22126-.26871.39091v25.80011c0 .20468.18623.39091.39091.39091h5.8148l-3.78699 7.23184c-.13666.23736.068.58887.34212.58637h3.88464c.14253-.003.27974-.0915.34205-.21993l4.00683-7.59828h2.2966v5.86366c0 .20468.18623.39091.39091.39091h2.34547c.20468 0 .39091-.18623.39091-.39091v-5.86366h2.24773l4.03131 7.64723c.0625.12814.19975.21633.34197.21984h3.88471c.27403.002.47902-.349.34205-.58636l-3.81138-7.28071h5.86366c.20468 0 .39091-.18623.39091-.39091v-3.12729l.61084.29318c.61373.29764 1.33191.0213 1.58803-.61083.25621-.63203-.0453-1.41252-.6597-1.71016l-1.53917-.75743v-19.88758c0-.20468-.18623-.39091-.39091-.39091h-28.92739c-.0407-.006-.0816-.006-.1222 0zm6.32791 1.56364c.17426-.004.36081.056.58636.21993.16262.19897.27919.42726.36652.65962.0774.11063.12908.23791.14651.36644 0 .0579 0 .11384 0 .17106.11149.63117.0586 1.31378 0 1.93016-.36605 3.11595-1.74244 6.1488-1.17273 9.33292.068.53187.12767 1.07844.17106 1.61258.75462-2.94926 1.58374-5.89102 2.32108-8.84443.15761-.83061.33125-1.64198.51303-2.46758-.0141-.19968-.008-.3967.0735-.58637-.28287-1.29438 1.94001-1.27656 1.83235.0244.36175 1.29439-.37363 2.53264-.73296 3.73813-.1494.38317-.30381.76696-.46424 1.14826-.54681 1.59906-.98158 3.2641-.70849 4.95972.0266.4239.0344.84608.0485 1.27046 1.07133-3.91701 2.46578-7.76803 4.4466-11.31202 1.21707.78268 1.25913 2.56992.61076 3.73812-.94475 2.60261-2.74012 4.987-2.8341 7.84269.49575-1.38266.90246-2.79979 1.58811-4.10457.4365-.74007.99597-2.23397 2.07676-1.53925 1.07305.67378.43789 1.84971.0977 2.73638-.13556.41859-.24181.86016-.34212 1.29485.67534-.0145 1.39039.2082 1.7591.75743l-.0485-.19546.87955.61076c.57269.39154 1.12379.38943 1.7591.34213.63484-.0478 1.33746-.1702 2.05228.0244 1.12543.30655 1.69358 1.13333 1.78349 1.95455.0696.0192.15246.0405.21985.0733l6.08359 2.98061-.0242 2.73638-7.01192-3.42047c-.15355-.0743-.28091-.16934-.39091-.29318-.30069.14831-.64164.22258-.97728.21992-.69222-.005-1.40884-.32046-2.10114-.85507-.72405-.55932-1.19728-1.38242-1.51478-2.07676-.3175-.69433-.46417-1.27046-.46417-1.27046l-.0493-.14659c-.0711.55963-.83804.86923-1.36819.70849-.05.13752-.12666.26113-.26871.31765-.60341.39959-1.55934.4132-2.12554-.1222-.0227-.0182-.0524-.0292-.0735-.0488-.3028 1.12809-.67495 2.2439-1.41705 3.17607-.44384.82787-1.34583.58754-1.80796 0 0 .0897 0 .17927 0 .26879-.0743 1.07477-.19108 2.18457-.63523 3.17615-.90019.7138-2.07605-.51436-1.85683-1.49039.24197-1.43261.21578-2.87468.26871-4.32441-.24502 1.71071-.33344 3.44252-.78182 5.10623-.43055.99487-1.76809.53024-2.05228-.31757-.008.0734-.0172.14682-.0242.21985.0672.20999.15707.40717.24432.61083.0117 1.38008-2.31653 1.22856-2.32099-.0977-.0963-.47785-.0787-.94053-.0493-1.41705-.72749-3.12244-.5895-6.35105-.41531-9.52845.084-2.55335.0808-5.10725.31758-7.64723.17974-1.11324 1.32839-1.53175 2.19895-.90394-.47308 1.5835-.73874 3.20961-.87955 4.83752.2795-1.40001.64039-2.7829 1.14826-4.12904.23736-.66494.56424-2.01162 1.31932-2.02781zm-1.17274 6.66996c-.29943.97493-.45165 1.99489-.34204 3.02955-.15723 1.6996-.63156 3.41969-.29319 5.13063.0594.6887.12901 1.3606.19546 2.05228-.0289-2.01968-.0493-4.04256.0977-6.05912.0845-1.38789.20374-2.76983.34204-4.15334z" fill="#191919" fill-opacity=".80000001" transform="translate(-429.58791 -545.99218)"/></svg>