<?xml version="1.0" encoding="UTF-8" standalone="no"?>
<svg
   xmlns:dc="http://purl.org/dc/elements/1.1/"
   xmlns:cc="http://creativecommons.org/ns#"
   xmlns:rdf="http://www.w3.org/1999/02/22-rdf-syntax-ns#"
   xmlns:svg="http://www.w3.org/2000/svg"
   xmlns="http://www.w3.org/2000/svg"
   xmlns:sodipodi="http://sodipodi.sourceforge.net/DTD/sodipodi-0.dtd"
   xmlns:inkscape="http://www.inkscape.org/namespaces/inkscape"
   width="32"
   height="31.23"
   version="1.1"
   id="svg2"
   inkscape:version="0.91 r13725"
   sodipodi:docname="icon-gmic.svg">
  <defs
     id="defs9" />
  <sodipodi:namedview
     pagecolor="#ffffff"
     bordercolor="#666666"
     borderopacity="1"
     objecttolerance="10"
     gridtolerance="10"
     guidetolerance="10"
     inkscape:pageopacity="0"
     inkscape:pageshadow="2"
     inkscape:window-width="2560"
     inkscape:window-height="1361"
     id="namedview7"
     showgrid="false"
     inkscape:zoom="14.432748"
     inkscape:cx="6.946246"
     inkscape:cy="10.884837"
     inkscape:window-x="0"
     inkscape:window-y="27"
     inkscape:window-maximized="1"
     inkscape:current-layer="layer1" />
  <metadata
     id="metadata6511">
    <rdf:RDF>
      <cc:Work
         rdf:about="">
        <dc:format>image/svg+xml</dc:format>
        <dc:type
           rdf:resource="http://purl.org/dc/dcmitype/StillImage" />
      </cc:Work>
    </rdf:RDF>
  </metadata>
  <g
     inkscape:label="Calque 1"
     inkscape:groupmode="layer"
     id="layer1"
     transform="translate(-432.3687,-539.7421)">
    <path
       id="path6483"
       d="m 457.15847,544.62918 c -0.0347,-0.0941 -0.0304,-0.22907 0.009,-0.29993 0.0736,-0.34631 0.40697,-1.10216 0.26608,-1.43317 -0.21285,-0.40163 -1.05837,-1.4777 -0.96469,-1.6177 0.0527,-0.0786 0.49816,-0.20512 0.99019,-0.2812 0.78248,-0.12093 0.9583,-0.21261 1.40106,-0.7306 0.27849,-0.32577 0.55493,-0.55981 0.61437,-0.52008 0.0596,0.0398 0.23766,0.36387 0.39611,0.7203 0.26744,0.60164 0.33928,0.66838 1.00229,0.93177 0.38811,0.16284 0.76561,0.28268 1.00985,0.50918 0.13965,0.12948 -0.23568,0.73121 -0.67243,1.04199 -0.27979,0.19893 -0.34723,0.37875 -0.38581,1.02928 -0.0673,0.67496 -0.0112,0.88625 -0.24065,1.05537 -0.0991,0.07 -0.24883,0.0935 -0.33283,0.0522 -0.0841,-0.0413 -0.21652,-0.0992 -0.2945,-0.12861 -0.078,-0.0294 -0.31887,-0.16278 -0.53539,-0.29629 -0.29002,-0.17884 -0.63142,-0.19252 -1.29684,-0.052 -0.3324,-6.2e-4 -0.85805,0.22818 -0.96655,0.0195 z m -10.11561,5.33149 c -0.15081,-0.1095 -0.28345,-0.32251 -0.29474,-0.47336 -0.244,-0.61099 -0.50983,-2.12287 -1.06941,-2.48867 -0.74365,-0.40054 -3.16115,-1.18948 -3.16115,-1.50245 0,-0.17568 0.55766,-0.83142 1.23921,-1.45721 1.08374,-0.99502 1.26061,-1.31822 1.4095,-2.57575 0.0937,-0.79088 0.27899,-1.43797 0.41181,-1.43797 0.13289,0 0.74303,0.31657 1.35591,0.70349 1.0346,0.65311 1.21445,0.68205 2.51074,0.40404 0.76772,-0.14934 1.47464,-0.35415 2.08596,-0.25659 0.3494,0.0558 0.39115,1.37301 0.0378,2.3042 -0.22669,0.59627 -0.14511,0.94368 0.4672,1.98845 0.59327,1.11214 0.89856,1.38033 0.71841,1.87882 -0.0808,0.21047 -0.28786,0.40146 -0.46033,0.42444 -0.1724,0.023 -0.43687,0.0704 -0.58775,0.10549 -0.15081,0.0351 -0.6607,0.078 -1.13306,0.0954 -0.63272,0.0233 -1.17419,0.35479 -2.05699,1.25922 -0.51442,0.34192 -1.0897,1.23875 -1.47285,1.02849 z m -6.47621,5.46709 c -0.69321,-0.0204 -2.4786,-0.16939 -3.29112,-0.32278 -3.08204,-0.75332 -4.96353,-3.22206 -4.90553,-4.93914 0,-1.83482 1.93714,-2.94099 5.60346,-3.19973 4.33249,-0.30575 7.10981,0.54647 4.2014,1.28919 -3.75615,0.95921 -3.61049,1.89574 0.41646,2.67698 1.44648,0.28063 8.47806,-0.12314 10.62259,-0.60996 l 1.78272,-0.40469 -2.5095,0.12269 c -2.02275,0.0989 -2.53915,0.0454 -2.66242,-0.27584 -0.28916,-0.75368 0.60078,-1.23717 2.27735,-1.23717 1.83484,0 7.78925,0.96141 9.33747,1.50764 1.11532,0.23405 1.79898,0.62038 2.34287,1.01357 0.64879,0.62268 0.71393,0.80541 0.41553,1.16499 -0.22719,0.2737 -0.61226,0.37465 -1.07512,0.28181 -2.39709,-0.48085 -4.14216,-0.33086 -7.15621,0.34441 -3.77198,1.19662 -11.46376,2.70412 -15.39995,2.58803 z m 16.32301,1.60168 c 0.0385,3.3718 0.16769,4.47316 0.84881,7.23948 l 0.80333,3.26268 -0.98932,0.85519 c -2.63066,2.27402 -9.54145,3.28441 -14.17091,2.07182 -1.05422,-0.3624 -2.17648,-0.63151 -3.15408,-1.15755 l -1.13821,-0.62956 c 1.11848,-3.36362 1.16098,-6.45912 1.41707,-10.18783 l 0.17247,-2.79683 c 5.87407,-0.10351 10.78345,-1.29232 15.53872,-2.65453 0.48353,-0.0409 0.63353,0.62551 0.67212,3.99713 z"
       inkscape:connector-curvature="0"
       opacity="0.8"
       style="opacity:1;fill:#191919;fill-opacity:0.80000001" />
  </g>
</svg>
