<svg height="36.27" width="32" xmlns="http://www.w3.org/2000/svg"><path d="m411.07562 506.14348c3.52892-3.14548 6.29475-7.03529 10.05634-10.37438.32718-.28257.4851-.57106.55321-1.01061.22424-3.9098 2.72178-7.98686 2.08518-11.90673-2.50068-1.2986-4.27096-1.71395-6.87487-2.71999.68835-2.9483 2.74091-5.3651.68492-6.36764-4.11283.97777-6.64242 3.38179-10.98685 3.5482-3.16176-.35067-2.06362-5.96107-4.79104-7.24518-2.66881 1.03167-4.91255 4.29195-6.54569 7.37818-.33497.61303-.21168 1.33344.36987 1.68711.44256.26914 3.30769 1.22557 4.06365 1.41532.80757.20268.40807.44184-4.43002 2.65182-1.2794.58448-2.20013 1.02846-2.76719 1.33458-1.0024.42835-.53814 1.0613-.31969 1.76329.35374 1.13476.93287 2.89811 1.59116 4.83209l1.87566 5.51038c.0592.3254.19868.42635.44912.61304 4.96102 3.22579 8.79308 6.64221 14.08464 8.96648.36088.22645.58791.0692.9016-.076zm-5.58777-6.82883c-.29156-3.49829-.81-6.31988-1.07679-9.88.0428-.12079 4.85237 1.65127 5.08182 1.87251.41393 3.68791.45847 6.80984.75939 10.7644.0799 1.02103.0643 1.12212-.17541 1.12055-2.06134-.83842-4.46186-2.2239-4.58901-3.87746zm6.78735-8.17133c.74275-.54036 1.5716-1.1334 2.3604-1.49378.23702 2.95715.26043 5.21953.36038 8.39536-.67172.64423-1.3822 1.3006-2.13152 1.81832-.44591-3.09744-.41385-5.03513-.58926-8.7199zm-14.62557 5.27765c-1.03567-3.37537-2.31543-6.70547-3.22252-10.10875 1.3398.43428 3.20624.6945 4.00853 1.72824.11116.34489 1.86809 7.48526 2.40131 9.75928-1.06573.28449-1.78628-.56063-3.18732-1.37877zm20.92753-1.09036c.18505-3.03097.40108-5.46683.57349-8.67778.83684-1.22057 1.64106-1.55925 3.12413-2.42879-.74146 3.86875-.73525 6.11885-2.37867 10.59491-.34475.3526-1.32259.73197-1.31895.51166zm-14.4099-8.93657c.098-.15849 2.7569-1.73559 2.92617-1.73559.18148 0 6.30404 2.30836 6.41262 2.41773.18697.1884-2.61255 2.22618-3.0274 2.20355-2.06991-.87654-4.44516-1.55653-6.31139-2.88569zm-8.32768-1.97689c1.89629-.81114 4.46672-1.57809 6.58639-1.92698-.18141.29349-3.58547 2.74669-3.80314 2.74077-.99134-.20775-1.78577-.4861-2.78325-.81379zm20.22048-.98876c1.53376-1.02111 3.22266-1.01861 4.97595-.87483-.72526.85941-1.87687 1.51556-2.87206 2.10268-.7611-.3431-1.40147-.67015-2.10389-1.22785z" fill="#191919" fill-opacity=".80000001" transform="translate(-391.8739 -470.06715)"/></svg>