<?xml version="1.0" encoding="UTF-8" standalone="no"?>
<svg xmlns="http://www.w3.org/2000/svg" xmlns:sodipodi="http://sodipodi.sourceforge.net/DTD/sodipodi-0.dtd" xmlns:inkscape="http://www.inkscape.org/namespaces/inkscape" width="38.675" height="38.436" version="1.1">
 <metadata id="metadata6867"/>
 <g inkscape:label="Calque 1" inkscape:groupmode="layer" id="layer1" transform="translate(-540.66229,-453.14443)">
  <path sodipodi:nodetypes="csssscssssssccsscsssssscc" inkscape:connector-curvature="0" id="path4698" d="m 544.38122,453.14473 c -1.2266,0 -3.8685,1.3292 -3.7123,3.6729 0.1158,1.7369 0.2026,15.9808 0.2026,23.1222 0,1.5458 0.4516,3.3437 2.539,3.3437 1.0897,0 2.7761,0.037 3.9625,0.037 1.6195,0 -0.796,5.7504 -0.1237,8.2594 3.4828,-3.4828 5.5636,-7.771 7.5842,-7.771 4.3455,0 15.6342,-0.021 21.7625,-0.021 1.3595,0 1.9996,-0.9794 1.9996,-2.3389 0,-7.1489 0.7421,-17.9048 0.7421,-24.6317 0,-1.7622 -2.2707,-3.0936 -3.8076,-3.0936 -4.7047,0 -28.1063,-0.5793 -31.1489,-0.5793 z m 30.7947,3.1033 c 0.7226,0 0.9998,0.6947 0.9998,1.2207 0,6.911 0.013,16.0527 0.013,23.182 0,1.5092 -14.5902,0.903 -21.6236,0.903 -1.6373,0 -3.1264,3.0267 -5.0528,4.9531 0,-1.7233 1.437,-4.9716 0.1326,-4.9716 -1.8531,0 -3.0855,-0.018 -4.9387,-0.018 -0.6685,0 -1.3325,-0.6362 -1.3325,-1.7326 0,-8.0276 -0.3628,-21.7347 -0.3628,-21.7347 0,-1.5782 1.18,-2.3051 2.0884,-2.3108 8.8915,-0.057 19.1696,0.5094 30.0764,0.5094 z" fill="#ffffff"/>
 </g>
</svg>
