<?xml version="1.0" encoding="UTF-8" standalone="no"?>
<svg
   xmlns:dc="http://purl.org/dc/elements/1.1/"
   xmlns:cc="http://creativecommons.org/ns#"
   xmlns:rdf="http://www.w3.org/1999/02/22-rdf-syntax-ns#"
   xmlns:svg="http://www.w3.org/2000/svg"
   xmlns="http://www.w3.org/2000/svg"
   xmlns:sodipodi="http://sodipodi.sourceforge.net/DTD/sodipodi-0.dtd"
   xmlns:inkscape="http://www.inkscape.org/namespaces/inkscape"
   height="22.490129"
   width="32"
   version="1.1"
   id="svg4"
   sodipodi:docname="icon-order.svg"
   inkscape:version="0.92.1 r">
  <metadata
     id="metadata10">
    <rdf:RDF>
      <cc:Work
         rdf:about="">
        <dc:format>image/svg+xml</dc:format>
        <dc:type
           rdf:resource="http://purl.org/dc/dcmitype/StillImage" />
        <dc:title></dc:title>
      </cc:Work>
    </rdf:RDF>
  </metadata>
  <defs
     id="defs8" />
  <sodipodi:namedview
     pagecolor="#ffffff"
     bordercolor="#666666"
     borderopacity="1"
     objecttolerance="10"
     gridtolerance="10"
     guidetolerance="10"
     inkscape:pageopacity="0"
     inkscape:pageshadow="2"
     inkscape:window-width="1280"
     inkscape:window-height="1371"
     id="namedview6"
     showgrid="false"
     inkscape:zoom="4.8034176"
     inkscape:cx="30.315435"
     inkscape:cy="-9.0396204"
     inkscape:window-x="1280"
     inkscape:window-y="27"
     inkscape:window-maximized="0"
     inkscape:current-layer="svg4"
     fit-margin-top="0"
     fit-margin-left="0"
     fit-margin-right="0"
     fit-margin-bottom="0" />
  <path
     style="fill:#191919;fill-opacity:0.8;stroke-width:0.05228826"
     d="M 2.4923149,0 C 1.7357033,0 1.1222593,0.6134962 1.1222593,1.3700553 V 14.984474 c 0,0.252239 0.2046545,0.456893 0.4568929,0.456893 H 17.013653 c 0.25224,0 0.45627,-0.204706 0.45627,-0.456893 V 1.3700553 C 17.469923,0.6134962 16.85705,0 16.100492,0 Z m 5.1868609,1.8244518 c 0.022517,-0.020919 4.6392902,5.6838814 4.8810182,6.0313644 0.0699,0.100482 0.05988,0.171389 -0.06679,0.484982 -0.3762,0.931374 -1.352507,2.0420558 -2.291956,2.6077858 -0.5234991,0.315247 -1.4066765,0.75275 -1.5198567,0.75275 -0.030404,0 -1.1270722,-1.298083 -2.4367633,-2.8849188 C 4.935139,7.2295812 3.8569589,5.9115322 3.8492623,5.8878052 3.8415256,5.8640802 4.0373863,5.7808332 4.2836855,5.7024262 4.999619,5.4745042 5.7102815,5.1006012 6.0919091,4.7518139 6.7497418,4.1505903 7.310982,3.1941029 7.5437309,2.2776001 7.603585,2.0419141 7.6644961,1.838112 7.6791758,1.8244518 Z M 9.0286336,2.4093 9.9786222,3.5059687 c 0.5224468,0.603188 1.6542198,1.9018035 2.5147848,2.8855425 l 1.564797,1.78825 -0.201607,0.287743 c -0.319112,0.455743 -1.763821,1.8821638 -2.318171,2.2888348 -0.539306,0.395633 -1.6248727,0.97814 -2.2863386,1.227121 -0.4796409,0.180533 -0.5246123,0.184278 -0.5199351,0.04306 0.00251,-0.07649 0.2535516,-0.23111 0.8519933,-0.524304 0.4894584,-0.239796 1.0324384,-0.561207 1.2826714,-0.759617 0.79134,-0.627433 1.501979,-1.5583238 1.858158,-2.4348898 l 0.156667,-0.386358 -2.024811,-2.525396 C 9.7431474,4.0067944 8.811312,2.8422325 8.7858311,2.8081453 8.76033,2.7740475 8.8041581,2.6703981 8.8838262,2.5778263 Z M 19.688851,2.8331121 c -0.504373,0 -0.913162,0.4087897 -0.913162,0.9131624 V 16.807677 h -7.058751 c 0.66882,0.576897 1.130664,1.384044 1.263947,2.298199 h 7.443864 c 0.264422,-1.813464 1.825701,-3.211361 3.71132,-3.211361 1.885253,0 3.445652,1.397846 3.710073,3.211361 h 3.696965 C 31.795293,19.105876 32,18.901794 32,18.649608 v -1.385661 c 0,-0.252183 -0.204707,-0.45627 -0.456893,-0.45627 h -1.111024 v -6.205508 c 0,-0.7285318 -0.217781,-1.4403868 -0.62542,-2.0441598 L 27.027229,4.4422251 C 26.348057,3.436251 25.21382,2.8331121 24,2.8331121 Z m 1.616602,2.4792071 h 3.466022 c 0.148604,0 0.288335,0.07197 0.373879,0.193493 l 2.222049,3.157682 c 0.212918,0.30254 -0.0034,0.719669 -0.373255,0.719669 h -5.688695 c -0.252186,0 -0.456893,-0.204655 -0.456893,-0.456893 v -3.157682 c 0,-0.252186 0.204759,-0.456269 0.456893,-0.456269 z M 3.7394079,6.1000242 6.11001,8.9718342 8.4806112,11.843645 v 0.920653 c 0,0.506268 -0.00713,0.918874 -0.015604,0.917531 -0.00854,-0.0014 -0.6849404,-0.83017 -1.5030047,-1.841928 C 6.1439391,10.828141 5.0768647,9.5081062 4.5901533,8.9062962 l -0.8850754,-1.094171 0.017477,-0.856363 z m 9.9349311,2.932979 0.323944,0.298354 0.324569,0.298354 -0.333307,0.300226 c -0.474416,0.4268918 -1.648601,1.1894468 -2.410549,1.5654208 -0.86038,0.424544 -2.8673632,1.112229 -2.8393532,0.973082 0.012148,-0.06048 0.2124224,-0.168485 0.5155654,-0.27838 0.7613188,-0.275988 1.7258708,-0.776396 2.2613718,-1.173441 0.266181,-0.197365 0.860505,-0.724731 1.320745,-1.1715698 z m 0.197238,1.3744248 c 0.03065,0.0026 0.05369,0.01722 0.07864,0.03933 0.05965,0.05283 0.107982,0.114417 0.107982,0.136693 0,0.05837 -1.091483,0.679986 -1.903721,1.084186 -0.586704,0.291965 -3.1342161,1.211516 -3.3567926,1.211516 -0.038031,0 -0.069279,-0.02666 -0.069279,-0.05867 0,-0.03204 0.244153,-0.132288 0.5424048,-0.222828 1.5427428,-0.468342 2.6779638,-0.989521 3.8473908,-1.766404 0.499014,-0.33151 0.661395,-0.431743 0.753374,-0.423813 z m 0.168526,0.549894 c 0.01307,0 0.01563,0.198429 0.0056,0.440665 l -0.0181,0.440665 -2.13841,0.768354 c -1.175982,0.422836 -2.3697514,0.852495 -2.6527407,0.954358 l -0.5143164,0.185378 0.018719,-0.317703 0.018719,-0.317078 1.3943981,-0.477492 c 1.623976,-0.556204 2.540326,-0.934703 3.309988,-1.366933 0.303705,-0.17056 0.563029,-0.310214 0.57611,-0.310214 z M 0.45626889,16.807677 C 0.20408277,16.807677 0,17.01176 0,17.263947 v 1.385661 c 0,0.252186 0.20408277,0.456268 0.45626889,0.456268 H 5.5594907 c 0.1332305,-0.914211 0.5945031,-1.721302 1.263323,-2.298199 z m 8.81391941,0 c -1.5691186,0 -2.8412272,1.272007 -2.8412272,2.841228 0,1.569171 1.2721086,2.841225 2.8412272,2.841225 1.5691187,0 2.8412267,-1.272054 2.8412267,-2.841225 0,-1.569221 -1.272108,-2.841228 -2.8412267,-2.841228 z m 14.8652567,0 c -1.56917,0 -2.841226,1.272007 -2.841226,2.841228 0,1.569171 1.272056,2.841225 2.841226,2.841225 1.569119,0 2.841226,-1.272054 2.841226,-2.841225 0,-1.569221 -1.272107,-2.841283 -2.841226,-2.841228 z M 9.2701883,18.228292 c 0.7845847,0 1.4206137,0.636029 1.4206137,1.420613 0,0.784586 -0.636029,1.420612 -1.4206137,1.420612 -0.7845854,0 -1.4206136,-0.636026 -1.4206136,-1.420612 0,-0.784584 0.6360282,-1.420613 1.4206136,-1.420613 z m 14.8652567,0 c 0.784586,0 1.420614,0.636029 1.420614,1.420613 0,0.784586 -0.636028,1.420612 -1.420614,1.420612 -0.784585,0 -1.420612,-0.636026 -1.420612,-1.420612 0,-0.784584 0.635975,-1.420613 1.420612,-1.420613 z"
     id="path2"
     inkscape:connector-curvature="0" />
</svg>
