<svg height="25.995" width="32" xmlns="http://www.w3.org/2000/svg"><path d="m16.847656 0c-.447867.00059375-.905045.12844938-1.265625.38085938-.72935.51000999-.812912 1.35234562-.164062 1.88476562l-.001953.0019531 4.167968 3.390625-12.7070309.0136719h-.0175781c-1.05011.00085-2.0604656.69114-2.2597656 1.5625-.20567.88744.5075694 1.6232331 1.5996094 1.6269531l-.0019532.0039063 6.4414064-.0117188-11.4941408 8.8222654c-.0144999.0111-.0294687.022203-.0429687.033203-1.08452.83009-1.43476312 2.210205-.75195312 3.083985.69297002.88852 2.16617872.888946 3.26171872.003906l6.2734375-5.132813c0 0-.0910039.69315-.0839844 1.109376.0072785.418196.1405496 1.228145.3398438 1.861328.41998 1.34157 1.13348 2.583544 2.125 3.677734 1.01703 1.12376 2.268294 2.027039 3.714844 2.667969 1.52061.67356 3.169529 1.016322 4.880859 1.013672 1.7085-.002 3.35462-.35284 4.875-1.03125 1.44656-.6471 2.698884-1.552615 3.714844-2.677735.99017-1.09797 1.700434-2.341973 2.121094-3.683594.21188-.677929.34683-1.36613.40039-2.05664.0527-.68018.030394-1.360436-.066406-2.041016-.18846-1.32684-.647086-2.572261-1.353516-3.707031-.64621-1.0422-1.480083-1.9545362-2.470703-2.7226562l.003907-.0019532-9.998047-7.67578122c-.009-.007-.015691-.01333125-.025391-.01953126-.32807-.25178499-.766976-.37754687-1.214844-.37695312zm4.009766 8.8457031c1.67453-.002 3.27383.5482294 4.53125 1.5683589.64005.52141 1.158116 1.137906 1.535156 1.822266.38561.69627.624083 1.463158.695313 2.273438.0708.82524-.03787 1.643665-.31836 2.416015-.28661.78686-.749159 1.524189-1.380859 2.167969-1.29263 1.31668-3.100344 2.062626-5.058594 2.066406-1.96092.003-3.771813-.736071-5.064453-2.050781-.6317-.64045-1.094419-1.376549-1.380859-2.162109-.28018-.771-.388707-1.591599-.316407-2.417969.0686-.80802.307327-1.577821.691407-2.275391.37698-.68481.895529-1.304225 1.537109-1.828125 1.25584-1.0238598 2.856127-1.5774179 4.529297-1.5800779zm.144531 2.0410159c-1.13567 0-2.175559.399847-2.949219 1.054687-.78821.66653-1.311293 1.606728-1.371093 2.673828-.06017 1.09577.378693 2.114001 1.152343 2.869141.78821.76834 1.912129 1.251953 3.167969 1.251953 1.25584 0 2.377576-.483613 3.166016-1.251953.77343-.75514 1.214197-1.772301 1.154297-2.869141-.06017-1.06603-.582874-2.007298-1.371094-2.673828-.77365-.65484-1.814679-1.054687-2.949219-1.054687z" fill="#191919" fill-opacity=".80000001" transform=""/></svg>