<?xml version="1.0" encoding="UTF-8" standalone="no"?>
<svg xmlns="http://www.w3.org/2000/svg" xmlns:sodipodi="http://sodipodi.sourceforge.net/DTD/sodipodi-0.dtd" xmlns:inkscape="http://www.inkscape.org/namespaces/inkscape" width="32" height="33.25" version="1.1">
 <metadata id="metadata6511"/>
 <g inkscape:label="Calque 1" inkscape:groupmode="layer" id="layer1" transform="translate(-442.2075,-546.38738)">
  <path sodipodi:nodetypes="cccccccsssssccccccsccccccccccc" inkscape:connector-curvature="0" id="path8612" d="m 442.35001,546.38809 c -0.0495,-0.004 -0.0833,0.009 -0.1088,0.034 -0.40527,0.40525 2.90651,3.98482 6.53062,7.63266 -0.0251,0.0247 -0.0502,0.0501 -0.0749,0.0749 -2.7693,2.76933 -4.37413,6.64823 -4.3742,10.56461 0,3.91646 1.6049,7.79531 4.3742,10.56463 l 0.0208,0.0204 c 2.76802,2.75775 6.64342,4.35374 10.55096,4.35374 3.91643,0 7.79535,-1.60481 10.56466,-4.37413 2.7693,-2.76933 4.37413,-6.64819 4.37413,-10.56464 0,-3.91638 -1.60483,-7.79528 -4.37413,-10.56461 -2.76938,-2.76933 -6.64823,-4.38095 -10.56466,-4.38095 -3.34326,0 -6.66365,1.17281 -9.28572,3.23809 -3.46568,-3.39815 -6.88274,-6.55275 -7.63262,-6.59864 z m 7.63262,6.61225 c 4.07393,3.99558 8.23814,8.32653 8.23814,8.32653 l 4.07486,4.50339 c 0.58528,0.21379 1.12926,0.28372 1.70745,0.53061 1.39928,0.59753 2.57409,1.43398 3.14288,2.90475 0.63521,1.64281 -0.84583,4.54305 -2.3674,4.04084 0.76609,-0.0514 1.59751,-0.99182 1.17689,-1.72791 -0.95865,-1.67772 -4.4323,-1.3627 -4.30607,-5.10202 l -4.39457,-4.18369 c 0,0 -4.4247,-4.16901 -8.46262,-8.23128 z m 13.40145,13.5238 c 1.96077,1.22348 2.44644,1.72819 3.44898,2.9728 -0.51759,-0.9966 -0.7516,-1.21922 -1.27894,-1.68708 -0.6598,-0.58549 -1.41929,-0.96394 -2.17004,-1.28572 z" opacity="0.8" color="#000000" stroke-width="5"/>
 </g>
</svg>
