<?xml version="1.0" encoding="UTF-8" standalone="no"?>
<svg xmlns="http://www.w3.org/2000/svg" xmlns:sodipodi="http://sodipodi.sourceforge.net/DTD/sodipodi-0.dtd" xmlns:inkscape="http://www.inkscape.org/namespaces/inkscape" width="44.824" height="50.799" version="1.1">
 <metadata id="metadata5622"/>
 <g inkscape:label="Calque 1" inkscape:groupmode="layer" id="layer1" transform="translate(-391.8739,-455.53391)">
  <path sodipodi:nodetypes="ccccccccccssccsccccccccccccccccccccccccccsscccccccccc" inkscape:connector-curvature="0" id="path4786" d="m 418.77048,506.06741 c 4.9431,-4.406 8.8173,-9.8546 14.0863,-14.5318 0.4583,-0.3958 0.6795,-0.7999 0.7749,-1.4156 0.3141,-5.4766 3.8125,-11.1875 2.9208,-16.6782 -3.5028,-1.819 -5.9825,-2.4008 -9.6299,-3.81 0.9642,-4.1298 3.8393,-7.5151 0.9594,-8.9194 -5.761,1.3696 -9.3043,4.737 -15.3897,4.9701 -4.4288,-0.4912 -2.8906,-8.3499 -6.711,-10.1486 -3.7383,1.4451 -6.8812,6.0119 -9.1688,10.3349 -0.4692,0.8587 -0.2965,1.8678 0.5181,2.3632 0.6199,0.377 4.6332,1.7167 5.6921,1.9825 1.1312,0.2839 0.5716,0.6189 -6.2053,3.7145 -1.7921,0.8187 -3.0818,1.4406 -3.8761,1.8694 -1.4041,0.6 -0.7538,1.4866 -0.4478,2.4699 0.4955,1.5895 1.3067,4.0595 2.2288,6.7685 l 2.6273,7.7186 c 0.083,0.4558 0.2783,0.5972 0.6291,0.8587 6.9491,4.5185 12.3168,9.304 19.7289,12.5597 0.5055,0.3172 0.8235,0.097 1.2629,-0.1064 z m -7.827,-9.5654 c -0.4084,-4.9002 -1.1346,-8.8525 -1.5083,-13.8393 0.06,-0.1692 6.7969,2.313 7.1183,2.6229 0.5798,5.1658 0.6422,9.5388 1.0637,15.0781 0.112,1.4302 0.09,1.5718 -0.2457,1.5696 -2.8874,-1.1744 -6.2499,-3.1151 -6.428,-5.4313 z m 9.5073,-11.4459 c 1.0404,-0.7569 2.2014,-1.5876 3.3063,-2.0924 0.332,4.1422 0.3648,7.3112 0.5048,11.7597 -0.9409,0.9024 -1.9361,1.8218 -2.9857,2.547 -0.6246,-4.3387 -0.5797,-7.0529 -0.8254,-12.2143 z m -20.4866,7.3926 c -1.4507,-4.728 -3.2433,-9.3926 -4.5139,-14.1597 1.8767,0.6083 4.4911,0.9728 5.6149,2.4208 0.1557,0.4831 2.6167,10.4849 3.3636,13.6702 -1.4928,0.3985 -2.5021,-0.7853 -4.4646,-1.9313 z m 29.314,-1.5273 c 0.2592,-4.2456 0.5618,-7.6576 0.8033,-12.1553 1.1722,-1.7097 2.2987,-2.1841 4.3761,-3.4021 -1.0386,5.4191 -1.0299,8.5709 -3.3319,14.8407 -0.4829,0.4939 -1.8526,1.0253 -1.8475,0.7167 z m -20.1845,-12.5178 c 0.1373,-0.222 3.8617,-2.4311 4.0988,-2.4311 0.2542,0 8.8303,3.2334 8.9824,3.3866 0.2619,0.2639 -3.6595,3.1183 -4.2406,3.0866 -2.8994,-1.2278 -6.2265,-2.1803 -8.8406,-4.0421 z m -11.6649,-2.7691 c 2.6562,-1.1362 6.2567,-2.2105 9.2258,-2.6992 -0.2541,0.4111 -5.0223,3.8474 -5.3272,3.8391 -1.3886,-0.291 -2.5014,-0.6809 -3.8986,-1.1399 z m 28.3236,-1.385 c 2.1484,-1.4303 4.5141,-1.4268 6.97,-1.2254 -1.0159,1.2038 -2.629,2.1229 -4.023,2.9453 -1.0661,-0.4806 -1.9631,-0.9387 -2.947,-1.7199 z" opacity="0.8" fill="#ffffff"/>
 </g>
</svg>
