<?xml version="1.0" encoding="UTF-8" standalone="no"?>
<svg
   xmlns:dc="http://purl.org/dc/elements/1.1/"
   xmlns:cc="http://creativecommons.org/ns#"
   xmlns:rdf="http://www.w3.org/1999/02/22-rdf-syntax-ns#"
   xmlns:svg="http://www.w3.org/2000/svg"
   xmlns="http://www.w3.org/2000/svg"
   xmlns:sodipodi="http://sodipodi.sourceforge.net/DTD/sodipodi-0.dtd"
   xmlns:inkscape="http://www.inkscape.org/namespaces/inkscape"
   width="32"
   height="26.01"
   version="1.1"
   id="svg2"
   inkscape:version="0.91 r13725"
   sodipodi:docname="icon-twitter.svg">
  <defs
     id="defs11" />
  <sodipodi:namedview
     pagecolor="#ffffff"
     bordercolor="#666666"
     borderopacity="1"
     objecttolerance="10"
     gridtolerance="10"
     guidetolerance="10"
     inkscape:pageopacity="0"
     inkscape:pageshadow="2"
     inkscape:window-width="2560"
     inkscape:window-height="1361"
     id="namedview9"
     showgrid="false"
     inkscape:zoom="21.088644"
     inkscape:cx="14.314408"
     inkscape:cy="9.1388752"
     inkscape:window-x="0"
     inkscape:window-y="27"
     inkscape:window-maximized="1"
     inkscape:current-layer="layer1" />
  <metadata
     id="metadata5724">
    <rdf:RDF>
      <cc:Work
         rdf:about="">
        <dc:format>image/svg+xml</dc:format>
        <dc:type
           rdf:resource="http://purl.org/dc/dcmitype/StillImage" />
      </cc:Work>
    </rdf:RDF>
  </metadata>
  <g
     inkscape:label="Calque 1"
     inkscape:groupmode="layer"
     id="layer1"
     transform="translate(-356.31847,-530.70184)">
    <path
       id="path2998"
       d="m 366.3823,556.70753 c -3.70752,0 -7.15841,-1.08682 -10.06383,-2.94949 0.5136,0.0606 1.0362,0.0916 1.56613,0.0916 3.07582,0 5.90662,-1.0496 8.15351,-2.81036 -2.87288,-0.053 -5.29738,-1.95106 -6.13282,-4.55937 0.40085,0.0767 0.81211,0.11774 1.23519,0.11774 0.59868,0 1.17871,-0.0802 1.72961,-0.23022 -3.00334,-0.60308 -5.26636,-3.25655 -5.26636,-6.43748 0,-0.0277 9e-5,-0.0551 5.5e-4,-0.0825 0.88521,0.49172 1.89751,0.78703 2.97367,0.82109 -1.76159,-1.17727 -2.92059,-3.18677 -2.92059,-5.46442 0,-1.20327 0.32366,-2.33092 0.88878,-3.30055 3.2381,3.97194 8.07561,6.58564 13.53191,6.85942 -0.1119,-0.48049 -0.17007,-0.98157 -0.17007,-1.49612 0,-3.62559 2.93956,-6.56504 6.56539,-6.56504 1.88823,0 3.59445,0.79734 4.7921,2.07329 1.49541,-0.2945 2.90047,-0.84088 4.16893,-1.59327 -0.4902,1.5331 -1.53112,2.81971 -2.88666,3.63226 1.32804,-0.15872 2.59333,-0.51162 3.77073,-1.03378 -0.88021,1.31657 -1.99334,2.47289 -3.27597,3.39852 0.0127,0.2815 0.019,0.56464 0.019,0.8493 0,8.67553 -6.60343,18.67937 -18.67917,18.67937"
       inkscape:connector-curvature="0"
       style="fill:#1a1a1a;fill-opacity:0.8" />
  </g>
</svg>
