<svg height="40.595" width="32" xmlns="http://www.w3.org/2000/svg"><path d="m367.43118 516.7028l-3.39691.18004c-4.81034 0-8.69027 3.86793-8.69027 8.67828v23.05806c0 4.81036 3.87993 8.67826 8.69027 8.67826h3.91307l9.71054-2.3046-9.45845 2.14856c-4.81033 0-8.69035-3.86789-8.69035-8.67825v-23.04606c0-4.62743 3.58348-8.38702 8.13814-8.66628l-.21604-.048zm-2.07652 6.64974c-.0983 1.98361-.0781 3.87741-.0724 5.79753 4.7094.98958 9.14375 2.94914 12.33919 6.67374 3.07163 3.73333 4.96288 8.10519 5.01734 12.9754 1.5212-.3045 3.08335-.59906 4.70525-.81622-.19935-5.7601-1.56573-11.36856-5.68946-15.64008-4.25706-4.7329-9.90525-8.20367-16.30028-8.99037zm-.0122 9.75856c.0326 1.87677.0456 3.77006.0122 5.66549 2.67074.0479 5.00554 1.27166 6.73374 3.30091 1.89345 2.40278 2.84502 5.2523 3.24087 8.27015 1.39519-.29714 2.80496-.6052 4.23712-.91226-.47465-4.05513-1.42475-8.04678-4.29712-11.12692-2.66691-2.79793-5.98111-4.92262-9.92665-5.19737zm2.90477 10.98286c-.0951-.00072-.1904-.00057-.28808.0121-.7816.10083-1.49914.62791-2.02857 1.42834-.52943.80043-.88287 1.87493-.88824 2.98877-.008 1.11392.35637 2.04389.94831 2.64073.59186.59678 1.41408.86213 2.23256.68418.81848-.17795 1.47953-.75494 1.93252-1.54845.45291-.79343.70558-1.79938.67212-2.83274-.0334-1.03337-.36255-1.91364-.87619-2.52061-.44949-.53116-1.03907-.84692-1.70443-.85228z" fill="#191919" fill-opacity=".80000001" transform="translate(-355.344 -516.7028)"/></svg>