<svg height="33.703" width="32" xmlns="http://www.w3.org/2000/svg"><path d="m444.20663 569.91842c-.40362-1.54363-.62875-1.62215-1.81894-.63438-1.19296.99005-1.59389.83293-3.29286-1.29051-1.06396-1.3298-1.93631-2.69251-1.93851-3.02824 0-.33574-.78144-.61044-1.73153-.61044-1.45894 0-1.5667-.19375-.69321-1.24633.85111-1.0255.78877-1.4259-.35202-2.26005-1.74837-1.27845-3.30743-7.39557-1.73071-6.79051.57715.22148 1.51421-.0265 2.08224-.55111.81327-.75097.92201-.63958.51131.52378-.43439 1.23045-.21618 1.38319 1.30454.91322 1.68448-.52058 1.6525-.4014-.41208 1.53574-3.19902 3.00158-2.86695 4.37178.93071 3.83961.62387-.0874 1.42338.30886 1.7767.88061.36748.59461.54256-.2204.40891-1.90409-.20527-2.58704-.022-2.92111 1.5134-2.7574.96083.10244 2.18935.45963 2.72996.79376.59513.36781.98296.14253.98296-.57097 0-.64816.45783-1.16147 1.0174-1.14069 2.4612.0914 3.8661-.27644 3.8661-1.01222 0-.43728-1.03538-.5865-2.30607-.33235-1.75952.35189-2.30615.15413-2.30615-.83427 0-.71252.34445-1.29548.76541-1.29548.42088 0 .53881-.59017.262-1.3115-.33566-.87482-.14773-1.17509.56437-.9018.58724.22532 1.91848-.0457 2.95826-.60214l1.89065-1.01184-1.85972-.48632c-1.02285-.26748-2.4612-.16443-3.19641.229-.7541.40362-1.83254.40881-2.47472.0119-.62598-.38689-1.46692-.50026-1.86867-.25195-.40183.24831-.32304-.30988.17491-1.24041.75393-1.4086.62737-1.84073-.75548-2.58082-.91354-.4889-1.44226-1.24278-1.17497-1.67528.26729-.43249.78853-.59935 1.15837-.3708.36984.22857.88001-.12555 1.13387-.78691.27453-.71561.99582-.99741 1.78133-.69598 1.0581.40602 1.10457.64304.23425 1.19469-.59709.37851-.74815.6938-.33574.70065.41241.007 1.40596-.58135 2.20791-1.30712 1.50265-1.35989 4.4553-.95333 3.56284.4906-.2887.46716.0317.60582.75768.32742.69215-.26561 1.07152-.7855.84289-1.15532-.22855-.36981.0163-.93952.545-1.26601.55794-.34483 1.69596.26143 2.71539 1.44657.96522 1.12211 2.77488 2.29619 4.02156 2.60909 1.73926.43652 2.16974.93931 1.85028 2.16094-.22896.87563-.12567 1.41244.22952 1.19293.89979-.55612 2.12994 1.18478 2.79231 3.95173.40272 1.68244.15008 2.80074-.90516 4.00602-.80513.91961-1.0445 1.42803-.53181 1.12984.51268-.29821 1.15364.0351 1.42435.74057.8494 2.21359.53946 4.21303-.72862 4.69964-.67148.25766-1.22087 1.39563-1.22087 2.52883 0 1.13318-.45783 2.06666-1.0174 2.0744-.55957.008-1.91588.96074-3.01401 2.11778-2.51908 2.65419-4.91061 3.56557-9.3563 3.56557-2.9192 0-3.59271-.29848-3.97542-1.76168zm-.34591-4.07634c2.2495-1.08877 2.97796-2.30115 1.38268-2.30115-.47411 0-.62021-.39123-.32467-.8694.29553-.47818 1.02293-.68308 1.61635-.45534.59351.22774 1.51698-.11355 2.05213-.75843.53524-.64487 1.47767-1.1725 2.09429-1.1725 1.10083 0 1.46025-.96324 1.16561-3.12356-.10393-.76215.41648-.93263 1.73487-.56829 1.77222.48975 1.79542.44979.39287-.67715-1.17138-.94127-2.04252-1.0137-4.06958-.33836-3.0552 1.01791-7.23865 4.68418-6.76202 5.92617.18443.48077-.26395.92117-.99648.97866-3.23296.25375-4.99452.62419-4.99452 1.05031 0 1.22691 2.72369 4.13851 3.54363 3.78807.5131-.21932 1.93729-.88488 3.16484-1.47903zm2.90592-5.29889c.58757-.23512 1.28957-.20621 1.56004.0643.27046.27045-.21032.46282-1.06827.42748-.94821-.0391-1.14103-.23192-.49177-.49174zm.96653-1.80956c0-.40575.73253-.54615 1.62783-.31203.89531.23413 1.62784.5661 1.62784.73772 0 .17161-.73253.31203-1.62784.31203-.8953 0-1.62783-.33197-1.62783-.73772zm5.81072 7.27613c2.0006-1.66664 2.02315-1.6426-1.86355-1.98049-.51488-.0448-1.062.74271-1.21575 1.74993-.34396 2.25394.56852 2.32226 3.0793.23056zm3.95628-7.71126c0-.1974-.36626-.58528-.81391-.86194-.44766-.27667-.81392-.11516-.81392.35892 0 .47407.36626.86195.81392.86195.44765 0 .81391-.16151.81391-.35893zm-2.44175-4.79587c0-.59688-.54939-1.08523-1.22087-1.08523-1.28754 0-1.58714.71897-.67824 1.62783.89856.89858 1.89911.6127 1.89911-.5426zm1.8843-2.69826c.29033-.29029-.25402-1.20595-1.20972-2.03479-.9557-.82884-1.38855-1.50698-.96189-1.50698.42657 0 1.2304.45476 1.78622 1.01059.80488.80485 1.15853.77133 1.73698-.16463.39947-.64636.54573-1.46738.325-1.8245-.22074-.35712.008-.64931.5087-.64931.50047 0 .67994-.37223.39873-.82719-.68849-1.11398-2.127-.14533-1.84466 1.24215.1238.60838-.14121 1.09353-.58887 1.07812-.44765-.0154-.72674-.34447-.6202-.73125.2423-.87973-2.45144.0663-3.14986 1.10619-.28283.42124.0834 1.42465.81392 2.22982 1.48279 1.63422 2.03308 1.84442 2.80565 1.07178zm-10.39494-4.68182c.93837-.9384.95082-1.29707.0708-2.02774-1.27484-1.05804-2.14068-.38031-2.14068 1.6756 0 1.78804.54215 1.88025 2.07028.35214zm4.84802-.4878c1.72924-1.91078.30806-2.2266-1.56972-.34882-1.43836 1.43837-1.59935 1.97667-.59123 1.97667.37831 0 1.35069-.73253 2.16095-1.62785zm-11.76859 7.69221c.90556-1.09115.77176-1.21107-.9942-.89085-3.03827.55093-4.5314-.61132-2.89176-2.25094 1.41759-1.41762 3.43912-1.78692 2.63188-.48082-.27665.44765-.13674.81391.31091.81391.44766 0 1.04027-.36626 1.31692-.81391.27665-.44766.93926-.80831 1.47238-.80146.58244.007.48208.32737-.2515.80146-1.02888.66488-.98313.79094.29056.80145 1.04165.009 1.35786.41261 1.0174 1.29991-.27177.70809-.49405 1.62375-.49405 2.03479 0 .41104-.77737.74735-1.72745.74735-1.46766 0-1.57013-.18968-.68109-1.26089zm-6.54454-3.98154c0-.6979.36626-1.26891.81391-1.26891.44766 0 .81392.34464.81392.76588 0 .42123-.36626.99225-.81392 1.26891-.44765.27667-.81391-.068-.81391-.76588zm2.84871-2.89674c-.89531-.38474-1.17001-.72526-.61044-.75672.55957-.0315 1.01739-.6066 1.01739-1.27808 0-1.31092.74563-1.50831 2.76724-.73256.97491.37411 1.07893.85002.44489 2.03479-.90882 1.69818-1.22364 1.76191-3.61908.73257zm10.17396-7.64514c0-.7721 2.43638-1.16123 2.87068-.45849.26461.4281-.27307.77837-1.19483.77837-.92168 0-1.67585-.14394-1.67585-.31988z" fill="#191919" fill-opacity=".80000001" transform="translate(-431.99639 -537.97747)"/></svg>