<svg height="33.25" width="32" xmlns="http://www.w3.org/2000/svg"><path d="m442.35001 546.38809c-.0495-.004-.0833.009-.1088.034-.40527.40525 2.90651 3.98482 6.53062 7.63266-.0251.0247-.0502.0501-.0749.0749-2.7693 2.76933-4.37413 6.64823-4.3742 10.56461 0 3.91646 1.6049 7.79531 4.3742 10.56463l.0208.0204c2.76802 2.75775 6.64342 4.35374 10.55096 4.35374 3.91643 0 7.79535-1.60481 10.56466-4.37413 2.7693-2.76933 4.37413-6.64819 4.37413-10.56464 0-3.91638-1.60483-7.79528-4.37413-10.56461-2.76938-2.76933-6.64823-4.38095-10.56466-4.38095-3.34326 0-6.66365 1.17281-9.28572 3.23809-3.46568-3.39815-6.88274-6.55275-7.63262-6.59864zm7.63262 6.61225c4.07393 3.99558 8.23814 8.32653 8.23814 8.32653l4.07486 4.50339c.58528.21379 1.12926.28372 1.70745.53061 1.39928.59753 2.57409 1.43398 3.14288 2.90475.63521 1.64281-.84583 4.54305-2.3674 4.04084.76609-.0514 1.59751-.99182 1.17689-1.72791-.95865-1.67772-4.4323-1.3627-4.30607-5.10202l-4.39457-4.18369c0 0-4.4247-4.16901-8.46262-8.23128zm13.40145 13.5238c1.96077 1.22348 2.44644 1.72819 3.44898 2.9728-.51759-.9966-.7516-1.21922-1.27894-1.68708-.6598-.58549-1.41929-.96394-2.17004-1.28572z" fill="#191919" fill-opacity=".80000001" stroke-width="5" transform="translate(-442.2075 -546.38738)"/></svg>