<svg height="32" width="32" xmlns="http://www.w3.org/2000/svg"><path d="m372.31847 524.7112a16.000269 16.000269 0 0 0 -16 16.00064 16.000269 16.000269 0 0 0  16 16 16.000269 16.000269 0 0 0  16-16 16.000269 16.000269 0 0 0 -16-16.00064zm-1.70156 8.39045h3.40311v5.48293l5.15275-1.70156 1.03992 3.30887-5.15275 1.65411 3.16717 4.44366-2.74147 2.03237-3.16717-4.44302-3.16717 4.44302-2.74147-2.03237 3.16717-4.44366-5.15275-1.70156 1.04056-3.26142 5.1521 1.70156z" fill="#fff" fill-opacity=".8" transform="translate(-356.31847 -524.71184)"/></svg>