<svg height="31.01" width="32" xmlns="http://www.w3.org/2000/svg"><path d="m445.93161 556.10538c-.91262 0-1.82516.35361-2.52442 1.05291l-12.43173 12.43173c-.68538.68525-1.02661 1.56662-1.0402 2.46093 0 .003-.00041.01 0 .0127-.00021.015 0 .0357 0 .0507h.0126c.2378.90507 6.39269 2.05431 7.07843 2.74005 1.03578 1.03562-3.9786 1.79325-2.94302 2.82883 1.03574 1.03574 6.2584 2.00893 7.29414 3.04451 1.03562 1.03574-2.11394 2.1357-1.07824 3.17139 1.03554 1.03554 4.51184-.25305 3.88171 2.44827 1.3986 1.39853 4.32559.72614 6.27931-.6723 1.03561-1.03574-1.98701-.94335-.95143-1.97893 1.03574-1.03574 3.64532-1.04918 5.848-3.52659-.8866-1.37884-3.78833-1.95807-2.75276-2.99377 1.03574-1.03553 3.05125-.51338 7.39563-2.48634 2.12076-.96308 1.93631-1.68816 1.92819-2.57512-.00017-.0187 0-.0446 0-.0635-.0138-.89423-.35487-1.77564-1.04021-2.46093l-12.43172-12.43173c-.69926-.69938-1.61184-1.05291-2.52438-1.05291zm-.10149 1.62374c.40557.0106.72748.3193 1.37003.73575l5.87334 4.35108c.44218.28785.76693.70117.77383 1.20514l-3.47585-1.68714-.35519 2.63857-1.91548-.90069-2.95573 1.96626-1.12898-3.89444-1.45885 3.41236-4.05934.40593.0507-1.814c0-.43475 2.34038-3.4743 3.7676-4.19885l2.6132-1.87745c.38543-.24997.65716-.34886.90068-.34252zm-5.40403 17.7596c1.85081.47998 3.90415 1.10508 5.55626 1.11632l.0761.74846c-1.41456-.14593-4.40645-.83192-5.11221-1.19247l-.52012-.67231zm18.46999 3.59c-.29016-.009-.56733.0118-.77379.0634-.38921.0973-2.28297.15519-2.13115 1.37002 1.67045.60712 4.25049 1.0627 4.55409-.15222.22781-.91096-.7785-1.25336-1.64915-1.28121zm-20.62647 2.10574c-.19278.00041-.38735.0343-.57087.1269-.97858.49361-1.63725 1.60145-.72309 2.055.91437.45359 1.57068-.0715 2.3722-.63424.8016-.56274.76835-.67088.71038-.88802-.12024.0321-.95342-.66187-1.78862-.65964zm17.1507.55816c-.7593.30372-.74708 1.37129-.13956 1.8267.6074.45558 1.35818.1515 1.66181-.15222.30376-.3036-.004-1.37076-1.52225-1.67448z" fill="#191919" fill-opacity=".80000001" fill-rule="evenodd" transform="translate(-429.93508 -556.10528)"/></svg>