<svg height="31.23" width="32" xmlns="http://www.w3.org/2000/svg"><path d="m457.15847 544.62918c-.0347-.0941-.0304-.22907.009-.29993.0736-.34631.40697-1.10216.26608-1.43317-.21285-.40163-1.05837-1.4777-.96469-1.6177.0527-.0786.49816-.20512.99019-.2812.78248-.12093.9583-.21261 1.40106-.7306.27849-.32577.55493-.55981.61437-.52008.0596.0398.23766.36387.39611.7203.26744.60164.33928.66838 1.00229.93177.38811.16284.76561.28268 1.00985.50918.13965.12948-.23568.73121-.67243 1.04199-.27979.19893-.34723.37875-.38581 1.02928-.0673.67496-.0112.88625-.24065 1.05537-.0991.07-.24883.0935-.33283.0522-.0841-.0413-.21652-.0992-.2945-.12861-.078-.0294-.31887-.16278-.53539-.29629-.29002-.17884-.63142-.19252-1.29684-.052-.3324-.00062-.85805.22818-.96655.0195zm-10.11561 5.33149c-.15081-.1095-.28345-.32251-.29474-.47336-.244-.61099-.50983-2.12287-1.06941-2.48867-.74365-.40054-3.16115-1.18948-3.16115-1.50245 0-.17568.55766-.83142 1.23921-1.45721 1.08374-.99502 1.26061-1.31822 1.4095-2.57575.0937-.79088.27899-1.43797.41181-1.43797.13289 0 .74303.31657 1.35591.70349 1.0346.65311 1.21445.68205 2.51074.40404.76772-.14934 1.47464-.35415 2.08596-.25659.3494.0558.39115 1.37301.0378 2.3042-.22669.59627-.14511.94368.4672 1.98845.59327 1.11214.89856 1.38033.71841 1.87882-.0808.21047-.28786.40146-.46033.42444-.1724.023-.43687.0704-.58775.10549-.15081.0351-.6607.078-1.13306.0954-.63272.0233-1.17419.35479-2.05699 1.25922-.51442.34192-1.0897 1.23875-1.47285 1.02849zm-6.47621 5.46709c-.69321-.0204-2.4786-.16939-3.29112-.32278-3.08204-.75332-4.96353-3.22206-4.90553-4.93914 0-1.83482 1.93714-2.94099 5.60346-3.19973 4.33249-.30575 7.10981.54647 4.2014 1.28919-3.75615.95921-3.61049 1.89574.41646 2.67698 1.44648.28063 8.47806-.12314 10.62259-.60996l1.78272-.40469-2.5095.12269c-2.02275.0989-2.53915.0454-2.66242-.27584-.28916-.75368.60078-1.23717 2.27735-1.23717 1.83484 0 7.78925.96141 9.33747 1.50764 1.11532.23405 1.79898.62038 2.34287 1.01357.64879.62268.71393.80541.41553 1.16499-.22719.2737-.61226.37465-1.07512.28181-2.39709-.48085-4.14216-.33086-7.15621.34441-3.77198 1.19662-11.46376 2.70412-15.39995 2.58803zm16.32301 1.60168c.0385 3.3718.16769 4.47316.84881 7.23948l.80333 3.26268-.98932.85519c-2.63066 2.27402-9.54145 3.28441-14.17091 2.07182-1.05422-.3624-2.17648-.63151-3.15408-1.15755l-1.13821-.62956c1.11848-3.36362 1.16098-6.45912 1.41707-10.18783l.17247-2.79683c5.87407-.10351 10.78345-1.29232 15.53872-2.65453.48353-.0409.63353.62551.67212 3.99713z" fill="#191919" fill-opacity=".80000001" transform="translate(-432.3687 -539.7421)"/></svg>