<svg height="30.03" width="32" xmlns="http://www.w3.org/2000/svg"><path d="m454.05547 820.91416c-.90443 0-1.30614.51129-1.33838 1.13643l-1.08593 20.65718c-.0469.90321.73707 1.64142 1.6415 1.64142h10.7831v.60608c-2.38779.53642-4.04052 1.58768-4.04052 2.80315 0 1.75819 3.4085 3.18191 7.60127 3.18191 4.19277 0 7.60128-1.42372 7.60128-3.18191 0-1.18484-1.57411-2.20443-3.86379-2.75265v-.65658h10.63166c.90443 0 1.68829-.73821 1.6415-1.64142l-1.08593-20.65718c-.0347-.66111-.60212-1.13643-1.33846-1.13643zm1.08593 2.09606l25.20397.076.71234 17.75301h-26.92644z" fill="#191919" fill-opacity=".80000001" fill-rule="evenodd" transform="translate(-451.62916 -820.91416)"/></svg>