<?xml version="1.0" encoding="UTF-8" standalone="no"?>
<svg
   xmlns:dc="http://purl.org/dc/elements/1.1/"
   xmlns:cc="http://creativecommons.org/ns#"
   xmlns:rdf="http://www.w3.org/1999/02/22-rdf-syntax-ns#"
   xmlns:svg="http://www.w3.org/2000/svg"
   xmlns="http://www.w3.org/2000/svg"
   xmlns:sodipodi="http://sodipodi.sourceforge.net/DTD/sodipodi-0.dtd"
   xmlns:inkscape="http://www.inkscape.org/namespaces/inkscape"
   width="32"
   height="36.27"
   version="1.1"
   id="svg2"
   inkscape:version="0.91 r13725"
   sodipodi:docname="icon-gifts.svg">
  <defs
     id="defs9" />
  <sodipodi:namedview
     pagecolor="#ffffff"
     bordercolor="#666666"
     borderopacity="1"
     objecttolerance="10"
     gridtolerance="10"
     guidetolerance="10"
     inkscape:pageopacity="0"
     inkscape:pageshadow="2"
     inkscape:window-width="2560"
     inkscape:window-height="1361"
     id="namedview7"
     showgrid="false"
     inkscape:zoom="10.693662"
     inkscape:cx="-2.9582305"
     inkscape:cy="33.02606"
     inkscape:window-x="0"
     inkscape:window-y="27"
     inkscape:window-maximized="1"
     inkscape:current-layer="layer1" />
  <metadata
     id="metadata5622">
    <rdf:RDF>
      <cc:Work
         rdf:about="">
        <dc:format>image/svg+xml</dc:format>
        <dc:type
           rdf:resource="http://purl.org/dc/dcmitype/StillImage" />
      </cc:Work>
    </rdf:RDF>
  </metadata>
  <g
     inkscape:label="Calque 1"
     inkscape:groupmode="layer"
     id="layer1"
     transform="translate(-391.8739,-470.06715)">
    <path
       sodipodi:nodetypes="ccccccccccssccsccccccccccccccccccccccccccsscccccccccc"
       inkscape:connector-curvature="0"
       id="path4786"
       d="m 411.07562,506.14348 c 3.52892,-3.14548 6.29475,-7.03529 10.05634,-10.37438 0.32718,-0.28257 0.4851,-0.57106 0.55321,-1.01061 0.22424,-3.9098 2.72178,-7.98686 2.08518,-11.90673 -2.50068,-1.2986 -4.27096,-1.71395 -6.87487,-2.71999 0.68835,-2.9483 2.74091,-5.3651 0.68492,-6.36764 -4.11283,0.97777 -6.64242,3.38179 -10.98685,3.5482 -3.16176,-0.35067 -2.06362,-5.96107 -4.79104,-7.24518 -2.66881,1.03167 -4.91255,4.29195 -6.54569,7.37818 -0.33497,0.61303 -0.21168,1.33344 0.36987,1.68711 0.44256,0.26914 3.30769,1.22557 4.06365,1.41532 0.80757,0.20268 0.40807,0.44184 -4.43002,2.65182 -1.2794,0.58448 -2.20013,1.02846 -2.76719,1.33458 -1.0024,0.42835 -0.53814,1.0613 -0.31969,1.76329 0.35374,1.13476 0.93287,2.89811 1.59116,4.83209 l 1.87566,5.51038 c 0.0592,0.3254 0.19868,0.42635 0.44912,0.61304 4.96102,3.22579 8.79308,6.64221 14.08464,8.96648 0.36088,0.22645 0.58791,0.0692 0.9016,-0.076 z m -5.58777,-6.82883 c -0.29156,-3.49829 -0.81,-6.31988 -1.07679,-9.88 0.0428,-0.12079 4.85237,1.65127 5.08182,1.87251 0.41393,3.68791 0.45847,6.80984 0.75939,10.7644 0.0799,1.02103 0.0643,1.12212 -0.17541,1.12055 -2.06134,-0.83842 -4.46186,-2.2239 -4.58901,-3.87746 z m 6.78735,-8.17133 c 0.74275,-0.54036 1.5716,-1.1334 2.3604,-1.49378 0.23702,2.95715 0.26043,5.21953 0.36038,8.39536 -0.67172,0.64423 -1.3822,1.3006 -2.13152,1.81832 -0.44591,-3.09744 -0.41385,-5.03513 -0.58926,-8.7199 z m -14.62557,5.27765 c -1.03567,-3.37537 -2.31543,-6.70547 -3.22252,-10.10875 1.3398,0.43428 3.20624,0.6945 4.00853,1.72824 0.11116,0.34489 1.86809,7.48526 2.40131,9.75928 -1.06573,0.28449 -1.78628,-0.56063 -3.18732,-1.37877 z m 20.92753,-1.09036 c 0.18505,-3.03097 0.40108,-5.46683 0.57349,-8.67778 0.83684,-1.22057 1.64106,-1.55925 3.12413,-2.42879 -0.74146,3.86875 -0.73525,6.11885 -2.37867,10.59491 -0.34475,0.3526 -1.32259,0.73197 -1.31895,0.51166 z m -14.4099,-8.93657 c 0.098,-0.15849 2.7569,-1.73559 2.92617,-1.73559 0.18148,0 6.30404,2.30836 6.41262,2.41773 0.18697,0.1884 -2.61255,2.22618 -3.0274,2.20355 -2.06991,-0.87654 -4.44516,-1.55653 -6.31139,-2.88569 z m -8.32768,-1.97689 c 1.89629,-0.81114 4.46672,-1.57809 6.58639,-1.92698 -0.18141,0.29349 -3.58547,2.74669 -3.80314,2.74077 -0.99134,-0.20775 -1.78577,-0.4861 -2.78325,-0.81379 z m 20.22048,-0.98876 c 1.53376,-1.02111 3.22266,-1.01861 4.97595,-0.87483 -0.72526,0.85941 -1.87687,1.51556 -2.87206,2.10268 -0.7611,-0.3431 -1.40147,-0.67015 -2.10389,-1.22785 z"
       opacity="0.8"
       fill="#1a1a1a"
       style="opacity:1;fill:#191919;fill-opacity:0.80000001" />
  </g>
</svg>
