<?xml version="1.0" encoding="UTF-8" standalone="no"?>
<svg xmlns="http://www.w3.org/2000/svg" xmlns:sodipodi="http://sodipodi.sourceforge.net/DTD/sodipodi-0.dtd" xmlns:inkscape="http://www.inkscape.org/namespaces/inkscape" width="38.663" height="38.438" version="1.1">
 <metadata id="metadata5673"/>
 <g inkscape:label="Calque 1" inkscape:groupmode="layer" id="layer1" transform="translate(-669.23999,-770.28629)">
  <path inkscape:connector-curvature="0" id="path9274" d="m 672.93418,770.28659 c -1.2266,0 -3.8437,1.3125 -3.6875,3.6562 0.1158,1.7369 0.1875,15.9836 0.1875,23.125 0,1.5458 0.4438,3.3438 2.5312,3.3438 1.0897,0 2.7824,0.031 3.9688,0.031 1.6195,0 -0.7973,5.7723 -0.125,8.2812 3.4828,-3.4827 5.5731,-7.7812 7.5937,-7.7812 1.4548,0 4.7244,0 7.2813,0 1.5223,2.0972 3.188,4.3643 4.7187,6.4687 l 7.9063,-5.75 c -0.1803,-0.2479 -0.351,-0.5021 -0.5313,-0.75 0.7765,-4e-4 1.7058,0 2.375,0 1.3595,0 2,-0.9842 2,-2.3437 0,-7.1489 0.75,-17.8981 0.75,-24.625 0,-1.7621 -2.2756,-3.0938 -3.8125,-3.0938 -4.7047,0 -28.1136,-0.5625 -31.1562,-0.5625 z m 0.7187,2.5937 c 8.8915,-0.057 19.187,0.5 30.0937,0.5 0.7226,0 1,0.6928 1,1.2188 0,6.911 0,16.0583 0,23.1875 0,0.4682 -1.4781,0.7014 -3.6249,0.8437 -2.7384,-3.7648 -5.4804,-7.5164 -8.2188,-11.2812 -2.869,-1.1755 -5.9023,-2.6081 -8.7187,-3.625 0.2442,3.3102 0.4895,5.8544 0.8125,9.375 1.5479,2.1153 2.7586,3.7762 4.125,5.6562 -2.2153,-0.032 -4.3369,-0.062 -6,-0.062 -1.6373,0 -3.1049,3.0112 -5.0313,4.9375 0,-1.7232 1.4294,-4.9687 0.125,-4.9687 -1.8531,0 -3.0843,0 -4.9375,0 -0.6685,0 -1.3437,-0.6536 -1.3437,-1.75 0,-8.0276 -0.375,-21.7188 -0.375,-21.7188 0,-1.5782 1.1853,-2.3067 2.0937,-2.3125 z m 13.625,13.8438 c 1.5067,0.6308 3.0699,1.2629 4.5,2 -0.6453,1.0022 -1.1955,1.7209 -1.9375,2.75 -1.0687,0.3527 -2.1392,0.6962 -3.2187,1 -0.3162,-1.7202 -0.3702,-3.0012 -0.5313,-4.9063 l 1.1875,-0.8437 z" opacity="0.8" fill="#ffffff"/>
 </g>
</svg>
