<?xml version="1.0" encoding="UTF-8" standalone="no"?>
<svg
   xmlns:dc="http://purl.org/dc/elements/1.1/"
   xmlns:cc="http://creativecommons.org/ns#"
   xmlns:rdf="http://www.w3.org/1999/02/22-rdf-syntax-ns#"
   xmlns:svg="http://www.w3.org/2000/svg"
   xmlns="http://www.w3.org/2000/svg"
   xmlns:sodipodi="http://sodipodi.sourceforge.net/DTD/sodipodi-0.dtd"
   xmlns:inkscape="http://www.inkscape.org/namespaces/inkscape"
   width="32"
   height="31.01"
   version="1.1"
   id="svg2"
   inkscape:version="0.91 r13725"
   sodipodi:docname="icon-inkscape.svg">
  <defs
     id="defs9" />
  <sodipodi:namedview
     pagecolor="#ffffff"
     bordercolor="#666666"
     borderopacity="1"
     objecttolerance="10"
     gridtolerance="10"
     guidetolerance="10"
     inkscape:pageopacity="0"
     inkscape:pageshadow="2"
     inkscape:window-width="2560"
     inkscape:window-height="1361"
     id="namedview7"
     showgrid="false"
     showguides="false"
     inkscape:zoom="12.50755"
     inkscape:cx="-1.2671257"
     inkscape:cy="18.890527"
     inkscape:window-x="0"
     inkscape:window-y="27"
     inkscape:window-maximized="1"
     inkscape:current-layer="layer1" />
  <metadata
     id="metadata6511">
    <rdf:RDF>
      <cc:Work
         rdf:about="">
        <dc:format>image/svg+xml</dc:format>
        <dc:type
           rdf:resource="http://purl.org/dc/dcmitype/StillImage" />
      </cc:Work>
    </rdf:RDF>
  </metadata>
  <g
     inkscape:label="Calque 1"
     inkscape:groupmode="layer"
     id="layer1"
     transform="translate(-429.93508,-556.10528)">
    <path
       d="m 445.93161,556.10538 c -0.91262,0 -1.82516,0.35361 -2.52442,1.05291 l -12.43173,12.43173 c -0.68538,0.68525 -1.02661,1.56662 -1.0402,2.46093 0,0.003 -4.1e-4,0.01 0,0.0127 -2.1e-4,0.015 0,0.0357 0,0.0507 l 0.0126,0 c 0.2378,0.90507 6.39269,2.05431 7.07843,2.74005 1.03578,1.03562 -3.9786,1.79325 -2.94302,2.82883 1.03574,1.03574 6.2584,2.00893 7.29414,3.04451 1.03562,1.03574 -2.11394,2.1357 -1.07824,3.17139 1.03554,1.03554 4.51184,-0.25305 3.88171,2.44827 1.3986,1.39853 4.32559,0.72614 6.27931,-0.6723 1.03561,-1.03574 -1.98701,-0.94335 -0.95143,-1.97893 1.03574,-1.03574 3.64532,-1.04918 5.848,-3.52659 -0.8866,-1.37884 -3.78833,-1.95807 -2.75276,-2.99377 1.03574,-1.03553 3.05125,-0.51338 7.39563,-2.48634 2.12076,-0.96308 1.93631,-1.68816 1.92819,-2.57512 -1.7e-4,-0.0187 0,-0.0446 0,-0.0635 -0.0138,-0.89423 -0.35487,-1.77564 -1.04021,-2.46093 l -12.43172,-12.43173 c -0.69926,-0.69938 -1.61184,-1.05291 -2.52438,-1.05291 z m -0.10149,1.62374 c 0.40557,0.0106 0.72748,0.3193 1.37003,0.73575 l 5.87334,4.35108 c 0.44218,0.28785 0.76693,0.70117 0.77383,1.20514 l -3.47585,-1.68714 -0.35519,2.63857 -1.91548,-0.90069 -2.95573,1.96626 -1.12898,-3.89444 -1.45885,3.41236 -4.05934,0.40593 0.0507,-1.814 c 0,-0.43475 2.34038,-3.4743 3.7676,-4.19885 l 2.6132,-1.87745 c 0.38543,-0.24997 0.65716,-0.34886 0.90068,-0.34252 z m -5.40403,17.7596 c 1.85081,0.47998 3.90415,1.10508 5.55626,1.11632 l 0.0761,0.74846 c -1.41456,-0.14593 -4.40645,-0.83192 -5.11221,-1.19247 l -0.52012,-0.67231 z m 18.46999,3.59 c -0.29016,-0.009 -0.56733,0.0118 -0.77379,0.0634 -0.38921,0.0973 -2.28297,0.15519 -2.13115,1.37002 1.67045,0.60712 4.25049,1.0627 4.55409,-0.15222 0.22781,-0.91096 -0.7785,-1.25336 -1.64915,-1.28121 z m -20.62647,2.10574 c -0.19278,4.1e-4 -0.38735,0.0343 -0.57087,0.1269 -0.97858,0.49361 -1.63725,1.60145 -0.72309,2.055 0.91437,0.45359 1.57068,-0.0715 2.3722,-0.63424 0.8016,-0.56274 0.76835,-0.67088 0.71038,-0.88802 -0.12024,0.0321 -0.95342,-0.66187 -1.78862,-0.65964 z m 17.1507,0.55816 c -0.7593,0.30372 -0.74708,1.37129 -0.13956,1.8267 0.6074,0.45558 1.35818,0.1515 1.66181,-0.15222 0.30376,-0.3036 -0.004,-1.37076 -1.52225,-1.67448 z"
       id="path2165"
       inkscape:connector-curvature="0"
       opacity="0.8"
       fill-rule="evenodd"
       style="opacity:1;fill:#191919;fill-opacity:0.80000001" />
  </g>
</svg>
