<svg height="29.653" width="32" xmlns="http://www.w3.org/2000/svg"><path d="m615.42472 495.2437l-17.35228 15.59746c3.70349 2.60854 7.1205 5.36562 8.28258 9.2919l17.38055-15.602c-.87341-7.43153-4.90156-7.65198-8.31085-9.28736zm.16257.97203l2.23901 2.50318-15.76722 14.34134-2.23893-2.50327zm6.12319 6.46237l1.24902 1.37813-16.08206 14.20262-1.22074-1.38268zm-24.4878 8.9134l-3.67254 8.95244c.61878.27759 1.15274.70194 1.60959 1.21351.48017.53836.79744 1.15929 1.00145 1.84517l9.37227-2.72382c-.55614-3.19418-3.45812-6.28408-8.31077-9.2873zm.21977 1.91596l.1096 1.14424-2.92546 5.26614zm-4.36021 8.1268l-1.34667 3.26203 3.34511-.961c-.18191-.50424-.44044-.98809-.80435-1.39551-.34107-.38121-.74999-.6732-1.19409-.90552z" fill="#191919" fill-opacity=".80000001" transform="translate(-591.73557 -495.2437)"/></svg>