<?xml version="1.0" encoding="UTF-8" standalone="no"?>
<svg xmlns="http://www.w3.org/2000/svg" xmlns:sodipodi="http://sodipodi.sourceforge.net/DTD/sodipodi-0.dtd" xmlns:inkscape="http://www.inkscape.org/namespaces/inkscape" width="42.925" height="42.04" version="1.1">
 <metadata id="metadata5775"/>
 <g inkscape:label="Calque 1" inkscape:groupmode="layer" id="layer1" transform="translate(-664.25165,-877.05401)">
  <path d="m 689.38317,877.05401 c 0.412,4.49893 -0.4349,9.40554 -0.125,11.09375 0.3104,1.68822 1.6496,2.84187 3,2.59375 1.3506,-0.24812 2.1851,-1.81178 1.875,-3.5 -0.3102,-1.68821 -2.8949,-6.1362 -4.75,-10.1875 z m 17.25,5.34375 c -0.4547,-0.0101 -1.1334,0.30452 -1.7812,0.84375 -0.035,-0.46284 -0.1984,-0.80868 -0.4062,-0.8125 -0.2404,-0.004 -0.4271,0.46122 -0.4376,1.03125 0,0.22746 0.013,0.4222 0.063,0.59375 -0.084,0.10516 -0.1495,0.20861 -0.2188,0.3125 l -0.25,-0.34375 c 0,0 -5.2203,4.92244 -8.1562,5.5625 -0.9449,0.20601 -1.7032,0.65274 -3.4376,1.65625 -1.2798,-0.63233 -2.8102,-1.40676 -4.125,-1.09375 -3.6338,0.8652 -7.0937,-1.09375 -7.0937,-1.09375 l -0.125,0.78125 c -0.1196,-0.0652 -0.2382,-0.12928 -0.375,-0.1875 -0.01,-0.17464 -0.023,-0.35405 -0.094,-0.5625 -0.1844,-0.53951 -0.5225,-0.92147 -0.75,-0.84375 -0.2234,0.0763 -0.2669,0.56562 -0.094,1.09375 -1.254,-0.28307 -2.3354,-0.0954 -2.4688,0.4375 -0.138,0.55161 0.7857,1.26646 2.0938,1.59375 0.5159,0.12908 0.9877,0.14576 1.4062,0.125 l -0.062,0.5 c 0,0 5.2455,0.65355 7.875,2.28125 1.1196,0.69315 0.947,1.49862 1.375,4.125 0.5769,3.54102 0.9652,7.79476 0.8437,8.375 -0.2114,1.0106 -5.4591,0.34396 -7.9375,-0.5625 1.6919,1.62607 4.6639,3.83742 6.9062,3.5 2.2423,-0.33741 4.2675,0.0851 3.9688,-1.15625 -0.2986,-1.24146 -0.1562,-8.75 -0.1562,-8.75 0,0 6.211,7.15919 7.2187,7.21875 0.6474,0.0382 2.4266,-1.81753 4.2187,-3.4375 1.2239,-1.10619 2.4055,-5.53407 2.25,-6.90625 -2.0817,2.84838 -4.8915,7.04108 -5.8437,7.09375 -0.952,0.0526 -4.5923,-5.43505 -4.7187,-7.46875 -0.082,-1.94515 -1.1288,-3.34199 1.125,-4.40625 3.0652,-1.44748 7.6562,-5.75 7.6562,-5.75 l -0.25,-0.34375 c 0.3725,-0.18865 0.7422,-0.44749 1.125,-0.8125 0.9759,-0.93049 1.4549,-2.02596 1.0625,-2.4375 -0.098,-0.10288 -0.2318,-0.15236 -0.4063,-0.15625 z m -24.0312,19.96875 c -1.4381,0.42309 -3.5807,6.09767 -8.4062,7.375 -5.5147,1.4598 -9.9376,0.9375 -9.9376,0.9375 -0.1622,2.10859 2.7456,8.08185 3.7188,8.40625 0.9732,0.32441 4.1206,-5.23215 8.5,-5.71875 4.3793,-0.4866 13.2977,6.33917 22.2188,0.5 8.921,-5.83918 9.2393,-9.57434 0.1562,-5.84375 -9.0832,3.73058 -12.6623,2.59669 -15.9062,0.8125 -3.244,-1.7842 1.6785,-4.8527 0.2187,-6.3125 -0.1825,-0.18248 -0.3571,-0.21669 -0.5625,-0.15625 z" id="path6433" inkscape:connector-curvature="0" opacity="0.8" fill="#ffffff"/>
 </g>
</svg>
