<svg height="30" width="80" xmlns="http://www.w3.org/2000/svg"><g clip-rule="evenodd" fill="#191919" fill-opacity=".8" fill-rule="evenodd" transform="translate(-393.15246 -526.70664189)"><path d="m472.90834 538.73583c-.0724.11336-.0462.24821-.0826.37123-.17944.60673-.49229 1.14128-.86791 1.64289-.65141.86979-1.41106 1.63813-2.23859 2.33798-2.20144 1.86162-4.58651 3.448-7.16948 4.73165-1.57895.78464-3.21189 1.43336-4.91494 1.89682-.88707.2414-1.78785.40418-2.71235.3578-1.01368-.0507-1.94078-.33918-2.71029-1.03598-.20835-.18866-.38806-.40141-.54861-.63072-.0928-.13252-.0663-.15222-.24784-.0508-.72528.40535-1.47276.76288-2.25355 1.04977-.83603.30721-1.69356.52497-2.57983.61863-.91653.0968-1.81542.0326-2.67277-.34016-.65436-.28456-1.17655-.72948-1.57232-1.32179-.10691-.16001-.0936-.14228-.24561-.0561-.88528.50214-1.80047.93882-2.76213 1.27612-.76861.26961-1.55809.44457-2.37228.44484-1.64825.00053-2.88963-.70057-3.6501-2.19114-.0226-.0442-.0469-.0877-.0714-.13109-.003-.006-.0113-.009-.0203-.0149-.28376.12957-.56876.26137-.8552.38986-.24122.10816-.49453.15052-.75429.0953-.51369-.10906-.82797-.62821-.71569-1.17163.0651-.31509.23128-.54163.5401-.66949.40285-.16664.79682-.35431 1.18551-.553.0904-.0463.12151-.10154.11363-.20057-.0166-.20666-.0299-.41404-.0317-.62123-.0125-1.40506.2175-2.77816.55963-4.13505.31581-1.25258.74094-2.4654 1.3482-3.60945.69009-1.3003 1.57591-2.43782 2.76652-3.32176.63439-.47098 1.32627-.81678 2.1033-.97992.55363-.11614 1.1068-.1379 1.6564.0214.66519.19269 1.13635.61755 1.44052 1.23108.32682.65902.42836 1.3577.35261 2.08727-.10378 1.00016-.46812 1.91464-.92692 2.79437-.86209 1.65318-1.9192 3.17061-3.20419 4.52517-1.08415 1.14289-2.28846 2.14108-3.61205 2.99521-.0361.0234-.0712.0484-.10825.0699-.059.0345-.0707.0739-.0435.14165.31277.78267.82879 1.23028 1.73296 1.27496.66242.0328 1.29395-.1258 1.90882-.34768.97169-.35055 1.88643-.82279 2.78237-1.33379.11335-.0647.14075-.1378.12517-.25841-.0656-.50599-.067-1.01539-.0329-1.52245.0678-1.00876.23746-2.00239.50295-2.97829.45692-1.67968 1.10967-3.27931 2.00507-4.77364.64907-1.08335 1.45538-2.03794 2.44185-2.83251.75553-.60852 1.61082-1.00026 2.56872-1.1711 1.39799-.24937 2.62361.6335 3.00138 1.83298.24875.78992.21714 1.58047.0198 2.37218-.14971.6009-.41179 1.15892-.6822 1.71156-.80488 1.64503-1.85868 3.12145-3.06245 4.49536-1.26144 1.43962-2.68334 2.69927-4.2528 3.79336-.0294.0205-.0575.0431-.0882.0612-.0652.0384-.0619.0828-.0252.14228.13745.22331.31008.41161.53823.5435.34213.19798.71256.28027 1.10725.29316.76844.0253 1.50911-.11909 2.24137-.3296 1.02514-.29467 1.96746-.77345 2.88982-1.29716.0943-.0536.13144-.11641.11174-.22448-.0608-.33229-.0635-.67066-.0642-1.00545-.00089-.42119.0217-.84346.0725-1.26314.15025-1.24031.42818-2.4508.84373-3.62888.5162-1.46308 1.15095-2.86922 2.0357-4.1509.73637-1.06678 1.62112-1.98268 2.75112-2.64107.54771-.31912 1.12337-.56759 1.75221-.67531.75419-.1293 1.45869-.0226 2.06031.48316.50295.42281.82234.96757.98387 1.60276.18239.7165.13923 1.43381-.0155 2.1478-.20335.93892-.58667 1.80737-1.05317 2.64188-.7199 1.28786-1.60617 2.45447-2.59416 3.54615-1.29672 1.43273-2.71557 2.72971-4.29291 3.84968-.0349.0248-.0728.0466-.0944.10046.21722.37034.54548.60485.95468.7388.38278.12536.77738.11184 1.17037.0972.86541-.0321 1.69473-.25599 2.5185-.49865 1.12113-.33022 2.19471-.78312 3.24573-1.29027 2.13348-1.02971 4.14822-2.25543 6.04306-3.67723 1.00482-.75393 1.94043-1.58468 2.77431-2.52682.33372-.37688.62974-.77927.85421-1.23163.0867-.1746.14121-.35753.161-.55273.0454-.4468.38762-.79574.83756-.84821.20665-.0241.41322-.0213.61209.0644.24498.10557.40221.28617.48755.53482.00027.22905.00027.45827.00027.68749zm-20.11563 6.30989c.0955-.0159.13646-.069.18562-.10754.95441-.74623 1.84452-1.56337 2.68504-2.43531 1.19804-1.24273 2.24656-2.59693 3.05475-4.12681.38681-.73217.67889-1.50024.71721-2.3395.0137-.29916-.01-.6001-.15481-.87606-.11748-.2235-.29907-.33247-.55166-.34357-.31921-.0141-.60556.0914-.88448.22493-.60242.28849-1.10188.71479-1.56731 1.18497-.81105.8192-1.39369 1.79313-1.89538 2.81971-.65015 1.33047-1.10851 2.72667-1.3996 4.17767-.11954.59624-.19296 1.19822-.18938 1.82151zm-9.27671-.0711c.0758-.007.10539-.0406.13852-.0659.84374-.64307 1.63975-1.3397 2.3841-2.09667 1.33862-1.36145 2.4679-2.87719 3.37861-4.55508.2628-.48414.51674-.97294.68651-1.50033.13063-.40598.20585-.8184.1575-1.24613-.0598-.529-.38807-.78643-.91537-.71999-.0282.004-.0558.0121-.0839.0174-.34885.0655-.66967.20352-.97267.38386-.84553.5033-1.50983 1.201-2.08503 1.98555-.46642.63609-.85466 1.32188-1.18802 2.03694-.64397 1.38152-1.09364 2.8258-1.3662 4.32434-.0856.47071-.12643.94805-.13405 1.43604zm-8.81181-.50214c.0679.003.0952-.0216.12365-.0415.91161-.63995 1.74308-1.37194 2.5125-2.17645 1.03571-1.08299 1.88965-2.29957 2.6314-3.59638.41323-.72259.75652-1.47804.9339-2.29769.0684-.31634.0947-.63663.0252-.95861-.0983-.45567-.34267-.65096-.80335-.62231-.34258.0213-.65364.15491-.94966.31527-.94716.51298-1.66974 1.27353-2.2822 2.14037-.43498.61559-.75733 1.29717-1.03642 1.99674-.47627 1.19384-.81375 2.42708-1.01933 3.69541-.0825.50841-.12509 1.02183-.13574 1.54519z"/><path d="m393.39658 533.06257c.0137-.003.0353-.00044.0399-.008.12303-.2106.31813-.23272.53733-.22627.35073.0103.70181.005 1.05281.002.15123-.001.16296-.006.15571-.15956-.0257-.54378-.0121-1.08791-.0196-1.63178-.005-.32942-.009-.65902-.002-.98825.009-.44135.22099-.69752.64218-.82359 1.23261-.36909 2.46997-.7225 3.6878-1.13967.10091-.0346.20666-.0586.31205-.0766.39478-.0677.67638.14121.72348.53921.0125.10593.005.21436.005.32163.00017 1.25338-.00009 2.50677.00044 3.76024.00009.19654.002.19887.2038.19913.85949.0009 1.7189.00027 2.57839.00063.0644 0 .12948-.003.19305.005.16744.0218.28456.14318.30479.31151.005.0424.003.0858.003.12876.00018 1.22473.00071 2.44946-.00027 3.67428-.00027.31214-.13198.44215-.44376.44636-.043.00053-.086.00009-.12894.00009-.81651 0-1.63303-.00072-2.44946.00035-.29754.00036-.26047-.0284-.26056.26594-.00098 2.04124-.00071 4.08249-.00009 6.12382 0 .14291-.001.28546.0302.4272.0838.37821.30873.59311.6899.67092.35467.0725.69859.01 1.04135-.066.32853-.0728.64657-.18141.95549-.31554.0262-.0115.0519-.0244.0785-.0347.30113-.11604.47313-.007.48594.31769.008.20737.002.41546.002.62311 0 .96694 0 1.93379 0 2.90074 0 .4134-.17103.67226-.55667.82197-.64039.24857-1.29359.45657-1.9621.61792-.80496.19448-1.61906.29978-2.4465.2431-.96497-.0661-1.83369-.37249-2.52046-1.08836-.52596-.54807-.82449-1.21515-.99246-1.94561-.0965-.4195-.13781-.84535-.13691-1.27738.004-2.11297.002-4.22576.002-6.33872-.00018-.58013-.004-1.16017-.006-1.74021-.00089-.20505-.002-.20577-.21427-.20621-.34374-.00063-.68784-.008-1.03132.003-.20845.006-.38296-.0343-.49891-.22331-.01-.0155-.0356-.0209-.0541-.031 0-1.36119 0-2.7222 0-4.08321z"/><path d="m410.24453 526.70165c.37786.0473.74068.13995 1.08138.31912.99505.52327 1.57214 1.62354 1.468 2.74503-.12965 1.39646-1.3525 2.59997-2.93055 2.51554-1.53481-.0821-2.5681-1.33075-2.63884-2.62174-.0748-1.36441.83541-2.58735 2.15505-2.89456.0876-.0204.18759.006.26325-.0634.20048 0 .40105 0 .60171 0z"/><path d="m421.78821 533.32851c.33041-.12151.64496-.23675.97178-.31223 1.82375-.42137 3.5414-.15374 5.13521.8252 1.58379.97277 2.64806 2.37944 3.32346 4.09386.35664.90507.55515 1.8465.61756 2.81729.12016 1.867-.2371 3.63255-1.14692 5.27221-.79816 1.43846-1.90738 2.56613-3.39536 3.29991-1.1051.54494-2.27467.75536-3.49851.66358-.61612-.0462-1.2147-.18571-1.79411-.404-.0647-.0243-.12572-.0707-.20093-.0561-.0453.0325-.0299.0793-.0299.11873-.001.77354-.001 1.5469-.00053 2.32034.00018.17497.002.17685.17559.17756.31509.002.63027-.00071.94536.00081.29548.001.43221.12965.45433.42388.004.0499.001.1002.001.15034 0 1.13877-.00009 2.27745.00027 3.41604 0 .10038.00089.2003-.0278.29808-.0488.16663-.16905.26576-.33998.27605-.0428.003-.0859.00063-.12885.00063-2.59246 0-5.185.00009-7.77745-.00018-.0644 0-.13028.005-.19278-.006-.14989-.0279-.27176-.17021-.29127-.33362-.006-.0495-.003-.10011-.003-.15025-.00018-1.1959-.00027-2.39198.00018-3.58787.00009-.0853-.008-.17165.0305-.25331.0757-.15858.19878-.23567.37518-.2346.33658.002.67316.001 1.00974.00018.17774-.00062.17783-.002.18096-.17129.00063-.0357.00009-.0716.00009-.10736 0-4.7338.00027-9.4676-.00054-14.20141-.00009-.32073.0432-.28465-.28465-.28653-.28643-.002-.57296.002-.8594-.001-.32118-.004-.45155-.13798-.45182-.46337-.00099-1.21031-.00099-2.42063 0-3.63085.00027-.3356.13521-.47725.46462-.47752 2.08405-.002 4.168-.002 6.25205 0 .32709.00045.42872.11032.48566.52301zm5.34904 8.07373c-.002-.73772-.11282-1.40443-.34984-2.03981-.21006-.56312-.5059-1.07251-.94966-1.4878-.36792-.34428-.79628-.56275-1.302-.58765-.46812-.023-.88367.14354-1.25437.42433-.45029.34124-.77228.78661-.99783 1.29636-.65937 1.49049-.68785 3.00622-.13422 4.53297.20254.55846.51324 1.05362.95826 1.45601.77452.70038 1.7625.73092 2.57732.08.37016-.29566.64272-.66985.8586-1.08675.4203-.81123.59025-1.68066.59374-2.58771z"/><path d="m407.21485 538.99944c-.0793-.0305-.14434.006-.21185.0262-.27399.0818-.54745.16529-.82251.24346-.22573.0641-.41735-.059-.45451-.29029-.0113-.0702-.0112-.14263-.0112-.214-.00063-1.11737-.00054-2.23474-.00018-3.35211 0-.0644.001-.12894.007-.19305.0254-.29109.12984-.42361.40974-.50787 1.06768-.32154 2.13589-.64093 3.20392-.96139.96542-.28966 1.93075-.57968 2.89618-.86917.0547-.0164.10959-.0359.16582-.0432.2012-.0263.36989.10207.39541.30309.01.0776.005.15723.005.23603.00017 3.93224 0 7.86448.00053 11.79672 0 .30954-.0264.26423.25949.26647.30077.002.60171-.002.90247.001.26728.003.40947.14514.40992.41457.002 1.2463.002 2.49261 0 3.73883-.00036.28608-.13915.40812-.45334.40821-2.26331.00036-4.5267.00018-6.79009.00018-.351 0-.70191.002-1.05291-.00062-.28303-.002-.41994-.13754-.4203-.4229-.002-1.23915-.002-2.47829.00009-3.71744.00045-.27802.14604-.41895.42738-.4211.30085-.002.60171.00044.90247-.0009.27373-.001.24543.0287.24606-.2363.001-.51575.00036-1.03141.00036-1.54707 0-1.47553.00018-2.95097-.00045-4.4265-.00036-.0776.0103-.15679-.0144-.23119z"/></g></svg>