<?xml version="1.0" encoding="UTF-8" standalone="no"?>
<svg xmlns="http://www.w3.org/2000/svg" xmlns:sodipodi="http://sodipodi.sourceforge.net/DTD/sodipodi-0.dtd" xmlns:inkscape="http://www.inkscape.org/namespaces/inkscape" width="29.848" height="26.474" version="1.1">
 <metadata id="metadata6695"/>
 <g inkscape:label="Calque 1" inkscape:groupmode="layer" id="layer1" transform="translate(-350.79019,-539.12543)">
  <path d="m 370.06463,539.12544 c -2.18975,0.006 -4.38743,0.70293 -6.26863,2.12349 -3.79187,2.86341 -5.06835,7.80297 -3.49065,12.04276 -0.23024,0.11917 -0.44915,0.2609 -0.66904,0.42178 l -7.14129,5.22144 c -1.60722,1.17588 -2.16726,3.09113 -1.29445,4.24696 l 1.19263,1.5853 c 0.87279,1.15583 2.84333,1.08874 4.45059,-0.0872 l 7.12674,-5.22144 c 0.32196,-0.23556 0.61095,-0.49711 0.84358,-0.78539 3.55099,2.09444 8.15346,1.98588 11.65006,-0.65451 4.63061,-3.49675 5.54752,-10.07377 2.05076,-14.70438 -2.07621,-2.74949 -5.24988,-4.19758 -8.4503,-4.18878 z m -0.26179,4.21788 c 2.02095,-0.10657 4.05562,0.76507 5.36688,2.50164 2.09807,2.77836 1.54211,6.73046 -1.23628,8.82844 -2.77846,2.09858 -6.73038,1.54209 -8.82845,-1.23627 -2.09805,-2.77848 -1.54212,-6.73038 1.23628,-8.82846 1.04193,-0.78694 2.249,-1.20142 3.46157,-1.26535 z" id="path6372" inkscape:connector-curvature="0" opacity="0.8" fill="#ffffff"/>
 </g>
</svg>
