<?xml version="1.0" encoding="UTF-8" standalone="no"?>
<svg
   xmlns:dc="http://purl.org/dc/elements/1.1/"
   xmlns:cc="http://creativecommons.org/ns#"
   xmlns:rdf="http://www.w3.org/1999/02/22-rdf-syntax-ns#"
   xmlns:svg="http://www.w3.org/2000/svg"
   xmlns="http://www.w3.org/2000/svg"
   xmlns:sodipodi="http://sodipodi.sourceforge.net/DTD/sodipodi-0.dtd"
   xmlns:inkscape="http://www.inkscape.org/namespaces/inkscape"
   viewBox="0 0 24 30"
   version="1.1"
   id="svg8"
   sodipodi:docname="icon-liberapay.svg"
   width="24"
   height="30"
   inkscape:version="0.92.1 r">
  <metadata
     id="metadata14">
    <rdf:RDF>
      <cc:Work
         rdf:about="">
        <dc:format>image/svg+xml</dc:format>
        <dc:type
           rdf:resource="http://purl.org/dc/dcmitype/StillImage" />
        <dc:title></dc:title>
      </cc:Work>
    </rdf:RDF>
  </metadata>
  <defs
     id="defs12" />
  <sodipodi:namedview
     pagecolor="#ffffff"
     bordercolor="#666666"
     borderopacity="1"
     objecttolerance="10"
     gridtolerance="10"
     guidetolerance="10"
     inkscape:pageopacity="0"
     inkscape:pageshadow="2"
     inkscape:window-width="2560"
     inkscape:window-height="1371"
     id="namedview10"
     showgrid="false"
     units="px"
     inkscape:snap-global="true"
     inkscape:snap-page="true"
     inkscape:zoom="12.063197"
     inkscape:cx="2.3082719"
     inkscape:cy="6.5794757"
     inkscape:window-x="0"
     inkscape:window-y="27"
     inkscape:window-maximized="1"
     inkscape:current-layer="g4495" />
  <g
     id="g4495">
    <g
       id="g4499"
       transform="matrix(0.26486397,0,0,0.26486397,6.2639257,27.411018)"
       style="stroke-width:3.77552295">
      <path
         inkscape:connector-curvature="0"
         style="fill:#191919;fill-opacity:0.8;stroke:none;stroke-width:3.77552271"
         id="path2"
         d="m -0.36026194,-10.857069 c -5.57983996,0 -9.95809006,-0.72815 -13.14099006,-2.18132 -3.1829,-1.45316 -5.46109,-3.43603 -6.83613,-5.95172 -1.37504,-2.51414 -2.04381,-5.40172 -2.00318,-8.66275 0.0391,-3.25947 0.48907,-6.73613 1.35628,-10.42998 l 14.9676101,-62.579891 18.2661399,-2.8282 -16.3817099,67.876911 c -0.31563,1.4141 -0.49064,2.71101 -0.5297,3.88917 -0.0406,1.17816 0.17657,2.22038 0.64845,3.12353 0.47189,0.9047 1.2766,1.63129 2.4157,2.17974 1.13908996,0.55158 2.72976,0.90472 4.77357,1.06097 l -3.53604004,14.49728" />
      <path
         inkscape:connector-curvature="0"
         style="fill:#191919;fill-opacity:0.8;stroke:none;stroke-width:3.77552271"
         id="path4"
         d="m 65.641608,-49.858169 c 0,5.7361 -0.94379,10.98468 -2.82977,15.73482 -1.88599,4.75482 -4.49857,8.85805 -7.82835,12.31441 -3.34072,3.4579 -7.34708,6.14861 -12.02065,8.07366 -4.67513,1.92349 -9.76278,2.88758 -15.26137,2.88758 -2.67195,0 -5.3439,-0.23595 -8.01429,-0.70783 L 14.383908,9.7747608 H -3.0572119 L 16.505838,-71.774419 c 3.14072,-0.94221 6.73613,-1.78598 10.78312,-2.53444 4.04542,-0.74534 8.4268,-1.11878 13.14099,-1.11878 4.39856,0 8.19086,0.66877 11.3722,2.00318 3.1829,1.33597 5.79392,3.16259 7.84397,5.47984 2.04225,2.31881 3.55323,5.02983 4.53763,8.13304 0.97971,3.10478 1.47192,6.42206 1.47192,9.95809 m -42.77934,24.1585 c 1.33441,0.31563 2.98446,0.47188 4.94858,0.47188 3.06415,0 5.85329,-0.56876 8.36743,-1.70942 2.51413,-1.13753 4.65481,-2.72976 6.42361,-4.77357 1.76724,-2.04225 3.14072,-4.49544 4.12512,-7.36583 0.98128,-2.86727 1.47348,-6.0283 1.47348,-9.48621 0,-3.37666 -0.74846,-6.24705 -2.23912,-8.60336 -1.4938,-2.35632 -4.08606,-3.53604 -7.77835,-3.53604 -2.5157,0 -4.87201,0.23594 -7.07051,0.70783 l -8.25024,34.29472" />
    </g>
  </g>
</svg>
