<?xml version="1.0" encoding="UTF-8" standalone="no"?>
<svg xmlns="http://www.w3.org/2000/svg" xmlns:sodipodi="http://sodipodi.sourceforge.net/DTD/sodipodi-0.dtd" xmlns:inkscape="http://www.inkscape.org/namespaces/inkscape" width="39.599" height="37.16" version="1.1">
 <metadata id="metadata5577"/>
 <g inkscape:label="Calque 1" inkscape:groupmode="layer" id="layer1" transform="translate(-451.62916,-813.78403)">
  <path sodipodi:nodetypes="sccsccsssccscsssccccc" inkscape:connector-curvature="0" id="path4784" d="m 454.63163,813.78403 c -1.1192,0 -1.6163,0.6327 -1.6562,1.4063 l -1.3438,25.5625 c -0.058,1.1177 0.9121,2.0312 2.0313,2.0312 l 13.3437,0 0,0.75 c -2.9548,0.6638 -5,1.9647 -5,3.4688 0,2.1757 4.2179,3.9375 9.4063,3.9375 5.1884,0 9.4063,-1.7618 9.4063,-3.9375 0,-1.4662 -1.9479,-2.7279 -4.7813,-3.4063 l 0,-0.8125 13.1563,0 c 1.1192,0 2.0892,-0.9135 2.0313,-2.0312 l -1.3438,-25.5625 c -0.043,-0.8181 -0.7451,-1.4063 -1.6563,-1.4063 z m 1.3438,2.5938 31.189,0.094 0.8815,21.9687 -33.3205,0 z" opacity="0.8" fill="#ffffff" fill-rule="evenodd" color="#000000"/>
 </g>
</svg>
