<svg height="32" viewBox="0 0 32 32" width="32" xmlns="http://www.w3.org/2000/svg"><path d="m16.057159 0a15.999478 15.999478 0 0 0 -11.3133266 4.6861512 15.999478 15.999478 0 1 0  22.6266536 22.6266548 15.999478 15.999478 0 0 0 -11.313327-27.312806zm-.0019 8.9613078h3.427728c-.610221.429554-.837925 1.6324592-.867781 2.3628992v6.660806c0 1.418194-1.141723 2.559917-2.559917 2.559917-1.418193 0-2.559915-1.141723-2.559915-2.559917v-6.463789c0-1.418194 1.141722-2.5599162 2.559915-2.5599162zm-.01412 1.6639452c-.494832 0-.895971.401171-.895971.895971 0 .494864.401139.895971.895971.895971.494832 0 .895971-.401107.895971-.895971 0-.4948-.401139-.895971-.895971-.895971zm-8.9295638.252793c1.4181938 0 2.5599172 1.141722 2.5599172 2.559915v6.59681c.02986.73044.257559 1.933377.8678106 2.362867h-3.4277717c-1.4181938 0-2.5599165-1.141723-2.5599165-2.559917v-6.399791c0-1.418194 1.1417227-2.559917 2.5599165-2.559917zm17.8912568 0c1.418194 0 2.559916 1.141722 2.559916 2.559915v6.399792c0 1.418193-1.141722 2.559916-2.559916 2.559916h-3.42776c.610251-.429554.837957-1.632458.867812-2.362898v-6.59681c0-1.418193 1.141722-2.559915 2.559916-2.559915zm-17.9053803 1.665545c-.4948319 0-.8959708.401138-.8959708.895971 0 .494831.4011389.89597.8959708.89597.4948318 0 .8959708-.401139.8959708-.89597 0-.494833-.401139-.895971-.8959708-.895971zm17.9194163 0c-.494832 0-.895972.401138-.895972.895971 0 .494831.40114.89597.895972.89597.494831 0 .895971-.401139.895971-.89597 0-.494833-.40114-.895971-.895971-.895971zm-8.975708 1.281559c-.494831 0-.895971.40117-.895971.89597 0 .494864.40114.895971.895971.895971.494832 0 .895972-.401107.895972-.895971 0-.4948-.40114-.89597-.895972-.89597zm-8.9437083 1.916737c-.4948319 0-.8959708.401106-.8959708.89597 0 .4948.4011389.895972.8959708.895972.4948318 0 .8959708-.401172.8959708-.895972 0-.494864-.401139-.89597-.8959708-.89597zm17.9194163 0c-.494832 0-.895972.401106-.895972.89597 0 .4948.40114.895972.895972.895972.494831 0 .895971-.401172.895971-.895972 0-.494864-.40114-.89597-.895971-.89597zm-8.975708 1.281558c-.494831 0-.895971.401139-.895971.895971 0 .494831.40114.89597.895971.89597.494832 0 .895972-.401139.895972-.89597 0-.494832-.40114-.895971-.895972-.895971zm-8.9437083 1.918337c-.4948319 0-.8959708.401108-.8959708.895971 0 .494799.4011389.895971.8959708.895971.4948318 0 .8959708-.401172.8959708-.895971 0-.494863-.401139-.895971-.8959708-.895971zm17.9194163 0c-.494832 0-.895972.401108-.895972.895971 0 .494799.40114.895971.895972.895971.494831 0 .895971-.401172.895971-.895971 0-.494863-.40114-.895971-.895971-.895971z" fill="#191919" fill-opacity=".80000001"/></svg>