<svg height="32" width="32" xmlns="http://www.w3.org/2000/svg"><path d="m358.08605 524.71184c-.97558 0-1.76758.79004-1.76758 1.76563v28.46679c0 .97533.79188 1.76758 1.76758 1.76758h15.32617v-12.39258h-4.17188v-4.83008h4.17188v-3.56054c0-4.13315 2.5238-6.38477 6.21094-6.38477 1.76616 0 3.28427.13251 3.72656.19141v4.31836l-2.55859.002c-2.00505 0-2.39258.95331-2.39258 2.35156v3.08203h4.7832l-.62305 4.83008h-4.16015v12.39258h8.15429c.97521 0 1.76563-.79212 1.76563-1.76758v-28.46679c0-.97559-.7903-1.76563-1.76563-1.76563h-28.46679z" fill="#191919" fill-opacity=".8" transform="translate(-356.31847 -524.71184)"/></svg>