<?xml version="1.0" encoding="UTF-8" standalone="no"?>
<svg
   xmlns:dc="http://purl.org/dc/elements/1.1/"
   xmlns:cc="http://creativecommons.org/ns#"
   xmlns:rdf="http://www.w3.org/1999/02/22-rdf-syntax-ns#"
   xmlns:svg="http://www.w3.org/2000/svg"
   xmlns="http://www.w3.org/2000/svg"
   xmlns:sodipodi="http://sodipodi.sourceforge.net/DTD/sodipodi-0.dtd"
   xmlns:inkscape="http://www.inkscape.org/namespaces/inkscape"
   height="27.444695"
   width="31.999998"
   version="1.1"
   id="svg4"
   sodipodi:docname="icon-download.svg"
   inkscape:version="0.92.2 5c3e80d, 2017-08-06">
  <metadata
     id="metadata10">
    <rdf:RDF>
      <cc:Work
         rdf:about="">
        <dc:format>image/svg+xml</dc:format>
        <dc:type
           rdf:resource="http://purl.org/dc/dcmitype/StillImage" />
        <dc:title></dc:title>
      </cc:Work>
    </rdf:RDF>
  </metadata>
  <defs
     id="defs8" />
  <sodipodi:namedview
     pagecolor="#ffffff"
     bordercolor="#666666"
     borderopacity="1"
     objecttolerance="10"
     gridtolerance="10"
     guidetolerance="10"
     inkscape:pageopacity="0"
     inkscape:pageshadow="2"
     inkscape:window-width="2560"
     inkscape:window-height="1371"
     id="namedview6"
     showgrid="false"
     inkscape:zoom="8.4827422"
     inkscape:cx="24.486627"
     inkscape:cy="-14.694063"
     inkscape:window-x="0"
     inkscape:window-y="27"
     inkscape:window-maximized="1"
     inkscape:current-layer="svg4"
     fit-margin-top="0"
     fit-margin-left="0"
     fit-margin-right="0"
     fit-margin-bottom="0" />
  <path
     id="path50"
     style="fill:#ffffff;fill-opacity:0.8;fill-rule:nonzero;stroke:none;stroke-width:0.11847936"
     d="m 28.190473,21.746855 c -0.152483,0 -0.305203,0.05817 -0.421669,0.174758 l -1.254815,1.254814 v -5.236669 c 0,-0.329372 -0.267052,-0.596425 -0.596543,-0.596425 -0.329373,0 -0.596425,0.267053 -0.596425,0.596425 v 5.236669 l -1.254934,-1.254814 c -0.116346,-0.116584 -0.268948,-0.174758 -0.421549,-0.174758 -0.152601,0 -0.305321,0.05817 -0.421787,0.174758 -0.23293,0.232812 -0.23293,0.610523 0,0.843454 l 2.273146,2.273027 c 0.232693,0.232812 0.610523,0.232812 0.843335,0 l 2.273027,-2.273027 c 0.232931,-0.232931 0.232931,-0.610642 0,-0.843454 -0.116465,-0.116584 -0.269185,-0.174758 -0.421786,-0.174758 m -2.272968,4.504989 c -2.696234,0 -4.889762,-2.193528 -4.889762,-4.889762 0,-2.696117 2.193528,-4.889644 4.889762,-4.889644 2.696235,0 4.889762,2.193527 4.889762,4.889644 0,2.696234 -2.193527,4.889762 -4.889762,4.889762 m 0,-10.972256 c -3.353914,0 -6.082493,2.72858 -6.082493,6.082494 0,3.354032 2.728579,6.082612 6.082493,6.082612 3.353914,0 6.082494,-2.72858 6.082494,-6.082612 0,-3.353914 -2.72858,-6.082494 -6.082494,-6.082494 M 0.59633063,0 C 0.26695772,0 -2.735744e-7,0.26713154 -2.735744e-7,0.59650419 V 4.7673479 c 0,0.013151 0.002985683574,0.025441 0.003820963574,0.038355 C 0.00302095,4.8184991 -2.735744e-7,4.8306788 -2.735744e-7,4.8437116 V 25.475261 c 0,0.329373 0.2669579935744,0.59633 0.5963309035744,0.59633 H 3.8305044 c 0.023577,0 0.045915,-0.0042 0.068901,-0.0068 0.022866,0.0026 0.045379,0.0068 0.069075,0.0068 H 20.013871 l 0.13138,-0.137281 c -0.998061,-1.257411 -1.596347,-2.845848 -1.596347,-4.572273 0,-4.063072 3.3055,-7.368572 7.368572,-7.368572 1.611505,0 3.102785,0.521484 4.316975,1.402488 l 0.0807,-0.08417 V 7.7956873 c 0,-0.3293725 -0.267013,-0.5963307 -0.596505,-0.5963307 H 27.343913 L 27.310939,4.759538 C 27.306558,4.4332459 27.040727,4.1710173 26.714434,4.1710173 H 11.306332 L 9.1282329,0.30389263 C 9.0225496,0.11622133 8.8240085,0 8.608613,0 Z M 1.1926615,1.1928349 h 7.0672819 l 2.1780996,3.8672982 c 0.109593,0.1944246 0.311854,0.3038926 0.520141,0.3038926 0.02749,0 0.05495,-0.00234 0.08244,-0.00625 0.02002,0.00201 0.03961,0.00625 0.06022,0.00625 h 15.025242 l 0.02482,1.8353309 H 3.9684801 c -0.3293729,0 -0.5965042,0.2669582 -0.5965042,0.5963307 V 24.87893 H 1.1926615 V 4.8437116 c 0,-0.013033 -0.00299,-0.025212 -0.00382,-0.038008 7.997e-4,-0.012914 0.00382,-0.025204 0.00382,-0.038355 z" />
</svg>
