<?xml version="1.0" encoding="UTF-8" standalone="no"?>
<svg
   xmlns:dc="http://purl.org/dc/elements/1.1/"
   xmlns:cc="http://creativecommons.org/ns#"
   xmlns:rdf="http://www.w3.org/1999/02/22-rdf-syntax-ns#"
   xmlns:svg="http://www.w3.org/2000/svg"
   xmlns="http://www.w3.org/2000/svg"
   xmlns:sodipodi="http://sodipodi.sourceforge.net/DTD/sodipodi-0.dtd"
   xmlns:inkscape="http://www.inkscape.org/namespaces/inkscape"
   width="32"
   height="34.454"
   version="1.1"
   id="svg2"
   inkscape:version="0.91 r13725"
   sodipodi:docname="icon-mypaint.svg">
  <defs
     id="defs9" />
  <sodipodi:namedview
     pagecolor="#ffffff"
     bordercolor="#666666"
     borderopacity="1"
     objecttolerance="10"
     gridtolerance="10"
     guidetolerance="10"
     inkscape:pageopacity="0"
     inkscape:pageshadow="2"
     inkscape:window-width="2560"
     inkscape:window-height="1361"
     id="namedview7"
     showgrid="false"
     inkscape:zoom="15.920231"
     inkscape:cx="-6.711117"
     inkscape:cy="22.210384"
     inkscape:window-x="0"
     inkscape:window-y="27"
     inkscape:window-maximized="1"
     inkscape:current-layer="layer1" />
  <metadata
     id="metadata6511">
    <rdf:RDF>
      <cc:Work
         rdf:about="">
        <dc:format>image/svg+xml</dc:format>
        <dc:type
           rdf:resource="http://purl.org/dc/dcmitype/StillImage" />
      </cc:Work>
    </rdf:RDF>
  </metadata>
  <g
     inkscape:label="Calque 1"
     inkscape:groupmode="layer"
     id="layer1"
     transform="translate(-429.58791,-545.99218)">
    <path
       d="m 429.85705,545.99668 c -0.16145,0.0529 -0.27715,0.22126 -0.26871,0.39091 l 0,25.80011 c 0,0.20468 0.18623,0.39091 0.39091,0.39091 l 5.8148,0 -3.78699,7.23184 c -0.13666,0.23736 0.068,0.58887 0.34212,0.58637 l 3.88464,0 c 0.14253,-0.003 0.27974,-0.0915 0.34205,-0.21993 l 4.00683,-7.59828 2.2966,0 0,5.86366 c 0,0.20468 0.18623,0.39091 0.39091,0.39091 l 2.34547,0 c 0.20468,0 0.39091,-0.18623 0.39091,-0.39091 l 0,-5.86366 2.24773,0 4.03131,7.64723 c 0.0625,0.12814 0.19975,0.21633 0.34197,0.21984 l 3.88471,0 c 0.27403,0.002 0.47902,-0.349 0.34205,-0.58636 l -3.81138,-7.28071 5.86366,0 c 0.20468,0 0.39091,-0.18623 0.39091,-0.39091 l 0,-3.12729 0.61084,0.29318 c 0.61373,0.29764 1.33191,0.0213 1.58803,-0.61083 0.25621,-0.63203 -0.0453,-1.41252 -0.6597,-1.71016 l -1.53917,-0.75743 0,-19.88758 c 0,-0.20468 -0.18623,-0.39091 -0.39091,-0.39091 l -28.92739,0 c -0.0407,-0.006 -0.0816,-0.006 -0.1222,0 z m 6.32791,1.56364 c 0.17426,-0.004 0.36081,0.056 0.58636,0.21993 0.16262,0.19897 0.27919,0.42726 0.36652,0.65962 0.0774,0.11063 0.12908,0.23791 0.14651,0.36644 0,0.0579 0,0.11384 0,0.17106 0.11149,0.63117 0.0586,1.31378 0,1.93016 -0.36605,3.11595 -1.74244,6.1488 -1.17273,9.33292 0.068,0.53187 0.12767,1.07844 0.17106,1.61258 0.75462,-2.94926 1.58374,-5.89102 2.32108,-8.84443 0.15761,-0.83061 0.33125,-1.64198 0.51303,-2.46758 -0.0141,-0.19968 -0.008,-0.3967 0.0735,-0.58637 -0.28287,-1.29438 1.94001,-1.27656 1.83235,0.0244 0.36175,1.29439 -0.37363,2.53264 -0.73296,3.73813 -0.1494,0.38317 -0.30381,0.76696 -0.46424,1.14826 -0.54681,1.59906 -0.98158,3.2641 -0.70849,4.95972 0.0266,0.4239 0.0344,0.84608 0.0485,1.27046 1.07133,-3.91701 2.46578,-7.76803 4.4466,-11.31202 1.21707,0.78268 1.25913,2.56992 0.61076,3.73812 -0.94475,2.60261 -2.74012,4.987 -2.8341,7.84269 0.49575,-1.38266 0.90246,-2.79979 1.58811,-4.10457 0.4365,-0.74007 0.99597,-2.23397 2.07676,-1.53925 1.07305,0.67378 0.43789,1.84971 0.0977,2.73638 -0.13556,0.41859 -0.24181,0.86016 -0.34212,1.29485 0.67534,-0.0145 1.39039,0.2082 1.7591,0.75743 l -0.0485,-0.19546 0.87955,0.61076 c 0.57269,0.39154 1.12379,0.38943 1.7591,0.34213 0.63484,-0.0478 1.33746,-0.1702 2.05228,0.0244 1.12543,0.30655 1.69358,1.13333 1.78349,1.95455 0.0696,0.0192 0.15246,0.0405 0.21985,0.0733 l 6.08359,2.98061 -0.0242,2.73638 -7.01192,-3.42047 c -0.15355,-0.0743 -0.28091,-0.16934 -0.39091,-0.29318 -0.30069,0.14831 -0.64164,0.22258 -0.97728,0.21992 -0.69222,-0.005 -1.40884,-0.32046 -2.10114,-0.85507 -0.72405,-0.55932 -1.19728,-1.38242 -1.51478,-2.07676 -0.3175,-0.69433 -0.46417,-1.27046 -0.46417,-1.27046 l -0.0493,-0.14659 c -0.0711,0.55963 -0.83804,0.86923 -1.36819,0.70849 -0.05,0.13752 -0.12666,0.26113 -0.26871,0.31765 -0.60341,0.39959 -1.55934,0.4132 -2.12554,-0.1222 -0.0227,-0.0182 -0.0524,-0.0292 -0.0735,-0.0488 -0.3028,1.12809 -0.67495,2.2439 -1.41705,3.17607 -0.44384,0.82787 -1.34583,0.58754 -1.80796,0 0,0.0897 0,0.17927 0,0.26879 -0.0743,1.07477 -0.19108,2.18457 -0.63523,3.17615 -0.90019,0.7138 -2.07605,-0.51436 -1.85683,-1.49039 0.24197,-1.43261 0.21578,-2.87468 0.26871,-4.32441 -0.24502,1.71071 -0.33344,3.44252 -0.78182,5.10623 -0.43055,0.99487 -1.76809,0.53024 -2.05228,-0.31757 -0.008,0.0734 -0.0172,0.14682 -0.0242,0.21985 0.0672,0.20999 0.15707,0.40717 0.24432,0.61083 0.0117,1.38008 -2.31653,1.22856 -2.32099,-0.0977 -0.0963,-0.47785 -0.0787,-0.94053 -0.0493,-1.41705 -0.72749,-3.12244 -0.5895,-6.35105 -0.41531,-9.52845 0.084,-2.55335 0.0808,-5.10725 0.31758,-7.64723 0.17974,-1.11324 1.32839,-1.53175 2.19895,-0.90394 -0.47308,1.5835 -0.73874,3.20961 -0.87955,4.83752 0.2795,-1.40001 0.64039,-2.7829 1.14826,-4.12904 0.23736,-0.66494 0.56424,-2.01162 1.31932,-2.02781 z m -1.17274,6.66996 c -0.29943,0.97493 -0.45165,1.99489 -0.34204,3.02955 -0.15723,1.6996 -0.63156,3.41969 -0.29319,5.13063 0.0594,0.6887 0.12901,1.3606 0.19546,2.05228 -0.0289,-2.01968 -0.0493,-4.04256 0.0977,-6.05912 0.0845,-1.38789 0.20374,-2.76983 0.34204,-4.15334 z"
       id="rect5858"
       inkscape:connector-curvature="0"
       opacity="0.8"
       color="#000000"
       style="opacity:1;fill:#191919;fill-opacity:0.80000001" />
  </g>
</svg>
