<?xml version="1.0" encoding="UTF-8" standalone="no"?>
<svg
   xmlns:dc="http://purl.org/dc/elements/1.1/"
   xmlns:cc="http://creativecommons.org/ns#"
   xmlns:rdf="http://www.w3.org/1999/02/22-rdf-syntax-ns#"
   xmlns:svg="http://www.w3.org/2000/svg"
   xmlns="http://www.w3.org/2000/svg"
   xmlns:sodipodi="http://sodipodi.sourceforge.net/DTD/sodipodi-0.dtd"
   xmlns:inkscape="http://www.inkscape.org/namespaces/inkscape"
   width="32"
   height="33.703"
   version="1.1"
   id="svg2"
   inkscape:version="0.91 r13725"
   sodipodi:docname="icon-mandelbulber.svg">
  <defs
     id="defs9" />
  <sodipodi:namedview
     pagecolor="#ffffff"
     bordercolor="#666666"
     borderopacity="1"
     objecttolerance="10"
     gridtolerance="10"
     guidetolerance="10"
     inkscape:pageopacity="0"
     inkscape:pageshadow="2"
     inkscape:window-width="2560"
     inkscape:window-height="1361"
     id="namedview7"
     showgrid="false"
     inkscape:zoom="5.7540742"
     inkscape:cx="-5.5421868"
     inkscape:cy="25.590896"
     inkscape:window-x="0"
     inkscape:window-y="27"
     inkscape:window-maximized="1"
     inkscape:current-layer="layer1" />
  <metadata
     id="metadata6511">
    <rdf:RDF>
      <cc:Work
         rdf:about="">
        <dc:format>image/svg+xml</dc:format>
        <dc:type
           rdf:resource="http://purl.org/dc/dcmitype/StillImage" />
      </cc:Work>
    </rdf:RDF>
  </metadata>
  <g
     inkscape:label="Calque 1"
     inkscape:groupmode="layer"
     id="layer1"
     transform="translate(-431.99639,-537.97747)">
    <path
       d="m 444.20663,569.91842 c -0.40362,-1.54363 -0.62875,-1.62215 -1.81894,-0.63438 -1.19296,0.99005 -1.59389,0.83293 -3.29286,-1.29051 -1.06396,-1.3298 -1.93631,-2.69251 -1.93851,-3.02824 0,-0.33574 -0.78144,-0.61044 -1.73153,-0.61044 -1.45894,0 -1.5667,-0.19375 -0.69321,-1.24633 0.85111,-1.0255 0.78877,-1.4259 -0.35202,-2.26005 -1.74837,-1.27845 -3.30743,-7.39557 -1.73071,-6.79051 0.57715,0.22148 1.51421,-0.0265 2.08224,-0.55111 0.81327,-0.75097 0.92201,-0.63958 0.51131,0.52378 -0.43439,1.23045 -0.21618,1.38319 1.30454,0.91322 1.68448,-0.52058 1.6525,-0.4014 -0.41208,1.53574 -3.19902,3.00158 -2.86695,4.37178 0.93071,3.83961 0.62387,-0.0874 1.42338,0.30886 1.7767,0.88061 0.36748,0.59461 0.54256,-0.2204 0.40891,-1.90409 -0.20527,-2.58704 -0.022,-2.92111 1.5134,-2.7574 0.96083,0.10244 2.18935,0.45963 2.72996,0.79376 0.59513,0.36781 0.98296,0.14253 0.98296,-0.57097 0,-0.64816 0.45783,-1.16147 1.0174,-1.14069 2.4612,0.0914 3.8661,-0.27644 3.8661,-1.01222 0,-0.43728 -1.03538,-0.5865 -2.30607,-0.33235 -1.75952,0.35189 -2.30615,0.15413 -2.30615,-0.83427 0,-0.71252 0.34445,-1.29548 0.76541,-1.29548 0.42088,0 0.53881,-0.59017 0.262,-1.3115 -0.33566,-0.87482 -0.14773,-1.17509 0.56437,-0.9018 0.58724,0.22532 1.91848,-0.0457 2.95826,-0.60214 l 1.89065,-1.01184 -1.85972,-0.48632 c -1.02285,-0.26748 -2.4612,-0.16443 -3.19641,0.229 -0.7541,0.40362 -1.83254,0.40881 -2.47472,0.0119 -0.62598,-0.38689 -1.46692,-0.50026 -1.86867,-0.25195 -0.40183,0.24831 -0.32304,-0.30988 0.17491,-1.24041 0.75393,-1.4086 0.62737,-1.84073 -0.75548,-2.58082 -0.91354,-0.4889 -1.44226,-1.24278 -1.17497,-1.67528 0.26729,-0.43249 0.78853,-0.59935 1.15837,-0.3708 0.36984,0.22857 0.88001,-0.12555 1.13387,-0.78691 0.27453,-0.71561 0.99582,-0.99741 1.78133,-0.69598 1.0581,0.40602 1.10457,0.64304 0.23425,1.19469 -0.59709,0.37851 -0.74815,0.6938 -0.33574,0.70065 0.41241,0.007 1.40596,-0.58135 2.20791,-1.30712 1.50265,-1.35989 4.4553,-0.95333 3.56284,0.4906 -0.2887,0.46716 0.0317,0.60582 0.75768,0.32742 0.69215,-0.26561 1.07152,-0.7855 0.84289,-1.15532 -0.22855,-0.36981 0.0163,-0.93952 0.545,-1.26601 0.55794,-0.34483 1.69596,0.26143 2.71539,1.44657 0.96522,1.12211 2.77488,2.29619 4.02156,2.60909 1.73926,0.43652 2.16974,0.93931 1.85028,2.16094 -0.22896,0.87563 -0.12567,1.41244 0.22952,1.19293 0.89979,-0.55612 2.12994,1.18478 2.79231,3.95173 0.40272,1.68244 0.15008,2.80074 -0.90516,4.00602 -0.80513,0.91961 -1.0445,1.42803 -0.53181,1.12984 0.51268,-0.29821 1.15364,0.0351 1.42435,0.74057 0.8494,2.21359 0.53946,4.21303 -0.72862,4.69964 -0.67148,0.25766 -1.22087,1.39563 -1.22087,2.52883 0,1.13318 -0.45783,2.06666 -1.0174,2.0744 -0.55957,0.008 -1.91588,0.96074 -3.01401,2.11778 -2.51908,2.65419 -4.91061,3.56557 -9.3563,3.56557 -2.9192,0 -3.59271,-0.29848 -3.97542,-1.76168 z m -0.34591,-4.07634 c 2.2495,-1.08877 2.97796,-2.30115 1.38268,-2.30115 -0.47411,0 -0.62021,-0.39123 -0.32467,-0.8694 0.29553,-0.47818 1.02293,-0.68308 1.61635,-0.45534 0.59351,0.22774 1.51698,-0.11355 2.05213,-0.75843 0.53524,-0.64487 1.47767,-1.1725 2.09429,-1.1725 1.10083,0 1.46025,-0.96324 1.16561,-3.12356 -0.10393,-0.76215 0.41648,-0.93263 1.73487,-0.56829 1.77222,0.48975 1.79542,0.44979 0.39287,-0.67715 -1.17138,-0.94127 -2.04252,-1.0137 -4.06958,-0.33836 -3.0552,1.01791 -7.23865,4.68418 -6.76202,5.92617 0.18443,0.48077 -0.26395,0.92117 -0.99648,0.97866 -3.23296,0.25375 -4.99452,0.62419 -4.99452,1.05031 0,1.22691 2.72369,4.13851 3.54363,3.78807 0.5131,-0.21932 1.93729,-0.88488 3.16484,-1.47903 z m 2.90592,-5.29889 c 0.58757,-0.23512 1.28957,-0.20621 1.56004,0.0643 0.27046,0.27045 -0.21032,0.46282 -1.06827,0.42748 -0.94821,-0.0391 -1.14103,-0.23192 -0.49177,-0.49174 z m 0.96653,-1.80956 c 0,-0.40575 0.73253,-0.54615 1.62783,-0.31203 0.89531,0.23413 1.62784,0.5661 1.62784,0.73772 0,0.17161 -0.73253,0.31203 -1.62784,0.31203 -0.8953,0 -1.62783,-0.33197 -1.62783,-0.73772 z m 5.81072,7.27613 c 2.0006,-1.66664 2.02315,-1.6426 -1.86355,-1.98049 -0.51488,-0.0448 -1.062,0.74271 -1.21575,1.74993 -0.34396,2.25394 0.56852,2.32226 3.0793,0.23056 z m 3.95628,-7.71126 c 0,-0.1974 -0.36626,-0.58528 -0.81391,-0.86194 -0.44766,-0.27667 -0.81392,-0.11516 -0.81392,0.35892 0,0.47407 0.36626,0.86195 0.81392,0.86195 0.44765,0 0.81391,-0.16151 0.81391,-0.35893 z m -2.44175,-4.79587 c 0,-0.59688 -0.54939,-1.08523 -1.22087,-1.08523 -1.28754,0 -1.58714,0.71897 -0.67824,1.62783 0.89856,0.89858 1.89911,0.6127 1.89911,-0.5426 z m 1.8843,-2.69826 c 0.29033,-0.29029 -0.25402,-1.20595 -1.20972,-2.03479 -0.9557,-0.82884 -1.38855,-1.50698 -0.96189,-1.50698 0.42657,0 1.2304,0.45476 1.78622,1.01059 0.80488,0.80485 1.15853,0.77133 1.73698,-0.16463 0.39947,-0.64636 0.54573,-1.46738 0.325,-1.8245 -0.22074,-0.35712 0.008,-0.64931 0.5087,-0.64931 0.50047,0 0.67994,-0.37223 0.39873,-0.82719 -0.68849,-1.11398 -2.127,-0.14533 -1.84466,1.24215 0.1238,0.60838 -0.14121,1.09353 -0.58887,1.07812 -0.44765,-0.0154 -0.72674,-0.34447 -0.6202,-0.73125 0.2423,-0.87973 -2.45144,0.0663 -3.14986,1.10619 -0.28283,0.42124 0.0834,1.42465 0.81392,2.22982 1.48279,1.63422 2.03308,1.84442 2.80565,1.07178 z m -10.39494,-4.68182 c 0.93837,-0.9384 0.95082,-1.29707 0.0708,-2.02774 -1.27484,-1.05804 -2.14068,-0.38031 -2.14068,1.6756 0,1.78804 0.54215,1.88025 2.07028,0.35214 z m 4.84802,-0.4878 c 1.72924,-1.91078 0.30806,-2.2266 -1.56972,-0.34882 -1.43836,1.43837 -1.59935,1.97667 -0.59123,1.97667 0.37831,0 1.35069,-0.73253 2.16095,-1.62785 z m -11.76859,7.69221 c 0.90556,-1.09115 0.77176,-1.21107 -0.9942,-0.89085 -3.03827,0.55093 -4.5314,-0.61132 -2.89176,-2.25094 1.41759,-1.41762 3.43912,-1.78692 2.63188,-0.48082 -0.27665,0.44765 -0.13674,0.81391 0.31091,0.81391 0.44766,0 1.04027,-0.36626 1.31692,-0.81391 0.27665,-0.44766 0.93926,-0.80831 1.47238,-0.80146 0.58244,0.007 0.48208,0.32737 -0.2515,0.80146 -1.02888,0.66488 -0.98313,0.79094 0.29056,0.80145 1.04165,0.009 1.35786,0.41261 1.0174,1.29991 -0.27177,0.70809 -0.49405,1.62375 -0.49405,2.03479 0,0.41104 -0.77737,0.74735 -1.72745,0.74735 -1.46766,0 -1.57013,-0.18968 -0.68109,-1.26089 z m -6.54454,-3.98154 c 0,-0.6979 0.36626,-1.26891 0.81391,-1.26891 0.44766,0 0.81392,0.34464 0.81392,0.76588 0,0.42123 -0.36626,0.99225 -0.81392,1.26891 -0.44765,0.27667 -0.81391,-0.068 -0.81391,-0.76588 z m 2.84871,-2.89674 c -0.89531,-0.38474 -1.17001,-0.72526 -0.61044,-0.75672 0.55957,-0.0315 1.01739,-0.6066 1.01739,-1.27808 0,-1.31092 0.74563,-1.50831 2.76724,-0.73256 0.97491,0.37411 1.07893,0.85002 0.44489,2.03479 -0.90882,1.69818 -1.22364,1.76191 -3.61908,0.73257 z m 10.17396,-7.64514 c 0,-0.7721 2.43638,-1.16123 2.87068,-0.45849 0.26461,0.4281 -0.27307,0.77837 -1.19483,0.77837 -0.92168,0 -1.67585,-0.14394 -1.67585,-0.31988 z"
       id="path6473"
       inkscape:connector-curvature="0"
       opacity="0.8"
       style="opacity:1;fill:#191919;fill-opacity:0.80000001" />
  </g>
</svg>
