<?xml version="1.0" encoding="UTF-8" standalone="no"?>
<svg
   xmlns:dc="http://purl.org/dc/elements/1.1/"
   xmlns:cc="http://creativecommons.org/ns#"
   xmlns:rdf="http://www.w3.org/1999/02/22-rdf-syntax-ns#"
   xmlns:svg="http://www.w3.org/2000/svg"
   xmlns="http://www.w3.org/2000/svg"
   xmlns:sodipodi="http://sodipodi.sourceforge.net/DTD/sodipodi-0.dtd"
   xmlns:inkscape="http://www.inkscape.org/namespaces/inkscape"
   width="32"
   height="40.595"
   version="1.1"
   id="svg2"
   inkscape:version="0.91 r13725"
   sodipodi:docname="icon-follow.svg">
  <defs
     id="defs9" />
  <sodipodi:namedview
     pagecolor="#ffffff"
     bordercolor="#666666"
     borderopacity="1"
     objecttolerance="10"
     gridtolerance="10"
     guidetolerance="10"
     inkscape:pageopacity="0"
     inkscape:pageshadow="2"
     inkscape:window-width="2560"
     inkscape:window-height="1361"
     id="namedview7"
     showgrid="false"
     inkscape:zoom="9.5543566"
     inkscape:cx="16.561038"
     inkscape:cy="8.8726328"
     inkscape:window-x="0"
     inkscape:window-y="27"
     inkscape:window-maximized="1"
     inkscape:current-layer="layer1" />
  <metadata
     id="metadata5724">
    <rdf:RDF>
      <cc:Work
         rdf:about="">
        <dc:format>image/svg+xml</dc:format>
        <dc:type
           rdf:resource="http://purl.org/dc/dcmitype/StillImage" />
      </cc:Work>
    </rdf:RDF>
  </metadata>
  <g
     inkscape:label="Calque 1"
     inkscape:groupmode="layer"
     id="layer1"
     transform="translate(-355.344,-516.7028)">
    <path
       d="m 367.43118,516.7028 -3.39691,0.18004 c -4.81034,0 -8.69027,3.86793 -8.69027,8.67828 l 0,23.05806 c 0,4.81036 3.87993,8.67826 8.69027,8.67826 l 3.91307,0 9.71054,-2.3046 -9.45845,2.14856 c -4.81033,0 -8.69035,-3.86789 -8.69035,-8.67825 l 0,-23.04606 c 0,-4.62743 3.58348,-8.38702 8.13814,-8.66628 l -0.21604,-0.048 z m -2.07652,6.64974 c -0.0983,1.98361 -0.0781,3.87741 -0.0724,5.79753 4.7094,0.98958 9.14375,2.94914 12.33919,6.67374 3.07163,3.73333 4.96288,8.10519 5.01734,12.9754 1.5212,-0.3045 3.08335,-0.59906 4.70525,-0.81622 -0.19935,-5.7601 -1.56573,-11.36856 -5.68946,-15.64008 -4.25706,-4.7329 -9.90525,-8.20367 -16.30028,-8.99037 z m -0.0122,9.75856 c 0.0326,1.87677 0.0456,3.77006 0.0122,5.66549 2.67074,0.0479 5.00554,1.27166 6.73374,3.30091 1.89345,2.40278 2.84502,5.2523 3.24087,8.27015 1.39519,-0.29714 2.80496,-0.6052 4.23712,-0.91226 -0.47465,-4.05513 -1.42475,-8.04678 -4.29712,-11.12692 -2.66691,-2.79793 -5.98111,-4.92262 -9.92665,-5.19737 z m 2.90477,10.98286 c -0.0951,-7.2e-4 -0.1904,-5.7e-4 -0.28808,0.0121 -0.7816,0.10083 -1.49914,0.62791 -2.02857,1.42834 -0.52943,0.80043 -0.88287,1.87493 -0.88824,2.98877 -0.008,1.11392 0.35637,2.04389 0.94831,2.64073 0.59186,0.59678 1.41408,0.86213 2.23256,0.68418 0.81848,-0.17795 1.47953,-0.75494 1.93252,-1.54845 0.45291,-0.79343 0.70558,-1.79938 0.67212,-2.83274 -0.0334,-1.03337 -0.36255,-1.91364 -0.87619,-2.52061 -0.44949,-0.53116 -1.03907,-0.84692 -1.70443,-0.85228 z"
       id="path5038"
       inkscape:connector-curvature="0"
       opacity="0.8"
       fill="#1a1a1a"
       style="opacity:1;fill:#191919;fill-opacity:0.80000001" />
  </g>
</svg>
