<svg height="31.813" width="32" xmlns="http://www.w3.org/2000/svg"><path d="m672.29755 776.91059c-1.01522 0-3.18131 1.08631-3.05202 3.02612.0958 1.43757.15518 13.22909.15518 19.13979 0 1.27941.36732 2.76756 2.09499 2.76756.90191 0 2.30291.0257 3.28485.0257 1.34041 0-.6599 4.77755-.10346 6.85408 2.8826-2.88252 4.61267-6.44024 6.28506-6.44024 1.20409 0 3.91023 0 6.02649 0 1.25995 1.73578 2.6386 3.61218 3.90551 5.35393l6.54378-4.75909c-.14923-.20518-.29051-.41557-.43974-.62075.64269-.00033 1.41184 0 1.96571 0 1.12521 0 1.65534-.81459 1.65534-1.9398 0-5.91691.62075-14.81367.62075-20.3813 0-1.45843-1.88344-2.56064-3.15548-2.56064-3.89393 0-23.2687-.46556-25.78696-.46556zm.59484 2.14672c7.3592-.0472 15.88045.41383 24.90756.41383.59808 0 .82767.57341.82767 1.00876 0 5.72001 0 13.29093 0 19.19153 0 .38751-1.22337.58053-3.00021.6983-2.26648-3.116-4.53595-6.22107-6.80243-9.33707-2.37458-.97293-4.88514-2.15864-7.21618-3.0003.20212 2.73975.40514 4.8455.67248 7.75938 1.28115 1.75077 2.2832 3.12544 3.41413 4.68145-1.83353-.0265-3.58951-.0513-4.966-.0513-1.35514 0-2.56983 2.49227-4.16425 4.0866 0-1.42623 1.18307-4.11243.10346-4.11243-1.53375 0-2.55277 0-4.0866 0-.5533 0-1.11214-.54096-1.11214-1.44841 0-6.64418-.31037-17.97594-.31037-17.97594 0-1.30622.98103-1.90918 1.73288-1.91398zm11.27696 11.45806c1.24705.52209 2.54086 1.04526 3.72451 1.65533-.5341.82949-.98948 1.42433-1.60361 2.27608-.88453.29192-1.77054.57623-2.66401.82767-.26171-1.42375-.3064-2.48399-.43974-4.06078z" fill="#191919" fill-opacity=".80000001" transform="translate(-669.23999 -776.91039)"/></svg>