<svg height="31.344" width="32" xmlns="http://www.w3.org/2000/svg"><path d="m682.98674 887.75521c.30714 3.35387-.32421 7.01166-.0932 8.27019.2314 1.25853 1.22975 2.11856 2.23645 1.93359 1.00684-.18497 1.62895-1.35065 1.39777-2.60918-.23124-1.25853-2.15809-4.57443-3.54103-7.5946zm12.85956 3.98367c-.33897-.008-.84493.22701-1.32786.629-.0261-.34504-.1479-.60286-.30281-.60571-.17921-.003-.3184.34384-.32622.76878 0 .16957.01.31474.047.44263-.0626.0784-.11145.15552-.16311.23297l-.18637-.25626c0 0-3.89164 3.66958-6.0803 4.14674-.7044.15357-1.2697.4866-2.56267 1.2347-.95406-.47139-2.09495-1.04871-3.07511-.81537-2.70893.64499-5.28822-.81537-5.28822-.81537l-.0932.58241c-.0892-.0486-.17757-.0964-.27955-.13978-.007-.13019-.0172-.26394-.0701-.41933-.13746-.4022-.38951-.68694-.55911-.629-.16654.0569-.19897.42166-.0701.81537-.93484-.21103-1.741-.0711-1.84045.32615-.10288.41121.58573.94412 1.56089 1.18811.38459.0962.73631.10866 1.0483.0932l-.0462.37274c0 0 3.91042.48721 5.87067 1.70063.83464.51673.70597 1.1172 1.02503 3.07511.43007 2.63977.71954 5.81086.62897 6.24341-.1576.75339-4.06966.25642-5.91727-.41933 1.26129 1.21221 3.47686 2.86073 5.14845 2.60919 1.67159-.25154 3.18134.0634 2.95867-.86197-.2226-.92548-.11645-6.52296-.11645-6.52296 0 0 4.63019 5.33704 5.38141 5.38144.48263.0285 1.80899-1.35493 3.14497-2.56259.91239-.82464 1.79325-4.12555 1.67733-5.14848-1.55187 2.12341-3.64652 5.24899-4.35637 5.28826-.7097.0392-3.42348-4.05173-3.51771-5.56782-.0611-1.45007-.8415-2.49139.83867-3.28478 2.28505-1.07907 5.70756-4.28652 5.70756-4.28652l-.18637-.25625c.27769-.14064.55329-.3336.83866-.60571.72752-.69366 1.08461-1.51031.79208-1.81711-.0731-.0767-.1728-.11358-.30289-.11648zm-17.91482 14.88634c-1.07208.3154-2.66935 4.5457-6.26667 5.49792-4.11111 1.08826-7.4083.69889-7.4083.69889-.12092 1.57192 2.04679 6.02487 2.7723 6.26671.7255.24184 3.07183-3.90048 6.33659-4.26323 3.26469-.36275 9.91319 4.72574 16.56371.37274 6.65044-4.353 6.88773-7.13749.11644-4.3564-6.77136 2.78107-9.43951 1.93578-11.85778.6057-2.41834-1.33009 1.25129-3.6176.16304-4.70585-.13605-.13604-.26621-.16154-.41933-.11648z" fill="#191919" fill-opacity=".80000001" transform="translate(-664.25165 -887.75521)"/></svg>