<svg height="26.01" width="32" xmlns="http://www.w3.org/2000/svg"><path d="m366.3823 556.70753c-3.70752 0-7.15841-1.08682-10.06383-2.94949.5136.0606 1.0362.0916 1.56613.0916 3.07582 0 5.90662-1.0496 8.15351-2.81036-2.87288-.053-5.29738-1.95106-6.13282-4.55937.40085.0767.81211.11774 1.23519.11774.59868 0 1.17871-.0802 1.72961-.23022-3.00334-.60308-5.26636-3.25655-5.26636-6.43748 0-.0277.00009-.0551.00055-.0825.88521.49172 1.89751.78703 2.97367.82109-1.76159-1.17727-2.92059-3.18677-2.92059-5.46442 0-1.20327.32366-2.33092.88878-3.30055 3.2381 3.97194 8.07561 6.58564 13.53191 6.85942-.1119-.48049-.17007-.98157-.17007-1.49612 0-3.62559 2.93956-6.56504 6.56539-6.56504 1.88823 0 3.59445.79734 4.7921 2.07329 1.49541-.2945 2.90047-.84088 4.16893-1.59327-.4902 1.5331-1.53112 2.81971-2.88666 3.63226 1.32804-.15872 2.59333-.51162 3.77073-1.03378-.88021 1.31657-1.99334 2.47289-3.27597 3.39852.0127.2815.019.56464.019.8493 0 8.67553-6.60343 18.67937-18.67917 18.67937" fill="#fff" fill-opacity=".8" transform="translate(-356.31847 -530.70184)"/></svg>