<?xml version="1.0" encoding="UTF-8" standalone="no"?>
<svg xmlns="http://www.w3.org/2000/svg" xmlns:sodipodi="http://sodipodi.sourceforge.net/DTD/sodipodi-0.dtd" xmlns:inkscape="http://www.inkscape.org/namespaces/inkscape" width="32" height="31.813" version="1.1">
 <metadata id="metadata5673"/>
 <g inkscape:label="Calque 1" inkscape:groupmode="layer" id="layer1" transform="translate(-669.23999,-776.91039)">
  <path inkscape:connector-curvature="0" id="path9274" d="m 672.29755,776.91059 c -1.01522,0 -3.18131,1.08631 -3.05202,3.02612 0.0958,1.43757 0.15518,13.22909 0.15518,19.13979 0,1.27941 0.36732,2.76756 2.09499,2.76756 0.90191,0 2.30291,0.0257 3.28485,0.0257 1.34041,0 -0.6599,4.77755 -0.10346,6.85408 2.8826,-2.88252 4.61267,-6.44024 6.28506,-6.44024 1.20409,0 3.91023,0 6.02649,0 1.25995,1.73578 2.6386,3.61218 3.90551,5.35393 l 6.54378,-4.75909 c -0.14923,-0.20518 -0.29051,-0.41557 -0.43974,-0.62075 0.64269,-3.3e-4 1.41184,0 1.96571,0 1.12521,0 1.65534,-0.81459 1.65534,-1.9398 0,-5.91691 0.62075,-14.81367 0.62075,-20.3813 0,-1.45843 -1.88344,-2.56064 -3.15548,-2.56064 -3.89393,0 -23.2687,-0.46556 -25.78696,-0.46556 z m 0.59484,2.14672 c 7.3592,-0.0472 15.88045,0.41383 24.90756,0.41383 0.59808,0 0.82767,0.57341 0.82767,1.00876 0,5.72001 0,13.29093 0,19.19153 0,0.38751 -1.22337,0.58053 -3.00021,0.6983 -2.26648,-3.116 -4.53595,-6.22107 -6.80243,-9.33707 -2.37458,-0.97293 -4.88514,-2.15864 -7.21618,-3.0003 0.20212,2.73975 0.40514,4.8455 0.67248,7.75938 1.28115,1.75077 2.2832,3.12544 3.41413,4.68145 -1.83353,-0.0265 -3.58951,-0.0513 -4.966,-0.0513 -1.35514,0 -2.56983,2.49227 -4.16425,4.0866 0,-1.42623 1.18307,-4.11243 0.10346,-4.11243 -1.53375,0 -2.55277,0 -4.0866,0 -0.5533,0 -1.11214,-0.54096 -1.11214,-1.44841 0,-6.64418 -0.31037,-17.97594 -0.31037,-17.97594 0,-1.30622 0.98103,-1.90918 1.73288,-1.91398 z m 11.27696,11.45806 c 1.24705,0.52209 2.54086,1.04526 3.72451,1.65533 -0.5341,0.82949 -0.98948,1.42433 -1.60361,2.27608 -0.88453,0.29192 -1.77054,0.57623 -2.66401,0.82767 -0.26171,-1.42375 -0.3064,-2.48399 -0.43974,-4.06078 l 0.98285,-0.6983 z" opacity="0.8" fill="#1a1a1a"/>
 </g>
</svg>
