<svg xmlns="http://www.w3.org/2000/svg" viewBox="0 0 70 52.4329">
<path fill="#e6e6e6" word-spacing="0" d="m35.6738,.2914c.7939-.0726 1.66-.0726 1.8044-.1443c2.4539-.7218 3.6088,1.3713 1.5157,2.8148c-.6496,.433-.8661,.7217-.9383,1.5157c0,.3609-.1443,.6496-.3609,1.0105c-.2165,.2887-.433,.7217-.433,1.0105c-.1444,.5052-.7218,1.7322-1.0827,2.2374c-.1443,.2166-.2887,.6496-.433,.8662c-.2887,.8661-.6496,1.5878-1.0105,2.093c-.1444,.2887-.433,.794-.5774,1.227c-.1444,.3609-.4331,.866-.5774,1.1548c-.2887,.4331-.433,.6496-.5052,1.1548c-.0721,.5774-.7217,2.0931-1.0826,2.5261c-.0722,.0727-.2165,.4331-.433,.8662c-.1444,.433-.4331,1.0105-.5774,1.2992c-.1443,.2887-.2887,.5774-.2887,.6495c0,.6496-1.5157,3.6088-2.1653,4.1141c-.2165,.2165-.2887,.433-.3609,.9383c-.0721,.3609-.2887,.866-.4331,1.1548c-.1443,.2887-.2887,.7218-.2887,1.0826c-.0722,.5052-.1444,.6496-.5774,1.227c-.6496,.9383-.6496,.8662-.7217,1.5158c-.2887,1.8044-2.1653,2.7426-3.3923,1.7322c-.5774-.5774 .2166-2.0209 1.0105-1.9488c.5774,.0726 1.0105-.2887 1.0105-.8661c0-.5052 .2165-1.2992 .4331-1.5879c.433-.5774 .2887-.7939-.7218-1.1548c-.8661-.3609-1.0826-.3609-1.5156,.2887c-.4331,.7217-1.0105,.5052-1.0105-.3609c0-.2166 .2008-.7822 .1287-.9988c-.0722-.2164 .4016-1.055 .4016-1.2716c0-.2887 .9515-.5052 .5906-.9382c.8446-1.6726 1.3692-4.0965 3.0653-6.3186c.4331-.7939 .6496-1.0826 1.1548-1.5156c1.227-.9383 2.0209-2.3819 1.5157-2.6706c-.5052-.2887-.5052-.5774-.0722-1.4435c.433-.7218 .5774-.866 1.0105-.433c.2165,.2165 .3609,.2887 .6496,.2165c.7218-.2165 1.227-.0726 1.0104,.1444c-.433,.433 .0721,.5773 .5052,.2165c.2166-.2165 .5052-.3609 .5774-.3609c.3609,0 .6496-.2886 .5774-.5773c0-.2166-.0722-.2166-.3609-.2166c-.8661,.0717-.8661,.0717-.9383-.2887c-.2887-.9383-.433-1.0826-1.0104-.7218c-1.2992,.9383-1.0827-.6495 .6495-4.3305c.2887-.5052 .5774-1.227 .6496-1.7323c.1444-.433 .2887-.9382 .4331-1.1548c.0721-.2166 .2165-.5052 .2165-.6496c.2165-.9382 1.0105-1.2991 2.9592-1.3713m-9.1663,20.0649c.1444-.3609 .0721-.8662-.2165-1.0105c-.2887-.1443-.5052-.1443-.6496,.2166c-.2165,.3609-.3044,.5694-.5932,.3529c-.2644,.4146-.3559,.5142-.1287,.802c.1444-.0717 .3609-.1444 .6496-.0717c.5774,.0717 .7218,.0717 .9383-.2887m1.3714,3.1036c.0722-1.0827 0-1.227-.5774-1.4436c-.6496-.2165-.8661-.2165-1.2991,.0726c-.7939,.4331-.8661,1.0827-.0722,1.0827c.2166,0 .3609,.0726 .5774,.3609c1.227,1.3713 1.2991,1.3713 1.3713-.0726m-4.5471,4.1861c.2166,0 .5052-.0717 .6496-.1443c.6496-.3609 .8661,.2165 .5052,1.0105c-.2887,.5773-.5052,.6496-1.0105,.3609c-.2887-.1444-.2887-.1444-.6496,.2164c-.2887,.2166-.5774,.3609-.7939,.4331c-.2887,0-.5052,.1443-.6496,.2886c-.5052,.5053-.7939,.2887-.5774-.5052c.3609-.7939 .6495-1.0826 1.2991-1.1548c.4331,0 .6496-.0717 .6496-.2166c.0722-.1443 .2887-.2165 .5774-.2887m-4.6192,5.4854c.1444-.3609 .3609-.8662 .5052-1.0827c.2887-.5052 .5774-.5052 .8661,0c.2887,.4331 .5774,.5774 .7218,.3609c.1443-.2887 .433-.1444 .5774,.2887c.2165,.5774 .433,.7218 1.0105,.7218c.5052,.0726 .7939,.3609 .7217,.6495c-.0722,.3609 .1444,.6496 .5052,.6496c.7217,0 .5052,1.0105-.2887,1.227c-.1444,.0726-.3609,0-.6495-.2887c-.5052-.433-.7939-.433-1.0827,.0726c-.1444,.4331-.433,.6496-.7939,.5774c-.0722-.0726-.3609,0-.6496,.0727c-.2166,.0717-.6496,.1443-.794,.2165c-.5052,.0726-1.1548,.794-1.1548,1.2992c0,.2166-.0721,.5774-.1443,.7939c-.2887,.8662 .5052,1.227 1.227,.5774c.7217-.5774 1.1548-.7939 2.7427-1.2992c.8661-.2165 1.227,.2166 .5774,.6496c-.7939,.5774-.8661,.6496-.8661,1.2992c-.0722,.5774-.0722,.5774-.5052,1.0105c-.3609,.3609-.5052,.4331-.5052,.7218c0,.2165-.2165,.8661-.5052,1.5156c-.2887,.6496-.6496,1.5878-.8661,2.0209c-.1444,.5052-.433,1.0104-.5774,1.227c-.1444,.2166-.2887,.5053-.3609,.7218c-.0722,.2166-.2166,.5053-.3609,.7217c-.1444,.1444-.3609,.5774-.4331,1.0105c-.5052,1.8044-.5052,1.8044-1.1548,2.7427c-.7217,1.0105-.8661,1.0105-4.6192,.433c-.433,0-.9383-.0726-1.1548-.1443c-.5774,0-.7218-.3609-.3609-1.3714c.433-1.2992 1.0104-1.8766 1.5156-1.5158c.3609,.2887 .6496,.2166 1.227-.3609c1.4435-1.5156 1.6601-2.093 1.227-2.5983c-.3609-.5052-.9383-.0717-.9383,.7218c0,.2887-.5052,.7939-.8661,.7217c-.3609,0-.3609-.433 0-1.0105c.1444-.2165 .2887-.433 .2887-.5052c0-.2165 .7218-1.5879 1.3713-2.5983c.9383-1.3713 1.0105-1.5157 1.0826-2.1654c.0722-.6495 .2887-.9382 .8661-1.0104c.5774-.0726 .5774-.0726 .5774-.6496c0-.2887 .0722-.6496 .1443-.7939c.0722-.1444 .1444-.6496 .1444-1.227c.0722-1.0826 .2165-1.5157 .6496-2.1653c.4331-.5774 .7939-1.4435 1.0826-2.2374m-.2887,7.9393c-.1444,.0717-.5052,0-.7939-.0717c-1.0826-.2887-1.0105-.2887-1.4435,.1443c-.6496,.7217-.5774,1.2992 .2165,1.8044c.2165,.1444 .5052,.4331 .5774,.5774c.3609,.6496 .6496,.3609 .7939-.5774c.1444-1.0826 .2887-1.4435 .5774-1.5156c.1444,0 .2887-.0717 .2887-.2166c0-.1443 0-.1443-.2165-.1443" letter-spacing="0"/>
<g fill="#3a4547" word-spacing="0" letter-spacing="0">
<path fill="#3a4547" d="m3.9461,22.779c.0234-.0234 .07-.07 .1634-.1167c.1167-.0467 .1634-.0467 .3969-.0234h.3269c.8172-.07 1.3776,.0467 1.6578,.3502c.1634,.1634 .2335,.2802 .467,.7705c.0934,.2101 .2335,.1868 .3269-.0467c.1167-.2568 .3969-.0467 .2802,.2335c-.0701,.2335-.0233,.3035 .1868,.3035c.1868,0 .2335,.0234 .2335,.2335c0,.1634 0,.1868 .1634,.3736c.1634,.2335 .2335,.537 .1167,.6304c-.07,.0467-.0701,.1401-.0234,.1634c.0234,.0234 .0234,0 .0467-.0467c.0234-.07 .0701-.0467 .0701,.0234c0,.0234-.0234,.07-.0467,.07c-.07,.0234-.1868,.2802-.1634,.3502c.0234,.07 .1167,.07 .1401,0c.07-.1401 .2335,.0234 .2335,.2101c0,.1167-.1167,.3035-.2101,.3035c-.0234,0-.0934,.0234-.1167,.0467c-.0701,.0467-.537,.0467-.6538,.0234c-.1401-.0467-.1634,.0467-.0467,.1868c.0934,.1401 .0467,.4203-.1167,.5837c-.3035,.3035-.8639-.4903-.6304-.8639c.0701-.1401 .0701-.1401 0-.2802c-.3035-.5837-.1401-.8639 .3269-.5837c.1868,.1401 .1868,.1401 0,.2802c-.1868,.1401-.1868,.2335 0,.3035c.3502,.1634 .6071-.0934 .3502-.3502c-.0934-.0934-.0934-.1167-.0701-.1868c0-.0467 .0233-.1401 0-.1868c0-.0934 .0233-.1167 .0934-.1167c.1167,0 .1401-.07 .0701-.2101c-.0701-.1401-.0701-.2335-.0233-.2568c.3269-.1167 .0233-.6538-.3269-.5604c-.0934,.0234-.2568,.07-.3736,.07c-.2335,.0467-.2568,.0934-.2802,.3736c0,.4436-.1634,.4903-.3969,.1634c-.1634-.2101-.1868-.3035-.1167-.3736c.0934-.0934 .0467-.1167-.1634-.1167c-.3502,.0234-.537-.1401-.3736-.2802c.0934-.0934 .0934-.2568-.0233-.3502c-.0934-.0934-.0701-.0934-.3736-.1167c-.2101,0-.2101,0-.2568-.0934c-.0701-.1634-.1401-.1634-.3035-.0234c-.0934,.0934-.1634,.1401-.2101,.1401c-.0467,0-.1634,.07-.2568,.1401c-.2101,.1868-.2335,.1868-.2802,.0467c-.0234-.0467-.0701-.1167-.1401-.1634c-.2101-.1634-.2101-.2335 0-.6071c.1167-.2568 .1868-.3502 .2335-.3502c.0467-.0234 .0934-.0467 .0934-.07m-3.5959,.0467c.0934,0 .2802-.0234 .6538-.1401c.4436-.1401 .7705,.1167 .5137,.3736c-.0934,.0934-.1167,.0934-.2568,.0934c-.2101-.0467-.3502,.0934-.2335,.2101c.1401,.1634 .3736,.1634 .467,0c.07-.0934 .1634-.07 .1634,.0467c0,.0467-.0233,.0934-.1167,.1401c-.0934,.0467-.1401,.0934-.1401,.1634c-.0233,.0467-.07,.1634-.1167,.2568c-.1167,.2335-.1167,.4903 .0233,.467c.2101-.0467 .4203,.1167 .467,.3502c.0233,.07 .0934,.1635 .1634,.2335c.1868,.1634 .1634,.3035-.07,.4203c-.0467,0-.1401,.1167-.2335,.2335c-.1634,.1868-.3269,.2802-.467,.2568c-.07-.0234-.0934,0-.1634,.1167c-.1401,.2335-.0233,.3736 .3502,.3736c.1634,0 .2101,.07 .2101,.4203c0,.1868 0,.3969 .0233,.467c.0233,.1634 0,.2101-.2335,.3502c-.3269,.1868-.3269,.5604 0,.5604c.1401,0 .1634,.0467 .1634,.3035c-.0233,.1634 0,.2101 .0467,.2802c.1167,.1634 .0934,.1868-.1167,.3035c-.0934,.07-.1868,.1401-.1868,.1634c-.0233,.0467-.0467,.07-.1167,.0467c-.07-.0234-.0934,0-.0934,.0467c0,.07 .0934,.0934 .1868,.0234c.2568-.1634 .4436,.1635 .2101,.3736c-.2101,.1868-.2101,.2568-.0233,.3269c.2802,.1401 .1634,.3969-.1401,.3035c-.0934-.0467-.1167-.0467-.2101,0c-.1634,.1167-.2568,.0467-.4436-.3503c-.0467-.1401-.1167-.2101-.1634-.2335c-.3035-.1401-.467-.4203-.3736-.6304c.0467-.1634 .0467-.2101 .0233-.3969c-.0233-.1868 .07-.2335 .3969-.2101c.2568,.0234 .3736-.0234 .3736-.1634c0-.1634-.3502-.2802-.5137-.1868c-.2101,.0934-.3035-.0234-.1634-.2101c.07-.07 .07-.07 .2568-.07c.3035,.0467 .3736-.1401 .1868-.3969c-.0934-.1401-.0467-.1634 .1401-.1868c.0934,0 .1401,0 .1401-.0234v-.0934c-.0233-.0233-.0934-.1401-.1868-.2335c-.1167-.0934-.2101-.2101-.2335-.2568c-.0233-.1401-.0934-.1401-.2101-.0467c-.1401,.1167-.2101,.1167-.2101-.0234c0-.0467-.0233-.1401-.0467-.1634c-.0233-.0467-.0467-.0934-.0233-.1868c0-.07 0-.1634-.0233-.2335c-.07-.1634 .0234-.3035 .1868-.2802c.1634,.0234 .1401-.0934-.0233-.2802c-.1868-.1634-.2568-.5837-.1401-.8172c.07-.1634 .0467-.3736-.0233-.5837c-.1167-.3269-.07-.467 .2101-.4203c.2335,.0234 .3969-.1167 .3269-.2802c-.0467-.0467-.0934-.07-.2568-.07c-.3269-.0234-.4203-.1868-.2802-.4203c.07-.1167 .1868-.1634 .3502-.1167m7.6588,4.3197c.0234-.0467 .0701-.1401 .0934-.1634c.07-.07 .1167-.07 .2101,0c.1401,.1634 .1401,.537-.0234,.6771c-.1167,.0934-.1167,.4436 0,.5604c.0934,.0467 .0934,.0934 .0934,.2568c0,.1401 .0234,.3035 .0701,.467c.0934,.3502 .1167,.6771 .0234,.8639c-.2101,.3502-.1868,.3035-.1167,.4436c.0934,.1634 .0934,.2335 0,.3502c-.0701,.0934-.0467,.2101 .0934,.4203c.1868,.3035 .1634,.4203-.0934,.6538c-.1868,.1634-.1868,.1634-.0701,.3269c.0934,.1401 .0934,.1868-.0467,.3736c-.0701,.1401-.0701,.1401 0,.2802c.1868,.3736 .0934,.8639-.1167,.6538c-.0934-.0934-.537-.1868-.6771-.1401c-.3969,.1634-.4903,0-.2335-.3502c.2101-.2802 .2335-.4436 .0467-.6071c-.1167-.1167-.1167-.0934 .0233-.2568c.1401-.1634 .1401-.1868 0-.4436c-.2568-.467-.0233-.7939 .3035-.4203c.0934,.1401 .1634,.07 .0934-.1401c-.0233-.07-.0233-.1634-.0233-.2101c0-.1401-.1167-.2101-.3502-.1868c-.2568,.0234-.2568,.0467-.2568-.3269c-.0233-.2802-.0233-.2802 .0934-.3969c.1634-.1634 .1167-.3969-.0701-.3969c-.1167,0-.1634-.0934-.0934-.3035c.0467-.1401 .0467-.1635 0-.2802c-.0934-.1868-.0467-.3502 .1167-.3035c.0701,.0234 .2335-.0467 .2335-.1167c0-.1167-.1868-.2802-.2802-.2335c-.1868,.1167-.3035-.2802-.1401-.537c.1167-.1401 .1401-.1167 .1401,.0934c.0233,.4436 .3736,.3736 .4203-.07c0-.2335 .0233-.2802 .2335-.3035c.1868-.0467 .2335-.07 .3035-.2335m-6.8649,4.0395c0-.0467 .0233-.1167 .0233-.1634c.0934-.1868 .3035,.07 .3035,.3269c0,.467-.537,.6771-.5604,.2335c-.0233-.2802 0-.3736 .0934-.3035c.07,.0467 .1401,0 .1401-.0934m-.9573,.3502c-.0233-.07 0-.0934 .07-.1635c.1167-.1167 .3035-.0234 .3035,.1635c0,.0467 .0467,.1167 .0934,.1868c.1401,.1401 .1167,.2101-.0233,.2802c-.1401,.0701-.1167,.1167 .0233,.1634c.07,0 .1868,.0234 .2568,.0467c.1167,.0467 .1401,.0467 .3269-.0467c.1868-.0701 .3269-.0701 .3269,0c.07,.5837 .0233,.9807-.1167,1.0507c-.1167,.0701-.4903,0-.6304-.1401c-.0467-.0234-.1167-.0467-.2802-.0467c-.2335,0-.3035-.0701-.2101-.2101c.0467-.1168 .0467-.2101-.0467-.3736c-.0934-.1401-.0934-.1401-.07-.467c0-.2101 0-.3736-.0233-.4436"/>
<path fill="#3a4547" d="m18.5759,22.6856c.2568-.0234 .537-.0234 .5837-.0467c.7939-.2335 1.1675,.4436 .4903,.9106c-.2101,.1401-.2802,.2335-.3035,.4903c0,.1167-.0467,.2101-.1167,.3269c-.07,.0934-.1401,.2335-.1401,.3269c-.0467,.1634-.2335,.5604-.3502,.7238c-.0467,.07-.0934,.2101-.1401,.2802c-.0934,.2802-.2101,.5137-.3269,.6771c-.0467,.0934-.1401,.2568-.1868,.3969c-.0467,.1167-.1401,.2802-.1868,.3736c-.0934,.1401-.1401,.2101-.1634,.3736c-.0234,.1868-.2335,.6771-.3502,.8172c-.0234,.0234-.07,.1401-.1401,.2802c-.0467,.1401-.1401,.3269-.1868,.4203c-.0467,.0934-.0934,.1868-.0934,.2101c0,.2101-.4903,1.1675-.7005,1.3309c-.07,.07-.0934,.1401-.1167,.3035c-.0234,.1167-.0934,.2802-.1401,.3736c-.0467,.0934-.0934,.2335-.0934,.3502c-.0234,.1634-.0467,.2101-.1868,.3969c-.2101,.3035-.2101,.2802-.2335,.4903c-.0934,.5837-.7005,.8873-1.0974,.5604c-.1868-.1868 .0701-.6538 .3269-.6304c.1868,.0234 .3269-.0934 .3269-.2802c0-.1634 .0701-.4203 .1401-.5137c.1401-.1868 .0934-.2568-.2335-.3736c-.2802-.1167-.3502-.1167-.4903,.0934c-.1401,.2335-.3269,.1634-.3269-.1167c0-.07-.0234-.1868-.0467-.2568c-.0234-.07-.0467-.1868-.0467-.2568c0-.0934-.0234-.1634-.1401-.3035c-.2802-.3736-.6304-.934-.7238-1.1908c-.0701-.1401-.1401-.3035-.1868-.3502c-.0234-.0467-.0934-.1634-.1167-.2802c-.0467-.0934-.1634-.3736-.2802-.6304c-.1868-.3736-.2335-.467-.2568-.6538c0-.2101-.0234-.2335-.0934-.2802c-.1401-.07-.2335-.1868-.2568-.3502c-.0234-.0934-.0934-.2335-.1401-.3269c-.0467-.07-.1634-.2802-.2335-.467c-.0934-.1634-.2101-.3969-.2568-.5137c-.1401-.1868-.1401-.1868-.0701-.5837c.0234-.1401 0-.1401-.1167-.2335c-.1167-.1167-.2335-.3035-.2335-.4436c0-.07-.0234-.1167-.1167-.1634c-.0934-.07-.3035-.3969-.2568-.4436c.0701-.07 .3969,.1868 .3969,.3269c0,.2335 .3035,.2335 .4436,0c.0934-.2101 .2568-.2335 .2568-.07c0,.3736 .4436,.5837 .5837,.3035c.1868-.3736 .0701-.6538-.2802-.6304c-.1868,.0234-.2101,.0234-.3502-.0467l-.1401-.0934c-.0234,0-.1167-.0934-.2568-.2101c-.2568-.2568-.3035-.2568-.5604-.0934c-.2335,.1868-.467,.1401-.467-.07c0-.1868 .0934-.2101 .8172-.2335c1.0741-.0234 1.401,.0934 1.401,.467c0,.07 .0467,.2101 .1167,.3269c.0467,.0934 .1167,.2568 .1401,.3269c.0467,.1401 .3736,.7472 .6071,1.1675c.0934,.1634 .2101,.3736 .2335,.4903c.0234,.1167 .1634,.4436 .3269,.7472c.1401,.3035 .2802,.6071 .3035,.6771c.0234,.07 .0934,.1868 .1401,.3035c.2568,.4203 .3269,.7238 .2335,.9807c-.0467,.1401-.0467,.1868 .1634,.3035c.3269,.2101 .5604,.1167 .8172-.3269c.1401-.2568 .2102-.3502 .3736-.4903c.3969-.3035 .6538-.7705 .4903-.8639c-.1634-.0934-.1634-.1868-.0234-.467c.1401-.2335 .1868-.2802 .3269-.1401c.07,.07 .1167,.0934 .2101,.07c.2335-.07 .3969-.0234 .3269,.0467c-.1401,.1401 .0234,.1868 .1634,.07c.07-.07 .1634-.1167 .1868-.1167c.1167,0 .2101-.0934 .1868-.1868c0-.07-.0234-.07-.1167-.07c-.2802,.0234-.2802,.0234-.3035-.0934c-.0934-.3035-.1401-.3502-.3269-.2335c-.4203,.3035-.3502-.2101 .2101-1.401c.0934-.1634 .1868-.3969 .2101-.5604c.0467-.1401 .0934-.3035 .1401-.3736c.0234-.07 .07-.1634 .07-.2101c.07-.3035 .3269-.4203 .9573-.4436m-4.1096,6.141c-.0467-.0934-.1167-.2101-.1634-.3035c-.0467-.0934-.0934-.1401-.1401-.1634c-.1401,0-.1634,.0934-.0701,.2568c.0934,.1634 0,.2568-.2101,.2568c-.2101,0-.3035,.0467-.3035,.1634c0,.1634 .3035,.2568 .4436,.1167c.0234-.0234 .1401-.07 .2335-.07c.2802-.0467 .3035-.0934 .2101-.2568m1.1441,.3502c.0467-.1167 .0234-.2802-.0701-.3269c-.0934-.0467-.1634-.0467-.2101,.07c-.0701,.1167-.1868,.1401-.2802,.07c-.1167-.07-.4203,0-.4203,.1167c0,.1634 .2802,.2802 .467,.1868c.0467-.0234 .1167-.0467 .2101-.0234c.1868,.0234 .2335,.0234 .3035-.0934m.4436,1.004c.0234-.3502 0-.3969-.1868-.467c-.2101-.07-.2802-.07-.4203,.0234c-.2568,.1401-.2802,.3502-.0234,.3502c.0701,0 .1167,.0234 .1868,.1167c.3969,.4436 .4203,.4436 .4436-.0234m-1.471,1.3543c.0701,0 .1634-.0234 .2101-.0467c.2101-.1167 .2802,.07 .1634,.3269c-.0934,.1868-.1634,.2101-.3269,.1167c-.0934-.0467-.0934-.0467-.2101,.0701c-.0934,.0701-.1868,.1167-.2568,.1401c-.0934,0-.1634,.0467-.2101,.0934c-.1634,.1634-.2568,.0934-.1868-.1634c.1167-.2568 .2101-.3502 .4203-.3736c.1401,0 .2101-.0234 .2101-.07c.0234-.0467 .0934-.07 .1868-.0934m-1.4944,1.7746c.0467-.1167 .1167-.2802 .1634-.3502c.0934-.1634 .1868-.1634 .2802,0c.0934,.1401 .1868,.1868 .2335,.1167c.0467-.0934 .1401-.0467 .1868,.0934c.0701,.1868 .1401,.2335 .3269,.2335c.1634,.0234 .2568,.1168 .2335,.2101c-.0234,.1167 .0467,.2101 .1634,.2101c.2335,0 .1634,.3269-.0934,.3969c-.0467,.0234-.1167,0-.2101-.0934c-.1634-.1401-.2568-.1401-.3502,.0234c-.0467,.1401-.1401,.2101-.2568,.1868c-.0234-.0234-.1167,0-.2101,.0234c-.0701,.0234-.2101,.0467-.2568,.0701c-.1634,.0234-.3736,.2568-.3736,.4203c0,.0701-.0234,.1868-.0467,.2568c-.0934,.2802 .1634,.3969 .3969,.1868c.2335-.1868 .3736-.2568 .8873-.4203c.2802-.0701 .3969,.0701 .1868,.2101c-.2568,.1868-.2802,.2101-.2802,.4203c-.0234,.1868-.0234,.1868-.1634,.3269c-.1167,.1167-.1634,.1401-.1634,.2335c0,.0701-.0701,.2802-.1634,.4903c-.0934,.2101-.2101,.5137-.2802,.6538c-.0467,.1634-.1401,.3269-.1868,.3969c-.0467,.0701-.0934,.1634-.1167,.2335c-.0234,.0701-.0701,.1634-.1167,.2335c-.0467,.0467-.1167,.1868-.1401,.3269c-.1634,.5837-.1634,.5837-.3736,.8873c-.2335,.3269-.2802,.3269-1.4944,.1401c-.1401,0-.3035-.0234-.3736-.0467c-.1868,0-.2335-.1168-.1167-.4436c.1401-.4203 .3269-.6071 .4903-.4903c.1167,.0934 .2101,.0701 .3969-.1168c.467-.4903 .537-.6771 .3969-.8406c-.1167-.1634-.3035-.0234-.3035,.2335c0,.0934-.1634,.2568-.2802,.2335c-.1167,0-.1167-.1401 0-.3269c.0467-.0701 .0934-.1401 .0934-.1634c0-.0701 .2335-.5137 .4436-.8406c.3035-.4436 .3269-.4903 .3502-.7005c.0234-.2101 .0934-.3035 .2802-.3269c.1868-.0234 .1868-.0234 .1868-.2101c0-.0934 .0234-.2101 .0467-.2568c.0234-.0467 .0467-.2101 .0467-.3969c.0234-.3502 .0701-.4903 .2101-.7005c.1401-.1868 .2568-.467 .3502-.7238m-.0934,2.5685c-.0467,.0234-.1634,0-.2568-.0234c-.3502-.0934-.3269-.0934-.467,.0467c-.2101,.2335-.1868,.4203 .0701,.5837c.0701,.0467 .1634,.1401 .1868,.1868c.1167,.2101 .2101,.1168 .2568-.1868c.0467-.3502 .0934-.467 .1868-.4903c.0467,0 .0934-.0234 .0934-.0701c0-.0467 0-.0467-.0701-.0467"/>
<path d="m21.5691,16.9882c-.2101,0 .1868-.3502 .4436-.3969c.3736-.07 .6771,.0467 .7005,.2802c.0234,.0467 .0934,.1868 .1634,.2802c.1868,.2802 .2568,.5837 .1635,.8639c-.0934,.4203-.0934,.934 .0234,1.401c0,.0467-.0234,.1167-.0467,.1868c-.07,.1167-.07,.2568 0,.3269c.07,.0934 .07,.2101 0,.3736c-.0934,.2802-.0934,.4203 0,.6304c.1167,.2568 .1167,1.3076 0,1.5177c-.0467,.1167-.0467,.1401-.0234,.2335c.07,.1868 .1167,.5604 .07,.7705c-.0234,.1167-.0234,.3035-.0234,.467c.0234,.2335 .0234,.3035-.0467,.3969c-.07,.1401-.07,.2101 .0234,.5604c.07,.2568 .0934,.3269 .07,.6771c0,.2101 .0234,.537 .0467,.7005c.0234,.2335 .0234,.3502 0,.467c-.0234,.07-.0467,.2101-.0467,.2802c-.0234,.0467-.07,.1634-.0934,.2101c-.0934,.0934-.0934,.0934 0,.1634c.0934,.0934 .0934,.1634 0,.2802c-.0934,.0934-.2335,.07-.3269-.07c-.1634-.2802-.3502-.3736-.3502-.1868c0,.1401 .07,.2568 .1868,.3736c.07,.07 .1167,.1401 .1167,.1868c0,.0234 .0234,.1401 .0467,.2101c.0467,.1167 .0467,.1167-.0234,.1868c-.1868,.2101-.1401,.3035 .1401,.3035c.3035,0 .4203,.2568 .2568,.6071c-.1167,.2335-.3502,.2568-.3502,.0234c0-.1401-.0934-.1868-.1868-.1167c-.1868,.1401 .07,.6538 .3035,.6071c.2101-.0467 .3736,1.0507 .2335,1.5878c-.0234,.0934-.0234,.1635 0,.2568c.07,.1868 .0467,.9573-.0467,1.1441c-.0467,.1167-.0467,.1868-.0467,.3035c.0467,.3502-.4903,.5137-.9106,.2568c-.1167-.0701-.1868-.0701-.3035-.0701c-.3035,.0234-.3269,0-.3969-.0467c-.0467-.0467-.07-.0934-.0467-.1401c.0467-.2802 .0467-.3035 0-.3736c-.07-.0934-.07-.1868 .0234-.3736c.0934-.1634 .0934-.1634-.0234-.4203c-.0934-.2335-.0934-.2802-.0467-.3969c0-.0934 .0234-.2335 .0234-.3269c0-.1634 0-.1868 .0934-.2101c.1634-.07 .1868-.0934 .1868-.1635c.0234-.07-.1401-.2568-.2101-.2568c-.1401,0-.2568-.1868-.2568-.3969c0-.3969 .07-.467 .467-.467c.2335,0 .2335,0 .2568-.1167c.0234-.07 .07-.1634 .1167-.2335c.1167-.1401 .1167-.2568 .07-.3269c-.0934-.07-.3502-.0234-.3502,.07c0,.1634-.3502,.3502-.4436,.2568c-.0934-.07-.07-.1868 .0467-.2568c.0467-.0467 .1401-.1167 .1868-.1634c.07-.07 .0934-.07 .1401-.0234c.0934,.0934 .1634,.0467 .1634-.1167c0-.0467 .0467-.1635 .1167-.2802c.2335-.3269 .2335-.3969-.1634-.537c-.3736-.1167-.467-.2335-.3269-.4203c.07-.07 .07-.07 .0234-.1401c-.1634-.1634-.2335-.5604-.1868-1.2142c0-.467 .0467-.5837 .2568-.5837c.2101,0 .3969-.2101 .2802-.3269c-.07-.07-.1167-.07-.2568,.0234c-.2802,.1634-.4436-.8639-.2568-1.6111c.0467-.1868 .0467-.2101 0-.4436c-.0467-.2101-.0467-.2802-.0234-.5137c.0234-.1401 .0467-.3269 .0467-.3969c0-.0934 .0234-.1401 .1401-.2802c.1868-.2101 .1868-.2568 .0234-.3969c-.2101-.2101-.1167-.3269 .2335-.3269c.2101,0 .2335,0 .3035-.0934c.07-.07 .07-.0934 .1868-.0467c.3502,.1401 .6304-.07 .4903-.4203c-.0234-.07-.0467-.2101-.0467-.2802c0-.2335-.2568-.3969-.4203-.2802c-.1634,.1167-.2101,.4436-.0467,.4203c.1167-.0234 .1401,.0934 .0467,.2568c-.07,.1634-.1167,.1634-.2802,.07c-.07-.07-.1401-.07-.2101-.07c-.1167,.0234-.1868-.0467-.1401-.1401c.0934-.1868 .0934-.6071-.0234-.7472c-.1634-.1868-.1167-.4436 .0934-.4436c.1167,0 .1167-.0934-.0467-.2568c-.1634-.1634-.1868-.2335-.07-.2802c.0934,0 .1167-.1167 .0934-.1868c-.0234-.0234-.0467-.0234-.0934,0c-.1401,.0934-.2568,0-.2568-.1634c.0234-.3736 .0467-.537 .1167-.6538c.0934-.1868 .07-.2335-.0234-.4436c-.1868-.3736-.07-.4903 .2335-.2101c.2568,.2568 .3736,.2802 .4436,.0934c.0467-.1401 0-.2335-.0934-.2335c-.0467,0-.1167-.07-.1634-.1167c-.07-.07-.1401-.1167-.1634-.1167m.8172,4.8568c.1634-.1167 .1167-.2335-.1401-.3269c-.2802-.0934-.3035-.0934-.3969,0c-.1167,.1868-.1167,.3269 .07,.537c.2101,.2802 .2568,.4903 .0934,.537c-.2101,.0467-.2568,.1635-.0934,.3502c.0934,.1401 .07,.2568-.07,.2568c-.0467,0-.0934-.0234-.1167-.07c-.0467-.0934-.1634-.0934-.2101,0c-.0467,.07-.0467,.1401 .0234,.3736c.0234,.0467 0,.1401-.0234,.1868c-.07,.2568 .1868,.3736 .3269,.1401c.07-.1167 .1868-.1868 .3969-.3035c.1868-.0934 .1868-.1401 .07-.3269c-.07-.0934-.0934-.2101-.1167-.3269c0-.1167-.0234-.2101-.0234-.2335c-.0234-.0467 0-.07 .0934-.1167c.1634-.07 .1634-.1635 .07-.3502c-.07-.1634-.07-.2568 .0467-.3269" letter-spacing="1.167"/>
<path fill="#3a4547" d="m29.3295,22.779c.0234-.0234 .07-.07 .1634-.1167c.1167-.0467 .1634-.0467 .3969-.0234h.3269c.8172-.07 1.3776,.0467 1.6578,.3502c.1634,.1634 .2335,.2802 .467,.7705c.0934,.2101 .2335,.1868 .3269-.0467c.1168-.2568 .3969-.0467 .2802,.2335c-.0701,.2335-.0234,.3035 .1868,.3035c.1868,0 .2335,.0234 .2335,.2335c0,.1634 0,.1868 .1634,.3736c.1634,.2335 .2335,.537 .1167,.6304c-.0701,.0467-.0701,.1401-.0234,.1634c.0234,.0234 .0234,0 .0467-.0467c.0234-.07 .0701-.0467 .0701,.0234c0,.0234-.0234,.07-.0467,.07c-.0701,.0234-.1868,.2802-.1634,.3502c.0234,.07 .1167,.07 .1401,0c.0701-.1401 .2335,.0234 .2335,.2101c0,.1167-.1168,.3035-.2101,.3035c-.0234,0-.0934,.0234-.1168,.0467c-.0701,.0467-.537,.0467-.6538,.0234c-.1401-.0467-.1634,.0467-.0467,.1868c.0934,.1401 .0467,.4203-.1167,.5837c-.3035,.3035-.8639-.4903-.6304-.8639c.0701-.1401 .0701-.1401 0-.2802c-.3035-.5837-.1401-.8639 .3269-.5837c.1868,.1401 .1868,.1401 0,.2802c-.1868,.1401-.1868,.2335 0,.3035c.3502,.1634 .6071-.0934 .3502-.3502c-.0934-.0934-.0934-.1167-.0701-.1868c0-.0467 .0234-.1401 0-.1868c0-.0934 .0234-.1167 .0934-.1167c.1168,0 .1401-.07 .0701-.2101c-.0701-.1401-.0701-.2335-.0234-.2568c.3269-.1167 .0234-.6538-.3269-.5604c-.0934,.0234-.2568,.07-.3736,.07c-.2335,.0467-.2568,.0934-.2802,.3736c0,.4436-.1635,.4903-.3969,.1634c-.1634-.2101-.1868-.3035-.1167-.3736c.0934-.0934 .0467-.1167-.1634-.1167c-.3502,.0234-.537-.1401-.3736-.2802c.0934-.0934 .0934-.2568-.0234-.3502c-.0934-.0934-.07-.0934-.3736-.1167c-.2101,0-.2101,0-.2568-.0934c-.07-.1634-.1401-.1634-.3035-.0234c-.0934,.0934-.1634,.1401-.2101,.1401c-.0467,0-.1635,.07-.2568,.1401c-.2101,.1868-.2335,.1868-.2802,.0467c-.0234-.0467-.07-.1167-.1401-.1634c-.2101-.1634-.2101-.2335 0-.6071c.1167-.2568 .1868-.3502 .2335-.3502c.0467-.0234 .0934-.0467 .0934-.07m-3.5959,.0467c.0934,0 .2802-.0234 .6538-.1401c.4436-.1401 .7705,.1167 .5137,.3736c-.0934,.0934-.1167,.0934-.2568,.0934c-.2101-.0467-.3502,.0934-.2335,.2101c.1401,.1634 .3736,.1634 .467,0c.07-.0934 .1634-.07 .1634,.0467c0,.0467-.0234,.0934-.1167,.1401c-.0934,.0467-.1401,.0934-.1401,.1634c-.0234,.0467-.07,.1634-.1167,.2568c-.1167,.2335-.1167,.4903 .0234,.467c.2101-.0467 .4203,.1167 .467,.3502c.0234,.07 .0934,.1635 .1634,.2335c.1868,.1634 .1634,.3035-.07,.4203c-.0467,0-.1401,.1167-.2335,.2335c-.1634,.1868-.3269,.2802-.467,.2568c-.07-.0234-.0934,0-.1634,.1167c-.1401,.2335-.0234,.3736 .3502,.3736c.1634,0 .2101,.07 .2101,.4203c0,.1868 0,.3969 .0234,.467c.0234,.1634 0,.2101-.2335,.3502c-.3269,.1868-.3269,.5604 0,.5604c.1401,0 .1634,.0467 .1634,.3035c-.0234,.1634 0,.2101 .0467,.2802c.1167,.1634 .0934,.1868-.1167,.3035c-.0934,.07-.1868,.1401-.1868,.1634c-.0234,.0467-.0467,.07-.1167,.0467c-.07-.0234-.0934,0-.0934,.0467c0,.07 .0934,.0934 .1868,.0234c.2568-.1634 .4436,.1635 .2101,.3736c-.2101,.1868-.2101,.2568-.0234,.3269c.2802,.1401 .1634,.3969-.1401,.3035c-.0934-.0467-.1167-.0467-.2101,0c-.1634,.1167-.2568,.0467-.4436-.3502c-.0467-.1401-.1167-.2101-.1634-.2335c-.3035-.1401-.467-.4203-.3736-.6304c.0467-.1634 .0467-.2101 .0234-.3969c-.0234-.1868 .07-.2335 .3969-.2101c.2568,.0234 .3736-.0234 .3736-.1634c0-.1634-.3502-.2802-.5137-.1868c-.2101,.0934-.3035-.0234-.1634-.2101c.07-.07 .07-.07 .2568-.07c.3035,.0467 .3736-.1401 .1868-.3969c-.0934-.1401-.0467-.1634 .1401-.1868c.0934,0 .1401,0 .1401-.0234v-.0934c-.0234-.0234-.0934-.1401-.1868-.2335c-.1167-.0934-.2101-.2101-.2335-.2568c-.0234-.1401-.0934-.1401-.2101-.0467c-.1401,.1167-.2101,.1167-.2101-.0234c0-.0467-.0234-.1401-.0467-.1634c-.0234-.0467-.0467-.0934-.0234-.1868c0-.07 0-.1634-.0234-.2335c-.07-.1634 .0234-.3035 .1868-.2802c.1634,.0234 .1401-.0934-.0234-.2802c-.1868-.1634-.2568-.5837-.1401-.8172c.07-.1634 .0467-.3736-.0234-.5837c-.1167-.3269-.07-.467 .2101-.4203c.2335,.0234 .3969-.1167 .3269-.2802c-.0467-.0467-.0934-.07-.2568-.07c-.3269-.0234-.4203-.1868-.2802-.4203c.07-.1167 .1868-.1634 .3502-.1167m7.6588,4.3197c.0234-.0467 .0701-.1401 .0934-.1634c.0701-.07 .1167-.07 .2101,0c.1401,.1634 .1401,.537-.0234,.6771c-.1167,.0934-.1167,.4436 0,.5604c.0934,.0467 .0934,.0934 .0934,.2568c0,.1401 .0234,.3035 .0701,.467c.0934,.3502 .1167,.6771 .0234,.8639c-.2101,.3502-.1868,.3035-.1168,.4436c.0934,.1634 .0934,.2335 0,.3502c-.0701,.0934-.0467,.2101 .0934,.4203c.1868,.3035 .1634,.4203-.0934,.6538c-.1868,.1634-.1868,.1634-.0701,.3269c.0934,.1401 .0934,.1868-.0467,.3736c-.0701,.1401-.0701,.1401 0,.2802c.1868,.3736 .0934,.8639-.1167,.6538c-.0934-.0934-.537-.1868-.6771-.1401c-.3969,.1634-.4903,0-.2335-.3502c.2101-.2802 .2335-.4436 .0467-.6071c-.1167-.1167-.1167-.0934 .0234-.2568c.1401-.1634 .1401-.1868 0-.4436c-.2568-.467-.0234-.7939 .3035-.4203c.0934,.1401 .1634,.07 .0934-.1401c-.0234-.07-.0234-.1634-.0234-.2101c0-.1401-.1167-.2101-.3502-.1868c-.2568,.0234-.2568,.0467-.2568-.3269c-.0234-.2802-.0234-.2802 .0934-.3969c.1634-.1634 .1167-.3969-.0701-.3969c-.1167,0-.1634-.0934-.0934-.3035c.0467-.1401 .0467-.1635 0-.2802c-.0934-.1868-.0467-.3502 .1167-.3035c.0701,.0234 .2335-.0467 .2335-.1167c0-.1167-.1868-.2802-.2802-.2335c-.1868,.1167-.3035-.2802-.1401-.537c.1168-.1401 .1401-.1167 .1401,.0934c.0234,.4436 .3736,.3736 .4203-.07c0-.2335 .0234-.2802 .2335-.3035c.1868-.0467 .2335-.07 .3035-.2335m-6.8649,4.0395c0-.0467 .0234-.1167 .0234-.1634c.0934-.1868 .3035,.07 .3035,.3269c0,.467-.537,.6771-.5604,.2335c-.0234-.2802 0-.3736 .0934-.3035c.07,.0467 .1401,0 .1401-.0934m-.9573,.3502c-.0234-.07 0-.0934 .07-.1635c.1167-.1167 .3035-.0234 .3035,.1635c0,.0467 .0467,.1167 .0934,.1868c.1401,.1401 .1167,.2101-.0234,.2802c-.1401,.0701-.1167,.1167 .0234,.1634c.07,0 .1868,.0234 .2568,.0467c.1167,.0467 .1401,.0467 .3269-.0467c.1868-.0701 .3269-.0701 .3269,0c.07,.5837 .0234,.9807-.1167,1.0507c-.1167,.0701-.4903,0-.6304-.1401c-.0467-.0234-.1167-.0467-.2802-.0467c-.2335,0-.3035-.0701-.2101-.2101c.0467-.1168 .0467-.2101-.0467-.3736c-.0934-.1401-.0934-.1401-.07-.467c0-.2101 0-.3736-.0234-.4436"/>
<path fill="#3a4547" d="m40.3401,22.2653c.0701-.0234 .1634-.07 .2335-.07c.4203-.0934 1.0274,0 1.2842,.1868c.1401,.0934 .2101,.1167 .2802,.1167c.3269-.0934 .4903-.07 1.004,.1634c.5604,.2335 .5837,.2568 .7472,.4436c.0701,.0934 .1868,.1868 .2568,.2101c.3269,.1401 .5137,.2802 .8172,.6538c.2335,.3035 .2568,.3502 .2335,.537c-.0234,.1401-.0234,.1634 .1401,.3269c.0934,.0934 .1634,.1634 .1634,.1868c0,.0234 .0701,.07 .1634,.1167c.0701,.0467 .1401,.1167 .1401,.1401c0,.0467-.0934,.1167-.1634,.0934c-.0234,0-.0934,0-.1401,.0467c-.0934,.0467-.0934,.0467-.2335-.0934c-.2101-.2101-.4903-.1401-.3736,.0934c.0934,.2568 .0701,.3035-.1401,.3035c-.0934,0-.2335,0-.3269,.0467c-.2802,.1167-.4903-.3035-.2335-.537c.0934-.0934 .0934-.0934 0-.2101c-.1168-.0934-.1168-.1401-.0234-.2101c.0934-.0934 .0701-.1868-.0467-.1868c-.0934,0-.0934,0-.0934,.1634c0,.1634-.0234,.1868-.0934,.2101c-.0934,0-.4203-.1167-.5137-.2101c-.0467-.0467-.1401-.07-.2335-.0934c-.1401-.0234-.2101-.0467-.3269-.1634c-.0701-.07-.1634-.1167-.1868-.1167c-.0234,0-.0934-.0467-.1401-.07c-.0467-.0467-.1868-.0934-.3269-.1167c-.3502-.07-.3969-.1167-.3969-.3035c0-.2568-.1168-.2802-.3269-.07c-.1634,.1634-.467,.1634-.8639-.0234c-.0467-.0234-.1167-.0467-.1868-.0467c-.0701,0-.0701,0 0-.0467c.3969-.2101 .1634-.5604-.3736-.537c-.1634,0-.3736,0-.467-.0234c-.1401-.0234-.467,.1868-.6304,.3969c-.0234,.07-.0934,.0934-.1868,.1167c-.1401,.0467-.1634,.07-.2335,.2101c-.0701,.1634-.1401,.1868-.1868,.07c-.0234-.0234-.0934-.0467-.1868-.07c-.1168,0-.1401-.0234-.1868-.1401c-.1168-.2568-.4903-.2802-.4903-.0467c0,.1634-.0934,.2802-.2335,.2335c-.1401-.0234-.2101,.0934-.2101,.3035c0,.1634-.0701,.2101-.2101,.1634c-.0234,0-.0934-.0234-.1168-.0234c-.0934-.0234-.1634,.07-.1634,.2335c0,.2802-.1401,.3969-.3035,.2335c-.1868-.1868 .3502-.934 .8172-1.1208c.1868-.07 .2335-.1167 .3035-.2101c.0701-.1401 .2101-.2568 .3035-.2568c.0234,0 .1401-.0934 .2335-.1868c.1401-.1634 .1868-.1868 .2568-.1634c.1868,.07 .2101,.0467 .3035-.0934c.0701-.1167 .1167-.1401 .2335-.1634c.0934,0 .2101-.07 .3035-.1167c.0934-.0467 .2568-.0934 .4436-.1167c.1634-.0234 .3502-.07 .4203-.0934c.0701-.0467 .1634-.0467 .2568-.0467c.0701,.0234 .1401,0 .2101-.0234m-2.7786,2.3817c-.1167-.0234-.1868-.07-.1868-.1401c0-.0934 .0934-.0934 .2568,.0234c.0934,.07 .1634,.0934 .2335,.07c.0701,0 .1634,.0234 .2335,.0467c.0467,.0467 .1401,.07 .1868,.0934c.1167,.0234 .1167,.07-.0467,.2335c-.1401,.1634-.1634,.1868-.5137,.7005c-.1634,.2101-.2802,.4203-.3269,.537c-.0234,.1167-.0934,.2802-.1401,.3736c-.0467,.0934-.1168,.2802-.1168,.3736c-.0467,.2568-.0934,.3269-.1868,.3269c-.0467,0-.1167,.0234-.1868,.07c-.1401,.0934-.1868,.0934-.3502-.07c-.0934-.1167-.0934-.1167-.2802-.0934c-.2802,.0467-.3736,.0467-.4436-.0234c-.1167-.1167-.0467-.2802 .0701-.2101c.0467,.0234 .1634,.0234 .2802,0c.4203-.0234 .4203-.0234 .5604,.07c.1401,.1167 .2101,.0934 .2568-.0234c.0467-.1401-.1868-.2802-.5837-.3736c-.1868-.0467-.3035-.2568-.2335-.4203c.0234-.07 .1634-.0467 .3269,.0234c.1634,.0934 .2568,.0934 .3502-.0234c.0467-.0467 .1401-.1167 .2568-.1635c.2802-.1167 .3035-.3502 .0467-.467c-.0934-.0467-.1168-.0467-.2335,.0467c-.0934,.0467-.2335,.0934-.3502,.1167c-.1401,.0234-.2101,.07-.3502,.1868c-.1868,.1634-.1868,.1634-.3035,.0934c-.1634-.07-.1168-.3269 .0934-.6538c.1401-.1868 .1868-.2101 .3502-.1401c.0934,.07 .1168,.07 .2101,0c.0934-.0467 .1167-.0467 .1634,0c.0467,.0234 .0467,.0234 .0701,0c.0934-.3035 .3736-.3736 .6071-.1634c.1868,.1634 .1868,.1634 .3269,.0234c.2335-.2335 .2101-.4203-.0467-.4436m8.1958,1.938c-.1401-.07-.1868-.1635-.1634-.2568c.0234-.07 .0467-.07 .3035,0c.2568,.0934 .3035,.1167 .3035,.2568c0,.0467 0,.1401 .0467,.2101c.0467,.1167 .0234,.1635-.0701,.3035c-.1401,.1634-.0934,.3969 .0934,.6071c.0701,.07 .0934,.1167 .0701,.1868c-.0701,.3502-.1167,.5137-.1868,.5837c-.0467,.0934-.0467,.1167-.0234,.2335c.1167,.3969-.2568,.9106-.5604,.7939c-.0934-.0467-.1167-.0234-.2802,.07c-.2101,.1401-.2802,.1634-.3502,.07c-.0467-.0467-.1168-.0934-.1868-.1167c-.3269-.0934-.2802-.3736 .0467-.3269c.0934,0 .1868,0 .2802-.0467c.1167-.0467 .1401-.0467 .2568,.0234c.1168,.0467 .1634,.07 .2101,.0234c.1168-.07 .1168-.0934 0-.2101c-.0934-.1167-.0934-.1401-.1167-.3736c-.0467-.3736-.1634-.4903-.3969-.3969c-.0467,.0467-.0467,.07-.0234,.2101c.0234,.1401-.0701,.2802-.2101,.2802c-.0234,0-.0701,.0467-.1167,.07c-.1868,.1634-.2802,.07-.2335-.2335c.0234-.2101 .0934-.3035 .2802-.3269c.1634-.0234 .1868-.07 .1868-.1868c0-.07 .0234-.1868 .0701-.2802c.1168-.3269 .0467-.537-.1868-.4903c-.1634,.0467-.2802-.4203-.1167-.5137c.1167-.0467 .1401-.0234 .3035,.1401c.1868,.1868 .3736,.2335 .5837,.1401c.3269-.1401 .3969-.3035 .1868-.4436m.0701,1.0274c.0467-.1634 .0234-.2101-.1168-.3035c-.3035-.1868-.537,.1634-.3035,.4903c.0701,.0934 .1401,.2101 .1401,.2568c0,.0234 .0234,.0934 .0467,.1167c.0934,.07 .1401,0 .1634-.2101c0-.1167 .0234-.2802 .0701-.3502m-9.5034-.0467c.0701,.0234 .1167,.0234 .2101-.0234c.1401-.0467 .1401-.0467 .2335,.0234c.0467,.0467 .1401,.1167 .1868,.1634c.2335,.1401 .2101,.537-.0234,.537c-.1868,0-.1868,.1635 0,.2335c.2101,.0934 .3269,.2335 .3502,.4903c0,.1167 .0467,.2335 .0701,.2802c.0467,.0467 .0934,.1868 .1401,.3269c.0701,.2101 .1168,.2568 .2101,.3269c.1868,.1167 .2802,.2101 .3035,.3736c.0467,.2101 .2101,.3736 .4203,.3736c.3269,0 .5137,.2568 .3269,.4436c-.0701,.07-.0934,.07-.2335,.0234c-.1401-.0234-.1868-.0234-.3035,0c-.2802,.0934-.5837,.1167-.7005,.0234c-.1634-.1167-.2335-.1167-.4903,.0234c-.3269,.1868-.4903,.1167-.467-.1868c0-.1401 0-.1401 .2335-.1634c.5137-.07 .537-.1868 .0701-.5137c-.0701-.07-.0701-.07 .0467-.1634c.1168-.0934 .1401-.1167 .1401-.2101c0-.0934 .0234-.1634 .1167-.2568c.2802-.3269-.0934-.6771-.4203-.3736c-.1167,.1167-.1167,.1868-.0234,.3035c.1634,.1401 .0701,.2335-.1868,.1868c-.0934,0-.1868,0-.2568,.0467c-.1167,.0467-.1168,.0467-.2101-.07c-.1401-.1634-.0701-.2802 .0934-.1401c.1401,.0934 .1868,.0234 .1868-.1868c0-.0934 .0234-.2335 .0701-.3269c.1167-.2335-.0934-.467-.3269-.3502c-.1167,.07-.2101-.07-.1167-.1635c.0234-.07 .0467-.07 .1167-.0234c.1167,.0467 .1634-.1635 .0934-.3035c-.1401-.2568-.0467-.7705 .1401-.7238m7.9857,3.0355c0-.5837 0-.6071 .1868-.7939c.0934-.0934 .6538,.1167 .7472,.2802c.0701,.1401-.2568,.4203-.3969,.3502c-.1634-.0467-.2335,0-.2568,.1167c-.0234,.1868 .1168,.2335 .3035,.1167c.0934-.07 .3736,.07 .3736,.1868c0,.1401-.3035,.467-.4436,.467c-.0934,0-.1634,.0934-.1401,.1634c.0701,.1868-.6538,.7939-.9807,.7939c-.0467,0-.1401,.0701-.2568,.1868c-.1868,.1868-.4203,.3035-.7472,.3269c-.1167,.0234-.2802,.0701-.3502,.1167c-.0934,.0234-.2568,.0701-.3969,.0934c-.1401,.0467-.3035,.0701-.3736,.0934c-.0701,.0234-.1401,.0234-.2802,0c-.1401-.0467-.1868-.0234-.3736,.0234c-.2335,.0934-.3269,.0934-.467,.0234c-.0467-.0234-.2101-.0701-.3502-.0934c-.3035-.0234-.3502-.0467-.4203-.2335c-.0934-.1868-.1167-.2101-.2568-.0467c-.1401,.1401-.1401,.1401-.4436,.0701c-.5604-.1167-.7705-.2101-.934-.3736c-.0701-.0701-.2101-.1634-.3035-.2101c-.2335-.0934-.5837-.467-.5137-.5604c.0701-.1401 .2568-.0934 .4903,.1401c.2802,.2802 .3502,.2802 .6304,.0234c.3269-.3035 .7005-.1167 .6304,.3035c-.0467,.2568 .2335,.2335 .3035-.0467c.0467-.1634 .1168-.2101 .3269-.2101c.1401,0 .2101-.0234 .3035-.0934c.0467-.0467 .1167-.0467 .1634-.0467c.1401,.0234 .2802-.0467 .2802-.1634c0-.1634 .0701-.2101 .2568-.1167c.1634,.0934 .1634,.1167 .0934,.1634c-.1634,.0934-.1401,.3502 .0467,.4436c.2335,.0934 .3269-.0234 .2101-.3035c-.0467-.2101 0-.1868 .1868,.0234c.2335,.2335 .3035,.2335 .5837-.1634c.1634-.2101 .2335-.2335 .3269-.0934c.1868,.1868 .3969,.2802 .537,.2568c.3736-.07 .6304-.0467 .7238,0c.1634,.0934 .2568,.0934 .467-.07c.2568-.1634 .2335-.2568-.0467-.3035c-.2335-.0234-.2802-.0934-.1167-.1868c.0701-.0467 .0934-.0467 .2335,0c.3969,.1868 .467,.0934 .4436-.6538"/>
<path fill="#3a4547" d="m52.8815,22.2653c.0701-.0234 .1634-.07 .2335-.07c.4203-.0934 1.0274,0 1.2842,.1868c.1401,.0934 .2101,.1167 .2802,.1167c.3269-.0934 .4903-.07 1.004,.1634c.5604,.2335 .5837,.2568 .7472,.4436c.0701,.0934 .1868,.1868 .2568,.2101c.3269,.1401 .5137,.2802 .8172,.6538c.2335,.3035 .2568,.3502 .2335,.537c-.0234,.1401-.0234,.1634 .1401,.3269c.0934,.0934 .1634,.1634 .1634,.1868c0,.0234 .0701,.07 .1634,.1167c.0701,.0467 .1401,.1167 .1401,.1401c0,.0467-.0934,.1167-.1634,.0934c-.0234,0-.0934,0-.1401,.0467c-.0934,.0467-.0934,.0467-.2335-.0934c-.2101-.2101-.4903-.1401-.3736,.0934c.0934,.2568 .0701,.3035-.1401,.3035c-.0934,0-.2335,0-.3269,.0467c-.2802,.1167-.4903-.3035-.2335-.537c.0934-.0934 .0934-.0934 0-.2101c-.1167-.0934-.1167-.1401-.0234-.2101c.0934-.0934 .0701-.1868-.0467-.1868c-.0934,0-.0934,0-.0934,.1634c0,.1634-.0234,.1868-.0934,.2101c-.0934,0-.4203-.1167-.5137-.2101c-.0467-.0467-.1401-.07-.2335-.0934c-.1401-.0234-.2101-.0467-.3269-.1634c-.0701-.07-.1634-.1167-.1868-.1167c-.0234,0-.0934-.0467-.1401-.07c-.0467-.0467-.1868-.0934-.3269-.1167c-.3502-.07-.3969-.1167-.3969-.3035c0-.2568-.1168-.2802-.3269-.07c-.1634,.1634-.467,.1634-.8639-.0234c-.0467-.0234-.1167-.0467-.1868-.0467c-.0701,0-.0701,0 0-.0467c.3969-.2101 .1634-.5604-.3736-.537c-.1634,0-.3736,0-.467-.0234c-.1401-.0234-.467,.1868-.6304,.3969c-.0234,.07-.0934,.0934-.1868,.1167c-.1401,.0467-.1634,.07-.2335,.2101c-.0701,.1634-.1401,.1868-.1868,.07c-.0234-.0234-.0934-.0467-.1868-.07c-.1167,0-.1401-.0234-.1868-.1401c-.1167-.2568-.4903-.2802-.4903-.0467c0,.1634-.0934,.2802-.2335,.2335c-.1401-.0234-.2101,.0934-.2101,.3035c0,.1634-.0701,.2101-.2101,.1634c-.0234,0-.0934-.0234-.1167-.0234c-.0934-.0234-.1634,.07-.1634,.2335c0,.2802-.1401,.3969-.3035,.2335c-.1868-.1868 .3502-.934 .8172-1.1208c.1868-.07 .2335-.1167 .3035-.2101c.0701-.1401 .2101-.2568 .3035-.2568c.0234,0 .1401-.0934 .2335-.1868c.1401-.1634 .1868-.1868 .2568-.1634c.1868,.07 .2101,.0467 .3035-.0934c.0701-.1167 .1168-.1401 .2335-.1634c.0934,0 .2101-.07 .3035-.1167c.0934-.0467 .2568-.0934 .4436-.1167c.1634-.0234 .3502-.07 .4203-.0934c.0701-.0467 .1634-.0467 .2568-.0467c.0701,.0234 .1401,0 .2101-.0234m-2.7786,2.3817c-.1167-.0234-.1868-.07-.1868-.1401c0-.0934 .0934-.0934 .2568,.0234c.0934,.07 .1634,.0934 .2335,.07c.0701,0 .1634,.0234 .2335,.0467c.0467,.0467 .1401,.07 .1868,.0934c.1167,.0234 .1167,.07-.0467,.2335c-.1401,.1634-.1634,.1868-.5137,.7005c-.1634,.2101-.2802,.4203-.3269,.537c-.0234,.1167-.0934,.2802-.1401,.3736c-.0467,.0934-.1168,.2802-.1168,.3736c-.0467,.2568-.0934,.3269-.1868,.3269c-.0467,0-.1167,.0234-.1868,.07c-.1401,.0934-.1868,.0934-.3502-.07c-.0934-.1167-.0934-.1167-.2802-.0934c-.2802,.0467-.3736,.0467-.4436-.0234c-.1167-.1167-.0467-.2802 .0701-.2101c.0467,.0234 .1634,.0234 .2802,0c.4203-.0234 .4203-.0234 .5604,.07c.1401,.1167 .2101,.0934 .2568-.0234c.0467-.1401-.1868-.2802-.5837-.3736c-.1868-.0467-.3035-.2568-.2335-.4203c.0234-.07 .1634-.0467 .3269,.0234c.1634,.0934 .2568,.0934 .3502-.0234c.0467-.0467 .1401-.1167 .2568-.1635c.2802-.1167 .3035-.3502 .0467-.467c-.0934-.0467-.1167-.0467-.2335,.0467c-.0934,.0467-.2335,.0934-.3502,.1167c-.1401,.0234-.2101,.07-.3502,.1868c-.1868,.1634-.1868,.1634-.3035,.0934c-.1634-.07-.1167-.3269 .0934-.6538c.1401-.1868 .1868-.2101 .3502-.1401c.0934,.07 .1168,.07 .2101,0c.0934-.0467 .1168-.0467 .1634,0c.0467,.0234 .0467,.0234 .0701,0c.0934-.3035 .3736-.3736 .6071-.1634c.1868,.1634 .1868,.1634 .3269,.0234c.2335-.2335 .2101-.4203-.0467-.4436m8.1958,1.938c-.1401-.07-.1868-.1635-.1634-.2568c.0234-.07 .0467-.07 .3035,0c.2568,.0934 .3035,.1167 .3035,.2568c0,.0467 0,.1401 .0467,.2101c.0467,.1167 .0234,.1635-.0701,.3035c-.1401,.1634-.0934,.3969 .0934,.6071c.0701,.07 .0934,.1167 .0701,.1868c-.0701,.3502-.1167,.5137-.1868,.5837c-.0467,.0934-.0467,.1167-.0234,.2335c.1168,.3969-.2568,.9106-.5604,.7939c-.0934-.0467-.1167-.0234-.2802,.07c-.2101,.1401-.2802,.1634-.3502,.07c-.0467-.0467-.1168-.0934-.1868-.1167c-.3269-.0934-.2802-.3736 .0467-.3269c.0934,0 .1868,0 .2802-.0467c.1167-.0467 .1401-.0467 .2568,.0234c.1167,.0467 .1634,.07 .2101,.0234c.1167-.07 .1167-.0934 0-.2101c-.0934-.1167-.0934-.1401-.1168-.3736c-.0467-.3736-.1634-.4903-.3969-.3969c-.0467,.0467-.0467,.07-.0234,.2101c.0234,.1401-.0701,.2802-.2101,.2802c-.0234,0-.0701,.0467-.1168,.07c-.1868,.1634-.2802,.07-.2335-.2335c.0234-.2101 .0934-.3035 .2802-.3269c.1634-.0234 .1868-.07 .1868-.1868c0-.07 .0234-.1868 .0701-.2802c.1167-.3269 .0467-.537-.1868-.4903c-.1634,.0467-.2802-.4203-.1168-.5137c.1167-.0467 .1401-.0234 .3035,.1401c.1868,.1868 .3736,.2335 .5837,.1401c.3269-.1401 .3969-.3035 .1868-.4436m.0701,1.0274c.0467-.1634 .0234-.2101-.1167-.3035c-.3035-.1868-.537,.1634-.3035,.4903c.0701,.0934 .1401,.2101 .1401,.2568c0,.0234 .0234,.0934 .0467,.1167c.0934,.07 .1401,0 .1634-.2101c0-.1167 .0234-.2802 .0701-.3502m-9.5034-.0467c.0701,.0234 .1167,.0234 .2101-.0234c.1401-.0467 .1401-.0467 .2335,.0234c.0467,.0467 .1401,.1167 .1868,.1634c.2335,.1401 .2101,.537-.0234,.537c-.1868,0-.1868,.1635 0,.2335c.2101,.0934 .3269,.2335 .3502,.4903c0,.1167 .0467,.2335 .0701,.2802c.0467,.0467 .0934,.1868 .1401,.3269c.0701,.2101 .1168,.2568 .2101,.3269c.1868,.1167 .2802,.2101 .3035,.3736c.0467,.2101 .2101,.3736 .4203,.3736c.3269,0 .5137,.2568 .3269,.4436c-.0701,.07-.0934,.07-.2335,.0234c-.1401-.0234-.1868-.0234-.3035,0c-.2802,.0934-.5837,.1167-.7005,.0234c-.1634-.1167-.2335-.1167-.4903,.0234c-.3269,.1868-.4903,.1167-.467-.1868c0-.1401 0-.1401 .2335-.1634c.5137-.07 .537-.1868 .0701-.5137c-.0701-.07-.0701-.07 .0467-.1634c.1167-.0934 .1401-.1167 .1401-.2101c0-.0934 .0234-.1634 .1167-.2568c.2802-.3269-.0934-.6771-.4203-.3736c-.1168,.1167-.1168,.1868-.0234,.3035c.1634,.1401 .0701,.2335-.1868,.1868c-.0934,0-.1868,0-.2568,.0467c-.1167,.0467-.1167,.0467-.2101-.07c-.1401-.1634-.0701-.2802 .0934-.1401c.1401,.0934 .1868,.0234 .1868-.1868c0-.0934 .0234-.2335 .0701-.3269c.1168-.2335-.0934-.467-.3269-.3502c-.1167,.07-.2101-.07-.1167-.1635c.0234-.07 .0467-.07 .1167-.0234c.1167,.0467 .1634-.1635 .0934-.3035c-.1401-.2568-.0467-.7705 .1401-.7238m7.9857,3.0355c0-.5837 0-.6071 .1868-.7939c.0934-.0934 .6538,.1167 .7472,.2802c.0701,.1401-.2568,.4203-.3969,.3502c-.1634-.0467-.2335,0-.2568,.1167c-.0234,.1868 .1167,.2335 .3035,.1167c.0934-.07 .3736,.07 .3736,.1868c0,.1401-.3035,.467-.4436,.467c-.0934,0-.1634,.0934-.1401,.1634c.0701,.1868-.6538,.7939-.9807,.7939c-.0467,0-.1401,.0701-.2568,.1868c-.1868,.1868-.4203,.3035-.7472,.3269c-.1167,.0234-.2802,.0701-.3502,.1167c-.0934,.0234-.2568,.0701-.3969,.0934c-.1401,.0467-.3035,.0701-.3736,.0934c-.0701,.0234-.1401,.0234-.2802,0c-.1401-.0467-.1868-.0234-.3736,.0234c-.2335,.0934-.3269,.0934-.467,.0234c-.0467-.0234-.2101-.0701-.3502-.0934c-.3035-.0234-.3502-.0467-.4203-.2335c-.0934-.1868-.1167-.2101-.2568-.0467c-.1401,.1401-.1401,.1401-.4436,.0701c-.5604-.1167-.7705-.2101-.934-.3736c-.0701-.0701-.2101-.1634-.3035-.2101c-.2335-.0934-.5837-.467-.5137-.5604c.0701-.1401 .2568-.0934 .4903,.1401c.2802,.2802 .3502,.2802 .6304,.0234c.3269-.3035 .7005-.1167 .6304,.3035c-.0467,.2568 .2335,.2335 .3035-.0467c.0467-.1634 .1167-.2101 .3269-.2101c.1401,0 .2101-.0234 .3035-.0934c.0467-.0467 .1168-.0467 .1634-.0467c.1401,.0234 .2802-.0467 .2802-.1634c0-.1634 .0701-.2101 .2568-.1167c.1634,.0934 .1634,.1167 .0934,.1634c-.1634,.0934-.1401,.3502 .0467,.4436c.2335,.0934 .3269-.0234 .2101-.3035c-.0467-.2101 0-.1868 .1868,.0234c.2335,.2335 .3035,.2335 .5837-.1634c.1634-.2101 .2335-.2335 .3269-.0934c.1868,.1868 .3969,.2802 .537,.2568c.3736-.07 .6304-.0467 .7238,0c.1634,.0934 .2568,.0934 .467-.07c.2568-.1634 .2335-.2568-.0467-.3035c-.2335-.0234-.2802-.0934-.1167-.1868c.0701-.0467 .0934-.0467 .2335,0c.3969,.1868 .467,.0934 .4436-.6538"/>
<path fill="#3a4547" d="m61.3134,17.0583c-.0934-.07-.1401-.1635-.0701-.2335c.1167-.1167 .6071,0 .7705,.2101c.0701,.07 .1634,.1401 .2101,.1634c.1401,.0234 .1868,.1401 .1401,.3269c-.0934,.3035-.0934,.3969 0,.5137c.0467,.1167 .0701,.1635 .0467,.537v1.1908v.5137c0,.2568 0,.3502 .0467,.467c.0467,.07 .0701,.2101 .0701,.3035c0,.0934 0,.2568 .0234,.3502c.0467,.2101 .0234,.2802-.1168,.4436c-.1401,.1634-.1401,.2335-.0234,.2802c.1401,.0467 .1401,.0467 .1167,.5604c0,.537-.0234,.5837-.2101,.467c-.0934-.07-.2101-.07-.2568,.0234c-.0467,.07 .1401,.3269 .3502,.4203c.1634,.0934 .1634,.1634 .0467,.3035c-.0934,.1167-.0934,.1167-.0467,.1868c.1868,.2568 .2101,.4436 .0934,.5604c-.0701,.07-.0467,.537 .0701,.7939c.0467,.0934 .0467,.1634 0,.4903c-.0234,.2802-.0234,.5137 0,.8639c.0467,.6071 .0467,1.1675 0,1.1908c-.0934,.07-.1868-.0234-.1868-.1634c0-.1167 0-.1401-.0701-.1401c-.0234,0-.0701-.0467-.0934-.1167c-.0934-.2101-.2802-.2568-.3502-.07c-.0467,.1401 .2101,.4903 .3269,.4436c.0934-.0467 .1634-.0234 .1634,.07c0,.1401-.0934,.1868-.1868,.0934c-.0467-.0467-.0934-.07-.1167-.07c0,.0234-.0701,0-.1168-.0234c-.2802-.1401-.537-.1401-.6304,.0234c-.1634,.2568-.0934,.3502 .2802,.3269c.2568,0 .3035,.0234 .4203,.0934c.1167,.0467 .1868,.07 .2335,.0467c.3502-.07 .4436,.537 .1634,.9106c-.1401,.2101-.1401,.2101-.0234,.3969c.3502,.4436 .1167,1.401-.3269,1.2842c-.2568-.07-.3502-.0467-.5137,.1167c-.1167,.1167-.2802,.1167-.4436,0c-.0701-.07-.0934-.07-.1634-.0467c-.0934,.07-.2101,0-.2335-.1167c-.0234-.0934 .1167-.3269 .2101-.3502c.2802-.0467 .4203-.1634 .3736-.3269c-.0234-.1868-.2101-.1868-.3269,0c-.1401,.2101-.2802,.1167-.2802-.1634c.0234-.3035 .0701-.3969 .2101-.2802c.1167,.07 .1868,.0467 .1868-.07c0-.1401-.0701-.1868-.1634-.0934c-.1401,.1167-.2568-.0934-.2568-.4436c0-.4203 .2568-.5137 .2802-.0934c.0234,.3969 .2568,.537 .4436,.2335c.1167-.2101 .2335-.1167 .2568,.1868c0,.1167-.1168,.2802-.2101,.2802c-.0467,0-.0234,.1401 .0701,.1868c.1634,.1401 .3736,.07 .3736-.1401c0-.1167 .1401-.4903 .2335-.6071c.1634-.1634 .1868-.467 .0234-.4903c-.0467-.0234-.1401-.0934-.2101-.1401c-.1634-.1167-.1634-.1167-.3035-.07c-.0934,.0234-.2335,.0234-.3035,.0467h-.1868c-.2335,.07-.5137-.07-.5137-.2568c0-.0934 .2101-.3502 .2802-.3502c.0234,0 .3736-.2802 .3736-.3035c0-.1401-.2101-.2335-.3269-.1167c-.2335,.1868-.3035,0-.2802-.7005c.0234-.5604 .0467-.7005 .1868-.8406c.1401-.1401 .1401-.2568-.0234-.4203c-.3035-.3035-.2101-1.2375 .1401-1.2842c.3969-.0467 .467-.2568 .1167-.3502c-.2568-.0934-.3035-.1167-.3035-.2568c0-.1401 .0467-.1634 .1634-.0934c.1401,.0467 .2802-.0234 .3269-.1634c.0234-.07 .0701-.1401 .0934-.1868c.0467-.0467 .0934-.1401 .1168-.2568c.0467-.1868 .0467-.1868 .1401-.1868c.0934,0 .3502-.2335 .3502-.3269c0-.1401-.3035-.3736-.3736-.3035c-.0234,.0234-.0701,.0234-.0934,.0234c-.1168,0-.1868,.1401-.1868,.3269c.0234,.1868 .0234,.1868-.1168,.2101c-.3502,.0234-.4436-.2335-.1868-.467c.1401-.1401 .1167-.3969-.0467-.3502c-.0934,.0467-.1634-.07-.1868-.3269c0-.1401-.0234-.2802-.0467-.3035c-.0467-.1167 .2101-.2568 .3269-.1634c.0467,.0467 .0701,.0467 .2101-.07c.1401-.1401 .3035-.1634 .3736-.07c.1634,.2101 .2802-.0467 .1167-.2802c-.0467-.07-.1401-.2568-.2101-.3736c-.0934-.2568-.1868-.3035-.2802-.1868c-.1634,.1634-.3035,.07-.3269-.2335c-.0234-.2101-.0234-.2101 .0701-.2802c.1401-.0934 .1401-.1401 0-.3502c-.0701-.1167-.0934-.2101-.0934-.2802c.0234-.1167 .0234-.1167 .2101-.07c.1634,.0234 .2101-.1167 .0701-.1868c-.0934-.0467-.0934-.07-.0934-.2568c-.0234-.1401-.0234-.1868-.0934-.2335c-.1868-.1401-.2568-.2335-.2568-.3502c0-.07-.0234-.2335-.0701-.3736c-.1401-.5837-.0234-.8172 .2101-.537c.1868,.2101 .6304,.2335 .5604,.0467c0-.0234-.0701-.0934-.1401-.1167m.3035,8.8496c.1401,0 .2568-.3969 .1401-.4436c-.1634-.0467-.3502,.1401-.3502,.3736c0,.1634-.0701,.2568-.1868,.2802c-.1868,.0234-.0934,.467 .1167,.467c0,0 .0701,.0467 .0934,.1167c.0467,.0467 .1167,.0934 .1401,.0934c.0934,0 .0934,.0234 0-.5137c-.0467-.2568-.0467-.3736 .0467-.3736m5.9075-3.0822c.1401-.07 .3269-.1167 .5137-.1401c.3969-.0234 1.0974-.0234 1.1441,0c.1167,.0934 .0934,.2568-.07,.3269c-.0467,.0234-.1167,.0934-.1401,.1401c-.0467,.1167-.1401,.1634-.1868,.1167c-.0233-.0234-.07-.0467-.0934-.0467c-.0934,0-.0467,.1167 .0467,.1401c.2335,.0234-.0467,.4903-.2802,.4903c-.1401,0-.3502,.2568-.3969,.467c-.0233,.1868-.07,.2335-.2101,.3035c-.2802,.1167-.467,.2802-.467,.3969c0,.3736-.3736,.4436-.6771,.1401c-.1868-.1868-.1868-.2335 0-.3035c.0934-.0234 .1868-.1167 .2802-.2101c.0934-.0934 .1634-.1401 .2335-.1634c.1401,0 .1634-.0234 .2335-.1868c.0467-.07 .0934-.1868 .1167-.2335c.2568-.3736-.3736-.2101-.934,.2802c-.3035,.2568-.4903,.3269-.4903,.1868c0-.0934 .0467-.1401 .3035-.2802c.2335-.1401 .4903-.467 .3969-.4903c-.1634-.0467-.2335-.1868-.1167-.3035c.1868-.2101 .3736-.0467 .2568,.2335c-.0467,.0934 .1401,.1401 .2335,.0467c.2335-.2101 .2568-.3035 .0934-.4903c-.1634-.1868-.1401-.3736 .0467-.3736c.0467,0 .1167-.0234 .1634-.0467m-1.8446,2.1949c.0934,0 .1634-.0234 .2568-.0934c.1401-.1167 .4903-.1401 .4903-.0234c0,.0467-.0233,.07-.0467,.0934c-.0233,0-.0934,.0467-.1634,.07c-.0467,.0234-.1401,.0467-.2101,.0467c-.0934,0-.1167,.0234-.1634,.0934c-.0934,.2568 .0467,.4203 .467,.467c.4436,.07 .4903,.2335 .0934,.467c-.07,.0467-.07,.07-.07,.1401c.0233,.2101-.4203,.7005-.6304,.7005c-.1167,0-.1167,0-.0934-.1401c.0233-.2101-.1401-.3736-.2101-.1868c-.0233,.0467-.0934,.1167-.1167,.1634c-.0934,.0934-.0467,.1868 .0467,.1634c.07-.0467 .1868,.0934 .1401,.1634c-.0233,.0234-.0467,.0934-.0467,.1401c0,.0467-.0233,.1167-.07,.1634c-.1634,.2101-.1868,.4436-.0934,.5837c.0467,.0467 .07,.0934 .07,.1401c0,.0234-.0233,.07-.07,.07c-.0934,.0234-.07,.1635 .0233,.2101c.0934,.0467 .1634,.0934 .2335,.2101c.2101,.3269 .3736,.4203 .3736,.2101c0-.1401 .2101-.07 .467,.1868c.1167,.1167 .1167,.1167 .1167,.2802c-.0233,.1167-.0233,.2101 .0467,.3502c.0233,.0934 .07,.2568 .07,.3269c.0467,.1401 .0934,.1634 .1167,.0234c0-.1401 .2335-.2568 .3502-.2335c.3969,.0934 .934,.7939 .8172,1.004c-.0233,.07-.1167,.467-.1167,.5137h.0467c.0233,0 .0467,0 .0467-.0234c0-.0234 .0467-.0467 .0934-.07c.0467-.0234 .1167-.0934 .1634-.1401c.1167-.1167 .2335-.0934 .4203,.0934c.07,.07 .1868,.2101 .2802,.3269c.0934,.0934 .2568,.2335 .3736,.3035c.2335,.1401 .4203,.3736 .4436,.537c0,.1634 .07,.2335 .1868,.2335c.1401-.0234 .1868,.0467 .1868,.2101c0,.3502-.1167,.4436-.5837,.4436c-.2101,0-.3969,.0234-.4903,.0467c-.1401,.0467-.1634,.0467-.3035,0c-.0934-.0234-.1868-.0467-.2335-.0467c-.07,0-.537-.2101-.6304-.2802c-.0467-.0467-.0467-.1168 .0233-.2802c.1167-.2335-.0467-.4203-.1868-.2335c-.0467,.0467-.07,.0934-.07,.1167c0,0-.0467,.0234-.07,.0234c-.1401,0-.4203-.3736-.4203-.5604c0-.1167-.0934-.2101-.2101-.2101c-.1401,0-.3502-.1868-.4436-.3736c-.0934-.2101-.2568-.3736-.4436-.4436c-.1167-.0234-.1634-.07-.2568-.1868c-.1167-.1634-.1634-.2101-.537-.467c-.2101-.1401-.2802-.2101-.3502-.3502c-.1167-.2335-.1868-.3269-.3502-.3969c-.1167-.07-.1401-.0934-.1634-.3502c0-.0467-.07-.0934-.2568-.1401c-.3035-.07-.467-.2335-.3736-.3969c.1167-.1634 .0467-.2568-.2101-.2335c-.4203,.0467-.6304-.2802-.3269-.4903c.2802-.1868 .2802-.2802 .0467-.3502c-.2335-.07-.2101-.2101 .0934-.3035c.2101-.07 .2335-.0934 .3736-.3035c.3269-.5137 .4436-.6304 .6771-.5604c.3502,.0934 .537-.0934 .3035-.3035c-.2101-.1634 0-.3736 .2802-.3035c.2101,.07 .4203-.1634 .4436-.4903c.0233-.2101 .1634-.3502 .3502-.3502m-.7238,2.6385c.2802-.2101 .2802-.3502-.0467-.3969c-.0934,0-.2101-.0234-.2568-.0234c-.1167-.0467-.2802,.0934-.2802,.2101c0,.2101 .0467,.5837 .0934,.6304c.0467,.07 .1401,.0234 .1401-.07c0-.07 .0934-.1635 .3502-.3502m-3.1055,3.736c.0467-.0234 .1401-.0467 .1868-.0934c.1868-.1634 .2568-.07 .2568,.3736c0,.3736 0,.3736 .0934,.4436c.0934,.0934 .0934,.1168 .0934,.2802c0,.0934 .0234,.2101 .0467,.2568c.1634,.467-.0701,.7238-.6304,.7238c-.1868,0-.3736,.0234-.4203,.0234c-.467,.1401-.7005-.7005-.3269-1.1908c.1168-.1401 .0467-.2568-.1401-.1868c-.2101,.0701-.3736-.1868-.2101-.3502c.1401-.1401 .7238-.1167 .7939,.0467c.0234,.0467 .0701,.0934 .0934,.0934c.0701,0 .0934-.0934 .0467-.1868c-.0934-.1167-.0467-.2101 .1168-.2335"/>
</g>
<g fill="#80999e" transform="matrix(.58375 0 0 .58375 -203.23068 -454.20186)">
<path fill="#80999e" word-spacing="0" d="m418.9878,811.5836c.12,.12 .32,.2 .4,.2c.36,.08 .44,.08 .8-.24c.56-.4-.12-.88-.8-.56c-.24,.12-.44,.04-.52-.12c-.04-.12 .2-.32 .36-.28c.28,.08 .52-.16 .6-.56c.04-.24 .16-.28 .44-.16c.32,.16 .32,.16 .44,.04c.16-.12 .12-.24-.04-.24c-.44,0-.92-.72-.72-1.12c.12-.2 .08-.32-.24-.68c-.12-.16-.24-.32-.28-.4c-.2-.6-.84,.6-.84,1.56c0,.6 0,.64-.16,.84c-.12,.2-.16,.36-.2,.6c-.04,.2-.08,.44-.08,.6c-.04,.32 .08,.48 .4,.44c.2-.04 .28-.04 .44,.08m20.52-1.24c.04,.08 .12,.24 .16,.28c.16,.12 .12,.12 .44,.04c.4-.08 .48-.2 .24-.44l-.28-.4c-.04-.12-.16-.32-.24-.4c-.2-.28-.2-.36 0-.6c.24-.32 .08-1.04-.4-1.72c-.12-.2-.16-.32-.2-.72c-.08-.64-.44-1.44-.8-1.68c-.28-.2-.28-.2-.24-.56c.04-.36 .04-.36-.28-1c-.2-.36-.4-.84-.44-1c-.12-.44-.64-1.48-.88-1.8c-.2-.24-.2-.32-.2-.6c0-.56-.28-.92-.68-.88c-.2,.04-.4-.04-.52-.28c-.08-.16 .04-.28 .28-.28c.36,.04 .4-.36 0-.48c-.24-.08-.24-.16-.16-.52c.08-.32-.12-.84-.52-1.36c-.2-.28-.2-.32-.16-.6c.08-.72-.8-2.44-1.04-2.08c-.16,.24-.2,.24-.36,.16c-.4-.2-.4-1 0-1.08c.16-.04 .2-.4 0-.56c-.12-.12-.12-.12-.16,0c-.2,.32-.48,.4-.68,.16c-.2-.16-.2-.4-.04-.6c.12-.16 .32-.8 .32-1c0-.32-.52-1.08-.68-.96c-.24,.28-.84-.04-.8-.4c.12-.84 .12-1.2-.08-1.2c-.08,0-.24-.08-.32-.16c-.08-.08-.28-.2-.44-.24c-.28-.12-.28-.2-.16-.56c.2-.44 .4-.52 .68-.24c.36,.4 .48,.12 .16-.48c-.16-.28-.2-.4-.2-.64c0-.92-.64-1.88-1.2-1.72c-.12,.04-.28,.04-.44,0c-.72-.2-1.12-.08-1.2,.36c-.08,.36-.32,1.08-.44,1.36c-.16,.32-.2,.48-.12,.72c.16,.28 .12,.4-.12,.64c-.12,.16-.24,.32-.24,.4c-.08,.2-.36,.96-.6,1.44c-.08,.2-.16,.44-.16,.56c0,.12-.12,.4-.32,.8c-.2,.36-.36,.76-.4,.88c0,.12-.08,.36-.2,.52c-.08,.12-.2,.4-.24,.56c-.08,.28-.24,.76-.68,1.72c-.12,.28-.16,.48-.2,.96c-.04,.72-.04,.8-.24,.88c-.24,.12-.32,.36-.32,1.04c-.04,.68-.12,.84-.52,.88c-.48,.08-.76,.8-.64,1.52c.04,.52 .04,.52-.32,.64c-.36,.12-.68,.76-.6,1.28c0,.24 0,.28-.12,.48c-.52,.76-.52,.84-.32,1.2c.16,.36 .12,.6-.16,.92c-.24,.28-.28,.4-.28,.68c0,.28 0,.28-.48,.4c-.2,.08-.28,.28-.16,.52c.08,.24 .24,.24 .64,.04c.48-.28 .52-.16 .32,.6c-.04,.24-.16,.28-.28,.16c-.16-.12-.84-.28-.96-.2c-.36,.24-.6,1.68-.28,1.56c.28-.08 .48-.28 .52-.52c0-.2 .08-.24 .36-.44c.48-.32 .56-.28 .68,.24c.04,.44 .08,.48 .4,.36c.56-.2 .8-.72 .56-1.16c-.16-.32 0-.6 .2-.28c0,.04 .12,.12 .24,.16c.12,.04 .24,.2 .32,.36c.24,.44 1-.76 .76-1.28c-.04-.12-.04-.16 .16-.32c.12-.12 .2-.24 .24-.44c0-.16 .12-.4 .24-.6c.12-.2 .28-.52 .36-.68c.08-.2 .24-.56 .36-.76c.12-.28 .2-.48 .24-.8c.04-.32 .08-.56 .24-.84c.12-.24 .2-.48 .2-.6c0-.24 .08-.36 .28-.6c.4-.44 .56-1.52 .24-1.92c-.2-.24-.16-.56 .04-.68c.2-.08 .28,0 .28,.2c0,.4 .2,.24 .56-.36c.4-.76-.04-1.16-.8-.76c-.08,.04-.2,.04-.24,.04c-.04,0-.24,.04-.4,.08c-.32,.12-.36,.12-.48,.08c-.2-.12-.32-.08-.48,.2c-.2,.4-.44,.44-.44,.08c0-.2 0-.24 .24-.36c.08-.08 .2-.24 .28-.44c.24-.56 .4-.64 .72-.36c.32,.28 .6-.16 .36-.56c-.24-.52-.12-.6 .72-.56c1.08,.08 1.48,.72 .44,.76c-.4,0-.52,.16-.24,.36c.12,.04 .24,.12 .28,.2c.2,.16 .4,.04 .56-.28c.04-.12 .16-.32 .2-.4c.08-.08 .16-.28 .2-.44c.04-.2 .16-.48 .24-.64c.4-.76 .4-1.16 .04-1.24c-.08-.04-.16-.12-.16-.2c-.04-.08-.12-.24-.16-.36c-.16-.52-.12-.6 .32-.44c.2,.08 .28,.12 .4,.04c.4-.12 .92,.72 1.76,2.76c.2,.44 .28,.6 .68,1.36c.2,.36 .36,.72 .4,.84c.04,.24 .44,.72 .6,.72c.12,0 .4-.28 .32-.32c-.24-.08-.44-.24-.44-.36c0-.08-.04-.24-.08-.4c-.16-.44-.12-.48 .32-.48c.28,0 .32,0 .44-.12c.28-.24 .44-.12 .52,.28c.04,.08 .12,.2 .24,.28c.32,.2 .4,.32 .28,.72c-.08,.32-.08,.36 0,.6c.04,.16 .08,.36 .12,.44c.04,.24 .12,.32 .44,.44c.36,.16 .36,.24 .04,.64c-.36,.36-.4,.56-.16,.6c.6,.12 .64,.36 .04,.76c-.16,.08-.44-.04-.68-.32l-.28-.28c-.12-.04-.16-.16-.2-.32c0-.12-.08-.32-.16-.44c-.2-.28-.2-.32 0-.6c.16-.28 .12-.44-.24-.56c-.52-.16-.64,.04-.32,.64c.16,.32 .24,.56 .28,.76c0,.2 .04,.32 .16,.48c.12,.12 .24,.44 .32,.72c.08,.24 .24,.56 .32,.68c.08,.12 .28,.56 .4,.92c.12,.4 .28,.84 .36,1c.16,.28 .16,.4 .16,.76c0,.48 0,.48 .36,.8c.28,.24 .36,.36 .44,.6c.08,.2 .16,.36 .36,.56c.32,.28 .32,.36 .2,.76c-.12,.32-.08,.92 .08,1.12c.8,1.28 .92,1.32 .92,.48c0-.36-.04-.52-.16-.76c-.24-.44-.2-.72 .12-1.12c.28-.28 .2-.44-.48-.8c-.2-.16-.32-.44-.12-.4c.24,.04 .52-.04 .76-.24c.28-.24 .4-.24 .64,.16c.16,.2 .32,.36 .44,.44c.4,.16 .2,.84-.28,1c-.44,.12-.48,.36-.12,.68c.16,.16 .16,.32-.08,.6c-.24,.28-.24,.36 0,.72c.28,.4 .56,.28 .76-.32c.12-.28 .28-.2 .24,.16c0,.44 .04,.52 .24,.4c.4-.24 .92,.4 .6,.68c-.16,.2-.88,.04-1.08-.2c-.16-.2-.32-.16-.32,0c0,.28 .08,.4 .28,.36c.16-.04 .4,.04 .64,.24c.08,.04 .2,.12 .24,.12c.16,0 .16,.16 .04,.44c-.12,.24-.04,.32 .28,.32c.2,.04 .2,.04 .24,.24m-2.56-7.16c.4,.24 .2,.36-.72,.4c-.36,0-.72,.04-.8,.04c-.28,.08-.48-.16-.44-.56c.04-.24 .04-.36-.04-.52c-.04-.12-.08-.28-.08-.36c0-.2-.12-.32-.4-.36c-.2,0-.24-.28-.04-.52c.28-.24 .24-.4-.04-.68c-.28-.24-.24-.64 .08-.64c.04,0 .12-.04 .16-.08c.2-.2 .52,0 .6,.32c.04,.2 .12,.28 .4,.48c.36,.28 .4,.4 .32,.84c-.12,.56 .24,1.16 1,1.64m-14.32-2.04c.04,.08 .04,.2 .04,.2c-.12,.12-.64,.08-.72,0c-.16-.16-.16-.2 0-.48c.08-.12 .16-.32 .2-.44c.16-.48 .96-.8 1.24-.48c.16,.16 .04,.32-.32,.44c-.44,.16-.6,.4-.44,.76m4.44-8.64c.16,.2 .16,.32 0,.52c-.16,.28-.4,.24-.56-.08c-.04-.12-.16-.24-.28-.28c-.28-.16-.24-.32 .16-.6c.16-.08 .16-.08 0-.32c-.24-.44 .08-.8 .48-.48c.12,.08 .24,.16 .32,.16c.32,.12 .28,.36-.04,.52c-.28,.12-.32,.32-.08,.56m2.12-4.32c.68-.12 .88,.52 .28,.96c-.4,.32-.6,.24-.76-.24c-.04-.2-.08-.24-.28-.28c-.36-.12-.48-.4-.32-.76c.12-.28 .4-.28 .52-.04c.12,.24 .36,.4 .56,.36" letter-spacing="0"/>
</g>
<g fill="#80999e" word-spacing="0" letter-spacing="0" transform="matrix(.58375 0 0 .58375 -270.87573 -250.44982)">
<path fill="#80999e" d="m535.6414,473.6692c.08-.08 .16-.24 .2-.32c.04-.2 .04-.2 .24-.16c.12,0 .32,.04 .48,.04c.96,.16 .72,1.92-.28,2.16c-.16,.04-.36,.12-.52,.2c-.24,.12-.52,.12-.64,0c-.08-.04-.2-.08-.28-.08c-.88,0-1-1.64-.2-2.16c.4-.24 .84,.24 .56,.6c-.36,.44 .24,.64 .72,.24c.24-.2 .24-.2 .08-.24c-.08-.04-.2-.04-.28-.04c-.2,.04-.24-.08-.08-.24"/>
</g>
<g fill="#80999e" word-spacing="0" letter-spacing="0" transform="matrix(.58375 0 0 .58375 -258.01302 -250.15593)">
<path fill="#80999e" d="m535.6414,473.6692c.08-.08 .16-.24 .2-.32c.04-.2 .04-.2 .24-.16c.12,0 .32,.04 .48,.04c.96,.16 .72,1.92-.28,2.16c-.16,.04-.36,.12-.52,.2c-.24,.12-.52,.12-.64,0c-.08-.04-.2-.08-.28-.08c-.88,0-1-1.64-.2-2.16c.4-.24 .84,.24 .56,.6c-.36,.44 .24,.64 .72,.24c.24-.2 .24-.2 .08-.24c-.08-.04-.2-.04-.28-.04c-.2,.04-.24-.08-.08-.24"/>
</g>
<g fill="#80999e" word-spacing="0" letter-spacing="0" transform="matrix(1.20447 0 0 1.20447 -598.07817 -535.70382)">
<path fill="#80999e" d="m535.6414,473.6692c.08-.08 .16-.24 .2-.32c.04-.2 .04-.2 .24-.16c.12,0 .32,.04 .48,.04c.96,.16 .72,1.92-.28,2.16c-.16,.04-.36,.12-.52,.2c-.24,.12-.52,.12-.64,0c-.08-.04-.2-.08-.28-.08c-.88,0-1-1.64-.2-2.16c.4-.24 .84,.24 .56,.6c-.36,.44 .24,.64 .72,.24c.24-.2 .24-.2 .08-.24c-.08-.04-.2-.04-.28-.04c-.2,.04-.24-.08-.08-.24"/>
</g>
</svg>
