<?xml version="1.0" encoding="UTF-8" standalone="no"?>
<!-- Created with Inkscape (http://www.inkscape.org/) -->

<svg
   xmlns:dc="http://purl.org/dc/elements/1.1/"
   xmlns:cc="http://creativecommons.org/ns#"
   xmlns:rdf="http://www.w3.org/1999/02/22-rdf-syntax-ns#"
   xmlns:svg="http://www.w3.org/2000/svg"
   xmlns="http://www.w3.org/2000/svg"
   xmlns:sodipodi="http://sodipodi.sourceforge.net/DTD/sodipodi-0.dtd"
   xmlns:inkscape="http://www.inkscape.org/namespaces/inkscape"
   width="70"
   height="52.432949"
   id="svg3140"
   version="1.1"
   inkscape:version="0.48.4 r9939"
   sodipodi:docname="logo-nylnook.svg"
   inkscape:export-filename="/home/nylnook/Crea/nylnook/logo/logo-nylnook-HD.png"
   inkscape:export-xdpi="600.42859"
   inkscape:export-ydpi="600.42859">
  <defs
     id="defs3142" />
  <sodipodi:namedview
     id="base"
     pagecolor="#ffffff"
     bordercolor="#666666"
     borderopacity="1.0"
     inkscape:pageopacity="0.0"
     inkscape:pageshadow="2"
     inkscape:zoom="3.5352703"
     inkscape:cx="57.539791"
     inkscape:cy="18.397464"
     inkscape:document-units="px"
     inkscape:current-layer="layer1"
     showgrid="false"
     fit-margin-top="0"
     fit-margin-left="0"
     fit-margin-right="0"
     fit-margin-bottom="0"
     inkscape:window-width="1600"
     inkscape:window-height="1135"
     inkscape:window-x="0"
     inkscape:window-y="27"
     inkscape:window-maximized="1" />
  <metadata
     id="metadata3145">
    <rdf:RDF>
      <cc:Work
         rdf:about="">
        <dc:format>image/svg+xml</dc:format>
        <dc:type
           rdf:resource="http://purl.org/dc/dcmitype/StillImage" />
        <dc:title></dc:title>
      </cc:Work>
    </rdf:RDF>
  </metadata>
  <g
     inkscape:label="Calque 1"
     inkscape:groupmode="layer"
     id="layer1"
     transform="translate(-306.5685,-707.48526)">
    <path
       inkscape:connector-curvature="0"
       id="path5443"
       style="font-size:40px;font-style:normal;font-variant:normal;font-weight:500;font-stretch:normal;line-height:125%;letter-spacing:0px;word-spacing:0px;fill:#e6e6e6;fill-opacity:1;stroke:none;font-family:Sans Guilt LB;-inkscape-font-specification:Sans Guilt LB Medium"
       d="m 342.24225,707.77671 c 0.79389,-0.0726 1.66,-0.0726 1.80436,-0.1443 2.45395,-0.7218 3.60878,1.37134 1.5157,2.81483 -0.6496,0.43302 -0.86611,0.72174 -0.93832,1.51569 0,0.36088 -0.1443,0.6496 -0.36087,1.01047 -0.21651,0.28872 -0.43302,0.72174 -0.43302,1.01047 -0.14436,0.50517 -0.72175,1.73221 -1.08268,2.23738 -0.1443,0.21657 -0.28866,0.64959 -0.43302,0.86616 -0.28872,0.86611 -0.6496,1.58785 -1.01047,2.09303 -0.14436,0.28872 -0.43302,0.79401 -0.57738,1.22703 -0.14436,0.36088 -0.43308,0.86605 -0.57744,1.15477 -0.28867,0.43308 -0.43303,0.64965 -0.50524,1.15483 -0.0721,0.57744 -0.72174,2.09308 -1.08261,2.5261 -0.0722,0.0727 -0.21652,0.43314 -0.43303,0.86617 -0.14436,0.43302 -0.43308,1.01046 -0.57744,1.29918 -0.14435,0.28867 -0.28866,0.57739 -0.28866,0.64954 0,0.64959 -1.5157,3.60884 -2.16529,4.11407 -0.21652,0.21651 -0.28872,0.43303 -0.36088,0.93832 -0.0721,0.36087 -0.28871,0.86604 -0.43307,1.15476 -0.14431,0.28873 -0.28867,0.72175 -0.28867,1.08262 -0.0722,0.50518 -0.14436,0.6496 -0.57744,1.22698 -0.6496,0.93831 -0.6496,0.86616 -0.72174,1.51576 -0.28873,1.80436 -2.1653,2.74256 -3.39228,1.73221 -0.57738,-0.57745 0.21658,-2.02094 1.01047,-1.94878 0.57738,0.0726 1.01047,-0.28873 1.01047,-0.86611 0,-0.50523 0.21651,-1.29919 0.43308,-1.58791 0.43302,-0.57744 0.28866,-0.79389 -0.72181,-1.15477 -0.8661,-0.36087 -1.08261,-0.36087 -1.51563,0.28873 -0.43309,0.72174 -1.01047,0.50517 -1.01047,-0.36088 0,-0.21657 0.20081,-0.78222 0.12865,-0.99879 -0.0722,-0.21645 0.40156,-1.055 0.40156,-1.27157 0,-0.28872 0.95151,-0.50518 0.59064,-0.9382 0.84456,-1.67255 1.36918,-4.0965 3.06532,-6.31865 0.43307,-0.7939 0.64959,-1.08262 1.15482,-1.51564 1.22698,-0.93832 2.02093,-2.38186 1.5157,-2.67059 -0.50524,-0.28872 -0.50524,-0.57744 -0.0722,-1.44348 0.43302,-0.72175 0.57738,-0.86605 1.01046,-0.43303 0.21651,0.21646 0.36087,0.28872 0.64959,0.21646 0.72175,-0.21646 1.22698,-0.0726 1.01041,0.14441 -0.43302,0.43303 0.0721,0.57733 0.50524,0.21646 0.21657,-0.21646 0.50523,-0.36087 0.57744,-0.36087 0.36087,0 0.64959,-0.28861 0.57738,-0.57733 0,-0.21657 -0.0722,-0.21657 -0.36087,-0.21657 -0.86611,0.0717 -0.86611,0.0717 -0.93832,-0.28872 -0.28866,-0.93826 -0.43302,-1.08262 -1.0104,-0.72175 -1.29919,0.93832 -1.08268,-0.64953 0.64953,-4.33052 0.28872,-0.50523 0.57744,-1.22698 0.6496,-1.73227 0.14436,-0.43302 0.28872,-0.9382 0.43308,-1.15477 0.0721,-0.21657 0.21651,-0.50517 0.21651,-0.64959 0.21651,-0.9382 1.01047,-1.29913 2.95919,-1.37134 m -9.16629,20.0649 c 0.14436,-0.36088 0.0721,-0.86617 -0.21651,-1.01053 -0.28872,-0.1443 -0.50523,-0.1443 -0.64959,0.21657 -0.21651,0.36087 -0.30443,0.56945 -0.59315,0.35288 -0.26444,0.41463 -0.35591,0.51422 -0.12866,0.80195 0.14437,-0.0717 0.36088,-0.14442 0.6496,-0.0717 0.57738,0.0717 0.72175,0.0717 0.93825,-0.28872 m 1.3714,3.10355 c 0.0722,-1.08273 0,-1.22703 -0.57744,-1.4436 -0.64959,-0.21646 -0.86611,-0.21646 -1.29913,0.0726 -0.79395,0.43309 -0.86611,1.08268 -0.0722,1.08268 0.21656,0 0.36092,0.0726 0.57743,0.36087 1.22698,1.37134 1.29913,1.37134 1.37134,-0.0726 m -4.54709,4.18611 c 0.21656,0 0.50523,-0.0717 0.64959,-0.1443 0.64959,-0.36093 0.8661,0.21651 0.50523,1.01046 -0.28871,0.57733 -0.50523,0.6496 -1.01046,0.36088 -0.28873,-0.14442 -0.28873,-0.14442 -0.6496,0.21645 -0.28866,0.21657 -0.57738,0.36087 -0.79389,0.43314 -0.28872,0 -0.50524,0.1443 -0.6496,0.2886 -0.50522,0.5053 -0.79395,0.28873 -0.57738,-0.50517 0.36087,-0.7939 0.64953,-1.08262 1.29913,-1.15477 0.43308,0 0.64959,-0.0717 0.64959,-0.21657 0.0722,-0.1443 0.28872,-0.21651 0.57738,-0.28872 m -4.61924,5.48541 c 0.14436,-0.36087 0.36087,-0.86616 0.50523,-1.08267 0.28872,-0.50524 0.57744,-0.50524 0.86611,0 0.28872,0.43308 0.57744,0.57738 0.7218,0.36087 0.1443,-0.28867 0.43302,-0.14436 0.57738,0.28872 0.21651,0.57738 0.43303,0.7218 1.01047,0.7218 0.50523,0.0726 0.79389,0.36087 0.72174,0.64948 -0.0722,0.36087 0.14436,0.64959 0.50524,0.64959 0.72174,0 0.50523,1.01047 -0.28873,1.22704 -0.14436,0.0726 -0.36087,0 -0.64953,-0.28872 -0.50523,-0.43303 -0.79395,-0.43303 -1.08268,0.0726 -0.14436,0.43309 -0.43302,0.6496 -0.79389,0.57745 -0.0722,-0.0726 -0.36087,0 -0.64959,0.0727 -0.21657,0.0717 -0.6496,0.14431 -0.79396,0.21646 -0.50523,0.0726 -1.15483,0.79401 -1.15483,1.29918 0,0.21657 -0.0721,0.57745 -0.1443,0.7939 -0.28872,0.86616 0.50524,1.22704 1.22698,0.57744 0.72174,-0.57744 1.15483,-0.79389 2.74268,-1.29919 0.8661,-0.21645 1.22697,0.21658 0.57738,0.6496 -0.79395,0.57744 -0.8661,0.64959 -0.8661,1.29919 -0.0722,0.57738 -0.0722,0.57738 -0.50524,1.01046 -0.36087,0.36087 -0.50523,0.43308 -0.50523,0.7218 0,0.21646 -0.21651,0.86605 -0.50523,1.51564 -0.28872,0.6496 -0.6496,1.5878 -0.86611,2.02094 -0.14436,0.50517 -0.43302,1.0104 -0.57738,1.22697 -0.14436,0.21657 -0.28872,0.50529 -0.36087,0.72175 -0.0722,0.21657 -0.21658,0.50529 -0.36088,0.72174 -0.14436,0.14442 -0.36093,0.57744 -0.43308,1.01047 -0.50523,1.80436 -0.50523,1.80436 -1.15483,2.74273 -0.72174,1.01047 -0.8661,1.01047 -4.61924,0.43303 -0.43303,0 -0.93826,-0.0726 -1.15477,-0.14431 -0.57744,0 -0.72181,-0.36093 -0.36087,-1.37139 0.43302,-1.29919 1.0104,-1.87663 1.51564,-1.51576 0.36087,0.28872 0.64959,0.21657 1.22698,-0.36087 1.44354,-1.51564 1.66005,-2.09303 1.22703,-2.59826 -0.36087,-0.50523 -0.93831,-0.0717 -0.93831,0.72175 0,0.28872 -0.50524,0.79389 -0.86611,0.72174 -0.36087,0 -0.36087,-0.43302 0,-1.01047 0.14436,-0.21651 0.28872,-0.43302 0.28872,-0.50523 0,-0.21651 0.72175,-1.58791 1.37134,-2.59826 0.93826,-1.37133 1.01047,-1.51575 1.08262,-2.16535 0.0722,-0.64953 0.28872,-0.93825 0.8661,-1.0104 0.57744,-0.0726 0.57744,-0.0726 0.57744,-0.6496 0,-0.28872 0.0722,-0.64959 0.14431,-0.79389 0.0722,-0.14442 0.14436,-0.6496 0.14436,-1.22704 0.0722,-1.08262 0.21651,-1.5157 0.64959,-2.16529 0.43308,-0.57744 0.79395,-1.44349 1.08262,-2.23739 m -0.28867,7.93931 c -0.14436,0.0717 -0.50523,0 -0.79395,-0.0717 -1.08262,-0.28872 -1.01046,-0.28872 -1.44349,0.1443 -0.64959,0.72174 -0.57744,1.29919 0.21651,1.80436 0.21652,0.14442 0.50524,0.43314 0.57739,0.57744 0.36087,0.6496 0.64959,0.36088 0.79395,-0.57744 0.14436,-1.08262 0.28872,-1.44349 0.57739,-1.51564 0.14436,0 0.28872,-0.0717 0.28872,-0.21657 0,-0.1443 0,-0.1443 -0.21652,-0.1443"
       sodipodi:nodetypes="ccccccccccccccssccscccccssccssscccscscscsccccccccccsccccccccsccccccccscccccccccccsccccccssccccssscsscccccccccsccscssssccccccccccsc" />
    <text
       xml:space="preserve"
       style="font-size:23.34987259px;font-style:normal;font-variant:normal;font-weight:500;font-stretch:normal;line-height:125%;letter-spacing:0px;word-spacing:0px;fill:#3a4547;fill-opacity:1;stroke:none;font-family:Sans Guilt LB;-inkscape-font-specification:Sans Guilt LB Medium"
       x="305.72791"
       y="740.9118"
       id="text5445"
       sodipodi:linespacing="125%"><tspan
         style="font-size:23.34987259px;font-style:normal;font-variant:normal;font-weight:500;font-stretch:normal;letter-spacing:0px;fill:#3a4547;fill-opacity:1;font-family:Sans Guilt LB;-inkscape-font-specification:Sans Guilt LB Medium"
         sodipodi:role="line"
         id="tspan5447"
         x="305.72791"
         y="740.9118">ny<tspan
   style="letter-spacing:1.16749358px"
   id="tspan5449">l</tspan>nook</tspan></text>
    <g
       style="fill:#80999e;fill-opacity:1"
       transform="matrix(0.58374682,0,0,0.58374682,103.33782,253.2834)"
       id="g5451">
      <path
         inkscape:connector-curvature="0"
         id="path5453"
         style="font-size:40px;font-style:normal;font-variant:normal;font-weight:500;font-stretch:normal;line-height:125%;letter-spacing:0px;word-spacing:0px;fill:#80999e;fill-opacity:1;stroke:none;font-family:Sans Guilt LB;-inkscape-font-specification:Sans Guilt LB Medium"
         d="m 418.98779,811.58359 c 0.12,0.12 0.32,0.2 0.4,0.2 0.36,0.08 0.44,0.08 0.8,-0.24 0.56,-0.4 -0.12,-0.88 -0.8,-0.56 -0.24,0.12 -0.44,0.04 -0.52,-0.12 -0.04,-0.12 0.2,-0.32 0.36,-0.28 0.28,0.08 0.52,-0.16 0.6,-0.56 0.04,-0.24 0.16,-0.28 0.44,-0.16 0.32,0.16 0.32,0.16 0.44,0.04 0.16,-0.12 0.12,-0.24 -0.04,-0.24 -0.44,0 -0.92,-0.72 -0.72,-1.12 0.12,-0.2 0.08,-0.32 -0.24,-0.68 -0.12,-0.16 -0.24,-0.32 -0.28,-0.4 -0.2,-0.6 -0.84,0.6 -0.84,1.56 0,0.6 0,0.64 -0.16,0.84 -0.12,0.2 -0.16,0.36 -0.2,0.6 -0.04,0.2 -0.08,0.44 -0.08,0.6 -0.04,0.32 0.08,0.48 0.4,0.44 0.2,-0.04 0.28,-0.04 0.44,0.08 m 20.52,-1.24 c 0.04,0.08 0.12,0.24 0.16,0.28 0.16,0.12 0.12,0.12 0.44,0.04 0.4,-0.08 0.48,-0.2 0.24,-0.44 l -0.28,-0.4 c -0.04,-0.12 -0.16,-0.32 -0.24,-0.4 -0.2,-0.28 -0.2,-0.36 0,-0.6 0.24,-0.32 0.08,-1.04 -0.4,-1.72 -0.12,-0.2 -0.16,-0.32 -0.2,-0.72 -0.08,-0.64 -0.44,-1.44 -0.8,-1.68 -0.28,-0.2 -0.28,-0.2 -0.24,-0.56 0.04,-0.36 0.04,-0.36 -0.28,-1 -0.2,-0.36 -0.4,-0.84 -0.44,-1 -0.12,-0.44 -0.64,-1.48 -0.88,-1.8 -0.2,-0.24 -0.2,-0.32 -0.2,-0.6 0,-0.56 -0.28,-0.92 -0.68,-0.88 -0.2,0.04 -0.4,-0.04 -0.52,-0.28 -0.08,-0.16 0.04,-0.28 0.28,-0.28 0.36,0.04 0.4,-0.36 0,-0.48 -0.24,-0.08 -0.24,-0.16 -0.16,-0.52 0.08,-0.32 -0.12,-0.84 -0.52,-1.36 -0.2,-0.28 -0.2,-0.32 -0.16,-0.6 0.08,-0.72 -0.8,-2.44 -1.04,-2.08 -0.16,0.24 -0.2,0.24 -0.36,0.16 -0.4,-0.2 -0.4,-1 0,-1.08 0.16,-0.04 0.2,-0.4 0,-0.56 -0.12,-0.12 -0.12,-0.12 -0.16,0 -0.2,0.32 -0.48,0.4 -0.68,0.16 -0.2,-0.16 -0.2,-0.4 -0.04,-0.6 0.12,-0.16 0.32,-0.8 0.32,-1 0,-0.32 -0.52,-1.08 -0.68,-0.96 -0.24,0.28 -0.84,-0.04 -0.8,-0.4 0.12,-0.84 0.12,-1.2 -0.08,-1.2 -0.08,0 -0.24,-0.08 -0.32,-0.16 -0.08,-0.08 -0.28,-0.2 -0.44,-0.24 -0.28,-0.12 -0.28,-0.2 -0.16,-0.56 0.2,-0.44 0.4,-0.52 0.68,-0.24 0.36,0.4 0.48,0.12 0.16,-0.48 -0.16,-0.28 -0.2,-0.4 -0.2,-0.64 0,-0.92 -0.64,-1.88 -1.2,-1.72 -0.12,0.04 -0.28,0.04 -0.44,0 -0.72,-0.2 -1.12,-0.08 -1.2,0.36 -0.08,0.36 -0.32,1.08 -0.44,1.36 -0.16,0.32 -0.2,0.48 -0.12,0.72 0.16,0.28 0.12,0.4 -0.12,0.64 -0.12,0.16 -0.24,0.32 -0.24,0.4 -0.08,0.2 -0.36,0.96 -0.6,1.44 -0.08,0.2 -0.16,0.44 -0.16,0.56 0,0.12 -0.12,0.4 -0.32,0.8 -0.2,0.36 -0.36,0.76 -0.4,0.88 0,0.12 -0.08,0.36 -0.2,0.52 -0.08,0.12 -0.2,0.4 -0.24,0.56 -0.08,0.28 -0.24,0.76 -0.68,1.72 -0.12,0.28 -0.16,0.48 -0.2,0.96 -0.04,0.72 -0.04,0.8 -0.24,0.88 -0.24,0.12 -0.32,0.36 -0.32,1.04 -0.04,0.68 -0.12,0.84 -0.52,0.88 -0.48,0.08 -0.76,0.8 -0.64,1.52 0.04,0.52 0.04,0.52 -0.32,0.64 -0.36,0.12 -0.68,0.76 -0.6,1.28 0,0.24 0,0.28 -0.12,0.48 -0.52,0.76 -0.52,0.84 -0.32,1.2 0.16,0.36 0.12,0.6 -0.16,0.92 -0.24,0.28 -0.28,0.4 -0.28,0.68 0,0.28 0,0.28 -0.48,0.4 -0.2,0.08 -0.28,0.28 -0.16,0.52 0.08,0.24 0.24,0.24 0.64,0.04 0.48,-0.28 0.52,-0.16 0.32,0.6 -0.04,0.24 -0.16,0.28 -0.28,0.16 -0.16,-0.12 -0.84,-0.28 -0.96,-0.2 -0.36,0.24 -0.6,1.68 -0.28,1.56 0.28,-0.08 0.48,-0.28 0.52,-0.52 0,-0.2 0.08,-0.24 0.36,-0.44 0.48,-0.32 0.56,-0.28 0.68,0.24 0.04,0.44 0.08,0.48 0.4,0.36 0.56,-0.2 0.8,-0.72 0.56,-1.16 -0.16,-0.32 0,-0.6 0.2,-0.28 0,0.04 0.12,0.12 0.24,0.16 0.12,0.04 0.24,0.2 0.32,0.36 0.24,0.44 1,-0.76 0.76,-1.28 -0.04,-0.12 -0.04,-0.16 0.16,-0.32 0.12,-0.12 0.2,-0.24 0.24,-0.44 0,-0.16 0.12,-0.4 0.24,-0.6 0.12,-0.2 0.28,-0.52 0.36,-0.68 0.08,-0.2 0.24,-0.56 0.36,-0.76 0.12,-0.28 0.2,-0.48 0.24,-0.8 0.04,-0.32 0.08,-0.56 0.24,-0.84 0.12,-0.24 0.2,-0.48 0.2,-0.6 0,-0.24 0.08,-0.36 0.28,-0.6 0.4,-0.44 0.56,-1.52 0.24,-1.92 -0.2,-0.24 -0.16,-0.56 0.04,-0.68 0.2,-0.08 0.28,0 0.28,0.2 0,0.4 0.2,0.24 0.56,-0.36 0.4,-0.76 -0.04,-1.16 -0.8,-0.76 -0.08,0.04 -0.2,0.04 -0.24,0.04 -0.04,0 -0.24,0.04 -0.4,0.08 -0.32,0.12 -0.36,0.12 -0.48,0.08 -0.2,-0.12 -0.32,-0.08 -0.48,0.2 -0.2,0.4 -0.44,0.44 -0.44,0.08 0,-0.2 0,-0.24 0.24,-0.36 0.08,-0.08 0.2,-0.24 0.28,-0.44 0.24,-0.56 0.4,-0.64 0.72,-0.36 0.32,0.28 0.6,-0.16 0.36,-0.56 -0.24,-0.52 -0.12,-0.6 0.72,-0.56 1.08,0.08 1.48,0.72 0.44,0.76 -0.4,0 -0.52,0.16 -0.24,0.36 0.12,0.04 0.24,0.12 0.28,0.2 0.2,0.16 0.4,0.04 0.56,-0.28 0.04,-0.12 0.16,-0.32 0.2,-0.4 0.08,-0.08 0.16,-0.28 0.2,-0.44 0.04,-0.2 0.16,-0.48 0.24,-0.64 0.4,-0.76 0.4,-1.16 0.04,-1.24 -0.08,-0.04 -0.16,-0.12 -0.16,-0.2 -0.04,-0.08 -0.12,-0.24 -0.16,-0.36 -0.16,-0.52 -0.12,-0.6 0.32,-0.44 0.2,0.08 0.28,0.12 0.4,0.04 0.4,-0.12 0.92,0.72 1.76,2.76 0.2,0.44 0.28,0.6 0.68,1.36 0.2,0.36 0.36,0.72 0.4,0.84 0.04,0.24 0.44,0.72 0.6,0.72 0.12,0 0.4,-0.28 0.32,-0.32 -0.24,-0.08 -0.44,-0.24 -0.44,-0.36 0,-0.08 -0.04,-0.24 -0.08,-0.4 -0.16,-0.44 -0.12,-0.48 0.32,-0.48 0.28,0 0.32,0 0.44,-0.12 0.28,-0.24 0.44,-0.12 0.52,0.28 0.04,0.08 0.12,0.2 0.24,0.28 0.32,0.2 0.4,0.32 0.28,0.72 -0.08,0.32 -0.08,0.36 0,0.6 0.04,0.16 0.08,0.36 0.12,0.44 0.04,0.24 0.12,0.32 0.44,0.44 0.36,0.16 0.36,0.24 0.04,0.64 -0.36,0.36 -0.4,0.56 -0.16,0.6 0.6,0.12 0.64,0.36 0.04,0.76 -0.16,0.08 -0.44,-0.04 -0.68,-0.32 l -0.28,-0.28 c -0.12,-0.04 -0.16,-0.16 -0.2,-0.32 0,-0.12 -0.08,-0.32 -0.16,-0.44 -0.2,-0.28 -0.2,-0.32 0,-0.6 0.16,-0.28 0.12,-0.44 -0.24,-0.56 -0.52,-0.16 -0.64,0.04 -0.32,0.64 0.16,0.32 0.24,0.56 0.28,0.76 0,0.2 0.04,0.32 0.16,0.48 0.12,0.12 0.24,0.44 0.32,0.72 0.08,0.24 0.24,0.56 0.32,0.68 0.08,0.12 0.28,0.56 0.4,0.92 0.12,0.4 0.28,0.84 0.36,1 0.16,0.28 0.16,0.4 0.16,0.76 0,0.48 0,0.48 0.36,0.8 0.28,0.24 0.36,0.36 0.44,0.6 0.08,0.2 0.16,0.36 0.36,0.56 0.32,0.28 0.32,0.36 0.2,0.76 -0.12,0.32 -0.08,0.92 0.08,1.12 0.8,1.28 0.92,1.32 0.92,0.48 0,-0.36 -0.04,-0.52 -0.16,-0.76 -0.24,-0.44 -0.2,-0.72 0.12,-1.12 0.28,-0.28 0.2,-0.44 -0.48,-0.8 -0.2,-0.16 -0.32,-0.44 -0.12,-0.4 0.24,0.04 0.52,-0.04 0.76,-0.24 0.28,-0.24 0.4,-0.24 0.64,0.16 0.16,0.2 0.32,0.36 0.44,0.44 0.4,0.16 0.2,0.84 -0.28,1 -0.44,0.12 -0.48,0.36 -0.12,0.68 0.16,0.16 0.16,0.32 -0.08,0.6 -0.24,0.28 -0.24,0.36 0,0.72 0.28,0.4 0.56,0.28 0.76,-0.32 0.12,-0.28 0.28,-0.2 0.24,0.16 0,0.44 0.04,0.52 0.24,0.4 0.4,-0.24 0.92,0.4 0.6,0.68 -0.16,0.2 -0.88,0.04 -1.08,-0.2 -0.16,-0.2 -0.32,-0.16 -0.32,0 0,0.28 0.08,0.4 0.28,0.36 0.16,-0.04 0.4,0.04 0.64,0.24 0.08,0.04 0.2,0.12 0.24,0.12 0.16,0 0.16,0.16 0.04,0.44 -0.12,0.24 -0.04,0.32 0.28,0.32 0.2,0.04 0.2,0.04 0.24,0.24 m -2.56,-7.16 c 0.4,0.24 0.2,0.36 -0.72,0.4 -0.36,0 -0.72,0.04 -0.8,0.04 -0.28,0.08 -0.48,-0.16 -0.44,-0.56 0.04,-0.24 0.04,-0.36 -0.04,-0.52 -0.04,-0.12 -0.08,-0.28 -0.08,-0.36 0,-0.2 -0.12,-0.32 -0.4,-0.36 -0.2,0 -0.24,-0.28 -0.04,-0.52 0.28,-0.24 0.24,-0.4 -0.04,-0.68 -0.28,-0.24 -0.24,-0.64 0.08,-0.64 0.04,0 0.12,-0.04 0.16,-0.08 0.2,-0.2 0.52,0 0.6,0.32 0.04,0.2 0.12,0.28 0.4,0.48 0.36,0.28 0.4,0.4 0.32,0.84 -0.12,0.56 0.24,1.16 1,1.64 m -14.32,-2.04 c 0.04,0.08 0.04,0.2 0.04,0.2 -0.12,0.12 -0.64,0.08 -0.72,0 -0.16,-0.16 -0.16,-0.2 0,-0.48 0.08,-0.12 0.16,-0.32 0.2,-0.44 0.16,-0.48 0.96,-0.8 1.24,-0.48 0.16,0.16 0.04,0.32 -0.32,0.44 -0.44,0.16 -0.6,0.4 -0.44,0.76 m 4.44,-8.64 c 0.16,0.2 0.16,0.32 0,0.52 -0.16,0.28 -0.4,0.24 -0.56,-0.08 -0.04,-0.12 -0.16,-0.24 -0.28,-0.28 -0.28,-0.16 -0.24,-0.32 0.16,-0.6 0.16,-0.08 0.16,-0.08 0,-0.32 -0.24,-0.44 0.08,-0.8 0.48,-0.48 0.12,0.08 0.24,0.16 0.32,0.16 0.32,0.12 0.28,0.36 -0.04,0.52 -0.28,0.12 -0.32,0.32 -0.08,0.56 m 2.12,-4.32 c 0.68,-0.12 0.88,0.52 0.28,0.96 -0.4,0.32 -0.6,0.24 -0.76,-0.24 -0.04,-0.2 -0.08,-0.24 -0.28,-0.28 -0.36,-0.12 -0.48,-0.4 -0.32,-0.76 0.12,-0.28 0.4,-0.28 0.52,-0.04 0.12,0.24 0.36,0.4 0.56,0.36" />
      <g
         transform="translate(-115.88081,349.0418)"
         id="g5455"
         style="font-size:40px;font-style:normal;font-variant:normal;font-weight:500;font-stretch:normal;line-height:125%;letter-spacing:0px;word-spacing:0px;fill:#80999e;fill-opacity:1;stroke:none;font-family:Sans Guilt LB;-inkscape-font-specification:Sans Guilt LB Medium">
        <path
           sodipodi:nodetypes="cccccscsccsccc"
           inkscape:connector-curvature="0"
           id="path5457"
           style="fill:#80999e;fill-opacity:1;font-family:Sans Guilt LB;-inkscape-font-specification:Sans Guilt LB Medium"
           d="m 535.64145,473.66924 c 0.08,-0.08 0.16,-0.24 0.2,-0.32 0.04,-0.2 0.04,-0.2 0.24,-0.16 0.12,0 0.32,0.04 0.48,0.04 0.95999,0.16 0.71999,1.92 -0.28,2.16 -0.16,0.04 -0.36,0.12 -0.52,0.2 -0.24,0.12 -0.52,0.12 -0.64,0 -0.08,-0.04 -0.2,-0.08 -0.28,-0.08 -0.88,0 -1,-1.64 -0.2,-2.16 0.39999,-0.24 0.84,0.24 0.56,0.6 -0.36,0.44 0.24,0.64 0.72,0.24 0.24,-0.2 0.24,-0.2 0.08,-0.24 -0.08,-0.04 -0.2,-0.04 -0.28,-0.04 -0.2,0.04 -0.24,-0.08 -0.08,-0.24" />
      </g>
      <g
         transform="translate(-93.84606,349.54525)"
         id="g5459"
         style="font-size:40px;font-style:normal;font-variant:normal;font-weight:500;font-stretch:normal;line-height:125%;letter-spacing:0px;word-spacing:0px;fill:#80999e;fill-opacity:1;stroke:none;font-family:Sans Guilt LB;-inkscape-font-specification:Sans Guilt LB Medium">
        <path
           sodipodi:nodetypes="cccccscsccsccc"
           inkscape:connector-curvature="0"
           id="path5461"
           style="fill:#80999e;fill-opacity:1;font-family:Sans Guilt LB;-inkscape-font-specification:Sans Guilt LB Medium"
           d="m 535.64145,473.66924 c 0.08,-0.08 0.16,-0.24 0.2,-0.32 0.04,-0.2 0.04,-0.2 0.24,-0.16 0.12,0 0.32,0.04 0.48,0.04 0.95999,0.16 0.71999,1.92 -0.28,2.16 -0.16,0.04 -0.36,0.12 -0.52,0.2 -0.24,0.12 -0.52,0.12 -0.64,0 -0.08,-0.04 -0.2,-0.08 -0.28,-0.08 -0.88,0 -1,-1.64 -0.2,-2.16 0.39999,-0.24 0.84,0.24 0.56,0.6 -0.36,0.44 0.24,0.64 0.72,0.24 0.24,-0.2 0.24,-0.2 0.08,-0.24 -0.08,-0.04 -0.2,-0.04 -0.28,-0.04 -0.2,0.04 -0.24,-0.08 -0.08,-0.24" />
      </g>
      <g
         style="font-size:40px;font-style:normal;font-variant:normal;font-weight:500;font-stretch:normal;line-height:125%;letter-spacing:0px;word-spacing:0px;fill:#80999e;fill-opacity:1;stroke:none;font-family:Sans Guilt LB;-inkscape-font-specification:Sans Guilt LB Medium"
         id="g5463"
         transform="matrix(2.0633352,0,0,2.0633352,-676.40195,-139.61868)">
        <path
           d="m 535.64145,473.66924 c 0.08,-0.08 0.16,-0.24 0.2,-0.32 0.04,-0.2 0.04,-0.2 0.24,-0.16 0.12,0 0.32,0.04 0.48,0.04 0.95999,0.16 0.71999,1.92 -0.28,2.16 -0.16,0.04 -0.36,0.12 -0.52,0.2 -0.24,0.12 -0.52,0.12 -0.64,0 -0.08,-0.04 -0.2,-0.08 -0.28,-0.08 -0.88,0 -1,-1.64 -0.2,-2.16 0.39999,-0.24 0.84,0.24 0.56,0.6 -0.36,0.44 0.24,0.64 0.72,0.24 0.24,-0.2 0.24,-0.2 0.08,-0.24 -0.08,-0.04 -0.2,-0.04 -0.28,-0.04 -0.2,0.04 -0.24,-0.08 -0.08,-0.24"
           style="fill:#80999e;fill-opacity:1;font-family:Sans Guilt LB;-inkscape-font-specification:Sans Guilt LB Medium"
           id="path5465"
           inkscape:connector-curvature="0"
           sodipodi:nodetypes="cccccscsccsccc" />
      </g>
    </g>
  </g>
</svg>
