<?xml version="1.0" encoding="UTF-8" standalone="no"?>
<!-- Created with Inkscape (http://www.inkscape.org/) -->

<svg
   xmlns:dc="http://purl.org/dc/elements/1.1/"
   xmlns:cc="http://creativecommons.org/ns#"
   xmlns:rdf="http://www.w3.org/1999/02/22-rdf-syntax-ns#"
   xmlns:svg="http://www.w3.org/2000/svg"
   xmlns="http://www.w3.org/2000/svg"
   xmlns:sodipodi="http://sodipodi.sourceforge.net/DTD/sodipodi-0.dtd"
   xmlns:inkscape="http://www.inkscape.org/namespaces/inkscape"
   width="53"
   height="33"
   id="svg3140"
   version="1.1"
   inkscape:version="0.91 r13725"
   sodipodi:docname="logo-nylnook-comic.svg"
   inkscape:export-filename="/home/nylnook/Crea/nylnook-website/src/files/website-img/logo-nylnook-comic.png"
   inkscape:export-xdpi="90"
   inkscape:export-ydpi="90">
  <sodipodi:namedview
     id="base"
     pagecolor="#ffffff"
     bordercolor="#666666"
     borderopacity="1.0"
     inkscape:pageopacity="0.0"
     inkscape:pageshadow="2"
     inkscape:zoom="2.9685287"
     inkscape:cx="78.963532"
     inkscape:cy="6.4895403"
     inkscape:document-units="px"
     inkscape:current-layer="layer1"
     showgrid="false"
     fit-margin-top="0"
     fit-margin-left="0"
     fit-margin-right="0"
     fit-margin-bottom="0"
     inkscape:window-width="2560"
     inkscape:window-height="1381"
     inkscape:window-x="0"
     inkscape:window-y="27"
     inkscape:window-maximized="1" />
  <defs
     id="defs3142" />
  <metadata
     id="metadata3145">
    <rdf:RDF>
      <cc:Work
         rdf:about="">
        <dc:format>image/svg+xml</dc:format>
        <dc:type
           rdf:resource="http://purl.org/dc/dcmitype/StillImage" />
        <dc:title></dc:title>
      </cc:Work>
    </rdf:RDF>
  </metadata>
  <g
     transform="translate(-306.5685,-726.91821)"
     id="layer1"
     inkscape:groupmode="layer"
     inkscape:label="Calque 1">
    <g
       id="g4188"
       transform="matrix(0.74380711,0,0,0.74380711,106.63225,206.83389)">
      <g
         inkscape:label="Calque 1"
         id="layer1-7"
         transform="matrix(0.78697379,0,0,0.78697379,-116.84551,448.67427)">
        <g
           id="g3457"
           transform="translate(-174.28659,-2376.0361)">
          <path
             inkscape:connector-curvature="0"
             id="path5475"
             style="font-style:normal;font-variant:normal;font-weight:500;font-stretch:normal;font-size:40px;line-height:125%;font-family:'Sans Guilt LB';-inkscape-font-specification:'Sans Guilt LB Medium';letter-spacing:0px;word-spacing:0px;fill:#ececec;fill-opacity:1;stroke:none"
             d="m 835.40865,2702.3958 c 1.50787,-0.1379 3.1529,-0.1379 3.42709,-0.2741 4.66088,-1.3709 6.85428,2.6046 2.87882,5.3463 -1.2338,0.8225 -1.64503,1.3708 -1.78218,2.8788 0,0.6855 -0.27408,1.2338 -0.68541,1.9192 -0.41123,0.5484 -0.82246,1.3709 -0.82246,1.9193 -0.27419,0.9595 -1.37084,3.29 -2.05637,4.2495 -0.27407,0.4113 -0.54826,1.2338 -0.82245,1.6451 -0.54838,1.6451 -1.2338,3.0159 -1.91922,3.9754 -0.27419,0.5484 -0.82245,1.5081 -1.09664,2.3306 -0.27419,0.6854 -0.82257,1.6449 -1.09676,2.1932 -0.54827,0.8226 -0.82246,1.234 -0.95961,2.1934 -0.13704,1.0968 -1.37083,3.9755 -2.05625,4.798 -0.13704,0.138 -0.41123,0.8226 -0.82246,1.6451 -0.27419,0.8225 -0.82256,1.9192 -1.09675,2.4676 -0.27419,0.5483 -0.54827,1.0966 -0.54827,1.2337 0,1.2338 -2.87882,6.8544 -4.11262,7.814 -0.41123,0.4112 -0.54838,0.8224 -0.68542,1.7822 -0.13704,0.6854 -0.54838,1.6449 -0.82256,2.1933 -0.27408,0.5483 -0.54827,1.3708 -0.54827,2.0562 -0.13704,0.9595 -0.27419,1.2338 -1.09676,2.3305 -1.2338,1.7821 -1.2338,1.6451 -1.37083,2.8789 -0.54838,3.4271 -4.11262,5.209 -6.44306,3.29 -1.09665,-1.0967 0.41134,-3.8384 1.91921,-3.7014 1.09665,0.138 1.91921,-0.5483 1.91921,-1.645 0,-0.9596 0.41123,-2.4676 0.82257,-3.0159 0.82246,-1.0968 0.54827,-1.5079 -1.37094,-2.1933 -1.64503,-0.6855 -2.05626,-0.6855 -2.87871,0.5483 -0.82257,1.3709 -1.91922,0.9595 -1.91922,-0.6854 0,-0.4113 0.3814,-1.4857 0.24437,-1.897 -0.13715,-0.4111 0.76269,-2.0038 0.76269,-2.4152 0,-0.5483 1.80723,-0.9595 1.12182,-1.7819 1.60411,-3.1768 2.60053,-7.7807 5.82206,-12.0013 0.82256,-1.5078 1.23379,-2.0562 2.1934,-2.8787 2.33044,-1.7821 3.83843,-4.5239 2.87882,-5.0723 -0.95961,-0.5484 -0.95961,-1.0968 -0.13704,-2.7417 0.82246,-1.3708 1.09665,-1.6449 1.91921,-0.8224 0.41123,0.4111 0.68542,0.5483 1.2338,0.4111 1.37084,-0.4111 2.33044,-0.1379 1.9191,0.2743 -0.82245,0.8224 0.13704,1.0965 0.95961,0.4111 0.41134,-0.4111 0.95961,-0.6854 1.09676,-0.6854 0.68542,0 1.23379,-0.5482 1.09664,-1.0966 0,-0.4113 -0.13704,-0.4113 -0.68541,-0.4113 -1.64503,0.1362 -1.64503,0.1362 -1.78218,-0.5484 -0.54827,-1.782 -0.82246,-2.0562 -1.9191,-1.3708 -2.46759,1.7822 -2.05637,-1.2337 1.23368,-8.2251 0.54838,-0.9596 1.09676,-2.3305 1.2338,-3.2902 0.27419,-0.8224 0.54838,-1.7819 0.82257,-2.1933 0.13704,-0.4113 0.41123,-0.9595 0.41123,-1.2338 0.41122,-1.7819 1.91921,-2.4675 5.62049,-2.6046 m -17.40986,38.11 c 0.27419,-0.6855 0.13704,-1.6452 -0.41122,-1.9194 -0.54838,-0.274 -0.95961,-0.274 -1.2338,0.4114 -0.41123,0.6854 -0.5782,1.0815 -1.12658,0.6702 -0.50226,0.7875 -0.676,0.9767 -0.24437,1.5232 0.27419,-0.1362 0.68542,-0.2743 1.2338,-0.1362 1.09665,0.1362 1.37083,0.1362 1.78206,-0.5483 m 2.60475,5.8946 c 0.13704,-2.0564 0,-2.3305 -1.09676,-2.7419 -1.2338,-0.4111 -1.64503,-0.4111 -2.46748,0.138 -1.50799,0.8225 -1.64503,2.0563 -0.13715,2.0563 0.41134,0 0.68553,0.138 1.09675,0.6855 2.33045,2.6046 2.46749,2.6046 2.60464,-0.138 m -8.63647,7.9508 c 0.41134,0 0.95961,-0.1361 1.2338,-0.274 1.2338,-0.6856 1.64502,0.4112 0.95961,1.9192 -0.54838,1.0965 -0.95961,1.2338 -1.91922,0.6854 -0.54838,-0.2743 -0.54838,-0.2743 -1.23379,0.4111 -0.54827,0.4114 -1.09665,0.6854 -1.50788,0.8227 -0.54838,0 -0.95961,0.2741 -1.23379,0.5482 -0.95961,0.9597 -1.50799,0.5483 -1.09665,-0.9595 0.68542,-1.5079 1.23368,-2.0563 2.46748,-2.1933 0.82257,0 1.2338,-0.1362 1.2338,-0.4114 0.13704,-0.2741 0.54838,-0.4112 1.09664,-0.5484 m -8.7735,10.4187 c 0.27419,-0.6854 0.68542,-1.6452 0.95961,-2.0564 0.54838,-0.9596 1.09675,-0.9596 1.64502,0 0.54838,0.8226 1.09676,1.0967 1.37095,0.6854 0.27408,-0.5482 0.82246,-0.2742 1.09665,0.5484 0.41122,1.0967 0.82245,1.371 1.91921,1.371 0.95961,0.1379 1.50787,0.6854 1.37083,1.2335 -0.13703,0.6855 0.27419,1.2338 0.95961,1.2338 1.37084,0 0.95961,1.9192 -0.54838,2.3306 -0.27419,0.1379 -0.68541,0 -1.23368,-0.5484 -0.95961,-0.8224 -1.50799,-0.8224 -2.05637,0.1379 -0.27419,0.8226 -0.82245,1.2338 -1.50787,1.0968 -0.13704,-0.1379 -0.68542,0 -1.2338,0.138 -0.41134,0.1362 -1.23379,0.2741 -1.50798,0.4111 -0.95961,0.138 -2.19341,1.5081 -2.19341,2.4676 0,0.4114 -0.13704,1.0968 -0.27407,1.5079 -0.54838,1.6452 0.9596,2.3306 2.33044,1.0968 1.37083,-1.0968 2.1934,-1.5079 5.20926,-2.4676 1.64503,-0.4111 2.33044,0.4113 1.09665,1.2338 -1.50799,1.0967 -1.64503,1.2338 -1.64503,2.4676 -0.13704,1.0966 -0.13704,1.0966 -0.9596,1.9192 -0.68542,0.6854 -0.95961,0.8225 -0.95961,1.3709 0,0.4111 -0.41123,1.6449 -0.95961,2.8787 -0.54838,1.2338 -1.23379,3.0158 -1.64502,3.8385 -0.27419,0.9595 -0.82246,1.9191 -1.09665,2.3304 -0.27419,0.4113 -0.54838,0.9597 -0.68542,1.3708 -0.13704,0.4114 -0.41134,0.9598 -0.68541,1.3709 -0.27419,0.2743 -0.68553,1.0967 -0.82257,1.9192 -0.95961,3.4271 -0.95961,3.4271 -2.19341,5.2094 -1.37083,1.9192 -1.64502,1.9192 -8.7735,0.8224 -0.82245,0 -1.78206,-0.1379 -2.19329,-0.2741 -1.09676,0 -1.37095,-0.6855 -0.68542,-2.6047 0.82246,-2.4676 1.91911,-3.5643 2.87871,-2.8789 0.68542,0.5484 1.2338,0.4113 2.33044,-0.6854 2.74179,-2.8788 3.15301,-3.9754 2.33056,-4.935 -0.68542,-0.9596 -1.78218,-0.1362 -1.78218,1.3708 0,0.5484 -0.9596,1.5079 -1.64502,1.3709 -0.68542,0 -0.68542,-0.8225 0,-1.9193 0.27419,-0.4112 0.54838,-0.8224 0.54838,-0.9596 0,-0.4112 1.37083,-3.0159 2.60463,-4.9349 1.78206,-2.6047 1.91921,-2.879 2.05625,-4.1128 0.13704,-1.2336 0.54838,-1.782 1.64503,-1.9191 1.09675,-0.1379 1.09675,-0.1379 1.09675,-1.2337 0,-0.5484 0.13704,-1.2338 0.27408,-1.5079 0.13715,-0.2743 0.27419,-1.2338 0.27419,-2.3306 0.13704,-2.0562 0.41123,-2.8788 1.2338,-4.1126 0.82257,-1.0968 1.50798,-2.7417 2.05625,-4.2495 m -0.54827,15.0794 c -0.27419,0.1361 -0.9596,0 -1.50798,-0.1362 -2.05626,-0.5484 -1.91922,-0.5484 -2.74167,0.2741 -1.2338,1.3708 -1.09676,2.4676 0.41123,3.4271 0.41122,0.2743 0.9596,0.8227 1.09664,1.0967 0.68542,1.2338 1.2338,0.6855 1.50799,-1.0967 0.27419,-2.0563 0.54838,-2.7417 1.09664,-2.8787 0.27419,0 0.54838,-0.1362 0.54838,-0.4114 0,-0.274 0,-0.274 -0.41123,-0.274"
             sodipodi:nodetypes="ccccccccccccccssccscccccssccssscccscscscsccccccccccsccccccccsccccccccscccccccccccsccccccssccccssscsscccccccccsccscssssccccccccccsc" />
        </g>
      </g>
    </g>
    <g
       id="g4401"
       transform="matrix(0.82047139,0,0,0.82047139,53.773363,136.2959)">
      <path
         inkscape:connector-curvature="0"
         id="path3395"
         style="font-style:normal;font-variant:normal;font-weight:500;font-stretch:normal;font-size:40px;line-height:125%;font-family:'Sans Guilt LB';-inkscape-font-specification:'Sans Guilt LB Medium';letter-spacing:0px;word-spacing:0px;fill:#3a4547;fill-opacity:1;stroke:none"
         d="m 740.19548,2721.0959 c 0.13304,-0.044 0.31044,-0.133 0.44349,-0.133 0.79829,-0.1774 1.95137,0 2.43921,0.3548 0.26609,0.1774 0.39914,0.2217 0.53219,0.2217 0.62089,-0.1774 0.93133,-0.133 1.90702,0.3105 1.06438,0.4435 1.10873,0.4878 1.41917,0.8426 0.13305,0.1774 0.3548,0.3548 0.48785,0.3992 0.62089,0.2661 0.97568,0.5322 1.55222,1.2417 0.44349,0.5766 0.48784,0.6653 0.44349,1.0201 -0.0444,0.2661 -0.0444,0.3104 0.2661,0.6209 0.17739,0.1774 0.31044,0.3104 0.31044,0.3548 0,0.044 0.13305,0.133 0.31045,0.2217 0.13304,0.089 0.26609,0.2218 0.26609,0.2661 0,0.089 -0.17739,0.2217 -0.31044,0.1774 -0.0444,0 -0.1774,0 -0.2661,0.089 -0.17739,0.089 -0.17739,0.089 -0.44349,-0.1774 -0.39914,-0.3991 -0.93133,-0.2661 -0.70959,0.1774 0.1774,0.4878 0.13305,0.5765 -0.26609,0.5765 -0.1774,0 -0.4435,0 -0.62089,0.089 -0.53219,0.2218 -0.93134,-0.5765 -0.4435,-1.02 0.1774,-0.1774 0.1774,-0.1774 0,-0.3991 -0.22174,-0.1774 -0.22174,-0.2661 -0.0444,-0.3992 0.1774,-0.1774 0.13305,-0.3548 -0.0887,-0.3548 -0.1774,0 -0.1774,0 -0.1774,0.3105 0,0.3104 -0.0444,0.3548 -0.1774,0.3991 -0.17739,0 -0.79828,-0.2217 -0.97568,-0.3991 -0.0887,-0.089 -0.2661,-0.1331 -0.44349,-0.1774 -0.2661,-0.044 -0.39915,-0.089 -0.62089,-0.3105 -0.13305,-0.133 -0.31045,-0.2217 -0.3548,-0.2217 -0.0444,0 -0.17739,-0.089 -0.26609,-0.1331 -0.0887,-0.089 -0.3548,-0.1774 -0.62089,-0.2217 -0.66524,-0.1331 -0.75394,-0.2218 -0.75394,-0.5766 0,-0.4878 -0.22175,-0.5321 -0.62089,-0.133 -0.31044,0.3104 -0.88698,0.3104 -1.64092,-0.044 -0.0887,-0.044 -0.22175,-0.089 -0.3548,-0.089 -0.13304,0 -0.13304,0 0,-0.089 0.75394,-0.3992 0.31045,-1.0644 -0.70958,-1.0201 -0.31045,0 -0.70959,0 -0.88699,-0.044 -0.26609,-0.044 -0.88698,0.3548 -1.19743,0.7539 -0.0444,0.1331 -0.1774,0.1774 -0.35479,0.2218 -0.2661,0.089 -0.31045,0.133 -0.4435,0.3991 -0.13304,0.3104 -0.26609,0.3548 -0.35479,0.133 -0.0444,-0.044 -0.1774,-0.089 -0.35479,-0.133 -0.22175,0 -0.2661,-0.044 -0.3548,-0.2661 -0.22174,-0.4878 -0.93133,-0.5322 -0.93133,-0.089 0,0.3104 -0.1774,0.5322 -0.44349,0.4435 -0.2661,-0.044 -0.39915,0.1774 -0.39915,0.5765 0,0.3105 -0.13305,0.3992 -0.39914,0.3105 -0.0444,0 -0.1774,-0.044 -0.22175,-0.044 -0.17739,-0.044 -0.31044,0.1331 -0.31044,0.4435 0,0.5322 -0.2661,0.754 -0.57654,0.4435 -0.3548,-0.3548 0.66524,-1.774 1.55222,-2.1287 0.3548,-0.1331 0.44349,-0.2218 0.57654,-0.3992 0.13305,-0.2661 0.39915,-0.4878 0.57654,-0.4878 0.0444,0 0.2661,-0.1774 0.44349,-0.3548 0.2661,-0.3105 0.3548,-0.3548 0.48785,-0.3105 0.35479,0.1331 0.39914,0.089 0.57654,-0.1774 0.13304,-0.2217 0.22174,-0.2661 0.44349,-0.3104 0.1774,0 0.39914,-0.1331 0.57654,-0.2218 0.1774,-0.089 0.48784,-0.1774 0.84264,-0.2217 0.31044,-0.044 0.66523,-0.1331 0.79828,-0.1774 0.13305,-0.089 0.31045,-0.089 0.48784,-0.089 0.13305,0.044 0.2661,0 0.39915,-0.044 m -5.27756,4.5237 c -0.22175,-0.044 -0.3548,-0.1331 -0.3548,-0.2661 0,-0.1774 0.1774,-0.1774 0.48784,0.044 0.1774,0.1331 0.31045,0.1774 0.4435,0.1331 0.13304,0 0.31044,0.044 0.44349,0.089 0.0887,0.089 0.26609,0.133 0.35479,0.1774 0.22175,0.044 0.22175,0.133 -0.0887,0.4435 -0.26609,0.3104 -0.31044,0.3548 -0.97568,1.3304 -0.31044,0.3992 -0.53219,0.7983 -0.62089,1.0201 -0.0444,0.2217 -0.1774,0.5322 -0.26609,0.7096 -0.0887,0.1774 -0.22175,0.5322 -0.22175,0.7095 -0.0887,0.4879 -0.1774,0.6209 -0.35479,0.6209 -0.0887,0 -0.22175,0.044 -0.3548,0.1331 -0.26609,0.1774 -0.35479,0.1774 -0.66524,-0.1331 -0.17739,-0.2217 -0.17739,-0.2217 -0.53219,-0.1774 -0.53219,0.089 -0.70959,0.089 -0.84263,-0.044 -0.22175,-0.2218 -0.0887,-0.5322 0.13304,-0.3992 0.0887,0.044 0.31045,0.044 0.53219,0 0.79829,-0.044 0.79829,-0.044 1.06439,0.1331 0.26609,0.2217 0.39914,0.1774 0.48784,-0.044 0.0887,-0.266 -0.3548,-0.5321 -1.10873,-0.7095 -0.3548,-0.089 -0.57654,-0.4879 -0.4435,-0.7983 0.0444,-0.1331 0.31045,-0.089 0.62089,0.044 0.31045,0.1774 0.48785,0.1774 0.66524,-0.044 0.0887,-0.089 0.2661,-0.2218 0.48784,-0.3105 0.5322,-0.2217 0.57654,-0.6652 0.0887,-0.887 -0.17739,-0.089 -0.22174,-0.089 -0.44349,0.089 -0.1774,0.089 -0.44349,0.1774 -0.66524,0.2218 -0.26609,0.044 -0.39914,0.133 -0.66524,0.3548 -0.35479,0.3104 -0.35479,0.3104 -0.57654,0.1774 -0.31044,-0.1331 -0.22174,-0.6209 0.1774,-1.2418 0.2661,-0.3548 0.35479,-0.3991 0.66524,-0.2661 0.1774,0.1331 0.22174,0.1331 0.39914,0 0.1774,-0.089 0.22175,-0.089 0.31045,0 0.0887,0.044 0.0887,0.044 0.13304,0 0.1774,-0.5765 0.70959,-0.7096 1.15308,-0.3104 0.3548,0.3104 0.3548,0.3104 0.62089,0.044 0.4435,-0.4435 0.39915,-0.7983 -0.0887,-0.8426 m 15.56658,3.681 c -0.26609,-0.1331 -0.35479,-0.3105 -0.31044,-0.4879 0.0444,-0.133 0.0887,-0.133 0.57654,0 0.48784,0.1774 0.57654,0.2218 0.57654,0.4879 0,0.089 0,0.2661 0.0887,0.3991 0.0887,0.2218 0.0444,0.3104 -0.13305,0.5765 -0.26609,0.3105 -0.1774,0.754 0.1774,1.1531 0.13305,0.1331 0.17739,0.2218 0.13305,0.3548 -0.13305,0.6653 -0.22175,0.9757 -0.3548,1.1088 -0.0887,0.1773 -0.0887,0.2217 -0.0444,0.4434 0.22175,0.754 -0.48784,1.7297 -1.06438,1.5079 -0.1774,-0.089 -0.22175,-0.044 -0.53219,0.1331 -0.39914,0.2661 -0.53219,0.3104 -0.66524,0.133 -0.0887,-0.089 -0.22175,-0.1774 -0.35479,-0.2217 -0.62089,-0.1774 -0.53219,-0.7096 0.0887,-0.6209 0.1774,0 0.3548,0 0.5322,-0.089 0.22174,-0.089 0.26609,-0.089 0.48784,0.044 0.22174,0.089 0.31044,0.1331 0.39914,0.044 0.22175,-0.1331 0.22175,-0.1774 0,-0.3992 -0.1774,-0.2217 -0.1774,-0.2661 -0.22175,-0.7096 -0.0887,-0.7095 -0.31044,-0.9313 -0.75393,-0.7539 -0.0887,0.089 -0.0887,0.1331 -0.0444,0.3992 0.0444,0.266 -0.13305,0.5321 -0.39915,0.5321 -0.0443,0 -0.13304,0.089 -0.22174,0.1331 -0.3548,0.3104 -0.53219,0.133 -0.44349,-0.4435 0.0444,-0.3991 0.17739,-0.5765 0.53219,-0.6209 0.31044,-0.044 0.35479,-0.133 0.35479,-0.3548 0,-0.133 0.0444,-0.3548 0.13305,-0.5322 0.22174,-0.6209 0.0887,-1.02 -0.3548,-0.9313 -0.31044,0.089 -0.53219,-0.7983 -0.22174,-0.9757 0.22174,-0.089 0.26609,-0.044 0.57654,0.2661 0.35479,0.3548 0.70959,0.4435 1.10873,0.2661 0.62089,-0.2661 0.75394,-0.5765 0.35479,-0.8426 m 0.13305,1.9513 c 0.0887,-0.3104 0.0444,-0.3991 -0.22174,-0.5765 -0.57654,-0.3548 -1.02004,0.3104 -0.57654,0.9313 0.13304,0.1774 0.26609,0.3992 0.26609,0.4879 0,0.044 0.0444,0.1774 0.0887,0.2217 0.1774,0.1331 0.26609,0 0.31044,-0.3991 0,-0.2218 0.0444,-0.5322 0.13305,-0.6653 m -18.05014,-0.089 c 0.13304,0.044 0.22174,0.044 0.39914,-0.044 0.26609,-0.089 0.26609,-0.089 0.44349,0.044 0.0887,0.089 0.2661,0.2218 0.3548,0.3105 0.44349,0.2661 0.39914,1.02 -0.0444,1.02 -0.3548,0 -0.3548,0.3105 0,0.4435 0.39914,0.1774 0.62089,0.4435 0.66523,0.9313 0,0.2218 0.0887,0.4435 0.13305,0.5322 0.0887,0.089 0.1774,0.3548 0.2661,0.6209 0.13305,0.3992 0.22174,0.4879 0.39914,0.6209 0.3548,0.2218 0.53219,0.3991 0.57654,0.7096 0.0887,0.3991 0.39914,0.7096 0.79829,0.7096 0.62089,0 0.97568,0.4878 0.62089,0.8426 -0.13305,0.1331 -0.1774,0.1331 -0.44349,0.044 -0.2661,-0.044 -0.3548,-0.044 -0.57655,0 -0.53219,0.1774 -1.10873,0.2217 -1.33047,0.044 -0.31045,-0.2217 -0.4435,-0.2217 -0.93134,0.044 -0.62089,0.3548 -0.93133,0.2217 -0.88698,-0.3548 0,-0.2661 0,-0.2661 0.44349,-0.3105 0.97568,-0.133 1.02003,-0.3548 0.13305,-0.9757 -0.13305,-0.133 -0.13305,-0.133 0.0887,-0.3104 0.22174,-0.1774 0.26609,-0.2217 0.26609,-0.3991 0,-0.1774 0.0444,-0.3105 0.22175,-0.4879 0.53219,-0.6209 -0.1774,-1.2861 -0.79829,-0.7096 -0.22174,0.2218 -0.22174,0.3548 -0.0444,0.5766 0.31045,0.2661 0.13305,0.4435 -0.35479,0.3548 -0.1774,0 -0.3548,0 -0.48784,0.089 -0.22175,0.089 -0.22175,0.089 -0.39915,-0.1331 -0.26609,-0.3104 -0.13304,-0.5322 0.1774,-0.2661 0.2661,0.1774 0.35479,0.044 0.35479,-0.3548 0,-0.1774 0.0444,-0.4435 0.13305,-0.6209 0.22175,-0.4435 -0.17739,-0.887 -0.62089,-0.6652 -0.22174,0.133 -0.39914,-0.1331 -0.22174,-0.3105 0.0444,-0.133 0.0887,-0.133 0.22174,-0.044 0.22175,0.089 0.31045,-0.3104 0.1774,-0.5765 -0.2661,-0.4879 -0.0887,-1.4636 0.2661,-1.3749 m 15.16744,5.7654 c 0,-1.1087 0,-1.153 0.35479,-1.5078 0.1774,-0.1774 1.24178,0.2217 1.41918,0.5321 0.13305,0.2661 -0.48784,0.7983 -0.75394,0.6653 -0.31044,-0.089 -0.44349,0 -0.48784,0.2217 -0.0444,0.3548 0.22175,0.4435 0.57654,0.2218 0.1774,-0.1331 0.70959,0.133 0.70959,0.3548 0,0.2661 -0.57654,0.887 -0.84264,0.887 -0.17739,0 -0.31044,0.1774 -0.26609,0.3104 0.13305,0.3548 -1.24178,1.5079 -1.86267,1.5079 -0.0887,0 -0.2661,0.133 -0.48784,0.3548 -0.3548,0.3548 -0.79829,0.5765 -1.41918,0.6209 -0.22174,0.044 -0.53219,0.133 -0.66524,0.2217 -0.17739,0.044 -0.48784,0.1331 -0.75393,0.1774 -0.2661,0.089 -0.57654,0.1331 -0.70959,0.1774 -0.13305,0.044 -0.2661,0.044 -0.53219,0 -0.2661,-0.089 -0.3548,-0.044 -0.70959,0.044 -0.44349,0.1773 -0.62089,0.1773 -0.88699,0.044 -0.0887,-0.044 -0.39914,-0.133 -0.66524,-0.1774 -0.57654,-0.044 -0.66523,-0.089 -0.79828,-0.4435 -0.1774,-0.3548 -0.22175,-0.3991 -0.48784,-0.089 -0.2661,0.2661 -0.2661,0.2661 -0.84264,0.1331 -1.06438,-0.2218 -1.46353,-0.3992 -1.77397,-0.7096 -0.13305,-0.1331 -0.39914,-0.3105 -0.57654,-0.3992 -0.44349,-0.1774 -1.10873,-0.887 -0.97568,-1.0644 0.13304,-0.266 0.48784,-0.1773 0.93133,0.2661 0.53219,0.5322 0.66524,0.5322 1.19743,0.044 0.62089,-0.5765 1.33048,-0.2218 1.19743,0.5765 -0.0887,0.4879 0.44349,0.4435 0.57654,-0.089 0.0887,-0.3104 0.22175,-0.3991 0.62089,-0.3991 0.2661,0 0.39914,-0.044 0.57654,-0.1774 0.0887,-0.089 0.22175,-0.089 0.31045,-0.089 0.26609,0.044 0.53219,-0.089 0.53219,-0.3104 0,-0.3105 0.13304,-0.3992 0.48784,-0.2218 0.31044,0.1774 0.31044,0.2218 0.1774,0.3104 -0.31045,0.1774 -0.2661,0.6653 0.0887,0.8427 0.4435,0.1774 0.62089,-0.044 0.39915,-0.5766 -0.0887,-0.3991 0,-0.3547 0.35479,0.044 0.44349,0.4435 0.57654,0.4435 1.10873,-0.3105 0.31045,-0.3991 0.44349,-0.4434 0.62089,-0.1773 0.3548,0.3547 0.75394,0.5321 1.02003,0.4878 0.70959,-0.1331 1.19743,-0.089 1.37483,0 0.31045,0.1774 0.48784,0.1774 0.88699,-0.1331 0.48784,-0.3104 0.44349,-0.4878 -0.0887,-0.5765 -0.44349,-0.044 -0.53219,-0.1774 -0.22175,-0.3548 0.13305,-0.089 0.1774,-0.089 0.44349,0 0.75394,0.3548 0.88699,0.1774 0.84264,-1.2418"
         transform="matrix(0.5853567,0,0,0.5853567,-82.29809,-850.26769)" />
      <path
         inkscape:connector-curvature="0"
         id="path3397"
         style="font-style:normal;font-variant:normal;font-weight:500;font-stretch:normal;font-size:40px;line-height:125%;font-family:'Sans Guilt LB';-inkscape-font-specification:'Sans Guilt LB Medium';letter-spacing:0px;word-spacing:0px;fill:#3a4547;fill-opacity:1;stroke:none"
         d="m 764.01587,2721.0959 c 0.13305,-0.044 0.31045,-0.133 0.44349,-0.133 0.79829,-0.1774 1.95137,0 2.43921,0.3548 0.2661,0.1774 0.39915,0.2217 0.53219,0.2217 0.62089,-0.1774 0.93134,-0.133 1.90702,0.3105 1.06438,0.4435 1.10873,0.4878 1.41918,0.8426 0.13305,0.1774 0.35479,0.3548 0.48784,0.3992 0.62089,0.2661 0.97568,0.5322 1.55222,1.2417 0.4435,0.5766 0.48785,0.6653 0.4435,1.0201 -0.0444,0.2661 -0.0444,0.3104 0.26609,0.6209 0.1774,0.1774 0.31045,0.3104 0.31045,0.3548 0,0.044 0.13304,0.133 0.31044,0.2217 0.13305,0.089 0.2661,0.2218 0.2661,0.2661 0,0.089 -0.1774,0.2217 -0.31045,0.1774 -0.0444,0 -0.17739,0 -0.26609,0.089 -0.1774,0.089 -0.1774,0.089 -0.4435,-0.1774 -0.39914,-0.3991 -0.93133,-0.2661 -0.70958,0.1774 0.17739,0.4878 0.13304,0.5765 -0.2661,0.5765 -0.1774,0 -0.44349,0 -0.62089,0.089 -0.53219,0.2218 -0.93133,-0.5765 -0.44349,-1.02 0.1774,-0.1774 0.1774,-0.1774 0,-0.3991 -0.22175,-0.1774 -0.22175,-0.2661 -0.0444,-0.3992 0.1774,-0.1774 0.13305,-0.3548 -0.0887,-0.3548 -0.1774,0 -0.1774,0 -0.1774,0.3105 0,0.3104 -0.0444,0.3548 -0.17739,0.3991 -0.1774,0 -0.79829,-0.2217 -0.97569,-0.3991 -0.0887,-0.089 -0.26609,-0.1331 -0.44349,-0.1774 -0.26609,-0.044 -0.39914,-0.089 -0.62089,-0.3105 -0.13305,-0.133 -0.31044,-0.2217 -0.35479,-0.2217 -0.0444,0 -0.1774,-0.089 -0.2661,-0.1331 -0.0887,-0.089 -0.35479,-0.1774 -0.62089,-0.2217 -0.66524,-0.1331 -0.75394,-0.2218 -0.75394,-0.5766 0,-0.4878 -0.22174,-0.5321 -0.62088,-0.133 -0.31045,0.3104 -0.88699,0.3104 -1.64093,-0.044 -0.0887,-0.044 -0.22174,-0.089 -0.35479,-0.089 -0.13305,0 -0.13305,0 0,-0.089 0.75394,-0.3992 0.31044,-1.0644 -0.70959,-1.0201 -0.31044,0 -0.70959,0 -0.88698,-0.044 -0.2661,-0.044 -0.88699,0.3548 -1.19743,0.7539 -0.0444,0.1331 -0.1774,0.1774 -0.3548,0.2218 -0.26609,0.089 -0.31044,0.133 -0.44349,0.3991 -0.13305,0.3104 -0.2661,0.3548 -0.35479,0.133 -0.0444,-0.044 -0.1774,-0.089 -0.3548,-0.133 -0.22175,0 -0.26609,-0.044 -0.35479,-0.2661 -0.22175,-0.4878 -0.93134,-0.5322 -0.93134,-0.089 0,0.3104 -0.17739,0.5322 -0.44349,0.4435 -0.2661,-0.044 -0.39914,0.1774 -0.39914,0.5765 0,0.3105 -0.13305,0.3992 -0.39915,0.3105 -0.0443,0 -0.17739,-0.044 -0.22174,-0.044 -0.1774,-0.044 -0.31045,0.1331 -0.31045,0.4435 0,0.5322 -0.26609,0.754 -0.57654,0.4435 -0.35479,-0.3548 0.66524,-1.774 1.55223,-2.1287 0.35479,-0.1331 0.44349,-0.2218 0.57654,-0.3992 0.13304,-0.2661 0.39914,-0.4878 0.57654,-0.4878 0.0444,0 0.26609,-0.1774 0.44349,-0.3548 0.26609,-0.3105 0.35479,-0.3548 0.48784,-0.3105 0.3548,0.1331 0.39914,0.089 0.57654,-0.1774 0.13305,-0.2217 0.22175,-0.2661 0.44349,-0.3104 0.1774,0 0.39915,-0.1331 0.57654,-0.2218 0.1774,-0.089 0.48785,-0.1774 0.84264,-0.2217 0.31044,-0.044 0.66524,-0.1331 0.79829,-0.1774 0.13304,-0.089 0.31044,-0.089 0.48784,-0.089 0.13305,0.044 0.26609,0 0.39914,-0.044 m -5.27756,4.5237 c -0.22175,-0.044 -0.35479,-0.1331 -0.35479,-0.2661 0,-0.1774 0.17739,-0.1774 0.48784,0.044 0.1774,0.1331 0.31044,0.1774 0.44349,0.1331 0.13305,0 0.31045,0.044 0.44349,0.089 0.0887,0.089 0.2661,0.133 0.3548,0.1774 0.22174,0.044 0.22174,0.133 -0.0887,0.4435 -0.2661,0.3104 -0.31045,0.3548 -0.97568,1.3304 -0.31045,0.3992 -0.5322,0.7983 -0.62089,1.0201 -0.0444,0.2217 -0.1774,0.5322 -0.2661,0.7096 -0.0887,0.1774 -0.22175,0.5322 -0.22175,0.7095 -0.0887,0.4879 -0.17739,0.6209 -0.35479,0.6209 -0.0887,0 -0.22175,0.044 -0.35479,0.1331 -0.2661,0.1774 -0.3548,0.1774 -0.66524,-0.1331 -0.1774,-0.2217 -0.1774,-0.2217 -0.53219,-0.1774 -0.5322,0.089 -0.70959,0.089 -0.84264,-0.044 -0.22175,-0.2218 -0.0887,-0.5322 0.13305,-0.3992 0.0887,0.044 0.31044,0.044 0.53219,0 0.79829,-0.044 0.79829,-0.044 1.06438,0.1331 0.2661,0.2217 0.39914,0.1774 0.48784,-0.044 0.0887,-0.266 -0.35479,-0.5321 -1.10873,-0.7095 -0.35479,-0.089 -0.57654,-0.4879 -0.44349,-0.7983 0.0444,-0.1331 0.31044,-0.089 0.62089,0.044 0.31044,0.1774 0.48784,0.1774 0.66524,-0.044 0.0887,-0.089 0.26609,-0.2218 0.48784,-0.3105 0.53219,-0.2217 0.57654,-0.6652 0.0887,-0.887 -0.1774,-0.089 -0.22175,-0.089 -0.44349,0.089 -0.1774,0.089 -0.4435,0.1774 -0.66524,0.2218 -0.2661,0.044 -0.39915,0.133 -0.66524,0.3548 -0.3548,0.3104 -0.3548,0.3104 -0.57654,0.1774 -0.31045,-0.1331 -0.22175,-0.6209 0.17739,-1.2418 0.2661,-0.3548 0.3548,-0.3991 0.66524,-0.2661 0.1774,0.1331 0.22175,0.1331 0.39915,0 0.17739,-0.089 0.22174,-0.089 0.31044,0 0.0887,0.044 0.0887,0.044 0.13305,0 0.1774,-0.5765 0.70959,-0.7096 1.15308,-0.3104 0.35479,0.3104 0.35479,0.3104 0.62089,0.044 0.44349,-0.4435 0.39914,-0.7983 -0.0887,-0.8426 m 15.56659,3.681 c -0.2661,-0.1331 -0.3548,-0.3105 -0.31045,-0.4879 0.0444,-0.133 0.0887,-0.133 0.57654,0 0.48785,0.1774 0.57654,0.2218 0.57654,0.4879 0,0.089 0,0.2661 0.0887,0.3991 0.0887,0.2218 0.0444,0.3104 -0.13304,0.5765 -0.2661,0.3105 -0.1774,0.754 0.17739,1.1531 0.13305,0.1331 0.1774,0.2218 0.13305,0.3548 -0.13305,0.6653 -0.22175,0.9757 -0.35479,1.1088 -0.0887,0.1773 -0.0887,0.2217 -0.0444,0.4434 0.22174,0.754 -0.48784,1.7297 -1.06439,1.5079 -0.17739,-0.089 -0.22174,-0.044 -0.53219,0.1331 -0.39914,0.2661 -0.53219,0.3104 -0.66524,0.133 -0.0887,-0.089 -0.22174,-0.1774 -0.35479,-0.2217 -0.62089,-0.1774 -0.53219,-0.7096 0.0887,-0.6209 0.1774,0 0.35479,0 0.53219,-0.089 0.22175,-0.089 0.2661,-0.089 0.48784,0.044 0.22175,0.089 0.31045,0.1331 0.39915,0.044 0.22174,-0.1331 0.22174,-0.1774 0,-0.3992 -0.1774,-0.2217 -0.1774,-0.2661 -0.22175,-0.7096 -0.0887,-0.7095 -0.31045,-0.9313 -0.75394,-0.7539 -0.0887,0.089 -0.0887,0.1331 -0.0444,0.3992 0.0444,0.266 -0.13305,0.5321 -0.39914,0.5321 -0.0444,0 -0.13305,0.089 -0.22175,0.1331 -0.35479,0.3104 -0.53219,0.133 -0.44349,-0.4435 0.0444,-0.3991 0.1774,-0.5765 0.53219,-0.6209 0.31045,-0.044 0.3548,-0.133 0.3548,-0.3548 0,-0.133 0.0443,-0.3548 0.13304,-0.5322 0.22175,-0.6209 0.0887,-1.02 -0.35479,-0.9313 -0.31045,0.089 -0.53219,-0.7983 -0.22175,-0.9757 0.22175,-0.089 0.2661,-0.044 0.57654,0.2661 0.3548,0.3548 0.70959,0.4435 1.10873,0.2661 0.62089,-0.2661 0.75394,-0.5765 0.3548,-0.8426 m 0.13305,1.9513 c 0.0887,-0.3104 0.0444,-0.3991 -0.22175,-0.5765 -0.57654,-0.3548 -1.02003,0.3104 -0.57654,0.9313 0.13305,0.1774 0.2661,0.3992 0.2661,0.4879 0,0.044 0.0443,0.1774 0.0887,0.2217 0.1774,0.1331 0.2661,0 0.31045,-0.3991 0,-0.2218 0.0444,-0.5322 0.13305,-0.6653 m -18.05015,-0.089 c 0.13305,0.044 0.22175,0.044 0.39914,-0.044 0.2661,-0.089 0.2661,-0.089 0.4435,0.044 0.0887,0.089 0.26609,0.2218 0.35479,0.3105 0.44349,0.2661 0.39914,1.02 -0.0444,1.02 -0.35479,0 -0.35479,0.3105 0,0.4435 0.39914,0.1774 0.62089,0.4435 0.66524,0.9313 0,0.2218 0.0887,0.4435 0.13305,0.5322 0.0887,0.089 0.17739,0.3548 0.26609,0.6209 0.13305,0.3992 0.22175,0.4879 0.39915,0.6209 0.35479,0.2218 0.53219,0.3991 0.57654,0.7096 0.0887,0.3991 0.39914,0.7096 0.79828,0.7096 0.62089,0 0.97569,0.4878 0.62089,0.8426 -0.13305,0.1331 -0.17739,0.1331 -0.44349,0.044 -0.2661,-0.044 -0.35479,-0.044 -0.57654,0 -0.53219,0.1774 -1.10873,0.2217 -1.33048,0.044 -0.31044,-0.2217 -0.44349,-0.2217 -0.93133,0.044 -0.62089,0.3548 -0.93134,0.2217 -0.88699,-0.3548 0,-0.2661 0,-0.2661 0.4435,-0.3105 0.97568,-0.133 1.02003,-0.3548 0.13304,-0.9757 -0.13304,-0.133 -0.13304,-0.133 0.0887,-0.3104 0.22175,-0.1774 0.2661,-0.2217 0.2661,-0.3991 0,-0.1774 0.0444,-0.3105 0.22174,-0.4879 0.53219,-0.6209 -0.17739,-1.2861 -0.79828,-0.7096 -0.22175,0.2218 -0.22175,0.3548 -0.0444,0.5766 0.31044,0.2661 0.13305,0.4435 -0.3548,0.3548 -0.17739,0 -0.35479,0 -0.48784,0.089 -0.22174,0.089 -0.22174,0.089 -0.39914,-0.1331 -0.2661,-0.3104 -0.13305,-0.5322 0.1774,-0.2661 0.26609,0.1774 0.35479,0.044 0.35479,-0.3548 0,-0.1774 0.0444,-0.4435 0.13305,-0.6209 0.22174,-0.4435 -0.1774,-0.887 -0.62089,-0.6652 -0.22175,0.133 -0.39915,-0.1331 -0.22175,-0.3105 0.0444,-0.133 0.0887,-0.133 0.22175,-0.044 0.22174,0.089 0.31044,-0.3104 0.17739,-0.5765 -0.26609,-0.4879 -0.0887,-1.4636 0.2661,-1.3749 m 15.16744,5.7654 c 0,-1.1087 0,-1.153 0.3548,-1.5078 0.1774,-0.1774 1.24178,0.2217 1.41918,0.5321 0.13304,0.2661 -0.48785,0.7983 -0.75394,0.6653 -0.31045,-0.089 -0.44349,0 -0.48784,0.2217 -0.0444,0.3548 0.22174,0.4435 0.57654,0.2218 0.17739,-0.1331 0.70958,0.133 0.70958,0.3548 0,0.2661 -0.57654,0.887 -0.84263,0.887 -0.1774,0 -0.31045,0.1774 -0.2661,0.3104 0.13305,0.3548 -1.24178,1.5079 -1.86267,1.5079 -0.0887,0 -0.26609,0.133 -0.48784,0.3548 -0.35479,0.3548 -0.79828,0.5765 -1.41917,0.6209 -0.22175,0.044 -0.53219,0.133 -0.66524,0.2217 -0.1774,0.044 -0.48784,0.1331 -0.75394,0.1774 -0.2661,0.089 -0.57654,0.1331 -0.70959,0.1774 -0.13305,0.044 -0.26609,0.044 -0.53219,0 -0.26609,-0.089 -0.35479,-0.044 -0.70959,0.044 -0.44349,0.1773 -0.62089,0.1773 -0.88698,0.044 -0.0887,-0.044 -0.39915,-0.133 -0.66524,-0.1774 -0.57654,-0.044 -0.66524,-0.089 -0.79829,-0.4435 -0.17739,-0.3548 -0.22174,-0.3991 -0.48784,-0.089 -0.26609,0.2661 -0.26609,0.2661 -0.84263,0.1331 -1.06439,-0.2218 -1.46353,-0.3992 -1.77398,-0.7096 -0.13304,-0.1331 -0.39914,-0.3105 -0.57654,-0.3992 -0.44349,-0.1774 -1.10873,-0.887 -0.97568,-1.0644 0.13305,-0.266 0.48784,-0.1773 0.93134,0.2661 0.53219,0.5322 0.66523,0.5322 1.19743,0.044 0.62088,-0.5765 1.33047,-0.2218 1.19743,0.5765 -0.0887,0.4879 0.44349,0.4435 0.57654,-0.089 0.0887,-0.3104 0.22174,-0.3991 0.62088,-0.3991 0.2661,0 0.39915,-0.044 0.57655,-0.1774 0.0887,-0.089 0.22174,-0.089 0.31044,-0.089 0.2661,0.044 0.53219,-0.089 0.53219,-0.3104 0,-0.3105 0.13305,-0.3992 0.48784,-0.2218 0.31045,0.1774 0.31045,0.2218 0.1774,0.3104 -0.31044,0.1774 -0.2661,0.6653 0.0887,0.8427 0.44349,0.1774 0.62089,-0.044 0.39914,-0.5766 -0.0887,-0.3991 0,-0.3547 0.3548,0.044 0.44349,0.4435 0.57654,0.4435 1.10873,-0.3105 0.31044,-0.3991 0.44349,-0.4434 0.62089,-0.1773 0.35479,0.3547 0.75393,0.5321 1.02003,0.4878 0.70959,-0.1331 1.19743,-0.089 1.37483,0 0.31044,0.1774 0.48784,0.1774 0.88698,-0.1331 0.48784,-0.3104 0.44349,-0.4878 -0.0887,-0.5765 -0.44349,-0.044 -0.53219,-0.1774 -0.22174,-0.3548 0.13304,-0.089 0.17739,-0.089 0.44349,0 0.75394,0.3548 0.88698,0.1774 0.84263,-1.2418"
         transform="matrix(0.5853567,0,0,0.5853567,-82.29809,-850.26769)" />
      <g
         id="g5483"
         transform="matrix(0.64900335,0,0,0.64900335,80.18044,212.81311)"
         style="fill:#80999e;fill-opacity:1">
        <path
           d="m 418.98779,811.58359 c 0.12,0.12 0.32,0.2 0.4,0.2 0.36,0.08 0.44,0.08 0.8,-0.24 0.56,-0.4 -0.12,-0.88 -0.8,-0.56 -0.24,0.12 -0.44,0.04 -0.52,-0.12 -0.04,-0.12 0.2,-0.32 0.36,-0.28 0.28,0.08 0.52,-0.16 0.6,-0.56 0.04,-0.24 0.16,-0.28 0.44,-0.16 0.32,0.16 0.32,0.16 0.44,0.04 0.16,-0.12 0.12,-0.24 -0.04,-0.24 -0.44,0 -0.92,-0.72 -0.72,-1.12 0.12,-0.2 0.08,-0.32 -0.24,-0.68 -0.12,-0.16 -0.24,-0.32 -0.28,-0.4 -0.2,-0.6 -0.84,0.6 -0.84,1.56 0,0.6 0,0.64 -0.16,0.84 -0.12,0.2 -0.16,0.36 -0.2,0.6 -0.04,0.2 -0.08,0.44 -0.08,0.6 -0.04,0.32 0.08,0.48 0.4,0.44 0.2,-0.04 0.28,-0.04 0.44,0.08 m 20.52,-1.24 c 0.04,0.08 0.12,0.24 0.16,0.28 0.16,0.12 0.12,0.12 0.44,0.04 0.4,-0.08 0.48,-0.2 0.24,-0.44 l -0.28,-0.4 c -0.04,-0.12 -0.16,-0.32 -0.24,-0.4 -0.2,-0.28 -0.2,-0.36 0,-0.6 0.24,-0.32 0.08,-1.04 -0.4,-1.72 -0.12,-0.2 -0.16,-0.32 -0.2,-0.72 -0.08,-0.64 -0.44,-1.44 -0.8,-1.68 -0.28,-0.2 -0.28,-0.2 -0.24,-0.56 0.04,-0.36 0.04,-0.36 -0.28,-1 -0.2,-0.36 -0.4,-0.84 -0.44,-1 -0.12,-0.44 -0.64,-1.48 -0.88,-1.8 -0.2,-0.24 -0.2,-0.32 -0.2,-0.6 0,-0.56 -0.28,-0.92 -0.68,-0.88 -0.2,0.04 -0.4,-0.04 -0.52,-0.28 -0.08,-0.16 0.04,-0.28 0.28,-0.28 0.36,0.04 0.4,-0.36 0,-0.48 -0.24,-0.08 -0.24,-0.16 -0.16,-0.52 0.08,-0.32 -0.12,-0.84 -0.52,-1.36 -0.2,-0.28 -0.2,-0.32 -0.16,-0.6 0.08,-0.72 -0.8,-2.44 -1.04,-2.08 -0.16,0.24 -0.2,0.24 -0.36,0.16 -0.4,-0.2 -0.4,-1 0,-1.08 0.16,-0.04 0.2,-0.4 0,-0.56 -0.12,-0.12 -0.12,-0.12 -0.16,0 -0.2,0.32 -0.48,0.4 -0.68,0.16 -0.2,-0.16 -0.2,-0.4 -0.04,-0.6 0.12,-0.16 0.32,-0.8 0.32,-1 0,-0.32 -0.52,-1.08 -0.68,-0.96 -0.24,0.28 -0.84,-0.04 -0.8,-0.4 0.12,-0.84 0.12,-1.2 -0.08,-1.2 -0.08,0 -0.24,-0.08 -0.32,-0.16 -0.08,-0.08 -0.28,-0.2 -0.44,-0.24 -0.28,-0.12 -0.28,-0.2 -0.16,-0.56 0.2,-0.44 0.4,-0.52 0.68,-0.24 0.36,0.4 0.48,0.12 0.16,-0.48 -0.16,-0.28 -0.2,-0.4 -0.2,-0.64 0,-0.92 -0.64,-1.88 -1.2,-1.72 -0.12,0.04 -0.28,0.04 -0.44,0 -0.72,-0.2 -1.12,-0.08 -1.2,0.36 -0.08,0.36 -0.32,1.08 -0.44,1.36 -0.16,0.32 -0.2,0.48 -0.12,0.72 0.16,0.28 0.12,0.4 -0.12,0.64 -0.12,0.16 -0.24,0.32 -0.24,0.4 -0.08,0.2 -0.36,0.96 -0.6,1.44 -0.08,0.2 -0.16,0.44 -0.16,0.56 0,0.12 -0.12,0.4 -0.32,0.8 -0.2,0.36 -0.36,0.76 -0.4,0.88 0,0.12 -0.08,0.36 -0.2,0.52 -0.08,0.12 -0.2,0.4 -0.24,0.56 -0.08,0.28 -0.24,0.76 -0.68,1.72 -0.12,0.28 -0.16,0.48 -0.2,0.96 -0.04,0.72 -0.04,0.8 -0.24,0.88 -0.24,0.12 -0.32,0.36 -0.32,1.04 -0.04,0.68 -0.12,0.84 -0.52,0.88 -0.48,0.08 -0.76,0.8 -0.64,1.52 0.04,0.52 0.04,0.52 -0.32,0.64 -0.36,0.12 -0.68,0.76 -0.6,1.28 0,0.24 0,0.28 -0.12,0.48 -0.52,0.76 -0.52,0.84 -0.32,1.2 0.16,0.36 0.12,0.6 -0.16,0.92 -0.24,0.28 -0.28,0.4 -0.28,0.68 0,0.28 0,0.28 -0.48,0.4 -0.2,0.08 -0.28,0.28 -0.16,0.52 0.08,0.24 0.24,0.24 0.64,0.04 0.48,-0.28 0.52,-0.16 0.32,0.6 -0.04,0.24 -0.16,0.28 -0.28,0.16 -0.16,-0.12 -0.84,-0.28 -0.96,-0.2 -0.36,0.24 -0.6,1.68 -0.28,1.56 0.28,-0.08 0.48,-0.28 0.52,-0.52 0,-0.2 0.08,-0.24 0.36,-0.44 0.48,-0.32 0.56,-0.28 0.68,0.24 0.04,0.44 0.08,0.48 0.4,0.36 0.56,-0.2 0.8,-0.72 0.56,-1.16 -0.16,-0.32 0,-0.6 0.2,-0.28 0,0.04 0.12,0.12 0.24,0.16 0.12,0.04 0.24,0.2 0.32,0.36 0.24,0.44 1,-0.76 0.76,-1.28 -0.04,-0.12 -0.04,-0.16 0.16,-0.32 0.12,-0.12 0.2,-0.24 0.24,-0.44 0,-0.16 0.12,-0.4 0.24,-0.6 0.12,-0.2 0.28,-0.52 0.36,-0.68 0.08,-0.2 0.24,-0.56 0.36,-0.76 0.12,-0.28 0.2,-0.48 0.24,-0.8 0.04,-0.32 0.08,-0.56 0.24,-0.84 0.12,-0.24 0.2,-0.48 0.2,-0.6 0,-0.24 0.08,-0.36 0.28,-0.6 0.4,-0.44 0.56,-1.52 0.24,-1.92 -0.2,-0.24 -0.16,-0.56 0.04,-0.68 0.2,-0.08 0.28,0 0.28,0.2 0,0.4 0.2,0.24 0.56,-0.36 0.4,-0.76 -0.04,-1.16 -0.8,-0.76 -0.08,0.04 -0.2,0.04 -0.24,0.04 -0.04,0 -0.24,0.04 -0.4,0.08 -0.32,0.12 -0.36,0.12 -0.48,0.08 -0.2,-0.12 -0.32,-0.08 -0.48,0.2 -0.2,0.4 -0.44,0.44 -0.44,0.08 0,-0.2 0,-0.24 0.24,-0.36 0.08,-0.08 0.2,-0.24 0.28,-0.44 0.24,-0.56 0.4,-0.64 0.72,-0.36 0.32,0.28 0.6,-0.16 0.36,-0.56 -0.24,-0.52 -0.12,-0.6 0.72,-0.56 1.08,0.08 1.48,0.72 0.44,0.76 -0.4,0 -0.52,0.16 -0.24,0.36 0.12,0.04 0.24,0.12 0.28,0.2 0.2,0.16 0.4,0.04 0.56,-0.28 0.04,-0.12 0.16,-0.32 0.2,-0.4 0.08,-0.08 0.16,-0.28 0.2,-0.44 0.04,-0.2 0.16,-0.48 0.24,-0.64 0.4,-0.76 0.4,-1.16 0.04,-1.24 -0.08,-0.04 -0.16,-0.12 -0.16,-0.2 -0.04,-0.08 -0.12,-0.24 -0.16,-0.36 -0.16,-0.52 -0.12,-0.6 0.32,-0.44 0.2,0.08 0.28,0.12 0.4,0.04 0.4,-0.12 0.92,0.72 1.76,2.76 0.2,0.44 0.28,0.6 0.68,1.36 0.2,0.36 0.36,0.72 0.4,0.84 0.04,0.24 0.44,0.72 0.6,0.72 0.12,0 0.4,-0.28 0.32,-0.32 -0.24,-0.08 -0.44,-0.24 -0.44,-0.36 0,-0.08 -0.04,-0.24 -0.08,-0.4 -0.16,-0.44 -0.12,-0.48 0.32,-0.48 0.28,0 0.32,0 0.44,-0.12 0.28,-0.24 0.44,-0.12 0.52,0.28 0.04,0.08 0.12,0.2 0.24,0.28 0.32,0.2 0.4,0.32 0.28,0.72 -0.08,0.32 -0.08,0.36 0,0.6 0.04,0.16 0.08,0.36 0.12,0.44 0.04,0.24 0.12,0.32 0.44,0.44 0.36,0.16 0.36,0.24 0.04,0.64 -0.36,0.36 -0.4,0.56 -0.16,0.6 0.6,0.12 0.64,0.36 0.04,0.76 -0.16,0.08 -0.44,-0.04 -0.68,-0.32 l -0.28,-0.28 c -0.12,-0.04 -0.16,-0.16 -0.2,-0.32 0,-0.12 -0.08,-0.32 -0.16,-0.44 -0.2,-0.28 -0.2,-0.32 0,-0.6 0.16,-0.28 0.12,-0.44 -0.24,-0.56 -0.52,-0.16 -0.64,0.04 -0.32,0.64 0.16,0.32 0.24,0.56 0.28,0.76 0,0.2 0.04,0.32 0.16,0.48 0.12,0.12 0.24,0.44 0.32,0.72 0.08,0.24 0.24,0.56 0.32,0.68 0.08,0.12 0.28,0.56 0.4,0.92 0.12,0.4 0.28,0.84 0.36,1 0.16,0.28 0.16,0.4 0.16,0.76 0,0.48 0,0.48 0.36,0.8 0.28,0.24 0.36,0.36 0.44,0.6 0.08,0.2 0.16,0.36 0.36,0.56 0.32,0.28 0.32,0.36 0.2,0.76 -0.12,0.32 -0.08,0.92 0.08,1.12 0.8,1.28 0.92,1.32 0.92,0.48 0,-0.36 -0.04,-0.52 -0.16,-0.76 -0.24,-0.44 -0.2,-0.72 0.12,-1.12 0.28,-0.28 0.2,-0.44 -0.48,-0.8 -0.2,-0.16 -0.32,-0.44 -0.12,-0.4 0.24,0.04 0.52,-0.04 0.76,-0.24 0.28,-0.24 0.4,-0.24 0.64,0.16 0.16,0.2 0.32,0.36 0.44,0.44 0.4,0.16 0.2,0.84 -0.28,1 -0.44,0.12 -0.48,0.36 -0.12,0.68 0.16,0.16 0.16,0.32 -0.08,0.6 -0.24,0.28 -0.24,0.36 0,0.72 0.28,0.4 0.56,0.28 0.76,-0.32 0.12,-0.28 0.28,-0.2 0.24,0.16 0,0.44 0.04,0.52 0.24,0.4 0.4,-0.24 0.92,0.4 0.6,0.68 -0.16,0.2 -0.88,0.04 -1.08,-0.2 -0.16,-0.2 -0.32,-0.16 -0.32,0 0,0.28 0.08,0.4 0.28,0.36 0.16,-0.04 0.4,0.04 0.64,0.24 0.08,0.04 0.2,0.12 0.24,0.12 0.16,0 0.16,0.16 0.04,0.44 -0.12,0.24 -0.04,0.32 0.28,0.32 0.2,0.04 0.2,0.04 0.24,0.24 m -2.56,-7.16 c 0.4,0.24 0.2,0.36 -0.72,0.4 -0.36,0 -0.72,0.04 -0.8,0.04 -0.28,0.08 -0.48,-0.16 -0.44,-0.56 0.04,-0.24 0.04,-0.36 -0.04,-0.52 -0.04,-0.12 -0.08,-0.28 -0.08,-0.36 0,-0.2 -0.12,-0.32 -0.4,-0.36 -0.2,0 -0.24,-0.28 -0.04,-0.52 0.28,-0.24 0.24,-0.4 -0.04,-0.68 -0.28,-0.24 -0.24,-0.64 0.08,-0.64 0.04,0 0.12,-0.04 0.16,-0.08 0.2,-0.2 0.52,0 0.6,0.32 0.04,0.2 0.12,0.28 0.4,0.48 0.36,0.28 0.4,0.4 0.32,0.84 -0.12,0.56 0.24,1.16 1,1.64 m -14.32,-2.04 c 0.04,0.08 0.04,0.2 0.04,0.2 -0.12,0.12 -0.64,0.08 -0.72,0 -0.16,-0.16 -0.16,-0.2 0,-0.48 0.08,-0.12 0.16,-0.32 0.2,-0.44 0.16,-0.48 0.96,-0.8 1.24,-0.48 0.16,0.16 0.04,0.32 -0.32,0.44 -0.44,0.16 -0.6,0.4 -0.44,0.76 m 4.44,-8.64 c 0.16,0.2 0.16,0.32 0,0.52 -0.16,0.28 -0.4,0.24 -0.56,-0.08 -0.04,-0.12 -0.16,-0.24 -0.28,-0.28 -0.28,-0.16 -0.24,-0.32 0.16,-0.6 0.16,-0.08 0.16,-0.08 0,-0.32 -0.24,-0.44 0.08,-0.8 0.48,-0.48 0.12,0.08 0.24,0.16 0.32,0.16 0.32,0.12 0.28,0.36 -0.04,0.52 -0.28,0.12 -0.32,0.32 -0.08,0.56 m 2.12,-4.32 c 0.68,-0.12 0.88,0.52 0.28,0.96 -0.4,0.32 -0.6,0.24 -0.76,-0.24 -0.04,-0.2 -0.08,-0.24 -0.28,-0.28 -0.36,-0.12 -0.48,-0.4 -0.32,-0.76 0.12,-0.28 0.4,-0.28 0.52,-0.04 0.12,0.24 0.36,0.4 0.56,0.36"
           style="font-style:normal;font-variant:normal;font-weight:500;font-stretch:normal;font-size:40px;line-height:125%;font-family:'Sans Guilt LB';-inkscape-font-specification:'Sans Guilt LB Medium';letter-spacing:0px;word-spacing:0px;fill:#80999e;fill-opacity:1;stroke:none"
           id="path5485"
           inkscape:connector-curvature="0" />
        <g
           style="font-style:normal;font-variant:normal;font-weight:500;font-stretch:normal;font-size:40px;line-height:125%;font-family:'Sans Guilt LB';-inkscape-font-specification:'Sans Guilt LB Medium';letter-spacing:0px;word-spacing:0px;fill:#80999e;fill-opacity:1;stroke:none"
           id="g5487"
           transform="translate(-115.88081,349.0418)">
          <path
             d="m 535.64145,473.66924 c 0.08,-0.08 0.16,-0.24 0.2,-0.32 0.04,-0.2 0.04,-0.2 0.24,-0.16 0.12,0 0.32,0.04 0.48,0.04 0.95999,0.16 0.71999,1.92 -0.28,2.16 -0.16,0.04 -0.36,0.12 -0.52,0.2 -0.24,0.12 -0.52,0.12 -0.64,0 -0.08,-0.04 -0.2,-0.08 -0.28,-0.08 -0.88,0 -1,-1.64 -0.2,-2.16 0.39999,-0.24 0.84,0.24 0.56,0.6 -0.36,0.44 0.24,0.64 0.72,0.24 0.24,-0.2 0.24,-0.2 0.08,-0.24 -0.08,-0.04 -0.2,-0.04 -0.28,-0.04 -0.2,0.04 -0.24,-0.08 -0.08,-0.24"
             style="font-family:'Sans Guilt LB';-inkscape-font-specification:'Sans Guilt LB Medium';fill:#80999e;fill-opacity:1"
             id="path5489"
             inkscape:connector-curvature="0"
             sodipodi:nodetypes="cccccscsccsccc" />
        </g>
        <g
           style="font-style:normal;font-variant:normal;font-weight:500;font-stretch:normal;font-size:40px;line-height:125%;font-family:'Sans Guilt LB';-inkscape-font-specification:'Sans Guilt LB Medium';letter-spacing:0px;word-spacing:0px;fill:#80999e;fill-opacity:1;stroke:none"
           id="g5491"
           transform="translate(-93.84606,349.54525)">
          <path
             d="m 535.64145,473.66924 c 0.08,-0.08 0.16,-0.24 0.2,-0.32 0.04,-0.2 0.04,-0.2 0.24,-0.16 0.12,0 0.32,0.04 0.48,0.04 0.95999,0.16 0.71999,1.92 -0.28,2.16 -0.16,0.04 -0.36,0.12 -0.52,0.2 -0.24,0.12 -0.52,0.12 -0.64,0 -0.08,-0.04 -0.2,-0.08 -0.28,-0.08 -0.88,0 -1,-1.64 -0.2,-2.16 0.39999,-0.24 0.84,0.24 0.56,0.6 -0.36,0.44 0.24,0.64 0.72,0.24 0.24,-0.2 0.24,-0.2 0.08,-0.24 -0.08,-0.04 -0.2,-0.04 -0.28,-0.04 -0.2,0.04 -0.24,-0.08 -0.08,-0.24"
             style="font-family:'Sans Guilt LB';-inkscape-font-specification:'Sans Guilt LB Medium';fill:#80999e;fill-opacity:1"
             id="path5493"
             inkscape:connector-curvature="0"
             sodipodi:nodetypes="cccccscsccsccc" />
        </g>
        <g
           transform="matrix(2.0633352,0,0,2.0633352,-676.40195,-139.61868)"
           id="g5495"
           style="font-style:normal;font-variant:normal;font-weight:500;font-stretch:normal;font-size:40px;line-height:125%;font-family:'Sans Guilt LB';-inkscape-font-specification:'Sans Guilt LB Medium';letter-spacing:0px;word-spacing:0px;fill:#80999e;fill-opacity:1;stroke:none">
          <path
             sodipodi:nodetypes="cccccscsccsccc"
             inkscape:connector-curvature="0"
             id="path5497"
             style="font-family:'Sans Guilt LB';-inkscape-font-specification:'Sans Guilt LB Medium';fill:#80999e;fill-opacity:1"
             d="m 535.64145,473.66924 c 0.08,-0.08 0.16,-0.24 0.2,-0.32 0.04,-0.2 0.04,-0.2 0.24,-0.16 0.12,0 0.32,0.04 0.48,0.04 0.95999,0.16 0.71999,1.92 -0.28,2.16 -0.16,0.04 -0.36,0.12 -0.52,0.2 -0.24,0.12 -0.52,0.12 -0.64,0 -0.08,-0.04 -0.2,-0.08 -0.28,-0.08 -0.88,0 -1,-1.64 -0.2,-2.16 0.39999,-0.24 0.84,0.24 0.56,0.6 -0.36,0.44 0.24,0.64 0.72,0.24 0.24,-0.2 0.24,-0.2 0.08,-0.24 -0.08,-0.04 -0.2,-0.04 -0.28,-0.04 -0.2,0.04 -0.24,-0.08 -0.08,-0.24" />
        </g>
      </g>
      <g
         id="g4169"
         transform="matrix(0.74380711,0,0,0.74380711,14.329338,194.92384)">
        <g
           id="text5445"
           style="font-style:normal;font-variant:normal;font-weight:500;font-stretch:normal;font-size:23.34987259px;line-height:125%;font-family:'Sans Guilt LB';-inkscape-font-specification:'Sans Guilt LB Medium';letter-spacing:0px;word-spacing:0px;fill:#3a4547;fill-opacity:1;stroke:none">
          <path
             style="color:#000000;font-style:normal;font-variant:normal;font-weight:normal;font-stretch:normal;font-size:medium;line-height:100%;font-family:Comili;-inkscape-font-specification:'Comili, Normal';text-indent:0;text-align:center;text-decoration:none;text-decoration-line:none;text-decoration-style:solid;text-decoration-color:#000000;letter-spacing:0px;word-spacing:0px;text-transform:none;direction:ltr;block-progression:tb;writing-mode:lr-tb;baseline-shift:baseline;text-anchor:middle;white-space:normal;clip-rule:nonzero;visibility:visible;isolation:auto;mix-blend-mode:normal;color-interpolation:sRGB;color-interpolation-filters:linearRGB;solid-color:#000000;solid-opacity:1;fill:#000000;fill-opacity:1;fill-rule:nonzero;stroke:none;stroke-width:0.99999964px;stroke-linecap:butt;stroke-linejoin:miter;stroke-miterlimit:4;stroke-dasharray:none;stroke-dashoffset:0;stroke-opacity:1;color-rendering:auto;image-rendering:auto;shape-rendering:auto;text-rendering:auto"
             inkscape:connector-curvature="0"
             id="path4229"
             d="m 419.4207,750.20586 c 0.30327,0.10107 0.70763,0.10107 0.80872,0.10107 1.51634,0.30327 2.42613,0.10107 3.94247,-1.01089 1.11199,-1.01089 1.81961,-1.51634 1.9207,-1.81961 0.10108,-0.40435 -0.60653,-0.60653 -2.22397,-1.01088 -1.61742,-0.40437 -3.94247,-1.21307 -5.4588,-2.12288 -1.41526,-0.80871 -4.34685,-2.22397 -6.36862,-2.93159 -6.36862,-2.83049 -10.91764,-5.76208 -10.61437,-7.07624 0,-0.10107 1.8196,-1.71852 4.24575,-3.33594 9.70456,-6.87407 14.55684,-10.91764 15.66882,-13.1416 0.60653,-1.11198 0.60653,-1.31417 -1.21307,-1.71852 -1.61743,-0.40435 -1.71851,-0.30327 -1.9207,0.60654 -0.40435,1.61742 -19.6113,16.47754 -21.73417,16.7808 -0.10107,0 -0.30327,0.10108 -0.40436,0.40436 -0.20218,0.9098 0.70763,3.43704 1.8196,4.75119 1.51634,1.71852 4.95337,3.7403 10.21002,5.96427 2.22396,1.11197 5.45881,2.72941 7.17732,3.53812 1.81961,0.9098 3.53813,1.71852 4.14466,2.02178 z" />
          <path
             style="color:#000000;font-style:normal;font-variant:normal;font-weight:normal;font-stretch:normal;font-size:medium;line-height:100%;font-family:Comili;-inkscape-font-specification:'Comili, Normal';text-indent:0;text-align:center;text-decoration:none;text-decoration-line:none;text-decoration-style:solid;text-decoration-color:#000000;letter-spacing:0px;word-spacing:0px;text-transform:none;direction:ltr;block-progression:tb;writing-mode:lr-tb;baseline-shift:baseline;text-anchor:middle;white-space:normal;clip-rule:nonzero;visibility:visible;isolation:auto;mix-blend-mode:normal;color-interpolation:sRGB;color-interpolation-filters:linearRGB;solid-color:#000000;solid-opacity:1;fill:#000000;fill-opacity:1;fill-rule:nonzero;stroke:none;stroke-width:0.99999964px;stroke-linecap:butt;stroke-linejoin:miter;stroke-miterlimit:4;stroke-dasharray:none;stroke-dashoffset:0;stroke-opacity:1;color-rendering:auto;image-rendering:auto;shape-rendering:auto;text-rendering:auto"
             inkscape:connector-curvature="0"
             id="path4231"
             d="m 414.88947,736.07957 c 0.90981,1.51633 3.7403,1.51633 7.58169,0.30326 4.85229,-1.61742 9.19912,-2.42614 11.32199,-1.8196 3.8414,1.01089 3.94248,-2.32506 0,-3.94248 -2.12287,-0.90981 -4.95336,-0.50545 -11.01872,1.51634 -2.72941,0.80871 -5.45882,1.51633 -6.26753,1.51633 -2.02178,0 -2.52723,1.01089 -1.61743,2.42615 z" />
        </g>
      </g>
    </g>
  </g>
</svg>
