<?xml version="1.0" encoding="UTF-8" standalone="no"?>
<!-- Created with Inkscape (http://www.inkscape.org/) -->

<svg
   xmlns:dc="http://purl.org/dc/elements/1.1/"
   xmlns:cc="http://creativecommons.org/ns#"
   xmlns:rdf="http://www.w3.org/1999/02/22-rdf-syntax-ns#"
   xmlns:svg="http://www.w3.org/2000/svg"
   xmlns="http://www.w3.org/2000/svg"
   xmlns:sodipodi="http://sodipodi.sourceforge.net/DTD/sodipodi-0.dtd"
   xmlns:inkscape="http://www.inkscape.org/namespaces/inkscape"
   width="307.80713"
   height="184.40591"
   viewBox="0 0 307.80713 184.40592"
   id="svg4357"
   version="1.1"
   inkscape:version="0.91 r13725"
   sodipodi:docname="logo-A&amp;G-vecto.svg"
   inkscape:export-filename="/home/nylnook/Crea/Alice &amp; Gédéon/logo/logo-A&amp;G-web.png"
   inkscape:export-xdpi="90.289948"
   inkscape:export-ydpi="90.289948">
  <defs
     id="defs4359" />
  <sodipodi:namedview
     id="base"
     pagecolor="#ffffff"
     bordercolor="#666666"
     borderopacity="1.0"
     inkscape:pageopacity="0.0"
     inkscape:pageshadow="2"
     inkscape:zoom="5.4017625"
     inkscape:cx="136.52932"
     inkscape:cy="99.088044"
     inkscape:document-units="px"
     inkscape:current-layer="g5671"
     showgrid="false"
     fit-margin-top="5"
     units="px"
     fit-margin-left="5"
     fit-margin-bottom="5"
     fit-margin-right="5"
     inkscape:window-width="2560"
     inkscape:window-height="1361"
     inkscape:window-x="0"
     inkscape:window-y="27"
     inkscape:window-maximized="1" />
  <metadata
     id="metadata4362">
    <rdf:RDF>
      <cc:Work
         rdf:about="">
        <dc:format>image/svg+xml</dc:format>
        <dc:type
           rdf:resource="http://purl.org/dc/dcmitype/StillImage" />
        <dc:title></dc:title>
      </cc:Work>
    </rdf:RDF>
  </metadata>
  <g
     inkscape:label="Calque 1"
     inkscape:groupmode="layer"
     id="layer1"
     transform="translate(-319.4457,-412.81096)">
    <g
       id="g5671"
       transform="matrix(1.25,0,0,-1.25,161.40179,1632.8598)">
      <rect
         ry="0"
         rx="0"
         transform="matrix(0.70710678,-0.70710678,-0.70710678,-0.70710678,0,0)"
         y="-828.89642"
         x="-545.77441"
         height="98.658882"
         width="98.658882"
         id="rect5673"
         style="opacity:1;fill:#fbc32d;fill-opacity:1;stroke:none;stroke-width:4;stroke-linecap:round;stroke-linejoin:round;stroke-miterlimit:4;stroke-dasharray:none;stroke-dashoffset:0;stroke-opacity:1" />
      <g
         id="g5675"
         transform="matrix(0.66092313,0,0,0.66092313,156.65102,873.02779)">
        <path
           d="m 0,0 c 1.055,-15.284 15.929,-21.262 29.468,-20.612 13.549,0.65 23.691,7.991 30.987,19.06 0.2,0.304 0.024,0.398 -0.193,0.539 C 46.39,7.968 36.02,19.593 27.124,33.41 c -0.064,0.099 -0.247,0.358 -0.247,0.358 0,0 -0.311,-0.078 -0.455,-0.16 C 22.874,31.594 13.621,24.47 9.618,20.139 4.235,14.315 0.037,6.817 0,0"
           style="fill:#a2e1ef;fill-opacity:1;fill-rule:nonzero;stroke:none"
           id="path5677"
           inkscape:connector-curvature="0" />
      </g>
      <g
         id="g5679"
         transform="matrix(0.66092313,0,0,0.66092313,174.87928,896.04569)">
        <path
           d="M 0,0 C 0,0 0.445,-0.422 0.754,-0.237 5.104,2.831 19.528,10.641 18.67,17.348 17.41,27.198 5.919,38.567 -2.272,36.818 -21.278,32.762 0,0 0,0"
           style="fill:#abde89;fill-opacity:1;fill-rule:nonzero;stroke:none"
           id="path5681"
           inkscape:connector-curvature="0" />
      </g>
      <path
         inkscape:connector-curvature="0"
         style="fill:#000000;fill-opacity:1;fill-rule:nonzero;stroke:none"
         d="m 174.33043,921.36673 c -1.83437,-0.0652 -3.60963,-0.70033 -5.12422,-2.07468 -1.71437,-1.55558 -2.2567,-3.86614 -2.13148,-6.38823 0.12523,-2.5221 0.90772,-5.28547 1.88983,-7.85776 1.9044,-4.98789 4.48018,-9.10633 4.64092,-9.36239 -0.009,-0.006 2.3e-4,-0.002 -0.0124,-0.009 -6.47821,-4.0665 -13.28366,-8.95298 -16.489,-16.28349 -2.7458,-6.27888 -1.88119,-13.77519 4.02337,-17.89243 3.84983,-2.6843 9.28277,-3.36248 14.23979,-2.98138 1.65234,0.12703 3.25112,0.37054 4.72147,0.6981 6.61957,1.47406 13.54563,6.20507 17.2501,11.89558 0.0696,-0.0385 0.0944,-0.0542 0.16109,-0.0898 12.10115,-6.48084 19.0666,-7.85569 19.0666,-7.85569 l 0.50499,-0.0991 -0.49776,1.78346 -0.15593,0.0558 c -8.13507,2.83825 -11.59464,4.0072 -18.11033,7.85466 0.21935,0.36466 1.50763,2.58071 1.90842,6.58858 0.51314,5.13414 -0.92943,9.31489 -0.92943,9.31489 l -0.14974,0.4327 -1.453,-1.20309 0.0568,-0.19931 c 0,0 1.07926,-3.83341 0.61032,-8.85327 -0.1566,-1.6784 -0.46928,-2.60751 -0.81789,-3.70633 -0.30303,-0.95476 -0.62984,-1.30695 -0.74664,-1.45094 -0.23127,0.15625 -0.50157,0.33812 -0.56178,0.38313 -8.07669,6.03841 -14.86578,12.63026 -19.78948,21.50685 0.008,0.007 -0.005,-0.004 0.0124,0.006 1.93466,1.10077 5.26253,2.94184 8.02195,5.21716 1.37971,1.13766 2.62042,2.38487 3.47501,3.71873 0.85459,1.33387 1.32431,2.76904 1.11325,4.2423 -0.55403,3.86713 -3.77117,8.00505 -7.70596,10.46117 -1.96739,1.22806 -4.12128,2.03435 -6.23229,2.14181 -0.26388,0.0134 -0.52693,0.0155 -0.78898,0.006 z m 0.68571,-1.76384 c 2.20448,0.0357 4.76676,-1.31378 6.93762,-3.37793 2.48099,-2.35905 4.43044,-5.62232 4.80925,-8.58581 0.11849,-0.92609 -0.29348,-1.93739 -1.07606,-2.97518 -0.7826,-1.0378 -1.92327,-2.08368 -3.17037,-3.06297 -2.47038,-1.93989 -5.32831,-3.60142 -6.73005,-4.58309 -0.003,0.002 -0.006,0.003 -0.0258,0.0134 -0.0379,0.0208 -0.0566,0.0385 -0.0723,0.0517 -0.0406,0.0626 -3.28606,5.0782 -5.09117,10.4116 -0.9082,2.68338 -1.43647,5.43408 -1.03166,7.60888 0.40482,2.17481 1.66585,3.78608 4.52939,4.39721 0.29811,0.0636 0.60624,0.0971 0.92116,0.10223 z m -0.62169,-25.22454 c 0.005,-0.007 0.0149,-0.0202 0.0176,-0.0248 l 0.001,0 0,-0.001 c 5.72634,-8.89344 12.41454,-16.39248 21.35609,-22.18842 -4.64399,-7.00512 -11.03485,-11.61745 -19.59844,-12.02777 -4.29712,-0.20636 -8.80481,0.64361 -12.29524,2.73663 -3.4867,2.0908 -5.9654,5.39411 -6.30149,10.19578 0.0267,4.24874 2.67359,9.01484 6.09289,12.7145 2.52393,2.73086 8.51374,7.33952 10.71934,8.592 0,0 0.008,0.003 0.008,0.003 z m 22.79979,-22.933 c 0.11381,-0.0349 0.23338,-0.0713 0.23338,-0.0713 0,0 -5.3e-4,-0.0272 -10e-4,-0.0527 l -0.21996,-0.0485 -0.0929,0.0599 c -0.004,-0.005 0.0405,0.0564 0.0806,0.11256 z"
         id="path5683" />
      <g
         transform="scale(0.99976345,-1.0002366)"
         style="color:#000000;font-style:normal;font-variant:normal;font-weight:normal;font-stretch:normal;font-size:97.85984802px;line-height:100%;font-family:'Recorda Script';-inkscape-font-specification:'Recorda Script';text-indent:0;text-align:start;text-decoration:none;text-decoration-line:none;text-decoration-style:solid;text-decoration-color:#000000;letter-spacing:0px;word-spacing:0px;text-transform:none;direction:ltr;block-progression:tb;writing-mode:lr-tb;baseline-shift:baseline;text-anchor:start;white-space:normal;clip-rule:nonzero;display:inline;overflow:visible;visibility:visible;opacity:1;isolation:auto;mix-blend-mode:normal;color-interpolation:sRGB;color-interpolation-filters:linearRGB;solid-color:#000000;solid-opacity:1;fill:#000000;fill-opacity:1;fill-rule:nonzero;stroke:none;stroke-width:0.39999998;stroke-linecap:butt;stroke-linejoin:miter;stroke-miterlimit:4;stroke-dasharray:none;stroke-dashoffset:0;stroke-opacity:1;color-rendering:auto;image-rendering:auto;shape-rendering:auto;text-rendering:auto;enable-background:accumulate"
         id="text5685">
        <path
           d="m 195.51832,-909.42398 q -0.39144,-5.38229 -0.29358,-10.66673 -2.4465,-0.48929 -4.11012,-1.76147 -0.29358,-0.19572 -0.68502,-0.4893 -0.39144,-0.29358 -0.58715,-0.58716 -0.19572,-0.29358 -0.0979,-0.4893 0.19572,-0.29358 0.78287,-0.29358 0.78288,0.4893 1.9572,0.88074 1.27218,0.29358 2.83794,0.4893 0,-0.88074 0.0979,-1.37004 0.4893,-6.85019 1.85933,-13.60252 1.4679,-6.85019 4.4037,-13.01536 2.83793,-6.06731 7.43735,-10.86244 4.69727,-4.89299 11.15602,-6.94805 6.55661,-2.15292 13.50466,-1.07646 7.04591,0.9786 12.62392,5.18657 4.11011,3.13152 7.04591,7.24163 3.03365,4.01226 4.99085,8.80739 1.9572,4.69727 3.03365,9.88384 1.07646,5.08871 1.4679,10.17743 1.37004,-0.19572 2.64222,-0.39144 1.27218,-0.19572 2.64221,-0.39144 3.22938,-0.4893 6.45875,-0.88074 3.22938,-0.39144 6.45875,-0.78288 1.56576,-0.19572 3.13152,-0.29358 1.56576,-0.19572 3.13151,-0.39144 0.19572,-0.0979 0.78288,-0.0979 0.68502,-0.0979 0.78288,0.39144 0,0.58716 -0.4893,0.58716 -6.45875,0.4893 -12.81964,1.27218 -6.26303,0.68502 -12.62392,1.66362 0.19572,3.22937 0.19572,6.36089 0.0979,3.13151 -0.0979,6.16517 -0.29358,6.94805 -1.76148,13.70038 -0.29358,1.17431 -0.4893,1.27217 -0.0978,0.0979 -0.19571,-0.29358 -0.0979,-0.39144 -0.0979,-1.07645 0,-0.68502 0,-1.17432 0.19572,-1.9572 0.39143,-3.9144 0.19572,-2.05505 0.29358,-4.01225 0.29358,-4.20797 0.29358,-8.31809 0.0979,-4.20797 -0.0979,-8.41594 -6.45875,0.97859 -12.81964,2.05505 -6.36089,1.07646 -12.72178,2.05506 -6.45875,1.07646 -12.9175,1.9572 -6.45875,0.78287 -13.01536,1.27217 -3.03365,0.19572 -6.16517,0.29358 -3.13151,0.0979 -6.16517,-0.39144 0,3.9144 0.29358,7.73093 l 0.68502,7.73093 q 0,0.88074 0,1.76148 0.0979,0.88074 0,1.85933 0,0 -0.0979,0.4893 0,0.4893 -0.0979,0.9786 -0.0979,0.4893 -0.29358,0.68502 -0.19572,0.29358 -0.39144,-0.19572 -0.39144,-0.68502 -0.78288,-1.9572 -0.39144,-1.27217 -0.68501,-2.74007 -0.29358,-1.56576 -0.4893,-3.13152 -0.19572,-1.56575 -0.29358,-2.93579 z m 5.57801,-12.62392 q 3.13151,0.0979 6.16517,0 3.03365,-0.0979 6.06731,-0.29358 7.04591,-0.4893 13.99396,-1.17432 7.04591,-0.68502 14.09182,-1.56576 9.9817,-1.17432 19.9634,-2.64221 -0.19572,-2.54436 -0.4893,-4.893 -0.29357,-2.44649 -0.78287,-4.99085 -0.78288,-3.91439 -2.15292,-7.82879 -1.27218,-4.01225 -3.22938,-7.5352 -1.95719,-3.62082 -4.69727,-6.65447 -2.64221,-3.13152 -6.16517,-5.3823 -3.71867,-2.25077 -7.92665,-3.13151 -4.20797,-0.9786 -8.41594,-0.68502 -4.20798,0.29358 -8.22023,1.85934 -4.01225,1.56576 -7.24163,4.40369 -3.42509,2.9358 -5.87159,6.75233 -2.34864,3.81653 -3.91439,8.02451 -1.56576,4.11011 -2.54436,8.61166 -0.88074,4.4037 -1.37004,8.70953 -0.4893,4.11011 -0.58716,8.31809 0.78288,0.0979 1.66362,0.0979 0.88074,0 1.66362,0 z"
           style="text-align:start;text-anchor:start;stroke:none;stroke-width:0.39999998"
           id="path4983" />
        <path
           d="m 276.34902,-902.57379 q -1.37003,0.58716 -2.34863,0.19572 -0.9786,-0.39144 -1.76148,-1.27218 -0.68502,-0.9786 -1.17432,-2.15292 -0.39144,-1.27218 -0.58716,-2.25077 -1.56575,-6.75233 -0.88074,-13.99396 0.58716,-7.24163 2.34864,-13.79824 0.78288,-2.9358 1.85934,-5.77373 1.07646,-2.83794 2.44649,-5.57801 0.4893,-0.88074 1.4679,-2.25078 0.9786,-1.4679 2.15292,-2.34864 1.17432,-0.88073 2.25078,-0.78287 1.07645,0.0979 1.76147,2.15291 0.78288,2.54436 0.4893,5.77373 -0.29358,3.22938 -1.27218,6.75233 -0.88074,3.52296 -2.34863,7.24163 -1.37004,3.62082 -3.03366,7.04591 -1.56576,3.32724 -3.22937,6.26303 -1.66362,2.83794 -2.9358,4.79513 -0.0979,0.29358 -0.39144,0.39144 0,0.29358 0,0.58716 0.0979,0.29358 0.0979,0.4893 0,0.9786 0.29358,2.74008 0.29358,1.66361 0.88074,3.13151 0.58716,1.37004 1.56576,2.05506 1.07646,0.68502 2.74007,-0.39144 1.37004,-1.07646 2.05506,-2.74008 0.68502,-1.66361 0.88074,-3.32723 0,-0.29358 0,-0.78288 0,-0.58716 0,-0.9786 0.0979,-0.4893 0.29358,-0.68502 0.19572,-0.19572 0.68502,0.19572 0,0.58716 -0.19572,1.9572 -0.0979,1.27218 -0.58716,2.74007 -0.4893,1.37004 -1.37004,2.74008 -0.78288,1.27218 -2.15292,1.85934 z m 7.24163,-40.80756 q 0.0979,-0.58716 0.0979,-2.34864 0.0979,-1.85933 -0.29358,-3.42509 -0.29358,-1.56576 -1.07646,-2.34864 -0.78287,-0.78288 -2.34863,0.68502 -1.17432,1.07646 -1.9572,2.54436 -0.78288,1.37004 -1.37004,3.03365 -0.4893,1.56576 -0.88074,3.22938 -0.39143,1.56576 -0.68501,2.93579 -1.4679,6.26303 -2.64222,12.81964 -1.17432,6.55661 -1.27218,13.01536 4.30584,-6.94805 7.63307,-14.48325 3.42509,-7.53521 4.79513,-15.65758 z"
           style="text-align:start;text-anchor:start;stroke:none;stroke-width:0.39999998"
           id="path4985" />
        <path
           d="m 284.53102,-902.86737 q 0.9786,0.0979 1.85934,-0.9786 0.88074,-1.07646 1.4679,-2.54436 0.68502,-1.56575 0.9786,-3.03365 0.39144,-1.4679 0.29358,-2.25078 0,-0.39144 0.4893,-0.4893 0.48929,-0.19572 0.39143,0.4893 -0.0978,1.07646 -0.78287,3.32724 -0.68502,2.25077 -1.85934,4.11011 -1.07646,1.76148 -2.54436,2.25078 -1.37003,0.58716 -2.93579,-1.66362 -1.66362,-2.34864 -2.15292,-5.48015 -0.39144,-3.13152 -0.19572,-5.96945 0,-3.22938 1.17432,-6.36089 0,-0.0979 0.19572,-0.58716 0.29358,-0.4893 0.58716,-0.88074 0.39144,-0.4893 0.68502,-0.68502 0.29358,-0.19572 0.29358,0.39144 0,0.4893 -0.19572,2.25078 -0.19572,1.66361 -0.39144,3.91439 -0.19572,2.15292 -0.29358,4.69727 0,2.4465 0.19572,4.50156 0.29358,2.05505 0.88074,3.52295 0.68502,1.37004 1.85933,1.4679 z m -3.91439,-31.51087 q 0,-1.07646 0.68502,-1.56576 0.68502,-0.58716 1.56576,-0.58716 0.88073,0 1.56575,0.58716 0.68502,0.4893 0.68502,1.56576 0,1.07646 -0.68502,1.66361 -0.68502,0.4893 -1.56575,0.4893 -0.88074,0 -1.56576,-0.4893 -0.68502,-0.48929 -0.68502,-1.66361 z"
           style="text-align:start;text-anchor:start;stroke:none;stroke-width:0.39999998"
           id="path4987" />
        <path
           d="m 292.71761,-903.06309 q -1.76148,-1.37004 -2.54436,-3.32724 -0.78287,-2.05505 -0.97859,-4.30583 -0.0979,-2.34864 0.29358,-4.59941 0.4893,-2.25078 1.17431,-4.01226 0.58716,-1.46789 1.66362,-2.93579 1.17432,-1.56576 2.4465,-2.34864 1.37004,-0.78288 2.64221,-0.58716 1.37004,0.19572 2.4465,2.05506 0.68502,1.27218 0.88074,3.62081 0.19572,2.25078 -0.29358,4.50156 -0.4893,2.25077 -1.66362,4.01225 -1.17432,1.66362 -3.22937,1.76148 -0.4893,0 -0.4893,-0.39144 0.0979,-0.39144 0.29358,-0.88074 0.29358,-0.58716 0.58716,-1.07646 0.29358,-0.58716 0.39144,-0.78288 0.88073,-1.66361 1.56575,-3.32723 0.68502,-1.76148 0.9786,-3.62082 0.0979,-0.78288 0.0979,-1.76147 0,-1.07646 -0.29358,-1.85934 -0.29358,-0.88074 -0.9786,-1.27218 -0.68502,-0.4893 -1.85933,-0.0979 -1.85934,0.58716 -2.64222,2.64222 -0.78288,1.95719 -1.07646,3.62081 -0.19572,1.27218 -0.39144,3.9144 -0.0979,2.64221 0.19572,5.28443 0.39144,2.64221 1.4679,4.50155 1.17432,1.76148 3.42509,1.37004 1.9572,-0.29358 3.32724,-1.85934 1.37004,-1.66362 2.15292,-3.42509 0.29358,-0.78288 0.58716,-2.15292 0.39143,-1.4679 0.68501,-1.56576 0.39144,0.19572 0.19572,1.27218 -0.19572,1.07646 -0.88073,2.54436 -0.68502,1.37003 -1.76148,2.83793 -1.07646,1.37004 -2.4465,2.34864 -1.37004,0.88074 -2.93579,0.9786 -1.4679,0.0979 -3.03366,-1.07646 z"
           style="text-align:start;text-anchor:start;stroke:none;stroke-width:0.39999998"
           id="path4989" />
        <path
           d="m 308.32932,-902.18235 q -2.4465,-0.68502 -3.62082,-2.74008 -1.07646,-2.15292 -1.37004,-4.69727 -0.29358,-2.54436 0.0979,-5.08871 0.4893,-2.64222 1.07646,-4.50156 0.4893,-1.56575 1.37004,-3.32723 0.9786,-1.85934 2.64221,-2.64222 1.27218,-0.58716 2.05506,-0.19572 0.88074,0.29358 1.27218,1.17432 0.4893,0.78288 0.58716,1.9572 0.0979,1.07646 -0.0979,1.9572 -0.4893,2.15291 -1.56576,4.11011 -1.07646,1.9572 -2.25078,3.71867 -0.58715,0.9786 -1.17431,1.85934 -0.58716,0.88074 -1.27218,1.66362 0.0979,1.37004 0.39144,2.54435 0.39144,1.17432 0.9786,2.05506 0.58716,0.88074 1.46789,1.27218 0.9786,0.39144 2.25078,0 1.9572,-0.4893 3.13152,-2.25078 1.27217,-1.85934 1.85933,-3.71867 0.0979,-0.39144 0.0979,-0.9786 0,-0.68502 0.0979,-1.17432 0.0979,-0.4893 0.29358,-0.68502 0.29358,-0.29358 0.78288,0.19572 0,1.17432 -0.68502,3.03366 -0.58716,1.85933 -1.85934,3.52295 -1.17431,1.56576 -2.83793,2.54436 -1.66362,0.9786 -3.71867,0.39144 z m 3.52295,-20.06127 q 0,-1.37004 -0.58716,-1.76148 -0.58716,-0.4893 -1.37004,-0.29358 -0.78288,0.0979 -1.56575,0.78288 -0.68502,0.58716 -1.07646,1.37004 -0.78288,1.85934 -1.07646,3.91439 -0.29358,1.9572 -0.29358,3.9144 -0.19572,1.56575 0,4.30583 1.07646,-1.27218 2.15292,-2.74008 1.07645,-1.46789 1.95719,-2.93579 0.88074,-1.56576 1.37004,-3.22938 0.4893,-1.66361 0.4893,-3.32723 z"
           style="text-align:start;text-anchor:start;stroke:none;stroke-width:0.39999998"
           id="path4991" />
      </g>
      <g
         transform="scale(1,-1)"
         style="color:#000000;font-style:normal;font-variant:normal;font-weight:300;font-stretch:normal;font-size:39.44291306px;line-height:100%;font-family:Comfortaa;-inkscape-font-specification:'Comfortaa Light';text-indent:0;text-align:start;text-decoration:none;text-decoration-line:none;text-decoration-style:solid;text-decoration-color:#000000;letter-spacing:0px;word-spacing:0px;text-transform:none;direction:ltr;block-progression:tb;writing-mode:lr-tb;baseline-shift:baseline;text-anchor:start;white-space:normal;clip-rule:nonzero;display:inline;overflow:visible;visibility:visible;opacity:1;isolation:auto;mix-blend-mode:normal;color-interpolation:sRGB;color-interpolation-filters:linearRGB;solid-color:#000000;solid-opacity:1;fill:#000000;fill-opacity:1;fill-rule:nonzero;stroke:none;stroke-width:0.99999964px;stroke-linecap:butt;stroke-linejoin:miter;stroke-miterlimit:4;stroke-dasharray:none;stroke-dashoffset:0;stroke-opacity:1;color-rendering:auto;image-rendering:auto;shape-rendering:auto;text-rendering:auto;enable-background:accumulate"
         id="text5689">
        <path
           d="m 246.59653,-867.28204 q 0,0.52 -0.28889,0.78963 -2.15703,1.67555 -4.58369,2.56147 -2.42667,0.86667 -5.12296,0.86667 -3.13926,0 -5.89333,-1.17481 -2.75407,-1.17482 -5.0074,-3.33185 -2.15703,-2.25333 -3.33185,-5.0074 -1.17481,-2.75407 -1.17481,-5.89333 0,-6.3748 4.50666,-10.88147 4.52592,-4.52592 10.90073,-4.52592 5.48888,0 9.76443,3.50518 0.34667,0.34667 0.34667,0.84741 0,0.48148 -0.34667,0.82815 -0.34666,0.34666 -0.82815,0.34666 -0.50074,0 -0.98222,-0.46222 -3.33184,-2.69629 -7.95406,-2.69629 -5.39259,0 -9.22517,3.83259 -3.81333,3.81333 -3.81333,9.20591 0,5.41185 3.81333,9.22518 3.81332,3.81332 9.22517,3.81332 4.23703,0 7.62666,-2.44592 l 0,-7.81925 -6.64444,0 q -0.50074,0 -0.84741,-0.34666 -0.3274,-0.34667 -0.3274,-0.84741 0,-0.50074 0.3274,-0.82815 0.34667,-0.34666 0.84741,-0.34666 l 7.83851,0 q 0.46222,0 0.84741,0.34666 0.3274,0.36593 0.3274,0.82815 l 0,9.61036 z"
           style=""
           id="path4970" />
        <path
           d="m 269.20687,-875.04351 q -0.53925,-2.86963 -2.4074,-4.73778 -2.46518,-2.46518 -5.93184,-2.46518 -3.46667,0 -5.93185,2.46518 -1.84888,1.84889 -2.42666,4.73778 l 16.69775,0 z m -2.19555,7.33776 q 0.50074,0 0.84741,0.36593 0.34666,0.34667 0.34666,0.84741 0,0.50074 -0.30814,0.82814 -3.00444,2.6 -7.02962,2.6 -4.46815,0 -7.62666,-3.15851 -3.15852,-3.15852 -3.15852,-7.62666 0,-4.46814 3.15852,-7.62666 3.15851,-3.15851 7.62666,-3.15851 4.46814,0 7.62665,3.15851 3.15852,3.15852 3.15852,7.62666 0,0.50074 -0.34667,0.8474 -0.34666,0.34667 -0.84741,0.34667 l -17.9496,0 q 0.57778,2.88889 2.42666,4.73777 2.46518,2.46518 5.93185,2.46518 1.57925,0 2.9274,-0.50074 1.34815,-0.51999 2.46518,-1.48296 0.32741,-0.26963 0.75111,-0.26963 z m -7.22221,-19.25923 q -0.32741,0.30815 -0.80889,0.30815 -0.50074,0 -0.84741,-0.34667 -0.34666,-0.36592 -0.34666,-0.86666 0,-0.48149 0.26963,-0.78963 l 4.85332,-4.85333 q 0.34667,-0.34667 0.86667,-0.34667 0.50074,0 0.84741,0.34667 0.34666,0.34667 0.34666,0.84741 0,0.23111 -0.077,0.46222 -0.077,0.21185 -0.25037,0.38518 l -4.85333,4.85333 z"
           style=""
           id="path4972" />
        <path
           d="m 293.89721,-873.84944 q 0,-3.48592 -2.44592,-5.93185 -2.46518,-2.46518 -5.93184,-2.46518 -3.46667,0 -5.93185,2.46518 -2.46518,2.46519 -2.46518,5.93185 0,3.46666 2.46518,5.93184 2.46518,2.46518 5.93185,2.46518 3.46666,0 5.93184,-2.46518 2.44592,-2.44592 2.44592,-5.93184 z m 0,-18.83553 q 0,-0.50074 0.34667,-0.84741 0.36592,-0.34667 0.86666,-0.34667 0.50074,0 0.84741,0.34667 0.34667,0.34667 0.34667,0.84741 l 0,18.83553 q 0,4.46814 -3.15852,7.62666 -3.15851,3.15851 -7.62665,3.15851 -4.46815,0 -7.62666,-3.15851 -3.15852,-3.15852 -3.15852,-7.62666 0,-4.46814 3.15852,-7.62666 3.15851,-3.15851 7.62666,-3.15851 4.46814,0 7.62665,3.15851 l 0.75111,0.75111 0,-11.95998 z"
           style=""
           id="path4974" />
        <path
           d="m 318.51052,-875.04351 q -0.53926,-2.86963 -2.40741,-4.73778 -2.46518,-2.46518 -5.93184,-2.46518 -3.46666,0 -5.93184,2.46518 -1.84889,1.84889 -2.42667,4.73778 l 16.69776,0 z m -2.19555,7.33776 q 0.50074,0 0.8474,0.36593 0.34667,0.34667 0.34667,0.84741 0,0.50074 -0.30815,0.82814 -3.00444,2.6 -7.02962,2.6 -4.46814,0 -7.62666,-3.15851 -3.15851,-3.15852 -3.15851,-7.62666 0,-4.46814 3.15851,-7.62666 3.15852,-3.15851 7.62666,-3.15851 4.46814,0 7.62666,3.15851 3.15851,3.15852 3.15851,7.62666 0,0.50074 -0.34666,0.8474 -0.34667,0.34667 -0.84741,0.34667 l -17.94961,0 q 0.57778,2.88889 2.42667,4.73777 2.46518,2.46518 5.93184,2.46518 1.57926,0 2.9274,-0.50074 1.34815,-0.51999 2.46519,-1.48296 0.3274,-0.26963 0.75111,-0.26963 z m -7.22222,-19.25923 q -0.3274,0.30815 -0.80888,0.30815 -0.50074,0 -0.84741,-0.34667 -0.34667,-0.36592 -0.34667,-0.86666 0,-0.48149 0.26963,-0.78963 l 4.85333,-4.85333 q 0.34667,-0.34667 0.86666,-0.34667 0.50074,0 0.84741,0.34667 0.34667,0.34667 0.34667,0.84741 0,0.23111 -0.077,0.46222 -0.077,0.21185 -0.25037,0.38518 l -4.85333,4.85333 z"
           style=""
           id="path4976" />
        <path
           d="m 345.60826,-873.84944 q 0,4.46814 -3.15852,7.62666 -3.15851,3.15851 -7.62665,3.15851 -4.46815,0 -7.62666,-3.15851 -3.15851,-3.15852 -3.15851,-7.62666 0,-4.46814 3.15851,-7.62666 3.15851,-3.15851 7.62666,-3.15851 4.46814,0 7.62665,3.15851 3.15852,3.15852 3.15852,7.62666 z m -10.78517,-8.39703 q -3.46666,0 -5.93185,2.46518 -2.46518,2.46519 -2.46518,5.93185 0,3.46666 2.46518,5.93184 2.46519,2.46518 5.93185,2.46518 3.46666,0 5.93184,-2.46518 2.44592,-2.44592 2.44592,-5.93184 0,-3.48592 -2.44592,-5.93185 -2.46518,-2.46518 -5.93184,-2.46518 z"
           style=""
           id="path4978" />
        <path
           d="m 348.709,-883.44054 q 0,-0.50074 0.34667,-0.84741 0.34666,-0.34666 0.8474,-0.34666 0.50074,0 0.84741,0.34666 0.34667,0.34667 0.34667,0.84741 l 0,2.23407 q 3.54369,-3.42814 7.58813,-3.42814 4.16,0 7.04888,2.9274 2.94667,2.9274 2.94667,7.06814 l 0,10.38073 q 0,0.50074 -0.36593,0.8474 -0.34667,0.34667 -0.84741,0.34667 -0.50074,0 -0.8474,-0.34667 -0.34667,-0.34666 -0.34667,-0.8474 l 0,-10.38073 q 0,-3.17777 -2.23407,-5.35407 -2.23407,-2.25333 -5.35407,-2.25333 -3.11999,0 -5.37332,2.25333 -2.21481,2.19556 -2.21481,5.35407 l 0,10.38073 q 0,0.50074 -0.34667,0.8474 -0.34667,0.34667 -0.84741,0.34667 -0.50074,0 -0.8474,-0.34667 -0.34667,-0.34666 -0.34667,-0.8474 l 0,-19.1822 z"
           style=""
           id="path4980" />
      </g>
    </g>
  </g>
</svg>
